<svg width="768" height="440" viewBox="0 0 768 440" fill="none" xmlns="http://www.w3.org/2000/svg">
<rect width="768" height="440" rx="24" fill="#F9FAFB"/>
<path d="M206.573 72L205.301 68.136H198.701L197.429 72H194.357L200.237 54.504H203.909L209.789 72H206.573ZM204.557 65.52L203.069 60.816C202.877 60.208 202.685 59.576 202.493 58.92C202.301 58.264 202.141 57.712 202.013 57.264C201.885 57.712 201.717 58.264 201.509 58.92C201.317 59.576 201.125 60.208 200.933 60.816L199.421 65.52H204.557ZM214.47 72L210.03 58.776H213.126L215.526 66.672C215.686 67.216 215.83 67.752 215.958 68.28C216.086 68.792 216.174 69.184 216.222 69.456C216.286 69.184 216.374 68.784 216.486 68.256C216.614 67.728 216.766 67.192 216.942 66.648L219.318 58.776H222.366L217.926 72H214.47ZM235.41 71.376C235.218 71.456 234.954 71.552 234.618 71.664C234.298 71.776 233.922 71.888 233.49 72C233.058 72.096 232.578 72.176 232.05 72.24C231.538 72.32 231.002 72.36 230.442 72.36C229.322 72.36 228.362 72.184 227.562 71.832C226.778 71.48 226.13 70.992 225.618 70.368C225.122 69.744 224.754 69.008 224.514 68.16C224.274 67.312 224.154 66.384 224.154 65.376C224.154 64.304 224.282 63.344 224.538 62.496C224.794 61.632 225.178 60.896 225.69 60.288C226.202 59.68 226.834 59.216 227.586 58.896C228.354 58.56 229.234 58.392 230.226 58.392C232.002 58.392 233.354 58.952 234.282 60.072C235.21 61.192 235.674 62.8 235.674 64.896C235.674 65.12 235.666 65.352 235.65 65.592C235.65 65.816 235.65 65.976 235.65 66.072H227.154C227.218 67.448 227.554 68.424 228.162 69C228.77 69.56 229.618 69.84 230.706 69.84C231.122 69.84 231.53 69.816 231.93 69.768C232.346 69.72 232.73 69.664 233.082 69.6C233.45 69.536 233.786 69.472 234.09 69.408C234.394 69.328 234.65 69.264 234.858 69.216L235.41 71.376ZM232.842 64.056C232.842 63.624 232.778 63.224 232.65 62.856C232.538 62.472 232.37 62.136 232.146 61.848C231.922 61.56 231.634 61.336 231.282 61.176C230.93 61 230.53 60.912 230.082 60.912C229.25 60.912 228.554 61.208 227.994 61.8C227.434 62.392 227.154 63.192 227.154 64.2L232.842 64.056ZM239.513 72V58.752H241.385L242.105 61.488C242.409 60.832 242.753 60.312 243.137 59.928C243.521 59.544 243.897 59.256 244.265 59.064C244.649 58.856 245.001 58.728 245.321 58.68C245.657 58.616 245.913 58.584 246.089 58.584C246.425 58.584 246.705 58.592 246.929 58.608C247.153 58.624 247.321 58.648 247.433 58.68L247.169 61.632C247.089 61.616 246.969 61.608 246.809 61.608C246.665 61.592 246.521 61.584 246.377 61.584C246.121 61.584 245.841 61.608 245.537 61.656C245.233 61.704 244.905 61.8 244.553 61.944C244.217 62.088 243.873 62.296 243.521 62.568C243.169 62.824 242.817 63.176 242.465 63.624V72H239.513ZM257.926 72L257.374 70.176C257.23 70.4 257.046 70.64 256.822 70.896C256.598 71.136 256.318 71.368 255.982 71.592C255.646 71.8 255.254 71.968 254.806 72.096C254.358 72.24 253.846 72.312 253.27 72.312C252.758 72.312 252.246 72.232 251.734 72.072C251.222 71.912 250.758 71.664 250.342 71.328C249.926 70.976 249.582 70.528 249.31 69.984C249.054 69.424 248.926 68.744 248.926 67.944C248.926 67.192 249.078 66.568 249.382 66.072C249.686 65.56 250.078 65.16 250.558 64.872C251.038 64.568 251.582 64.352 252.19 64.224C252.798 64.096 253.406 64.032 254.014 64.032H256.894V63.552C256.894 63.04 256.822 62.616 256.678 62.28C256.534 61.944 256.342 61.68 256.102 61.488C255.862 61.296 255.582 61.168 255.262 61.104C254.958 61.024 254.63 60.984 254.278 60.984C253.958 60.984 253.606 61.008 253.222 61.056C252.838 61.104 252.47 61.168 252.118 61.248C251.766 61.312 251.446 61.376 251.158 61.44C250.87 61.504 250.67 61.552 250.558 61.584L249.91 59.304C250.102 59.24 250.374 59.16 250.726 59.064C251.078 58.968 251.47 58.872 251.902 58.776C252.334 58.68 252.79 58.6 253.27 58.536C253.75 58.472 254.23 58.44 254.71 58.44C255.206 58.44 255.75 58.496 256.342 58.608C256.95 58.72 257.51 58.968 258.022 59.352C258.55 59.72 258.982 60.264 259.318 60.984C259.67 61.688 259.846 62.64 259.846 63.84V72H257.926ZM254.158 65.976C253.726 65.992 253.358 66.056 253.054 66.168C252.75 66.28 252.502 66.424 252.31 66.6C252.134 66.776 252.006 66.984 251.926 67.224C251.846 67.448 251.806 67.68 251.806 67.92C251.806 68.176 251.838 68.432 251.902 68.688C251.982 68.928 252.102 69.152 252.262 69.36C252.438 69.552 252.662 69.712 252.934 69.84C253.222 69.952 253.574 70.008 253.99 70.008C254.374 70.008 254.742 69.944 255.094 69.816C255.446 69.672 255.758 69.44 256.03 69.12C256.302 68.8 256.518 68.376 256.678 67.848C256.838 67.32 256.918 66.664 256.918 65.88L254.158 65.976ZM265.21 73.944C265.37 73.992 265.594 74.056 265.882 74.136C266.17 74.216 266.482 74.288 266.818 74.352C267.154 74.432 267.498 74.496 267.85 74.544C268.202 74.592 268.538 74.616 268.858 74.616C269.242 74.616 269.634 74.584 270.034 74.52C270.434 74.456 270.794 74.312 271.114 74.088C271.434 73.88 271.69 73.56 271.882 73.128C272.09 72.696 272.194 72.12 272.194 71.4V70.128C272.066 70.288 271.898 70.464 271.69 70.656C271.498 70.832 271.258 71.008 270.97 71.184C270.682 71.344 270.354 71.48 269.986 71.592C269.618 71.704 269.21 71.76 268.762 71.76C267.962 71.76 267.242 71.6 266.602 71.28C265.962 70.96 265.418 70.512 264.97 69.936C264.538 69.36 264.202 68.672 263.962 67.872C263.738 67.056 263.626 66.152 263.626 65.16C263.626 64.168 263.738 63.256 263.962 62.424C264.202 61.592 264.546 60.88 264.994 60.288C265.458 59.68 266.026 59.216 266.698 58.896C267.37 58.56 268.138 58.392 269.002 58.392C269.514 58.392 269.97 58.464 270.37 58.608C270.77 58.736 271.122 58.904 271.426 59.112C271.73 59.32 271.986 59.536 272.194 59.76C272.418 59.984 272.602 60.192 272.746 60.384L273.202 58.752H275.074V71.52C275.074 72.72 274.882 73.688 274.498 74.424C274.114 75.16 273.634 75.72 273.058 76.104C272.498 76.504 271.89 76.768 271.234 76.896C270.578 77.04 269.986 77.112 269.458 77.112C268.882 77.112 268.33 77.072 267.802 76.992C267.29 76.928 266.818 76.84 266.386 76.728C265.97 76.616 265.602 76.504 265.282 76.392C264.962 76.296 264.722 76.208 264.562 76.128L265.21 73.944ZM272.194 62.76C272.13 62.664 272.026 62.52 271.882 62.328C271.738 62.136 271.554 61.952 271.33 61.776C271.106 61.584 270.834 61.416 270.514 61.272C270.194 61.128 269.834 61.056 269.434 61.056C269.018 61.056 268.634 61.12 268.282 61.248C267.946 61.376 267.65 61.6 267.394 61.92C267.154 62.24 266.962 62.664 266.818 63.192C266.674 63.72 266.602 64.384 266.602 65.184C266.602 65.984 266.674 66.648 266.818 67.176C266.978 67.688 267.186 68.104 267.442 68.424C267.698 68.728 267.986 68.944 268.306 69.072C268.642 69.2 268.994 69.264 269.362 69.264C269.762 69.264 270.114 69.2 270.418 69.072C270.738 68.944 271.01 68.792 271.234 68.616C271.474 68.44 271.674 68.264 271.834 68.088C271.994 67.896 272.114 67.736 272.194 67.608V62.76ZM290.152 71.376C289.96 71.456 289.696 71.552 289.36 71.664C289.04 71.776 288.664 71.888 288.232 72C287.8 72.096 287.32 72.176 286.792 72.24C286.28 72.32 285.744 72.36 285.184 72.36C284.064 72.36 283.104 72.184 282.304 71.832C281.52 71.48 280.872 70.992 280.36 70.368C279.864 69.744 279.496 69.008 279.256 68.16C279.016 67.312 278.896 66.384 278.896 65.376C278.896 64.304 279.024 63.344 279.28 62.496C279.536 61.632 279.92 60.896 280.432 60.288C280.944 59.68 281.576 59.216 282.328 58.896C283.096 58.56 283.976 58.392 284.968 58.392C286.744 58.392 288.096 58.952 289.024 60.072C289.952 61.192 290.416 62.8 290.416 64.896C290.416 65.12 290.408 65.352 290.392 65.592C290.392 65.816 290.392 65.976 290.392 66.072H281.896C281.96 67.448 282.296 68.424 282.904 69C283.512 69.56 284.36 69.84 285.448 69.84C285.864 69.84 286.272 69.816 286.672 69.768C287.088 69.72 287.472 69.664 287.824 69.6C288.192 69.536 288.528 69.472 288.832 69.408C289.136 69.328 289.392 69.264 289.6 69.216L290.152 71.376ZM287.584 64.056C287.584 63.624 287.52 63.224 287.392 62.856C287.28 62.472 287.112 62.136 286.888 61.848C286.664 61.56 286.376 61.336 286.024 61.176C285.672 61 285.272 60.912 284.824 60.912C283.992 60.912 283.296 61.208 282.736 61.8C282.176 62.392 281.896 63.192 281.896 64.2L287.584 64.056ZM301.614 72V69.528H305.142V57.672L301.926 58.176L301.374 55.872L305.838 54.72H308.142V69.528H311.55V72H301.614ZM324.419 72L320.843 58.776H323.915L325.619 66.12C325.779 66.824 325.907 67.472 326.003 68.064C326.099 68.64 326.171 69.096 326.219 69.432C326.267 69.096 326.339 68.64 326.435 68.064C326.531 67.472 326.659 66.824 326.819 66.12L328.499 58.776H331.451L333.179 66.12C333.355 66.84 333.491 67.504 333.587 68.112C333.683 68.72 333.747 69.152 333.779 69.408C333.811 69.168 333.875 68.744 333.971 68.136C334.083 67.512 334.227 66.832 334.403 66.096L336.083 58.776H339.083L335.387 72H332.219L330.395 65.064C330.331 64.824 330.267 64.552 330.203 64.248C330.155 63.944 330.107 63.648 330.059 63.36C330.011 63.056 329.963 62.776 329.915 62.52C329.883 62.264 329.859 62.064 329.843 61.92L329.771 62.496C329.739 62.752 329.699 63.032 329.651 63.336C329.619 63.64 329.571 63.944 329.507 64.248C329.459 64.552 329.403 64.824 329.339 65.064L327.563 72H324.419ZM352.387 71.376C352.195 71.456 351.931 71.552 351.595 71.664C351.275 71.776 350.899 71.888 350.467 72C350.035 72.096 349.555 72.176 349.027 72.24C348.515 72.32 347.979 72.36 347.419 72.36C346.299 72.36 345.339 72.184 344.539 71.832C343.755 71.48 343.107 70.992 342.595 70.368C342.099 69.744 341.731 69.008 341.491 68.16C341.251 67.312 341.131 66.384 341.131 65.376C341.131 64.304 341.259 63.344 341.515 62.496C341.771 61.632 342.155 60.896 342.667 60.288C343.179 59.68 343.811 59.216 344.563 58.896C345.331 58.56 346.211 58.392 347.203 58.392C348.979 58.392 350.331 58.952 351.259 60.072C352.187 61.192 352.651 62.8 352.651 64.896C352.651 65.12 352.643 65.352 352.627 65.592C352.627 65.816 352.627 65.976 352.627 66.072H344.131C344.195 67.448 344.531 68.424 345.139 69C345.747 69.56 346.595 69.84 347.683 69.84C348.099 69.84 348.507 69.816 348.907 69.768C349.323 69.72 349.707 69.664 350.059 69.6C350.427 69.536 350.763 69.472 351.067 69.408C351.371 69.328 351.627 69.264 351.835 69.216L352.387 71.376ZM349.819 64.056C349.819 63.624 349.755 63.224 349.627 62.856C349.515 62.472 349.347 62.136 349.123 61.848C348.899 61.56 348.611 61.336 348.259 61.176C347.907 61 347.507 60.912 347.059 60.912C346.227 60.912 345.531 61.208 344.971 61.8C344.411 62.392 344.131 63.192 344.131 64.2L349.819 64.056ZM367.098 71.376C366.906 71.456 366.642 71.552 366.306 71.664C365.986 71.776 365.61 71.888 365.178 72C364.746 72.096 364.266 72.176 363.738 72.24C363.226 72.32 362.69 72.36 362.13 72.36C361.01 72.36 360.05 72.184 359.25 71.832C358.466 71.48 357.818 70.992 357.306 70.368C356.81 69.744 356.442 69.008 356.202 68.16C355.962 67.312 355.842 66.384 355.842 65.376C355.842 64.304 355.97 63.344 356.226 62.496C356.482 61.632 356.866 60.896 357.378 60.288C357.89 59.68 358.522 59.216 359.274 58.896C360.042 58.56 360.922 58.392 361.914 58.392C363.69 58.392 365.042 58.952 365.97 60.072C366.898 61.192 367.362 62.8 367.362 64.896C367.362 65.12 367.354 65.352 367.338 65.592C367.338 65.816 367.338 65.976 367.338 66.072H358.842C358.906 67.448 359.242 68.424 359.85 69C360.458 69.56 361.306 69.84 362.394 69.84C362.81 69.84 363.218 69.816 363.618 69.768C364.034 69.72 364.418 69.664 364.77 69.6C365.138 69.536 365.474 69.472 365.778 69.408C366.082 69.328 366.338 69.264 366.546 69.216L367.098 71.376ZM364.53 64.056C364.53 63.624 364.466 63.224 364.338 62.856C364.226 62.472 364.058 62.136 363.834 61.848C363.61 61.56 363.322 61.336 362.97 61.176C362.618 61 362.218 60.912 361.77 60.912C360.938 60.912 360.242 61.208 359.682 61.8C359.122 62.392 358.842 63.192 358.842 64.2L364.53 64.056ZM379.505 72L375.617 66.528L374.129 68.256V72H371.201V53.712H374.129V62.568C374.129 62.856 374.121 63.144 374.105 63.432C374.105 63.72 374.097 63.992 374.081 64.248C374.081 64.504 374.073 64.728 374.057 64.92C374.041 65.112 374.033 65.256 374.033 65.352C374.065 65.272 374.137 65.136 374.249 64.944C374.361 64.752 374.489 64.536 374.633 64.296C374.793 64.056 374.961 63.816 375.137 63.576C375.329 63.32 375.513 63.08 375.689 62.856L379.049 58.776H382.529L377.705 64.44L382.985 72H379.505ZM392.937 73.944C393.097 73.992 393.321 74.056 393.609 74.136C393.897 74.216 394.209 74.288 394.545 74.352C394.881 74.432 395.225 74.496 395.577 74.544C395.929 74.592 396.265 74.616 396.585 74.616C396.969 74.616 397.361 74.584 397.761 74.52C398.161 74.456 398.521 74.312 398.841 74.088C399.161 73.88 399.417 73.56 399.609 73.128C399.817 72.696 399.921 72.12 399.921 71.4V70.128C399.793 70.288 399.625 70.464 399.417 70.656C399.225 70.832 398.985 71.008 398.697 71.184C398.409 71.344 398.081 71.48 397.713 71.592C397.345 71.704 396.937 71.76 396.489 71.76C395.689 71.76 394.969 71.6 394.329 71.28C393.689 70.96 393.145 70.512 392.697 69.936C392.265 69.36 391.929 68.672 391.689 67.872C391.465 67.056 391.353 66.152 391.353 65.16C391.353 64.168 391.465 63.256 391.689 62.424C391.929 61.592 392.273 60.88 392.721 60.288C393.185 59.68 393.753 59.216 394.425 58.896C395.097 58.56 395.865 58.392 396.729 58.392C397.241 58.392 397.697 58.464 398.097 58.608C398.497 58.736 398.849 58.904 399.153 59.112C399.457 59.32 399.713 59.536 399.921 59.76C400.145 59.984 400.329 60.192 400.473 60.384L400.929 58.752H402.801V71.52C402.801 72.72 402.609 73.688 402.225 74.424C401.841 75.16 401.361 75.72 400.785 76.104C400.225 76.504 399.617 76.768 398.961 76.896C398.305 77.04 397.713 77.112 397.185 77.112C396.609 77.112 396.057 77.072 395.529 76.992C395.017 76.928 394.545 76.84 394.113 76.728C393.697 76.616 393.329 76.504 393.009 76.392C392.689 76.296 392.449 76.208 392.289 76.128L392.937 73.944ZM399.921 62.76C399.857 62.664 399.753 62.52 399.609 62.328C399.465 62.136 399.281 61.952 399.057 61.776C398.833 61.584 398.561 61.416 398.241 61.272C397.921 61.128 397.561 61.056 397.161 61.056C396.745 61.056 396.361 61.12 396.009 61.248C395.673 61.376 395.377 61.6 395.121 61.92C394.881 62.24 394.689 62.664 394.545 63.192C394.401 63.72 394.329 64.384 394.329 65.184C394.329 65.984 394.401 66.648 394.545 67.176C394.705 67.688 394.913 68.104 395.169 68.424C395.425 68.728 395.713 68.944 396.033 69.072C396.369 69.2 396.721 69.264 397.089 69.264C397.489 69.264 397.841 69.2 398.145 69.072C398.465 68.944 398.737 68.792 398.961 68.616C399.201 68.44 399.401 68.264 399.561 68.088C399.721 67.896 399.841 67.736 399.921 67.608V62.76ZM415.239 72L414.687 70.176C414.543 70.4 414.359 70.64 414.135 70.896C413.911 71.136 413.631 71.368 413.295 71.592C412.959 71.8 412.567 71.968 412.119 72.096C411.671 72.24 411.159 72.312 410.583 72.312C410.071 72.312 409.559 72.232 409.047 72.072C408.535 71.912 408.071 71.664 407.655 71.328C407.239 70.976 406.895 70.528 406.623 69.984C406.367 69.424 406.239 68.744 406.239 67.944C406.239 67.192 406.391 66.568 406.695 66.072C406.999 65.56 407.391 65.16 407.871 64.872C408.351 64.568 408.895 64.352 409.503 64.224C410.111 64.096 410.719 64.032 411.327 64.032H414.207V63.552C414.207 63.04 414.135 62.616 413.991 62.28C413.847 61.944 413.655 61.68 413.415 61.488C413.175 61.296 412.895 61.168 412.575 61.104C412.271 61.024 411.943 60.984 411.591 60.984C411.271 60.984 410.919 61.008 410.535 61.056C410.151 61.104 409.783 61.168 409.431 61.248C409.079 61.312 408.759 61.376 408.471 61.44C408.183 61.504 407.983 61.552 407.871 61.584L407.223 59.304C407.415 59.24 407.687 59.16 408.039 59.064C408.391 58.968 408.783 58.872 409.215 58.776C409.647 58.68 410.103 58.6 410.583 58.536C411.063 58.472 411.543 58.44 412.023 58.44C412.519 58.44 413.063 58.496 413.655 58.608C414.263 58.72 414.823 58.968 415.335 59.352C415.863 59.72 416.295 60.264 416.631 60.984C416.983 61.688 417.159 62.64 417.159 63.84V72H415.239ZM411.471 65.976C411.039 65.992 410.671 66.056 410.367 66.168C410.063 66.28 409.815 66.424 409.623 66.6C409.447 66.776 409.319 66.984 409.239 67.224C409.159 67.448 409.119 67.68 409.119 67.92C409.119 68.176 409.151 68.432 409.215 68.688C409.295 68.928 409.415 69.152 409.575 69.36C409.751 69.552 409.975 69.712 410.247 69.84C410.535 69.952 410.887 70.008 411.303 70.008C411.687 70.008 412.055 69.944 412.407 69.816C412.759 69.672 413.071 69.44 413.343 69.12C413.615 68.8 413.831 68.376 413.991 67.848C414.151 67.32 414.231 66.664 414.231 65.88L411.471 65.976ZM421.563 72V58.752H424.515V72H421.563ZM421.203 55.584C421.203 54.976 421.331 54.56 421.587 54.336C421.859 54.112 422.339 54 423.027 54C423.699 54 424.163 54.112 424.419 54.336C424.691 54.56 424.827 54.976 424.827 55.584C424.827 56.176 424.691 56.584 424.419 56.808C424.163 57.016 423.699 57.12 423.027 57.12C422.339 57.12 421.859 57.016 421.587 56.808C421.331 56.584 421.203 56.176 421.203 55.584ZM437.139 72V64.32C437.139 63.968 437.123 63.608 437.091 63.24C437.059 62.856 436.979 62.512 436.851 62.208C436.723 61.888 436.523 61.632 436.251 61.44C435.979 61.248 435.595 61.152 435.099 61.152C434.507 61.152 433.955 61.304 433.443 61.608C432.947 61.896 432.475 62.256 432.027 62.688V72H429.099V58.752H430.995L431.499 60.648C431.739 60.376 432.003 60.104 432.291 59.832C432.595 59.56 432.923 59.32 433.275 59.112C433.627 58.888 434.011 58.712 434.427 58.584C434.859 58.456 435.315 58.392 435.795 58.392C437.251 58.392 438.323 58.84 439.011 59.736C439.715 60.616 440.067 61.88 440.067 63.528V72H437.139ZM444.181 69.192C444.341 69.24 444.573 69.304 444.877 69.384C445.197 69.464 445.549 69.544 445.933 69.624C446.333 69.688 446.757 69.752 447.205 69.816C447.669 69.864 448.117 69.888 448.549 69.888C449.317 69.888 449.909 69.768 450.325 69.528C450.741 69.288 450.949 68.904 450.949 68.376C450.949 68.104 450.901 67.88 450.805 67.704C450.725 67.512 450.573 67.352 450.349 67.224C450.125 67.08 449.813 66.96 449.413 66.864C449.013 66.752 448.501 66.632 447.877 66.504C446.469 66.232 445.413 65.784 444.709 65.16C444.021 64.536 443.677 63.608 443.677 62.376C443.677 61.752 443.797 61.2 444.037 60.72C444.293 60.224 444.645 59.808 445.093 59.472C445.541 59.12 446.077 58.856 446.701 58.68C447.341 58.488 448.045 58.392 448.813 58.392C449.741 58.392 450.597 58.472 451.381 58.632C452.165 58.776 452.861 58.96 453.469 59.184L452.869 61.392C452.725 61.344 452.517 61.296 452.245 61.248C451.973 61.184 451.661 61.12 451.309 61.056C450.957 60.992 450.581 60.944 450.181 60.912C449.797 60.864 449.429 60.84 449.077 60.84C447.429 60.84 446.605 61.32 446.605 62.28C446.605 62.552 446.661 62.776 446.773 62.952C446.885 63.128 447.061 63.28 447.301 63.408C447.541 63.52 447.853 63.624 448.237 63.72C448.637 63.816 449.125 63.92 449.701 64.032C450.357 64.16 450.941 64.32 451.453 64.512C451.981 64.704 452.421 64.96 452.773 65.28C453.141 65.584 453.413 65.96 453.589 66.408C453.781 66.84 453.877 67.368 453.877 67.992C453.877 69.352 453.413 70.424 452.485 71.208C451.557 71.976 450.293 72.36 448.693 72.36C448.085 72.36 447.509 72.32 446.965 72.24C446.421 72.16 445.925 72.072 445.477 71.976C445.045 71.864 444.661 71.76 444.325 71.664C444.005 71.552 443.757 71.472 443.581 71.424L444.181 69.192ZM475.023 65.376C475.023 66.416 474.887 67.368 474.615 68.232C474.359 69.08 473.975 69.816 473.463 70.44C472.967 71.048 472.335 71.52 471.567 71.856C470.815 72.192 469.951 72.36 468.975 72.36C467.999 72.36 467.135 72.192 466.383 71.856C465.631 71.52 464.999 71.048 464.487 70.44C463.991 69.816 463.607 69.08 463.335 68.232C463.079 67.368 462.951 66.416 462.951 65.376C462.951 64.336 463.079 63.392 463.335 62.544C463.607 61.68 463.991 60.944 464.487 60.336C464.999 59.712 465.631 59.232 466.383 58.896C467.135 58.56 467.999 58.392 468.975 58.392C469.951 58.392 470.815 58.56 471.567 58.896C472.335 59.232 472.967 59.712 473.463 60.336C473.975 60.944 474.359 61.68 474.615 62.544C474.887 63.392 475.023 64.336 475.023 65.376ZM472.047 65.376C472.047 64.512 471.975 63.8 471.831 63.24C471.687 62.68 471.479 62.24 471.207 61.92C470.935 61.584 470.607 61.352 470.223 61.224C469.855 61.08 469.439 61.008 468.975 61.008C468.511 61.008 468.095 61.08 467.727 61.224C467.359 61.352 467.039 61.584 466.767 61.92C466.495 62.24 466.287 62.68 466.143 63.24C465.999 63.8 465.927 64.512 465.927 65.376C465.927 66.224 465.999 66.928 466.143 67.488C466.287 68.032 466.495 68.472 466.767 68.808C467.039 69.144 467.359 69.384 467.727 69.528C468.095 69.656 468.511 69.72 468.975 69.72C469.439 69.72 469.855 69.656 470.223 69.528C470.607 69.384 470.935 69.144 471.207 68.808C471.479 68.472 471.687 68.032 471.831 67.488C471.975 66.928 472.047 66.224 472.047 65.376ZM486.866 72V64.32C486.866 63.968 486.85 63.608 486.818 63.24C486.786 62.856 486.706 62.512 486.578 62.208C486.45 61.888 486.25 61.632 485.978 61.44C485.706 61.248 485.322 61.152 484.826 61.152C484.234 61.152 483.682 61.304 483.17 61.608C482.674 61.896 482.202 62.256 481.754 62.688V72H478.826V58.752H480.722L481.226 60.648C481.466 60.376 481.73 60.104 482.018 59.832C482.322 59.56 482.65 59.32 483.002 59.112C483.354 58.888 483.738 58.712 484.154 58.584C484.586 58.456 485.042 58.392 485.522 58.392C486.978 58.392 488.05 58.84 488.738 59.736C489.442 60.616 489.794 61.88 489.794 63.528V72H486.866ZM500.163 72V53.712H503.091V72H500.163ZM507.703 72V58.752H510.655V72H507.703ZM507.343 55.584C507.343 54.976 507.471 54.56 507.727 54.336C507.999 54.112 508.479 54 509.167 54C509.839 54 510.303 54.112 510.559 54.336C510.831 54.56 510.967 54.976 510.967 55.584C510.967 56.176 510.831 56.584 510.559 56.808C510.303 57.016 509.839 57.12 509.167 57.12C508.479 57.12 507.999 57.016 507.727 56.808C507.471 56.584 507.343 56.176 507.343 55.584ZM515.072 69.192C515.232 69.24 515.464 69.304 515.768 69.384C516.088 69.464 516.44 69.544 516.824 69.624C517.224 69.688 517.648 69.752 518.096 69.816C518.56 69.864 519.008 69.888 519.44 69.888C520.208 69.888 520.8 69.768 521.216 69.528C521.632 69.288 521.84 68.904 521.84 68.376C521.84 68.104 521.792 67.88 521.696 67.704C521.616 67.512 521.464 67.352 521.24 67.224C521.016 67.08 520.704 66.96 520.304 66.864C519.904 66.752 519.392 66.632 518.768 66.504C517.36 66.232 516.304 65.784 515.6 65.16C514.912 64.536 514.568 63.608 514.568 62.376C514.568 61.752 514.688 61.2 514.928 60.72C515.184 60.224 515.536 59.808 515.984 59.472C516.432 59.12 516.968 58.856 517.592 58.68C518.232 58.488 518.936 58.392 519.704 58.392C520.632 58.392 521.488 58.472 522.272 58.632C523.056 58.776 523.752 58.96 524.36 59.184L523.76 61.392C523.616 61.344 523.408 61.296 523.136 61.248C522.864 61.184 522.552 61.12 522.2 61.056C521.848 60.992 521.472 60.944 521.072 60.912C520.688 60.864 520.32 60.84 519.968 60.84C518.32 60.84 517.496 61.32 517.496 62.28C517.496 62.552 517.552 62.776 517.664 62.952C517.776 63.128 517.952 63.28 518.192 63.408C518.432 63.52 518.744 63.624 519.128 63.72C519.528 63.816 520.016 63.92 520.592 64.032C521.248 64.16 521.832 64.32 522.344 64.512C522.872 64.704 523.312 64.96 523.664 65.28C524.032 65.584 524.304 65.96 524.48 66.408C524.672 66.84 524.768 67.368 524.768 67.992C524.768 69.352 524.304 70.424 523.376 71.208C522.448 71.976 521.184 72.36 519.584 72.36C518.976 72.36 518.4 72.32 517.856 72.24C517.312 72.16 516.816 72.072 516.368 71.976C515.936 71.864 515.552 71.76 515.216 71.664C514.896 71.552 514.648 71.472 514.472 71.424L515.072 69.192ZM535.101 71.592C534.781 71.72 534.341 71.872 533.781 72.048C533.221 72.24 532.613 72.336 531.957 72.336C531.669 72.336 531.341 72.288 530.973 72.192C530.605 72.096 530.261 71.912 529.941 71.64C529.621 71.352 529.349 70.96 529.125 70.464C528.917 69.952 528.813 69.288 528.813 68.472V61.296H526.869V59.256L528.861 58.752L529.245 55.944L531.765 55.224V58.752H534.669V61.296H531.765V68.544C531.765 69.056 531.877 69.392 532.101 69.552C532.325 69.712 532.565 69.792 532.821 69.792C533.141 69.792 533.437 69.76 533.709 69.696C533.981 69.616 534.245 69.528 534.501 69.432L535.101 71.592ZM538.219 72V58.752H541.171V72H538.219ZM537.859 55.584C537.859 54.976 537.987 54.56 538.243 54.336C538.515 54.112 538.995 54 539.683 54C540.355 54 540.819 54.112 541.075 54.336C541.347 54.56 541.483 54.976 541.483 55.584C541.483 56.176 541.347 56.584 541.075 56.808C540.819 57.016 540.355 57.12 539.683 57.12C538.995 57.12 538.515 57.016 538.243 56.808C537.987 56.584 537.859 56.176 537.859 55.584ZM553.795 72V64.32C553.795 63.968 553.779 63.608 553.747 63.24C553.715 62.856 553.635 62.512 553.507 62.208C553.379 61.888 553.179 61.632 552.907 61.44C552.635 61.248 552.251 61.152 551.755 61.152C551.163 61.152 550.611 61.304 550.099 61.608C549.603 61.896 549.131 62.256 548.683 62.688V72H545.755V58.752H547.651L548.155 60.648C548.395 60.376 548.659 60.104 548.947 59.832C549.251 59.56 549.579 59.32 549.931 59.112C550.283 58.888 550.667 58.712 551.083 58.584C551.515 58.456 551.971 58.392 552.451 58.392C553.907 58.392 554.979 58.84 555.667 59.736C556.371 60.616 556.723 61.88 556.723 63.528V72H553.795ZM562.085 73.944C562.245 73.992 562.469 74.056 562.757 74.136C563.045 74.216 563.357 74.288 563.693 74.352C564.029 74.432 564.373 74.496 564.725 74.544C565.077 74.592 565.413 74.616 565.733 74.616C566.117 74.616 566.509 74.584 566.909 74.52C567.309 74.456 567.669 74.312 567.989 74.088C568.309 73.88 568.565 73.56 568.757 73.128C568.965 72.696 569.069 72.12 569.069 71.4V70.128C568.941 70.288 568.773 70.464 568.565 70.656C568.373 70.832 568.133 71.008 567.845 71.184C567.557 71.344 567.229 71.48 566.861 71.592C566.493 71.704 566.085 71.76 565.637 71.76C564.837 71.76 564.117 71.6 563.477 71.28C562.837 70.96 562.293 70.512 561.845 69.936C561.413 69.36 561.077 68.672 560.837 67.872C560.613 67.056 560.501 66.152 560.501 65.16C560.501 64.168 560.613 63.256 560.837 62.424C561.077 61.592 561.421 60.88 561.869 60.288C562.333 59.68 562.901 59.216 563.573 58.896C564.245 58.56 565.013 58.392 565.877 58.392C566.389 58.392 566.845 58.464 567.245 58.608C567.645 58.736 567.997 58.904 568.301 59.112C568.605 59.32 568.861 59.536 569.069 59.76C569.293 59.984 569.477 60.192 569.621 60.384L570.077 58.752H571.949V71.52C571.949 72.72 571.757 73.688 571.373 74.424C570.989 75.16 570.509 75.72 569.933 76.104C569.373 76.504 568.765 76.768 568.109 76.896C567.453 77.04 566.861 77.112 566.333 77.112C565.757 77.112 565.205 77.072 564.677 76.992C564.165 76.928 563.693 76.84 563.261 76.728C562.845 76.616 562.477 76.504 562.157 76.392C561.837 76.296 561.597 76.208 561.437 76.128L562.085 73.944ZM569.069 62.76C569.005 62.664 568.901 62.52 568.757 62.328C568.613 62.136 568.429 61.952 568.205 61.776C567.981 61.584 567.709 61.416 567.389 61.272C567.069 61.128 566.709 61.056 566.309 61.056C565.893 61.056 565.509 61.12 565.157 61.248C564.821 61.376 564.525 61.6 564.269 61.92C564.029 62.24 563.837 62.664 563.693 63.192C563.549 63.72 563.477 64.384 563.477 65.184C563.477 65.984 563.549 66.648 563.693 67.176C563.853 67.688 564.061 68.104 564.317 68.424C564.573 68.728 564.861 68.944 565.181 69.072C565.517 69.2 565.869 69.264 566.237 69.264C566.637 69.264 566.989 69.2 567.293 69.072C567.613 68.944 567.885 68.792 568.109 68.616C568.349 68.44 568.549 68.264 568.709 68.088C568.869 67.896 568.989 67.736 569.069 67.608V62.76Z" fill="#708DAF"/>
<g clip-path="url(#clip0_56_631)">
<path d="M119.593 229V227.608L121.873 225.532C122.185 225.244 122.449 224.992 122.665 224.776C122.889 224.56 123.069 224.36 123.205 224.176C123.341 223.984 123.441 223.796 123.505 223.612C123.569 223.428 123.601 223.224 123.601 223C123.601 222.544 123.449 222.2 123.145 221.968C122.841 221.728 122.469 221.608 122.029 221.608C121.813 221.608 121.593 221.624 121.369 221.656C121.153 221.688 120.945 221.728 120.745 221.776C120.553 221.816 120.381 221.86 120.229 221.908C120.077 221.948 119.965 221.98 119.893 222.004L119.557 220.768C119.629 220.744 119.753 220.704 119.929 220.648C120.105 220.592 120.313 220.536 120.553 220.48C120.793 220.416 121.057 220.364 121.345 220.324C121.633 220.276 121.921 220.252 122.209 220.252C122.513 220.252 122.837 220.3 123.181 220.396C123.533 220.484 123.853 220.636 124.141 220.852C124.437 221.068 124.681 221.356 124.872 221.716C125.073 222.068 125.173 222.504 125.173 223.024C125.173 223.504 125.069 223.94 124.861 224.332C124.661 224.716 124.405 225.072 124.093 225.4C123.789 225.728 123.453 226.032 123.085 226.312C122.717 226.584 122.373 226.848 122.053 227.104L121.309 227.692C121.381 227.692 121.473 227.688 121.585 227.68C121.697 227.672 121.813 227.668 121.933 227.668C122.053 227.66 122.169 227.656 122.281 227.656C122.393 227.648 122.485 227.644 122.557 227.644H125.257V229H119.593ZM134.307 224.548C134.307 225.38 134.207 226.088 134.007 226.672C133.807 227.248 133.535 227.724 133.191 228.1C132.855 228.468 132.455 228.736 131.991 228.904C131.535 229.072 131.051 229.156 130.539 229.156C130.331 229.156 130.119 229.14 129.903 229.108C129.687 229.076 129.487 229.04 129.303 229C129.119 228.96 128.955 228.916 128.811 228.868L128.487 228.76L128.823 227.524L129.075 227.596C129.187 227.628 129.315 227.66 129.459 227.692C129.603 227.724 129.763 227.752 129.939 227.776C130.115 227.8 130.299 227.812 130.491 227.812C130.675 227.812 130.891 227.78 131.139 227.716C131.395 227.652 131.635 227.528 131.859 227.344C132.091 227.16 132.291 226.904 132.459 226.576C132.627 226.24 132.719 225.804 132.735 225.268C132.671 225.308 132.571 225.364 132.435 225.436C132.299 225.5 132.139 225.564 131.955 225.628C131.771 225.692 131.563 225.748 131.331 225.796C131.107 225.836 130.871 225.856 130.623 225.856C130.215 225.856 129.843 225.796 129.507 225.676C129.171 225.548 128.883 225.368 128.643 225.136C128.411 224.904 128.227 224.62 128.091 224.284C127.963 223.94 127.899 223.556 127.899 223.132C127.899 222.716 127.983 222.332 128.151 221.98C128.327 221.62 128.559 221.316 128.847 221.068C129.135 220.812 129.467 220.612 129.843 220.468C130.219 220.324 130.615 220.252 131.031 220.252C131.447 220.252 131.851 220.328 132.243 220.48C132.635 220.624 132.983 220.864 133.287 221.2C133.591 221.536 133.835 221.98 134.019 222.532C134.211 223.076 134.307 223.748 134.307 224.548ZM132.747 224.212C132.747 223.7 132.687 223.276 132.567 222.94C132.455 222.596 132.311 222.328 132.135 222.136C131.967 221.936 131.779 221.796 131.571 221.716C131.363 221.636 131.167 221.596 130.983 221.596C130.799 221.596 130.615 221.632 130.431 221.704C130.247 221.768 130.075 221.868 129.915 222.004C129.763 222.132 129.639 222.292 129.543 222.484C129.447 222.676 129.399 222.9 129.399 223.156C129.399 223.412 129.439 223.636 129.519 223.828C129.607 224.02 129.723 224.18 129.867 224.308C130.011 224.436 130.175 224.532 130.359 224.596C130.543 224.652 130.731 224.68 130.923 224.68C131.083 224.68 131.251 224.664 131.427 224.632C131.611 224.592 131.783 224.548 131.943 224.5C132.111 224.452 132.263 224.404 132.399 224.356C132.543 224.3 132.659 224.252 132.747 224.212ZM147.486 226.552C147.486 227.352 147.298 227.988 146.922 228.46C146.554 228.924 145.994 229.156 145.242 229.156C144.498 229.156 143.938 228.924 143.562 228.46C143.194 227.988 143.01 227.352 143.01 226.552C143.01 225.76 143.198 225.128 143.574 224.656C143.958 224.184 144.522 223.948 145.266 223.948C146.002 223.948 146.554 224.184 146.922 224.656C147.298 225.128 147.486 225.76 147.486 226.552ZM140.682 229H139.494L143.43 220.408H144.618L140.682 229ZM141.09 222.856C141.09 223.656 140.902 224.292 140.526 224.764C140.15 225.228 139.59 225.46 138.846 225.46C138.102 225.46 137.542 225.228 137.166 224.764C136.798 224.292 136.614 223.656 136.614 222.856C136.614 222.064 136.802 221.432 137.178 220.96C137.554 220.488 138.11 220.252 138.846 220.252C139.582 220.252 140.138 220.488 140.514 220.96C140.898 221.432 141.09 222.064 141.09 222.856ZM146.238 226.552C146.238 226.232 146.21 225.972 146.154 225.772C146.106 225.564 146.034 225.404 145.938 225.292C145.85 225.18 145.746 225.104 145.626 225.064C145.506 225.024 145.378 225.004 145.242 225.004C145.106 225.004 144.978 225.024 144.858 225.064C144.738 225.104 144.634 225.18 144.546 225.292C144.458 225.404 144.386 225.564 144.33 225.772C144.282 225.972 144.258 226.232 144.258 226.552C144.258 226.88 144.282 227.144 144.33 227.344C144.386 227.544 144.458 227.7 144.546 227.812C144.634 227.924 144.738 228 144.858 228.04C144.978 228.08 145.106 228.1 145.242 228.1C145.378 228.1 145.506 228.08 145.626 228.04C145.746 228 145.85 227.924 145.938 227.812C146.034 227.7 146.106 227.544 146.154 227.344C146.21 227.144 146.238 226.88 146.238 226.552ZM139.83 222.856C139.83 222.536 139.802 222.276 139.746 222.076C139.698 221.868 139.63 221.708 139.542 221.596C139.454 221.484 139.35 221.408 139.23 221.368C139.11 221.328 138.982 221.308 138.846 221.308C138.71 221.308 138.582 221.328 138.462 221.368C138.35 221.408 138.246 221.484 138.15 221.596C138.062 221.708 137.99 221.868 137.934 222.076C137.886 222.276 137.862 222.536 137.862 222.856C137.862 223.184 137.886 223.448 137.934 223.648C137.99 223.848 138.062 224.004 138.15 224.116C138.246 224.228 138.35 224.304 138.462 224.344C138.582 224.384 138.71 224.404 138.846 224.404C138.982 224.404 139.11 224.384 139.23 224.344C139.35 224.304 139.454 224.228 139.542 224.116C139.63 224.004 139.698 223.848 139.746 223.648C139.802 223.448 139.83 223.184 139.83 222.856Z" fill="#2E2A2A"/>
<path d="M109.5 249C109.5 244.582 113.082 241 117.5 241H149.5C153.918 241 157.5 244.582 157.5 249V319H109.5V249Z" fill="#1F314A"/>
</g>
<g clip-path="url(#clip1_56_631)">
<path d="M172.621 157.14V159H171.145V157.14H167.185V155.676L171.157 150.408H172.621V155.82H173.857V157.14H172.621ZM171.205 153.252C171.205 153.156 171.205 153.056 171.205 152.952C171.213 152.84 171.217 152.732 171.217 152.628C171.225 152.524 171.233 152.428 171.241 152.34C171.249 152.244 171.257 152.164 171.265 152.1C171.209 152.204 171.117 152.36 170.989 152.568C170.861 152.768 170.741 152.948 170.629 153.108L169.057 155.196C169.009 155.26 168.953 155.328 168.889 155.4C168.833 155.464 168.769 155.532 168.697 155.604C168.633 155.668 168.569 155.728 168.505 155.784C168.449 155.84 168.405 155.884 168.373 155.916C168.533 155.908 168.693 155.9 168.853 155.892C169.021 155.876 169.193 155.868 169.369 155.868H171.205V153.252ZM182.403 156.264C182.403 156.704 182.323 157.104 182.163 157.464C182.003 157.816 181.779 158.12 181.491 158.376C181.211 158.624 180.879 158.816 180.495 158.952C180.111 159.088 179.691 159.156 179.235 159.156C178.763 159.156 178.327 159.076 177.927 158.916C177.535 158.748 177.195 158.488 176.907 158.136C176.619 157.784 176.395 157.336 176.235 156.792C176.075 156.24 175.995 155.58 175.995 154.812C175.995 154.084 176.083 153.436 176.259 152.868C176.435 152.3 176.683 151.824 177.003 151.44C177.331 151.048 177.723 150.752 178.179 150.552C178.635 150.352 179.143 150.252 179.703 150.252C179.935 150.252 180.159 150.268 180.375 150.3C180.599 150.332 180.803 150.372 180.987 150.42C181.179 150.46 181.347 150.504 181.491 150.552L181.815 150.66L181.479 151.896L181.227 151.824C181.115 151.792 180.987 151.76 180.843 151.728C180.699 151.696 180.539 151.668 180.363 151.644C180.187 151.62 180.003 151.608 179.811 151.608C179.651 151.608 179.447 151.644 179.199 151.716C178.959 151.788 178.719 151.92 178.479 152.112C178.247 152.296 178.043 152.556 177.867 152.892C177.699 153.22 177.607 153.648 177.591 154.176C177.655 154.128 177.747 154.068 177.867 153.996C177.995 153.924 178.147 153.856 178.323 153.792C178.507 153.728 178.711 153.672 178.935 153.624C179.167 153.576 179.423 153.552 179.703 153.552C180.055 153.552 180.391 153.616 180.711 153.744C181.039 153.864 181.327 154.04 181.575 154.272C181.831 154.504 182.031 154.788 182.175 155.124C182.327 155.46 182.403 155.84 182.403 156.264ZM180.903 156.312C180.903 156.072 180.859 155.856 180.771 155.664C180.683 155.464 180.567 155.3 180.423 155.172C180.279 155.036 180.107 154.932 179.907 154.86C179.715 154.788 179.511 154.752 179.295 154.752C179.127 154.752 178.955 154.772 178.779 154.812C178.603 154.844 178.435 154.884 178.275 154.932C178.123 154.98 177.983 155.032 177.855 155.088C177.735 155.136 177.639 155.18 177.567 155.22C177.567 155.764 177.627 156.208 177.747 156.552C177.867 156.888 178.015 157.152 178.191 157.344C178.375 157.536 178.575 157.668 178.791 157.74C179.007 157.804 179.211 157.836 179.403 157.836C179.595 157.836 179.779 157.8 179.955 157.728C180.139 157.656 180.299 157.556 180.435 157.428C180.579 157.292 180.691 157.132 180.771 156.948C180.859 156.756 180.903 156.544 180.903 156.312ZM195.486 156.552C195.486 157.352 195.298 157.988 194.922 158.46C194.554 158.924 193.994 159.156 193.242 159.156C192.498 159.156 191.938 158.924 191.562 158.46C191.194 157.988 191.01 157.352 191.01 156.552C191.01 155.76 191.198 155.128 191.574 154.656C191.958 154.184 192.522 153.948 193.266 153.948C194.002 153.948 194.554 154.184 194.922 154.656C195.298 155.128 195.486 155.76 195.486 156.552ZM188.682 159H187.494L191.43 150.408H192.618L188.682 159ZM189.09 152.856C189.09 153.656 188.902 154.292 188.526 154.764C188.15 155.228 187.59 155.46 186.846 155.46C186.102 155.46 185.542 155.228 185.166 154.764C184.798 154.292 184.614 153.656 184.614 152.856C184.614 152.064 184.802 151.432 185.178 150.96C185.554 150.488 186.11 150.252 186.846 150.252C187.582 150.252 188.138 150.488 188.514 150.96C188.898 151.432 189.09 152.064 189.09 152.856ZM194.238 156.552C194.238 156.232 194.21 155.972 194.154 155.772C194.106 155.564 194.034 155.404 193.938 155.292C193.85 155.18 193.746 155.104 193.626 155.064C193.506 155.024 193.378 155.004 193.242 155.004C193.106 155.004 192.978 155.024 192.858 155.064C192.738 155.104 192.634 155.18 192.546 155.292C192.458 155.404 192.386 155.564 192.33 155.772C192.282 155.972 192.258 156.232 192.258 156.552C192.258 156.88 192.282 157.144 192.33 157.344C192.386 157.544 192.458 157.7 192.546 157.812C192.634 157.924 192.738 158 192.858 158.04C192.978 158.08 193.106 158.1 193.242 158.1C193.378 158.1 193.506 158.08 193.626 158.04C193.746 158 193.85 157.924 193.938 157.812C194.034 157.7 194.106 157.544 194.154 157.344C194.21 157.144 194.238 156.88 194.238 156.552ZM187.83 152.856C187.83 152.536 187.802 152.276 187.746 152.076C187.698 151.868 187.63 151.708 187.542 151.596C187.454 151.484 187.35 151.408 187.23 151.368C187.11 151.328 186.982 151.308 186.846 151.308C186.71 151.308 186.582 151.328 186.462 151.368C186.35 151.408 186.246 151.484 186.15 151.596C186.062 151.708 185.99 151.868 185.934 152.076C185.886 152.276 185.862 152.536 185.862 152.856C185.862 153.184 185.886 153.448 185.934 153.648C185.99 153.848 186.062 154.004 186.15 154.116C186.246 154.228 186.35 154.304 186.462 154.344C186.582 154.384 186.71 154.404 186.846 154.404C186.982 154.404 187.11 154.384 187.23 154.344C187.35 154.304 187.454 154.228 187.542 154.116C187.63 154.004 187.698 153.848 187.746 153.648C187.802 153.448 187.83 153.184 187.83 152.856Z" fill="#2E2A2A"/>
<path d="M157.5 179C157.5 174.582 161.082 171 165.5 171H197.5C201.918 171 205.5 174.582 205.5 179V319H157.5V179Z" fill="#708DAF"/>
</g>
<mask id="path-8-inside-1_56_631" fill="white">
<path d="M81.5 319H233.5V328H81.5V319Z"/>
</mask>
<path d="M81.5 319V318H80.5V319H81.5ZM233.5 319H234.5V318H233.5V319ZM81.5 320H233.5V318H81.5V320ZM232.5 319V328H234.5V319H232.5ZM82.5 328V319H80.5V328H82.5Z" fill="black" mask="url(#path-8-inside-1_56_631)"/>
<path d="M135.763 338.584V346H134.263V338.584H131.815V337.252H138.211V338.584H135.763ZM143.344 346L143.068 345.088C142.996 345.2 142.904 345.32 142.792 345.448C142.68 345.568 142.54 345.684 142.372 345.796C142.204 345.9 142.008 345.984 141.784 346.048C141.56 346.12 141.304 346.156 141.016 346.156C140.76 346.156 140.504 346.116 140.248 346.036C139.992 345.956 139.76 345.832 139.552 345.664C139.344 345.488 139.172 345.264 139.036 344.992C138.908 344.712 138.844 344.372 138.844 343.972C138.844 343.596 138.92 343.284 139.072 343.036C139.224 342.78 139.42 342.58 139.66 342.436C139.9 342.284 140.172 342.176 140.476 342.112C140.78 342.048 141.084 342.016 141.388 342.016H142.828V341.776C142.828 341.52 142.792 341.308 142.72 341.14C142.648 340.972 142.552 340.84 142.432 340.744C142.312 340.648 142.172 340.584 142.012 340.552C141.86 340.512 141.696 340.492 141.52 340.492C141.36 340.492 141.184 340.504 140.992 340.528C140.8 340.552 140.616 340.584 140.44 340.624C140.264 340.656 140.104 340.688 139.96 340.72C139.816 340.752 139.716 340.776 139.66 340.792L139.336 339.652C139.432 339.62 139.568 339.58 139.744 339.532C139.92 339.484 140.116 339.436 140.332 339.388C140.548 339.34 140.776 339.3 141.016 339.268C141.256 339.236 141.496 339.22 141.736 339.22C141.984 339.22 142.256 339.248 142.552 339.304C142.856 339.36 143.136 339.484 143.392 339.676C143.656 339.86 143.872 340.132 144.04 340.492C144.216 340.844 144.304 341.32 144.304 341.92V346H143.344ZM141.46 342.988C141.244 342.996 141.06 343.028 140.908 343.084C140.756 343.14 140.632 343.212 140.536 343.3C140.448 343.388 140.384 343.492 140.344 343.612C140.304 343.724 140.284 343.84 140.284 343.96C140.284 344.088 140.3 344.216 140.332 344.344C140.372 344.464 140.432 344.576 140.512 344.68C140.6 344.776 140.712 344.856 140.848 344.92C140.992 344.976 141.168 345.004 141.376 345.004C141.568 345.004 141.752 344.972 141.928 344.908C142.104 344.836 142.26 344.72 142.396 344.56C142.532 344.4 142.64 344.188 142.72 343.924C142.8 343.66 142.84 343.332 142.84 342.94L141.46 342.988ZM150.858 341.416C150.818 341.344 150.758 341.256 150.678 341.152C150.598 341.048 150.498 340.948 150.378 340.852C150.258 340.756 150.118 340.676 149.958 340.612C149.806 340.54 149.642 340.504 149.466 340.504C149.258 340.504 149.07 340.54 148.902 340.612C148.734 340.684 148.59 340.808 148.47 340.984C148.35 341.152 148.258 341.376 148.194 341.656C148.13 341.936 148.098 342.284 148.098 342.7C148.098 343.116 148.134 343.464 148.206 343.744C148.278 344.016 148.374 344.236 148.494 344.404C148.622 344.572 148.766 344.692 148.926 344.764C149.094 344.828 149.274 344.86 149.466 344.86C149.642 344.86 149.806 344.828 149.958 344.764C150.118 344.7 150.258 344.62 150.378 344.524C150.498 344.428 150.598 344.332 150.678 344.236C150.758 344.132 150.818 344.044 150.858 343.972V341.416ZM151.386 346L151.134 345.172C151.07 345.268 150.986 345.376 150.882 345.496C150.778 345.616 150.646 345.728 150.486 345.832C150.334 345.928 150.154 346.008 149.946 346.072C149.746 346.144 149.514 346.18 149.25 346.18C148.81 346.18 148.422 346.096 148.086 345.928C147.758 345.752 147.482 345.512 147.258 345.208C147.042 344.896 146.878 344.528 146.766 344.104C146.654 343.672 146.598 343.2 146.598 342.688C146.598 342.168 146.654 341.696 146.766 341.272C146.878 340.84 147.046 340.472 147.27 340.168C147.494 339.856 147.766 339.616 148.086 339.448C148.406 339.28 148.778 339.196 149.202 339.196C149.426 339.196 149.626 339.224 149.802 339.28C149.978 339.328 150.134 339.392 150.27 339.472C150.406 339.552 150.522 339.64 150.618 339.736C150.714 339.832 150.794 339.92 150.858 340V336.856H152.334V346H151.386ZM159.043 346L158.767 345.088C158.695 345.2 158.603 345.32 158.491 345.448C158.379 345.568 158.239 345.684 158.071 345.796C157.903 345.9 157.707 345.984 157.483 346.048C157.259 346.12 157.003 346.156 156.715 346.156C156.459 346.156 156.203 346.116 155.947 346.036C155.691 345.956 155.459 345.832 155.251 345.664C155.043 345.488 154.871 345.264 154.735 344.992C154.607 344.712 154.543 344.372 154.543 343.972C154.543 343.596 154.619 343.284 154.771 343.036C154.923 342.78 155.119 342.58 155.359 342.436C155.599 342.284 155.871 342.176 156.175 342.112C156.479 342.048 156.783 342.016 157.087 342.016H158.527V341.776C158.527 341.52 158.491 341.308 158.419 341.14C158.347 340.972 158.251 340.84 158.131 340.744C158.011 340.648 157.871 340.584 157.711 340.552C157.559 340.512 157.395 340.492 157.219 340.492C157.059 340.492 156.883 340.504 156.691 340.528C156.499 340.552 156.315 340.584 156.139 340.624C155.963 340.656 155.803 340.688 155.659 340.72C155.515 340.752 155.415 340.776 155.359 340.792L155.035 339.652C155.131 339.62 155.267 339.58 155.443 339.532C155.619 339.484 155.815 339.436 156.031 339.388C156.247 339.34 156.475 339.3 156.715 339.268C156.955 339.236 157.195 339.22 157.435 339.22C157.683 339.22 157.955 339.248 158.251 339.304C158.555 339.36 158.835 339.484 159.091 339.676C159.355 339.86 159.571 340.132 159.739 340.492C159.915 340.844 160.003 341.32 160.003 341.92V346H159.043ZM157.159 342.988C156.943 342.996 156.759 343.028 156.607 343.084C156.455 343.14 156.331 343.212 156.235 343.3C156.147 343.388 156.083 343.492 156.043 343.612C156.003 343.724 155.983 343.84 155.983 343.96C155.983 344.088 155.999 344.216 156.031 344.344C156.071 344.464 156.131 344.576 156.211 344.68C156.299 344.776 156.411 344.856 156.547 344.92C156.691 344.976 156.867 345.004 157.075 345.004C157.267 345.004 157.451 344.972 157.627 344.908C157.803 344.836 157.959 344.72 158.095 344.56C158.231 344.4 158.339 344.188 158.419 343.924C158.499 343.66 158.539 343.332 158.539 342.94L157.159 342.988ZM163.536 346L161.748 339.388H163.284L164.136 343.06C164.216 343.412 164.28 343.736 164.328 344.032C164.376 344.32 164.412 344.548 164.436 344.716C164.46 344.548 164.496 344.32 164.544 344.032C164.592 343.736 164.656 343.412 164.736 343.06L165.576 339.388H167.052L167.916 343.06C168.004 343.42 168.072 343.752 168.12 344.056C168.168 344.36 168.2 344.576 168.216 344.704C168.232 344.584 168.264 344.372 168.312 344.068C168.368 343.756 168.44 343.416 168.528 343.048L169.368 339.388H170.868L169.02 346H167.436L166.524 342.532C166.492 342.412 166.46 342.276 166.428 342.124C166.404 341.972 166.38 341.824 166.356 341.68C166.332 341.528 166.308 341.388 166.284 341.26C166.268 341.132 166.256 341.032 166.248 340.96L166.212 341.248C166.196 341.376 166.176 341.516 166.152 341.668C166.136 341.82 166.112 341.972 166.08 342.124C166.056 342.276 166.028 342.412 165.996 342.532L165.108 346H163.536ZM177.25 346L176.998 345.052C176.878 345.196 176.742 345.336 176.59 345.472C176.446 345.608 176.286 345.732 176.11 345.844C175.934 345.948 175.742 346.032 175.534 346.096C175.326 346.16 175.102 346.192 174.862 346.192C174.126 346.192 173.582 345.968 173.23 345.52C172.878 345.072 172.702 344.436 172.702 343.612V339.376H174.178V343.216C174.178 343.4 174.182 343.584 174.19 343.768C174.206 343.952 174.246 344.124 174.31 344.284C174.382 344.436 174.486 344.56 174.622 344.656C174.758 344.752 174.954 344.8 175.21 344.8C175.506 344.8 175.778 344.728 176.026 344.584C176.282 344.432 176.522 344.248 176.746 344.032V339.376H178.21V346H177.25ZM180.958 346V336.856H182.422V346H180.958Z" fill="#2E2A2A"/>
<g clip-path="url(#clip2_56_631)">
<path d="M276.641 116.216C276.641 116.76 276.533 117.22 276.317 117.596C276.101 117.964 275.825 118.264 275.489 118.496C275.161 118.728 274.801 118.896 274.409 119C274.025 119.104 273.665 119.156 273.329 119.156C273.033 119.156 272.745 119.136 272.465 119.096C272.185 119.056 271.925 119.012 271.685 118.964C271.445 118.908 271.229 118.852 271.037 118.796C270.853 118.732 270.709 118.68 270.604 118.64L270.941 117.416C271.037 117.44 271.165 117.472 271.325 117.512C271.493 117.552 271.677 117.592 271.877 117.632C272.085 117.672 272.301 117.708 272.525 117.74C272.749 117.764 272.969 117.776 273.185 117.776C273.409 117.776 273.633 117.748 273.857 117.692C274.081 117.628 274.281 117.536 274.457 117.416C274.641 117.288 274.789 117.128 274.901 116.936C275.013 116.736 275.069 116.5 275.069 116.228C275.069 115.964 275.009 115.74 274.889 115.556C274.777 115.372 274.629 115.224 274.445 115.112C274.269 114.992 274.065 114.908 273.833 114.86C273.609 114.804 273.385 114.776 273.161 114.776C272.945 114.776 272.725 114.792 272.501 114.824C272.285 114.848 272.077 114.88 271.877 114.92C271.685 114.952 271.509 114.988 271.349 115.028C271.197 115.06 271.073 115.084 270.977 115.1V110.408H276.317V111.728H272.465V113.684C272.569 113.668 272.741 113.644 272.98 113.612C273.229 113.58 273.493 113.564 273.773 113.564C274.029 113.564 274.321 113.604 274.649 113.684C274.985 113.756 275.297 113.892 275.585 114.092C275.881 114.292 276.129 114.564 276.329 114.908C276.537 115.252 276.641 115.688 276.641 116.216ZM285.307 114.548C285.307 115.38 285.207 116.088 285.007 116.672C284.807 117.248 284.535 117.724 284.191 118.1C283.855 118.468 283.455 118.736 282.991 118.904C282.535 119.072 282.051 119.156 281.539 119.156C281.331 119.156 281.119 119.14 280.903 119.108C280.687 119.076 280.487 119.04 280.303 119C280.119 118.96 279.955 118.916 279.811 118.868L279.487 118.76L279.823 117.524L280.075 117.596C280.187 117.628 280.315 117.66 280.459 117.692C280.603 117.724 280.763 117.752 280.939 117.776C281.115 117.8 281.299 117.812 281.491 117.812C281.675 117.812 281.891 117.78 282.139 117.716C282.395 117.652 282.635 117.528 282.859 117.344C283.091 117.16 283.291 116.904 283.459 116.576C283.627 116.24 283.719 115.804 283.735 115.268C283.671 115.308 283.571 115.364 283.435 115.436C283.299 115.5 283.139 115.564 282.955 115.628C282.771 115.692 282.563 115.748 282.331 115.796C282.107 115.836 281.871 115.856 281.623 115.856C281.215 115.856 280.843 115.796 280.507 115.676C280.171 115.548 279.883 115.368 279.643 115.136C279.411 114.904 279.227 114.62 279.091 114.284C278.963 113.94 278.899 113.556 278.899 113.132C278.899 112.716 278.983 112.332 279.151 111.98C279.327 111.62 279.559 111.316 279.847 111.068C280.135 110.812 280.467 110.612 280.843 110.468C281.219 110.324 281.615 110.252 282.031 110.252C282.447 110.252 282.851 110.328 283.243 110.48C283.635 110.624 283.983 110.864 284.287 111.2C284.591 111.536 284.835 111.98 285.019 112.532C285.211 113.076 285.307 113.748 285.307 114.548ZM283.747 114.212C283.747 113.7 283.687 113.276 283.567 112.94C283.455 112.596 283.311 112.328 283.135 112.136C282.967 111.936 282.779 111.796 282.571 111.716C282.363 111.636 282.167 111.596 281.983 111.596C281.799 111.596 281.615 111.632 281.431 111.704C281.247 111.768 281.075 111.868 280.915 112.004C280.763 112.132 280.639 112.292 280.543 112.484C280.447 112.676 280.399 112.9 280.399 113.156C280.399 113.412 280.439 113.636 280.519 113.828C280.607 114.02 280.723 114.18 280.867 114.308C281.011 114.436 281.175 114.532 281.359 114.596C281.543 114.652 281.731 114.68 281.923 114.68C282.083 114.68 282.251 114.664 282.427 114.632C282.611 114.592 282.783 114.548 282.943 114.5C283.111 114.452 283.263 114.404 283.399 114.356C283.543 114.3 283.659 114.252 283.747 114.212ZM298.486 116.552C298.486 117.352 298.298 117.988 297.922 118.46C297.554 118.924 296.994 119.156 296.242 119.156C295.498 119.156 294.938 118.924 294.562 118.46C294.194 117.988 294.01 117.352 294.01 116.552C294.01 115.76 294.198 115.128 294.574 114.656C294.958 114.184 295.522 113.948 296.266 113.948C297.002 113.948 297.554 114.184 297.922 114.656C298.298 115.128 298.486 115.76 298.486 116.552ZM291.682 119H290.494L294.43 110.408H295.618L291.682 119ZM292.09 112.856C292.09 113.656 291.902 114.292 291.526 114.764C291.15 115.228 290.59 115.46 289.846 115.46C289.102 115.46 288.542 115.228 288.166 114.764C287.798 114.292 287.614 113.656 287.614 112.856C287.614 112.064 287.802 111.432 288.178 110.96C288.554 110.488 289.11 110.252 289.846 110.252C290.582 110.252 291.138 110.488 291.514 110.96C291.898 111.432 292.09 112.064 292.09 112.856ZM297.238 116.552C297.238 116.232 297.21 115.972 297.154 115.772C297.106 115.564 297.034 115.404 296.938 115.292C296.85 115.18 296.746 115.104 296.626 115.064C296.506 115.024 296.378 115.004 296.242 115.004C296.106 115.004 295.978 115.024 295.858 115.064C295.738 115.104 295.634 115.18 295.546 115.292C295.458 115.404 295.386 115.564 295.33 115.772C295.282 115.972 295.258 116.232 295.258 116.552C295.258 116.88 295.282 117.144 295.33 117.344C295.386 117.544 295.458 117.7 295.546 117.812C295.634 117.924 295.738 118 295.858 118.04C295.978 118.08 296.106 118.1 296.242 118.1C296.378 118.1 296.506 118.08 296.626 118.04C296.746 118 296.85 117.924 296.938 117.812C297.034 117.7 297.106 117.544 297.154 117.344C297.21 117.144 297.238 116.88 297.238 116.552ZM290.83 112.856C290.83 112.536 290.802 112.276 290.746 112.076C290.698 111.868 290.63 111.708 290.542 111.596C290.454 111.484 290.35 111.408 290.23 111.368C290.11 111.328 289.982 111.308 289.846 111.308C289.71 111.308 289.582 111.328 289.462 111.368C289.35 111.408 289.246 111.484 289.15 111.596C289.062 111.708 288.99 111.868 288.934 112.076C288.886 112.276 288.862 112.536 288.862 112.856C288.862 113.184 288.886 113.448 288.934 113.648C288.99 113.848 289.062 114.004 289.15 114.116C289.246 114.228 289.35 114.304 289.462 114.344C289.582 114.384 289.71 114.404 289.846 114.404C289.982 114.404 290.11 114.384 290.23 114.344C290.35 114.304 290.454 114.228 290.542 114.116C290.63 114.004 290.698 113.848 290.746 113.648C290.802 113.448 290.83 113.184 290.83 112.856Z" fill="#2E2A2A"/>
<path d="M260.5 139C260.5 134.582 264.082 131 268.5 131H300.5C304.918 131 308.5 134.582 308.5 139V319H260.5V139Z" fill="#1F314A"/>
</g>
<path d="M319.661 303.832V302.524H323.525V303.832H319.661ZM325.926 307V305.608L328.206 303.532C328.518 303.244 328.782 302.992 328.998 302.776C329.222 302.56 329.402 302.36 329.538 302.176C329.674 301.984 329.774 301.796 329.838 301.612C329.902 301.428 329.934 301.224 329.934 301C329.934 300.544 329.782 300.2 329.478 299.968C329.174 299.728 328.802 299.608 328.362 299.608C328.146 299.608 327.926 299.624 327.702 299.656C327.486 299.688 327.278 299.728 327.078 299.776C326.886 299.816 326.714 299.86 326.562 299.908C326.41 299.948 326.298 299.98 326.226 300.004L325.89 298.768C325.962 298.744 326.086 298.704 326.262 298.648C326.438 298.592 326.646 298.536 326.886 298.48C327.126 298.416 327.39 298.364 327.678 298.324C327.966 298.276 328.254 298.252 328.542 298.252C328.846 298.252 329.17 298.3 329.514 298.396C329.866 298.484 330.186 298.636 330.474 298.852C330.77 299.068 331.014 299.356 331.206 299.716C331.406 300.068 331.506 300.504 331.506 301.024C331.506 301.504 331.402 301.94 331.194 302.332C330.994 302.716 330.738 303.072 330.426 303.4C330.122 303.728 329.786 304.032 329.418 304.312C329.05 304.584 328.706 304.848 328.386 305.104L327.642 305.692C327.714 305.692 327.806 305.688 327.918 305.68C328.03 305.672 328.146 305.668 328.266 305.668C328.386 305.66 328.502 305.656 328.614 305.656C328.726 305.648 328.818 305.644 328.89 305.644H331.59V307H325.926ZM345.261 304.552C345.261 305.352 345.073 305.988 344.697 306.46C344.329 306.924 343.769 307.156 343.017 307.156C342.273 307.156 341.713 306.924 341.337 306.46C340.969 305.988 340.785 305.352 340.785 304.552C340.785 303.76 340.973 303.128 341.349 302.656C341.733 302.184 342.297 301.948 343.041 301.948C343.777 301.948 344.329 302.184 344.697 302.656C345.073 303.128 345.261 303.76 345.261 304.552ZM338.457 307H337.269L341.205 298.408H342.393L338.457 307ZM338.865 300.856C338.865 301.656 338.677 302.292 338.301 302.764C337.925 303.228 337.365 303.46 336.621 303.46C335.877 303.46 335.317 303.228 334.941 302.764C334.573 302.292 334.389 301.656 334.389 300.856C334.389 300.064 334.577 299.432 334.953 298.96C335.329 298.488 335.885 298.252 336.621 298.252C337.357 298.252 337.913 298.488 338.289 298.96C338.673 299.432 338.865 300.064 338.865 300.856ZM344.013 304.552C344.013 304.232 343.985 303.972 343.929 303.772C343.881 303.564 343.809 303.404 343.713 303.292C343.625 303.18 343.521 303.104 343.401 303.064C343.281 303.024 343.153 303.004 343.017 303.004C342.881 303.004 342.753 303.024 342.633 303.064C342.513 303.104 342.409 303.18 342.321 303.292C342.233 303.404 342.161 303.564 342.105 303.772C342.057 303.972 342.033 304.232 342.033 304.552C342.033 304.88 342.057 305.144 342.105 305.344C342.161 305.544 342.233 305.7 342.321 305.812C342.409 305.924 342.513 306 342.633 306.04C342.753 306.08 342.881 306.1 343.017 306.1C343.153 306.1 343.281 306.08 343.401 306.04C343.521 306 343.625 305.924 343.713 305.812C343.809 305.7 343.881 305.544 343.929 305.344C343.985 305.144 344.013 304.88 344.013 304.552ZM337.605 300.856C337.605 300.536 337.577 300.276 337.521 300.076C337.473 299.868 337.405 299.708 337.317 299.596C337.229 299.484 337.125 299.408 337.005 299.368C336.885 299.328 336.757 299.308 336.621 299.308C336.485 299.308 336.357 299.328 336.237 299.368C336.125 299.408 336.021 299.484 335.925 299.596C335.837 299.708 335.765 299.868 335.709 300.076C335.661 300.276 335.637 300.536 335.637 300.856C335.637 301.184 335.661 301.448 335.709 301.648C335.765 301.848 335.837 302.004 335.925 302.116C336.021 302.228 336.125 302.304 336.237 302.344C336.357 302.384 336.485 302.404 336.621 302.404C336.757 302.404 336.885 302.384 337.005 302.344C337.125 302.304 337.229 302.228 337.317 302.116C337.405 302.004 337.473 301.848 337.521 301.648C337.577 301.448 337.605 301.184 337.605 300.856Z" fill="#2E2A2A"/>
<path d="M308.5 319C308.5 319 308.5 319 308.5 319H356.5C356.5 319 356.5 319 356.5 319H308.5Z" fill="#708DAF"/>
<path d="M308.5 319.26C308.5 322.574 311.186 325.26 314.5 325.26H350.5C353.814 325.26 356.5 322.574 356.5 319.26H308.5Z" fill="#708DAF"/>
<mask id="path-16-inside-2_56_631" fill="white">
<path d="M232.5 319H384.5V328H232.5V319Z"/>
</mask>
<path d="M232.5 319V318H231.5V319H232.5ZM384.5 319H385.5V318H384.5V319ZM232.5 320H384.5V318H232.5V320ZM383.5 319V328H385.5V319H383.5ZM233.5 328V319H231.5V328H233.5Z" fill="black" mask="url(#path-16-inside-2_56_631)"/>
<path d="M301.995 346L301.359 344.068H298.059L297.423 346H295.887L298.827 337.252H300.663L303.603 346H301.995ZM300.987 342.76L300.243 340.408C300.147 340.104 300.051 339.788 299.955 339.46C299.859 339.132 299.779 338.856 299.715 338.632C299.651 338.856 299.567 339.132 299.463 339.46C299.367 339.788 299.271 340.104 299.175 340.408L298.419 342.76H300.987ZM312.613 341.62C312.613 342.308 312.521 342.924 312.337 343.468C312.153 344.004 311.877 344.46 311.509 344.836C311.141 345.212 310.681 345.5 310.129 345.7C309.577 345.9 308.933 346 308.197 346H305.605V337.252H308.197C308.933 337.252 309.577 337.352 310.129 337.552C310.681 337.752 311.141 338.04 311.509 338.416C311.877 338.792 312.153 339.252 312.337 339.796C312.521 340.332 312.613 340.94 312.613 341.62ZM311.065 341.62C311.065 341.044 311.001 340.564 310.873 340.18C310.745 339.796 310.557 339.488 310.309 339.256C310.061 339.016 309.753 338.844 309.385 338.74C309.025 338.636 308.613 338.584 308.149 338.584H307.093V344.656H308.149C308.613 344.656 309.025 344.608 309.385 344.512C309.753 344.408 310.061 344.24 310.309 344.008C310.557 343.768 310.745 343.456 310.873 343.072C311.001 342.68 311.065 342.196 311.065 341.62ZM319.359 346L318.003 343.744C317.875 343.536 317.759 343.32 317.655 343.096C317.551 342.872 317.455 342.668 317.367 342.484C317.279 342.668 317.183 342.872 317.079 343.096C316.983 343.32 316.871 343.536 316.743 343.744L315.375 346H313.719L316.431 341.524L313.899 337.252H315.639L316.875 339.412C316.987 339.612 317.095 339.82 317.199 340.036C317.303 340.244 317.399 340.436 317.487 340.612C317.575 340.436 317.667 340.244 317.763 340.036C317.867 339.828 317.975 339.62 318.087 339.412L319.335 337.252H320.991L318.423 341.572L321.099 346H319.359Z" fill="#2E2A2A"/>
<g clip-path="url(#clip3_56_631)">
<path d="M422.337 269V267.764H424.101V261.836L422.493 262.088L422.217 260.936L424.449 260.36H425.601V267.764H427.305V269H422.337ZM434.579 264.38C434.811 264.468 435.035 264.576 435.251 264.704C435.467 264.832 435.655 264.988 435.815 265.172C435.983 265.348 436.115 265.56 436.211 265.808C436.307 266.048 436.355 266.332 436.355 266.66C436.355 267.044 436.271 267.392 436.103 267.704C435.943 268.008 435.719 268.272 435.431 268.496C435.143 268.712 434.803 268.88 434.411 269C434.019 269.112 433.591 269.168 433.127 269.168C432.647 269.168 432.211 269.108 431.819 268.988C431.427 268.868 431.087 268.704 430.799 268.496C430.519 268.28 430.303 268.024 430.151 267.728C429.999 267.424 429.923 267.092 429.923 266.732C429.923 266.412 429.967 266.136 430.055 265.904C430.151 265.664 430.271 265.456 430.415 265.28C430.567 265.104 430.743 264.956 430.943 264.836C431.143 264.716 431.351 264.612 431.567 264.524C431.375 264.444 431.191 264.348 431.015 264.236C430.839 264.116 430.683 263.976 430.547 263.816C430.419 263.648 430.315 263.456 430.235 263.24C430.163 263.016 430.127 262.76 430.127 262.472C430.127 262.112 430.199 261.796 430.343 261.524C430.487 261.244 430.691 261.012 430.955 260.828C431.219 260.636 431.535 260.492 431.903 260.396C432.271 260.3 432.679 260.252 433.127 260.252C433.583 260.252 433.995 260.304 434.363 260.408C434.739 260.504 435.055 260.648 435.311 260.84C435.575 261.024 435.779 261.256 435.923 261.536C436.067 261.808 436.139 262.116 436.139 262.46C436.139 262.732 436.095 262.972 436.007 263.18C435.927 263.38 435.815 263.556 435.671 263.708C435.527 263.86 435.359 263.992 435.167 264.104C434.983 264.208 434.787 264.3 434.579 264.38ZM432.827 265.028C432.635 265.1 432.455 265.18 432.287 265.268C432.119 265.348 431.971 265.448 431.843 265.568C431.715 265.688 431.615 265.828 431.543 265.988C431.471 266.148 431.435 266.332 431.435 266.54C431.435 266.9 431.575 267.212 431.855 267.476C432.135 267.74 432.559 267.872 433.127 267.872C433.647 267.872 434.055 267.756 434.351 267.524C434.655 267.284 434.807 266.972 434.807 266.588C434.807 266.332 434.747 266.12 434.627 265.952C434.515 265.784 434.367 265.644 434.183 265.532C433.999 265.412 433.787 265.316 433.547 265.244C433.315 265.172 433.075 265.1 432.827 265.028ZM433.331 263.996C433.507 263.932 433.675 263.86 433.835 263.78C433.995 263.7 434.131 263.608 434.243 263.504C434.355 263.392 434.443 263.264 434.507 263.12C434.579 262.976 434.615 262.808 434.615 262.616C434.615 262.28 434.483 262.02 434.219 261.836C433.963 261.644 433.599 261.548 433.127 261.548C432.671 261.548 432.311 261.64 432.047 261.824C431.783 262.008 431.651 262.272 431.651 262.616C431.651 262.824 431.695 263 431.783 263.144C431.871 263.288 431.987 263.412 432.131 263.516C432.283 263.62 432.459 263.712 432.659 263.792C432.867 263.864 433.091 263.932 433.331 263.996ZM449.486 266.552C449.486 267.352 449.298 267.988 448.922 268.46C448.554 268.924 447.994 269.156 447.242 269.156C446.498 269.156 445.938 268.924 445.562 268.46C445.194 267.988 445.01 267.352 445.01 266.552C445.01 265.76 445.198 265.128 445.574 264.656C445.958 264.184 446.522 263.948 447.266 263.948C448.002 263.948 448.554 264.184 448.922 264.656C449.298 265.128 449.486 265.76 449.486 266.552ZM442.682 269H441.494L445.43 260.408H446.618L442.682 269ZM443.09 262.856C443.09 263.656 442.902 264.292 442.526 264.764C442.15 265.228 441.59 265.46 440.846 265.46C440.102 265.46 439.542 265.228 439.166 264.764C438.798 264.292 438.614 263.656 438.614 262.856C438.614 262.064 438.802 261.432 439.178 260.96C439.554 260.488 440.11 260.252 440.846 260.252C441.582 260.252 442.138 260.488 442.514 260.96C442.898 261.432 443.09 262.064 443.09 262.856ZM448.238 266.552C448.238 266.232 448.21 265.972 448.154 265.772C448.106 265.564 448.034 265.404 447.938 265.292C447.85 265.18 447.746 265.104 447.626 265.064C447.506 265.024 447.378 265.004 447.242 265.004C447.106 265.004 446.978 265.024 446.858 265.064C446.738 265.104 446.634 265.18 446.546 265.292C446.458 265.404 446.386 265.564 446.33 265.772C446.282 265.972 446.258 266.232 446.258 266.552C446.258 266.88 446.282 267.144 446.33 267.344C446.386 267.544 446.458 267.7 446.546 267.812C446.634 267.924 446.738 268 446.858 268.04C446.978 268.08 447.106 268.1 447.242 268.1C447.378 268.1 447.506 268.08 447.626 268.04C447.746 268 447.85 267.924 447.938 267.812C448.034 267.7 448.106 267.544 448.154 267.344C448.21 267.144 448.238 266.88 448.238 266.552ZM441.83 262.856C441.83 262.536 441.802 262.276 441.746 262.076C441.698 261.868 441.63 261.708 441.542 261.596C441.454 261.484 441.35 261.408 441.23 261.368C441.11 261.328 440.982 261.308 440.846 261.308C440.71 261.308 440.582 261.328 440.462 261.368C440.35 261.408 440.246 261.484 440.15 261.596C440.062 261.708 439.99 261.868 439.934 262.076C439.886 262.276 439.862 262.536 439.862 262.856C439.862 263.184 439.886 263.448 439.934 263.648C439.99 263.848 440.062 264.004 440.15 264.116C440.246 264.228 440.35 264.304 440.462 264.344C440.582 264.384 440.71 264.404 440.846 264.404C440.982 264.404 441.11 264.384 441.23 264.344C441.35 264.304 441.454 264.228 441.542 264.116C441.63 264.004 441.698 263.848 441.746 263.648C441.802 263.448 441.83 263.184 441.83 262.856Z" fill="#2E2A2A"/>
<path d="M411.5 289C411.5 284.582 415.082 281 419.5 281H451.5C455.918 281 459.5 284.582 459.5 289V319H411.5V289Z" fill="#1F314A"/>
</g>
<g clip-path="url(#clip4_56_631)">
<path d="M470.337 282V280.764H472.101V274.836L470.493 275.088L470.217 273.936L472.449 273.36H473.601V280.764H475.305V282H470.337ZM478.151 282V280.608L480.431 278.532C480.743 278.244 481.007 277.992 481.223 277.776C481.447 277.56 481.627 277.36 481.763 277.176C481.899 276.984 481.999 276.796 482.063 276.612C482.127 276.428 482.159 276.224 482.159 276C482.159 275.544 482.007 275.2 481.703 274.968C481.399 274.728 481.027 274.608 480.587 274.608C480.371 274.608 480.151 274.624 479.927 274.656C479.711 274.688 479.503 274.728 479.303 274.776C479.111 274.816 478.939 274.86 478.787 274.908C478.635 274.948 478.523 274.98 478.451 275.004L478.115 273.768C478.187 273.744 478.311 273.704 478.487 273.648C478.663 273.592 478.871 273.536 479.111 273.48C479.351 273.416 479.615 273.364 479.903 273.324C480.191 273.276 480.479 273.252 480.767 273.252C481.071 273.252 481.395 273.3 481.739 273.396C482.091 273.484 482.411 273.636 482.699 273.852C482.995 274.068 483.239 274.356 483.431 274.716C483.631 275.068 483.731 275.504 483.731 276.024C483.731 276.504 483.627 276.94 483.419 277.332C483.219 277.716 482.963 278.072 482.651 278.4C482.347 278.728 482.011 279.032 481.643 279.312C481.275 279.584 480.931 279.848 480.611 280.104L479.867 280.692C479.939 280.692 480.031 280.688 480.143 280.68C480.255 280.672 480.371 280.668 480.491 280.668C480.611 280.66 480.727 280.656 480.839 280.656C480.951 280.648 481.043 280.644 481.115 280.644H483.815V282H478.151ZM497.486 279.552C497.486 280.352 497.298 280.988 496.922 281.46C496.554 281.924 495.994 282.156 495.242 282.156C494.498 282.156 493.938 281.924 493.562 281.46C493.194 280.988 493.01 280.352 493.01 279.552C493.01 278.76 493.198 278.128 493.574 277.656C493.958 277.184 494.522 276.948 495.266 276.948C496.002 276.948 496.554 277.184 496.922 277.656C497.298 278.128 497.486 278.76 497.486 279.552ZM490.682 282H489.494L493.43 273.408H494.618L490.682 282ZM491.09 275.856C491.09 276.656 490.902 277.292 490.526 277.764C490.15 278.228 489.59 278.46 488.846 278.46C488.102 278.46 487.542 278.228 487.166 277.764C486.798 277.292 486.614 276.656 486.614 275.856C486.614 275.064 486.802 274.432 487.178 273.96C487.554 273.488 488.11 273.252 488.846 273.252C489.582 273.252 490.138 273.488 490.514 273.96C490.898 274.432 491.09 275.064 491.09 275.856ZM496.238 279.552C496.238 279.232 496.21 278.972 496.154 278.772C496.106 278.564 496.034 278.404 495.938 278.292C495.85 278.18 495.746 278.104 495.626 278.064C495.506 278.024 495.378 278.004 495.242 278.004C495.106 278.004 494.978 278.024 494.858 278.064C494.738 278.104 494.634 278.18 494.546 278.292C494.458 278.404 494.386 278.564 494.33 278.772C494.282 278.972 494.258 279.232 494.258 279.552C494.258 279.88 494.282 280.144 494.33 280.344C494.386 280.544 494.458 280.7 494.546 280.812C494.634 280.924 494.738 281 494.858 281.04C494.978 281.08 495.106 281.1 495.242 281.1C495.378 281.1 495.506 281.08 495.626 281.04C495.746 281 495.85 280.924 495.938 280.812C496.034 280.7 496.106 280.544 496.154 280.344C496.21 280.144 496.238 279.88 496.238 279.552ZM489.83 275.856C489.83 275.536 489.802 275.276 489.746 275.076C489.698 274.868 489.63 274.708 489.542 274.596C489.454 274.484 489.35 274.408 489.23 274.368C489.11 274.328 488.982 274.308 488.846 274.308C488.71 274.308 488.582 274.328 488.462 274.368C488.35 274.408 488.246 274.484 488.15 274.596C488.062 274.708 487.99 274.868 487.934 275.076C487.886 275.276 487.862 275.536 487.862 275.856C487.862 276.184 487.886 276.448 487.934 276.648C487.99 276.848 488.062 277.004 488.15 277.116C488.246 277.228 488.35 277.304 488.462 277.344C488.582 277.384 488.71 277.404 488.846 277.404C488.982 277.404 489.11 277.384 489.23 277.344C489.35 277.304 489.454 277.228 489.542 277.116C489.63 277.004 489.698 276.848 489.746 276.648C489.802 276.448 489.83 276.184 489.83 275.856Z" fill="#2E2A2A"/>
<path d="M459.5 302C459.5 297.582 463.082 294 467.5 294H499.5C503.918 294 507.5 297.582 507.5 302V319H459.5V302Z" fill="#708DAF"/>
</g>
<mask id="path-23-inside-3_56_631" fill="white">
<path d="M383.5 319H535.5V328H383.5V319Z"/>
</mask>
<path d="M383.5 319V318H382.5V319H383.5ZM535.5 319H536.5V318H535.5V319ZM383.5 320H535.5V318H383.5V320ZM534.5 319V328H536.5V319H534.5ZM384.5 328V319H382.5V328H384.5Z" fill="black" mask="url(#path-23-inside-3_56_631)"/>
<path d="M453.712 341.62C453.712 342.308 453.62 342.924 453.436 343.468C453.252 344.004 452.976 344.46 452.608 344.836C452.24 345.212 451.78 345.5 451.228 345.7C450.676 345.9 450.032 346 449.296 346H446.704V337.252H449.296C450.032 337.252 450.676 337.352 451.228 337.552C451.78 337.752 452.24 338.04 452.608 338.416C452.976 338.792 453.252 339.252 453.436 339.796C453.62 340.332 453.712 340.94 453.712 341.62ZM452.164 341.62C452.164 341.044 452.1 340.564 451.972 340.18C451.844 339.796 451.656 339.488 451.408 339.256C451.16 339.016 450.852 338.844 450.484 338.74C450.124 338.636 449.712 338.584 449.248 338.584H448.192V344.656H449.248C449.712 344.656 450.124 344.608 450.484 344.512C450.852 344.408 451.16 344.24 451.408 344.008C451.656 343.768 451.844 343.456 451.972 343.072C452.1 342.68 452.164 342.196 452.164 341.62ZM457.759 338.596V341.296H461.167V342.616H457.759V346H456.271V337.252H461.755V338.596H457.759ZM471.034 346L470.794 340.372C470.786 340.268 470.778 340.144 470.77 340C470.77 339.856 470.77 339.712 470.77 339.568V338.788C470.738 338.924 470.698 339.132 470.65 339.412C470.61 339.684 470.546 339.964 470.458 340.252L468.646 346H467.422L465.61 340.252C465.522 339.956 465.454 339.672 465.406 339.4C465.366 339.128 465.33 338.924 465.298 338.788V339.136C465.298 339.272 465.294 339.416 465.286 339.568C465.286 339.712 465.282 339.856 465.274 340C465.274 340.144 465.274 340.268 465.274 340.372L465.034 346H463.57L463.93 337.252H466.09L467.626 342.196C467.674 342.34 467.718 342.504 467.758 342.688C467.798 342.864 467.838 343.048 467.878 343.24C467.918 343.424 467.95 343.6 467.974 343.768C468.006 343.928 468.034 344.06 468.058 344.164C468.074 344.06 468.098 343.928 468.13 343.768C468.162 343.6 468.198 343.424 468.238 343.24C468.278 343.048 468.318 342.864 468.358 342.688C468.406 342.504 468.45 342.34 468.49 342.196L470.002 337.252H472.15L472.498 346H471.034Z" fill="#2E2A2A"/>
<g clip-path="url(#clip5_56_631)">
<path d="M573.337 280V278.764H575.101V272.836L573.493 273.088L573.217 271.936L575.449 271.36H576.601V278.764H578.305V280H573.337ZM586.863 277.552C586.863 278.008 586.759 278.404 586.551 278.74C586.343 279.068 586.079 279.336 585.759 279.544C585.447 279.752 585.099 279.904 584.715 280C584.331 280.104 583.959 280.156 583.599 280.156C583.311 280.156 583.023 280.136 582.735 280.096C582.447 280.064 582.179 280.02 581.931 279.964C581.691 279.908 581.471 279.852 581.271 279.796C581.079 279.732 580.927 279.68 580.815 279.64L581.139 278.416L581.547 278.524C581.723 278.564 581.915 278.608 582.123 278.656C582.339 278.696 582.559 278.732 582.783 278.764C583.015 278.788 583.239 278.8 583.455 278.8C583.759 278.8 584.023 278.764 584.247 278.692C584.479 278.612 584.671 278.508 584.823 278.38C584.975 278.252 585.087 278.108 585.159 277.948C585.239 277.78 585.279 277.612 585.279 277.444C585.279 277.156 585.207 276.92 585.063 276.736C584.919 276.544 584.727 276.396 584.487 276.292C584.255 276.188 583.991 276.116 583.695 276.076C583.399 276.036 583.099 276.016 582.795 276.016V274.828C583.571 274.828 584.143 274.724 584.511 274.516C584.879 274.3 585.063 274.004 585.063 273.628C585.063 273.452 585.015 273.3 584.919 273.172C584.823 273.036 584.695 272.928 584.535 272.848C584.375 272.768 584.191 272.708 583.983 272.668C583.783 272.628 583.571 272.608 583.347 272.608C583.171 272.608 582.979 272.624 582.771 272.656C582.571 272.688 582.375 272.724 582.183 272.764C581.991 272.804 581.815 272.848 581.655 272.896C581.503 272.936 581.383 272.972 581.295 273.004L580.971 271.768C581.051 271.744 581.183 271.704 581.367 271.648C581.551 271.584 581.763 271.524 582.003 271.468C582.251 271.412 582.519 271.364 582.807 271.324C583.103 271.276 583.403 271.252 583.707 271.252C584.003 271.252 584.319 271.292 584.655 271.372C584.999 271.444 585.315 271.568 585.603 271.744C585.899 271.912 586.143 272.136 586.335 272.416C586.535 272.688 586.635 273.02 586.635 273.412C586.635 273.7 586.579 273.952 586.467 274.168C586.355 274.384 586.219 274.568 586.059 274.72C585.899 274.872 585.723 274.996 585.531 275.092C585.339 275.18 585.171 275.24 585.027 275.272C585.179 275.312 585.359 275.376 585.567 275.464C585.783 275.56 585.987 275.7 586.179 275.884C586.371 276.06 586.531 276.288 586.659 276.568C586.795 276.84 586.863 277.168 586.863 277.552ZM600.486 277.552C600.486 278.352 600.298 278.988 599.922 279.46C599.554 279.924 598.994 280.156 598.242 280.156C597.498 280.156 596.938 279.924 596.562 279.46C596.194 278.988 596.01 278.352 596.01 277.552C596.01 276.76 596.198 276.128 596.574 275.656C596.958 275.184 597.522 274.948 598.266 274.948C599.002 274.948 599.554 275.184 599.922 275.656C600.298 276.128 600.486 276.76 600.486 277.552ZM593.682 280H592.494L596.43 271.408H597.618L593.682 280ZM594.09 273.856C594.09 274.656 593.902 275.292 593.526 275.764C593.15 276.228 592.59 276.46 591.846 276.46C591.102 276.46 590.542 276.228 590.166 275.764C589.798 275.292 589.614 274.656 589.614 273.856C589.614 273.064 589.802 272.432 590.178 271.96C590.554 271.488 591.11 271.252 591.846 271.252C592.582 271.252 593.138 271.488 593.514 271.96C593.898 272.432 594.09 273.064 594.09 273.856ZM599.238 277.552C599.238 277.232 599.21 276.972 599.154 276.772C599.106 276.564 599.034 276.404 598.938 276.292C598.85 276.18 598.746 276.104 598.626 276.064C598.506 276.024 598.378 276.004 598.242 276.004C598.106 276.004 597.978 276.024 597.858 276.064C597.738 276.104 597.634 276.18 597.546 276.292C597.458 276.404 597.386 276.564 597.33 276.772C597.282 276.972 597.258 277.232 597.258 277.552C597.258 277.88 597.282 278.144 597.33 278.344C597.386 278.544 597.458 278.7 597.546 278.812C597.634 278.924 597.738 279 597.858 279.04C597.978 279.08 598.106 279.1 598.242 279.1C598.378 279.1 598.506 279.08 598.626 279.04C598.746 279 598.85 278.924 598.938 278.812C599.034 278.7 599.106 278.544 599.154 278.344C599.21 278.144 599.238 277.88 599.238 277.552ZM592.83 273.856C592.83 273.536 592.802 273.276 592.746 273.076C592.698 272.868 592.63 272.708 592.542 272.596C592.454 272.484 592.35 272.408 592.23 272.368C592.11 272.328 591.982 272.308 591.846 272.308C591.71 272.308 591.582 272.328 591.462 272.368C591.35 272.408 591.246 272.484 591.15 272.596C591.062 272.708 590.99 272.868 590.934 273.076C590.886 273.276 590.862 273.536 590.862 273.856C590.862 274.184 590.886 274.448 590.934 274.648C590.99 274.848 591.062 275.004 591.15 275.116C591.246 275.228 591.35 275.304 591.462 275.344C591.582 275.384 591.71 275.404 591.846 275.404C591.982 275.404 592.11 275.384 592.23 275.344C592.35 275.304 592.454 275.228 592.542 275.116C592.63 275.004 592.698 274.848 592.746 274.648C592.802 274.448 592.83 274.184 592.83 273.856Z" fill="#2E2A2A"/>
<path d="M562.5 300C562.5 295.582 566.082 292 570.5 292H602.5C606.918 292 610.5 295.582 610.5 300V319H562.5V300Z" fill="#1F314A"/>
</g>
<path d="M621.661 303.832V302.524H625.525V303.832H621.661ZM632.954 305.14V307H631.478V305.14H627.518V303.676L631.49 298.408H632.954V303.82H634.19V305.14H632.954ZM631.538 301.252C631.538 301.156 631.538 301.056 631.538 300.952C631.546 300.84 631.55 300.732 631.55 300.628C631.558 300.524 631.566 300.428 631.574 300.34C631.582 300.244 631.59 300.164 631.598 300.1C631.542 300.204 631.45 300.36 631.322 300.568C631.194 300.768 631.074 300.948 630.962 301.108L629.39 303.196C629.342 303.26 629.286 303.328 629.222 303.4C629.166 303.464 629.102 303.532 629.03 303.604C628.966 303.668 628.902 303.728 628.838 303.784C628.782 303.84 628.738 303.884 628.706 303.916C628.866 303.908 629.026 303.9 629.186 303.892C629.354 303.876 629.526 303.868 629.702 303.868H631.538V301.252ZM647.261 304.552C647.261 305.352 647.073 305.988 646.697 306.46C646.329 306.924 645.769 307.156 645.017 307.156C644.273 307.156 643.713 306.924 643.337 306.46C642.969 305.988 642.785 305.352 642.785 304.552C642.785 303.76 642.973 303.128 643.349 302.656C643.733 302.184 644.297 301.948 645.041 301.948C645.777 301.948 646.329 302.184 646.697 302.656C647.073 303.128 647.261 303.76 647.261 304.552ZM640.457 307H639.269L643.205 298.408H644.393L640.457 307ZM640.865 300.856C640.865 301.656 640.677 302.292 640.301 302.764C639.925 303.228 639.365 303.46 638.621 303.46C637.877 303.46 637.317 303.228 636.941 302.764C636.573 302.292 636.389 301.656 636.389 300.856C636.389 300.064 636.577 299.432 636.953 298.96C637.329 298.488 637.885 298.252 638.621 298.252C639.357 298.252 639.913 298.488 640.289 298.96C640.673 299.432 640.865 300.064 640.865 300.856ZM646.013 304.552C646.013 304.232 645.985 303.972 645.929 303.772C645.881 303.564 645.809 303.404 645.713 303.292C645.625 303.18 645.521 303.104 645.401 303.064C645.281 303.024 645.153 303.004 645.017 303.004C644.881 303.004 644.753 303.024 644.633 303.064C644.513 303.104 644.409 303.18 644.321 303.292C644.233 303.404 644.161 303.564 644.105 303.772C644.057 303.972 644.033 304.232 644.033 304.552C644.033 304.88 644.057 305.144 644.105 305.344C644.161 305.544 644.233 305.7 644.321 305.812C644.409 305.924 644.513 306 644.633 306.04C644.753 306.08 644.881 306.1 645.017 306.1C645.153 306.1 645.281 306.08 645.401 306.04C645.521 306 645.625 305.924 645.713 305.812C645.809 305.7 645.881 305.544 645.929 305.344C645.985 305.144 646.013 304.88 646.013 304.552ZM639.605 300.856C639.605 300.536 639.577 300.276 639.521 300.076C639.473 299.868 639.405 299.708 639.317 299.596C639.229 299.484 639.125 299.408 639.005 299.368C638.885 299.328 638.757 299.308 638.621 299.308C638.485 299.308 638.357 299.328 638.237 299.368C638.125 299.408 638.021 299.484 637.925 299.596C637.837 299.708 637.765 299.868 637.709 300.076C637.661 300.276 637.637 300.536 637.637 300.856C637.637 301.184 637.661 301.448 637.709 301.648C637.765 301.848 637.837 302.004 637.925 302.116C638.021 302.228 638.125 302.304 638.237 302.344C638.357 302.384 638.485 302.404 638.621 302.404C638.757 302.404 638.885 302.384 639.005 302.344C639.125 302.304 639.229 302.228 639.317 302.116C639.405 302.004 639.473 301.848 639.521 301.648C639.577 301.448 639.605 301.184 639.605 300.856Z" fill="#2E2A2A"/>
<path d="M610.5 319C610.5 319 610.5 319 610.5 319H658.5C658.5 319 658.5 319 658.5 319H610.5Z" fill="#708DAF"/>
<path d="M610.5 320.26C610.5 324.679 614.082 328.26 618.5 328.26H650.5C654.918 328.26 658.5 324.679 658.5 320.26V318.26H610.5V320.26Z" fill="#708DAF"/>
<mask id="path-31-inside-4_56_631" fill="white">
<path d="M534.5 319H686.5V328H534.5V319Z"/>
</mask>
<path d="M534.5 319V318H533.5V319H534.5ZM686.5 319H687.5V318H686.5V319ZM534.5 320H686.5V318H534.5V320ZM685.5 319V328H687.5V319H685.5ZM535.5 328V319H533.5V328H535.5Z" fill="black" mask="url(#path-31-inside-4_56_631)"/>
<path d="M603.493 346L603.253 340.372C603.245 340.268 603.237 340.144 603.229 340C603.229 339.856 603.229 339.712 603.229 339.568V338.788C603.197 338.924 603.157 339.132 603.109 339.412C603.069 339.684 603.005 339.964 602.917 340.252L601.105 346H599.881L598.069 340.252C597.981 339.956 597.913 339.672 597.865 339.4C597.825 339.128 597.789 338.924 597.757 338.788V339.136C597.757 339.272 597.753 339.416 597.745 339.568C597.745 339.712 597.741 339.856 597.733 340C597.733 340.144 597.733 340.268 597.733 340.372L597.493 346H596.029L596.389 337.252H598.549L600.085 342.196C600.133 342.34 600.177 342.504 600.217 342.688C600.257 342.864 600.297 343.048 600.337 343.24C600.377 343.424 600.409 343.6 600.433 343.768C600.465 343.928 600.493 344.06 600.517 344.164C600.533 344.06 600.557 343.928 600.589 343.768C600.621 343.6 600.657 343.424 600.697 343.24C600.737 343.048 600.777 342.864 600.817 342.688C600.865 342.504 600.909 342.34 600.949 342.196L602.461 337.252H604.609L604.957 346H603.493ZM607.639 344.428C607.751 344.46 607.903 344.5 608.095 344.548C608.295 344.588 608.511 344.632 608.743 344.68C608.975 344.72 609.215 344.756 609.463 344.788C609.711 344.82 609.951 344.836 610.183 344.836C610.911 344.836 611.427 344.724 611.731 344.5C612.035 344.268 612.187 343.964 612.187 343.588C612.187 343.364 612.147 343.18 612.067 343.036C611.987 342.884 611.855 342.76 611.671 342.664C611.495 342.568 611.267 342.488 610.987 342.424C610.707 342.352 610.367 342.276 609.967 342.196C609.623 342.132 609.291 342.044 608.971 341.932C608.651 341.812 608.367 341.652 608.119 341.452C607.871 341.252 607.671 341 607.519 340.696C607.367 340.384 607.291 340 607.291 339.544C607.291 339.176 607.367 338.84 607.519 338.536C607.671 338.224 607.887 337.96 608.167 337.744C608.455 337.528 608.795 337.36 609.187 337.24C609.587 337.12 610.031 337.06 610.519 337.06C611.095 337.06 611.635 337.112 612.139 337.216C612.651 337.312 613.059 337.42 613.363 337.54L613.027 338.776C612.907 338.744 612.755 338.708 612.571 338.668C612.395 338.62 612.199 338.58 611.983 338.548C611.767 338.516 611.543 338.488 611.311 338.464C611.079 338.44 610.855 338.428 610.639 338.428C610.391 338.428 610.155 338.448 609.931 338.488C609.715 338.52 609.523 338.58 609.355 338.668C609.187 338.748 609.055 338.86 608.959 339.004C608.863 339.148 608.815 339.328 608.815 339.544C608.815 339.76 608.867 339.94 608.971 340.084C609.075 340.22 609.215 340.332 609.391 340.42C609.575 340.508 609.787 340.58 610.027 340.636C610.267 340.684 610.527 340.736 610.807 340.792C611.167 340.864 611.519 340.952 611.863 341.056C612.215 341.152 612.527 341.3 612.799 341.5C613.071 341.692 613.291 341.948 613.459 342.268C613.627 342.58 613.711 342.984 613.711 343.48C613.711 343.864 613.639 344.224 613.495 344.56C613.359 344.888 613.151 345.176 612.871 345.424C612.599 345.664 612.259 345.856 611.851 346C611.451 346.136 610.983 346.204 610.447 346.204C610.079 346.204 609.727 346.184 609.391 346.144C609.055 346.104 608.747 346.056 608.467 346C608.195 345.936 607.955 345.876 607.747 345.82C607.547 345.756 607.399 345.704 607.303 345.664L607.639 344.428ZM623.493 346L623.253 340.372C623.245 340.268 623.237 340.144 623.229 340C623.229 339.856 623.229 339.712 623.229 339.568V338.788C623.197 338.924 623.157 339.132 623.109 339.412C623.069 339.684 623.005 339.964 622.917 340.252L621.105 346H619.881L618.069 340.252C617.981 339.956 617.913 339.672 617.865 339.4C617.825 339.128 617.789 338.924 617.757 338.788V339.136C617.757 339.272 617.753 339.416 617.745 339.568C617.745 339.712 617.741 339.856 617.733 340C617.733 340.144 617.733 340.268 617.733 340.372L617.493 346H616.029L616.389 337.252H618.549L620.085 342.196C620.133 342.34 620.177 342.504 620.217 342.688C620.257 342.864 620.297 343.048 620.337 343.24C620.377 343.424 620.409 343.6 620.433 343.768C620.465 343.928 620.493 344.06 620.517 344.164C620.533 344.06 620.557 343.928 620.589 343.768C620.621 343.6 620.657 343.424 620.697 343.24C620.737 343.048 620.777 342.864 620.817 342.688C620.865 342.504 620.909 342.34 620.949 342.196L622.461 337.252H624.609L624.957 346H623.493Z" fill="#2E2A2A"/>
<rect x="318" y="381.5" width="7" height="7" fill="#1F314A"/>
<path d="M336.163 390V388.608L338.443 386.532C338.755 386.244 339.019 385.992 339.235 385.776C339.459 385.56 339.639 385.36 339.775 385.176C339.911 384.984 340.011 384.796 340.075 384.612C340.139 384.428 340.171 384.224 340.171 384C340.171 383.544 340.019 383.2 339.715 382.968C339.411 382.728 339.039 382.608 338.599 382.608C338.383 382.608 338.163 382.624 337.939 382.656C337.723 382.688 337.515 382.728 337.315 382.776C337.123 382.816 336.951 382.86 336.799 382.908C336.647 382.948 336.535 382.98 336.463 383.004L336.127 381.768C336.199 381.744 336.323 381.704 336.499 381.648C336.675 381.592 336.883 381.536 337.123 381.48C337.363 381.416 337.627 381.364 337.915 381.324C338.203 381.276 338.491 381.252 338.779 381.252C339.083 381.252 339.407 381.3 339.751 381.396C340.103 381.484 340.423 381.636 340.711 381.852C341.007 382.068 341.251 382.356 341.443 382.716C341.643 383.068 341.743 383.504 341.743 384.024C341.743 384.504 341.639 384.94 341.431 385.332C341.231 385.716 340.975 386.072 340.663 386.4C340.359 386.728 340.023 387.032 339.655 387.312C339.287 387.584 338.943 387.848 338.623 388.104L337.879 388.692C337.951 388.692 338.043 388.688 338.155 388.68C338.267 388.672 338.383 388.668 338.503 388.668C338.623 388.66 338.739 388.656 338.851 388.656C338.963 388.648 339.055 388.644 339.127 388.644H341.827V390H336.163ZM350.901 385.704C350.901 386.4 350.833 387.024 350.697 387.576C350.561 388.128 350.357 388.596 350.085 388.98C349.821 389.364 349.489 389.656 349.089 389.856C348.697 390.056 348.241 390.156 347.721 390.156C347.193 390.156 346.729 390.056 346.329 389.856C345.937 389.656 345.605 389.364 345.333 388.98C345.069 388.596 344.869 388.128 344.733 387.576C344.597 387.024 344.529 386.4 344.529 385.704C344.529 385 344.597 384.372 344.733 383.82C344.869 383.268 345.069 382.8 345.333 382.416C345.605 382.032 345.937 381.74 346.329 381.54C346.729 381.34 347.193 381.24 347.721 381.24C348.241 381.24 348.697 381.34 349.089 381.54C349.489 381.74 349.821 382.032 350.085 382.416C350.357 382.8 350.561 383.268 350.697 383.82C350.833 384.372 350.901 385 350.901 385.704ZM349.329 385.704C349.329 385.104 349.289 384.608 349.209 384.216C349.129 383.816 349.017 383.496 348.873 383.256C348.729 383.016 348.557 382.848 348.357 382.752C348.157 382.648 347.937 382.596 347.697 382.596C347.457 382.596 347.237 382.648 347.037 382.752C346.837 382.848 346.661 383.016 346.509 383.256C346.365 383.496 346.253 383.816 346.173 384.216C346.093 384.608 346.053 385.104 346.053 385.704C346.053 386.296 346.093 386.792 346.173 387.192C346.253 387.584 346.365 387.9 346.509 388.14C346.661 388.38 346.837 388.552 347.037 388.656C347.237 388.752 347.457 388.8 347.697 388.8C347.937 388.8 348.157 388.752 348.357 388.656C348.557 388.552 348.729 388.38 348.873 388.14C349.017 387.9 349.129 387.584 349.209 387.192C349.289 386.792 349.329 386.296 349.329 385.704ZM353.28 390V388.608L355.56 386.532C355.872 386.244 356.136 385.992 356.352 385.776C356.576 385.56 356.756 385.36 356.892 385.176C357.028 384.984 357.128 384.796 357.192 384.612C357.256 384.428 357.288 384.224 357.288 384C357.288 383.544 357.136 383.2 356.832 382.968C356.528 382.728 356.156 382.608 355.716 382.608C355.5 382.608 355.28 382.624 355.056 382.656C354.84 382.688 354.632 382.728 354.432 382.776C354.24 382.816 354.068 382.86 353.916 382.908C353.764 382.948 353.652 382.98 353.58 383.004L353.244 381.768C353.316 381.744 353.44 381.704 353.616 381.648C353.792 381.592 354 381.536 354.24 381.48C354.48 381.416 354.744 381.364 355.032 381.324C355.32 381.276 355.608 381.252 355.896 381.252C356.2 381.252 356.524 381.3 356.868 381.396C357.22 381.484 357.54 381.636 357.828 381.852C358.124 382.068 358.368 382.356 358.56 382.716C358.76 383.068 358.86 383.504 358.86 384.024C358.86 384.504 358.756 384.94 358.548 385.332C358.348 385.716 358.092 386.072 357.78 386.4C357.476 386.728 357.14 387.032 356.772 387.312C356.404 387.584 356.06 387.848 355.74 388.104L354.996 388.692C355.068 388.692 355.16 388.688 355.272 388.68C355.384 388.672 355.5 388.668 355.62 388.668C355.74 388.66 355.856 388.656 355.968 388.656C356.08 388.648 356.172 388.644 356.244 388.644H358.944V390H353.28ZM367.551 387.552C367.551 388.008 367.447 388.404 367.239 388.74C367.031 389.068 366.767 389.336 366.447 389.544C366.135 389.752 365.787 389.904 365.403 390C365.019 390.104 364.647 390.156 364.287 390.156C363.999 390.156 363.711 390.136 363.423 390.096C363.135 390.064 362.867 390.02 362.619 389.964C362.379 389.908 362.159 389.852 361.959 389.796C361.767 389.732 361.615 389.68 361.503 389.64L361.827 388.416L362.235 388.524C362.411 388.564 362.603 388.608 362.811 388.656C363.027 388.696 363.247 388.732 363.471 388.764C363.703 388.788 363.927 388.8 364.143 388.8C364.447 388.8 364.711 388.764 364.935 388.692C365.167 388.612 365.359 388.508 365.511 388.38C365.663 388.252 365.775 388.108 365.847 387.948C365.927 387.78 365.967 387.612 365.967 387.444C365.967 387.156 365.895 386.92 365.751 386.736C365.607 386.544 365.415 386.396 365.175 386.292C364.943 386.188 364.679 386.116 364.383 386.076C364.087 386.036 363.787 386.016 363.483 386.016V384.828C364.259 384.828 364.831 384.724 365.199 384.516C365.567 384.3 365.751 384.004 365.751 383.628C365.751 383.452 365.703 383.3 365.607 383.172C365.511 383.036 365.383 382.928 365.223 382.848C365.063 382.768 364.879 382.708 364.671 382.668C364.471 382.628 364.259 382.608 364.035 382.608C363.859 382.608 363.667 382.624 363.459 382.656C363.259 382.688 363.063 382.724 362.871 382.764C362.679 382.804 362.503 382.848 362.343 382.896C362.191 382.936 362.071 382.972 361.983 383.004L361.659 381.768C361.739 381.744 361.871 381.704 362.055 381.648C362.239 381.584 362.451 381.524 362.691 381.468C362.939 381.412 363.207 381.364 363.495 381.324C363.791 381.276 364.091 381.252 364.395 381.252C364.691 381.252 365.007 381.292 365.343 381.372C365.687 381.444 366.003 381.568 366.291 381.744C366.587 381.912 366.831 382.136 367.023 382.416C367.223 382.688 367.323 383.02 367.323 383.412C367.323 383.7 367.267 383.952 367.155 384.168C367.043 384.384 366.907 384.568 366.747 384.72C366.587 384.872 366.411 384.996 366.219 385.092C366.027 385.18 365.859 385.24 365.715 385.272C365.867 385.312 366.047 385.376 366.255 385.464C366.471 385.56 366.675 385.7 366.867 385.884C367.059 386.06 367.219 386.288 367.347 386.568C367.483 386.84 367.551 387.168 367.551 387.552Z" fill="black"/>
<rect x="399" y="381.5" width="7" height="7" fill="#708DAF"/>
<path d="M417.163 390V388.608L419.443 386.532C419.755 386.244 420.019 385.992 420.235 385.776C420.459 385.56 420.639 385.36 420.775 385.176C420.911 384.984 421.011 384.796 421.075 384.612C421.139 384.428 421.171 384.224 421.171 384C421.171 383.544 421.019 383.2 420.715 382.968C420.411 382.728 420.039 382.608 419.599 382.608C419.383 382.608 419.163 382.624 418.939 382.656C418.723 382.688 418.515 382.728 418.315 382.776C418.123 382.816 417.951 382.86 417.799 382.908C417.647 382.948 417.535 382.98 417.463 383.004L417.127 381.768C417.199 381.744 417.323 381.704 417.499 381.648C417.675 381.592 417.883 381.536 418.123 381.48C418.363 381.416 418.627 381.364 418.915 381.324C419.203 381.276 419.491 381.252 419.779 381.252C420.083 381.252 420.407 381.3 420.751 381.396C421.103 381.484 421.423 381.636 421.711 381.852C422.007 382.068 422.251 382.356 422.443 382.716C422.643 383.068 422.743 383.504 422.743 384.024C422.743 384.504 422.639 384.94 422.431 385.332C422.231 385.716 421.975 386.072 421.663 386.4C421.359 386.728 421.023 387.032 420.655 387.312C420.287 387.584 419.943 387.848 419.623 388.104L418.879 388.692C418.951 388.692 419.043 388.688 419.155 388.68C419.267 388.672 419.383 388.668 419.503 388.668C419.623 388.66 419.739 388.656 419.851 388.656C419.963 388.648 420.055 388.644 420.127 388.644H422.827V390H417.163ZM431.901 385.704C431.901 386.4 431.833 387.024 431.697 387.576C431.561 388.128 431.357 388.596 431.085 388.98C430.821 389.364 430.489 389.656 430.089 389.856C429.697 390.056 429.241 390.156 428.721 390.156C428.193 390.156 427.729 390.056 427.329 389.856C426.937 389.656 426.605 389.364 426.333 388.98C426.069 388.596 425.869 388.128 425.733 387.576C425.597 387.024 425.529 386.4 425.529 385.704C425.529 385 425.597 384.372 425.733 383.82C425.869 383.268 426.069 382.8 426.333 382.416C426.605 382.032 426.937 381.74 427.329 381.54C427.729 381.34 428.193 381.24 428.721 381.24C429.241 381.24 429.697 381.34 430.089 381.54C430.489 381.74 430.821 382.032 431.085 382.416C431.357 382.8 431.561 383.268 431.697 383.82C431.833 384.372 431.901 385 431.901 385.704ZM430.329 385.704C430.329 385.104 430.289 384.608 430.209 384.216C430.129 383.816 430.017 383.496 429.873 383.256C429.729 383.016 429.557 382.848 429.357 382.752C429.157 382.648 428.937 382.596 428.697 382.596C428.457 382.596 428.237 382.648 428.037 382.752C427.837 382.848 427.661 383.016 427.509 383.256C427.365 383.496 427.253 383.816 427.173 384.216C427.093 384.608 427.053 385.104 427.053 385.704C427.053 386.296 427.093 386.792 427.173 387.192C427.253 387.584 427.365 387.9 427.509 388.14C427.661 388.38 427.837 388.552 428.037 388.656C428.237 388.752 428.457 388.8 428.697 388.8C428.937 388.8 429.157 388.752 429.357 388.656C429.557 388.552 429.729 388.38 429.873 388.14C430.017 387.9 430.129 387.584 430.209 387.192C430.289 386.792 430.329 386.296 430.329 385.704ZM434.28 390V388.608L436.56 386.532C436.872 386.244 437.136 385.992 437.352 385.776C437.576 385.56 437.756 385.36 437.892 385.176C438.028 384.984 438.128 384.796 438.192 384.612C438.256 384.428 438.288 384.224 438.288 384C438.288 383.544 438.136 383.2 437.832 382.968C437.528 382.728 437.156 382.608 436.716 382.608C436.5 382.608 436.28 382.624 436.056 382.656C435.84 382.688 435.632 382.728 435.432 382.776C435.24 382.816 435.068 382.86 434.916 382.908C434.764 382.948 434.652 382.98 434.58 383.004L434.244 381.768C434.316 381.744 434.44 381.704 434.616 381.648C434.792 381.592 435 381.536 435.24 381.48C435.48 381.416 435.744 381.364 436.032 381.324C436.32 381.276 436.608 381.252 436.896 381.252C437.2 381.252 437.524 381.3 437.868 381.396C438.22 381.484 438.54 381.636 438.828 381.852C439.124 382.068 439.368 382.356 439.56 382.716C439.76 383.068 439.86 383.504 439.86 384.024C439.86 384.504 439.756 384.94 439.548 385.332C439.348 385.716 439.092 386.072 438.78 386.4C438.476 386.728 438.14 387.032 437.772 387.312C437.404 387.584 437.06 387.848 436.74 388.104L435.996 388.692C436.068 388.692 436.16 388.688 436.272 388.68C436.384 388.672 436.5 388.668 436.62 388.668C436.74 388.66 436.856 388.656 436.968 388.656C437.08 388.648 437.172 388.644 437.244 388.644H439.944V390H434.28ZM447.867 388.14V390H446.391V388.14H442.431V386.676L446.403 381.408H447.867V386.82H449.103V388.14H447.867ZM446.451 384.252C446.451 384.156 446.451 384.056 446.451 383.952C446.459 383.84 446.463 383.732 446.463 383.628C446.471 383.524 446.479 383.428 446.487 383.34C446.495 383.244 446.503 383.164 446.511 383.1C446.455 383.204 446.363 383.36 446.235 383.568C446.107 383.768 445.987 383.948 445.875 384.108L444.303 386.196C444.255 386.26 444.199 386.328 444.135 386.4C444.079 386.464 444.015 386.532 443.943 386.604C443.879 386.668 443.815 386.728 443.751 386.784C443.695 386.84 443.651 386.884 443.619 386.916C443.779 386.908 443.939 386.9 444.099 386.892C444.267 386.876 444.439 386.868 444.615 386.868H446.451V384.252Z" fill="black"/>
<defs>
<clipPath id="clip0_56_631">
<rect width="48" height="102" fill="white" transform="translate(109.5 217)"/>
</clipPath>
<clipPath id="clip1_56_631">
<rect width="48" height="172" fill="white" transform="translate(157.5 147)"/>
</clipPath>
<clipPath id="clip2_56_631">
<rect width="48" height="212" fill="white" transform="translate(260.5 107)"/>
</clipPath>
<clipPath id="clip3_56_631">
<rect width="48" height="62" fill="white" transform="translate(411.5 257)"/>
</clipPath>
<clipPath id="clip4_56_631">
<rect width="48" height="49" fill="white" transform="translate(459.5 270)"/>
</clipPath>
<clipPath id="clip5_56_631">
<rect width="48" height="51" fill="white" transform="translate(562.5 268)"/>
</clipPath>
</defs>
</svg>
