<svg width="768" height="479" viewBox="0 0 768 479" fill="none" xmlns="http://www.w3.org/2000/svg">
<rect width="768" height="479" rx="24" fill="#F9FAFB"/>
<g clip-path="url(#clip0_56_697)">
<rect width="348" height="339" transform="translate(24 48)" fill="white"/>
<g clip-path="url(#clip1_56_697)">
<path d="M76 90C76 85.5817 79.5817 82 84 82H116C120.418 82 124 85.5817 124 90V228H76V90Z" fill="#708DAF"/>
<path d="M102.713 157.552C102.713 158.008 102.609 158.404 102.401 158.74C102.193 159.068 101.929 159.336 101.609 159.544C101.297 159.752 100.949 159.904 100.565 160C100.181 160.104 99.8087 160.156 99.4487 160.156C99.1607 160.156 98.8727 160.136 98.5847 160.096C98.2967 160.064 98.0287 160.02 97.7807 159.964C97.5407 159.908 97.3207 159.852 97.1207 159.796C96.9287 159.732 96.7767 159.68 96.6647 159.64L96.9887 158.416L97.3967 158.524C97.5727 158.564 97.7647 158.608 97.9727 158.656C98.1887 158.696 98.4087 158.732 98.6327 158.764C98.8647 158.788 99.0887 158.8 99.3047 158.8C99.6087 158.8 99.8727 158.764 100.097 158.692C100.329 158.612 100.521 158.508 100.673 158.38C100.825 158.252 100.937 158.108 101.009 157.948C101.089 157.78 101.129 157.612 101.129 157.444C101.129 157.156 101.057 156.92 100.913 156.736C100.769 156.544 100.577 156.396 100.337 156.292C100.105 156.188 99.8407 156.116 99.5447 156.076C99.2487 156.036 98.9487 156.016 98.6447 156.016V154.828C99.4207 154.828 99.9927 154.724 100.361 154.516C100.729 154.3 100.913 154.004 100.913 153.628C100.913 153.452 100.865 153.3 100.769 153.172C100.673 153.036 100.545 152.928 100.385 152.848C100.225 152.768 100.041 152.708 99.8327 152.668C99.6327 152.628 99.4207 152.608 99.1967 152.608C99.0207 152.608 98.8287 152.624 98.6207 152.656C98.4207 152.688 98.2247 152.724 98.0327 152.764C97.8407 152.804 97.6647 152.848 97.5047 152.896C97.3527 152.936 97.2327 152.972 97.1447 153.004L96.8207 151.768C96.9007 151.744 97.0327 151.704 97.2167 151.648C97.4007 151.584 97.6127 151.524 97.8527 151.468C98.1007 151.412 98.3687 151.364 98.6567 151.324C98.9527 151.276 99.2527 151.252 99.5567 151.252C99.8527 151.252 100.169 151.292 100.505 151.372C100.849 151.444 101.165 151.568 101.453 151.744C101.749 151.912 101.993 152.136 102.185 152.416C102.385 152.688 102.485 153.02 102.485 153.412C102.485 153.7 102.429 153.952 102.317 154.168C102.205 154.384 102.069 154.568 101.909 154.72C101.749 154.872 101.573 154.996 101.381 155.092C101.189 155.18 101.021 155.24 100.877 155.272C101.029 155.312 101.209 155.376 101.417 155.464C101.633 155.56 101.837 155.7 102.029 155.884C102.221 156.06 102.381 156.288 102.509 156.568C102.645 156.84 102.713 157.168 102.713 157.552Z" fill="black"/>
<rect width="48" height="70" transform="translate(76 228)" fill="#1F314A"/>
<path d="M97.0007 268V266.608L99.2807 264.532C99.5927 264.244 99.8567 263.992 100.073 263.776C100.297 263.56 100.477 263.36 100.613 263.176C100.749 262.984 100.849 262.796 100.913 262.612C100.977 262.428 101.009 262.224 101.009 262C101.009 261.544 100.857 261.2 100.553 260.968C100.249 260.728 99.8767 260.608 99.4367 260.608C99.2207 260.608 99.0007 260.624 98.7767 260.656C98.5607 260.688 98.3527 260.728 98.1527 260.776C97.9607 260.816 97.7887 260.86 97.6367 260.908C97.4847 260.948 97.3727 260.98 97.3007 261.004L96.9647 259.768C97.0367 259.744 97.1607 259.704 97.3367 259.648C97.5127 259.592 97.7207 259.536 97.9607 259.48C98.2007 259.416 98.4647 259.364 98.7527 259.324C99.0407 259.276 99.3287 259.252 99.6167 259.252C99.9207 259.252 100.245 259.3 100.589 259.396C100.941 259.484 101.261 259.636 101.549 259.852C101.845 260.068 102.089 260.356 102.281 260.716C102.481 261.068 102.581 261.504 102.581 262.024C102.581 262.504 102.477 262.94 102.269 263.332C102.069 263.716 101.813 264.072 101.501 264.4C101.197 264.728 100.861 265.032 100.493 265.312C100.125 265.584 99.7807 265.848 99.4607 266.104L98.7167 266.692C98.7887 266.692 98.8807 266.688 98.9927 266.68C99.1047 266.672 99.2207 266.668 99.3407 266.668C99.4607 266.66 99.5767 266.656 99.6887 266.656C99.8007 266.648 99.8927 266.644 99.9647 266.644H102.665V268H97.0007Z" fill="white"/>
</g>
<mask id="path-6-inside-1_56_697" fill="white">
<path d="M48 298H152V307H48V298Z"/>
</mask>
<path d="M48 298V297H47V298H48ZM152 298H153V297H152V298ZM48 299H152V297H48V299ZM151 298V307H153V298H151ZM49 307V298H47V307H49Z" fill="black" mask="url(#path-6-inside-1_56_697)"/>
<path d="M81.5599 319.168C81.5599 319.616 81.4839 320.02 81.3319 320.38C81.1879 320.732 80.9799 321.036 80.7079 321.292C80.4439 321.54 80.1239 321.732 79.7479 321.868C79.3719 322.004 78.9559 322.072 78.4999 322.072H77.0359V325H75.5359V316.252H78.4999C79.4999 316.252 80.2599 316.516 80.7799 317.044C81.2999 317.572 81.5599 318.28 81.5599 319.168ZM80.0119 319.168C80.0119 318.624 79.8719 318.228 79.5919 317.98C79.3199 317.724 78.9319 317.596 78.4279 317.596H77.0359V320.728H78.4279C78.6519 320.728 78.8599 320.7 79.0519 320.644C79.2439 320.588 79.4119 320.5 79.5559 320.38C79.6999 320.252 79.8119 320.088 79.8919 319.888C79.9719 319.688 80.0119 319.448 80.0119 319.168ZM83.7761 325V318.376H84.7121L85.0721 319.744C85.2241 319.416 85.3961 319.156 85.5881 318.964C85.7801 318.772 85.9681 318.628 86.1521 318.532C86.3441 318.428 86.5201 318.364 86.6801 318.34C86.8481 318.308 86.9761 318.292 87.0641 318.292C87.2321 318.292 87.3721 318.296 87.4841 318.304C87.5961 318.312 87.6801 318.324 87.7361 318.34L87.6041 319.816C87.5641 319.808 87.5041 319.804 87.4241 319.804C87.3521 319.796 87.2801 319.792 87.2081 319.792C87.0801 319.792 86.9401 319.804 86.7881 319.828C86.6361 319.852 86.4721 319.9 86.2961 319.972C86.1281 320.044 85.9561 320.148 85.7801 320.284C85.6041 320.412 85.4281 320.588 85.2521 320.812V325H83.7761ZM89.7697 325V318.376H91.2457V325H89.7697ZM89.5897 316.792C89.5897 316.488 89.6537 316.28 89.7817 316.168C89.9177 316.056 90.1577 316 90.5017 316C90.8377 316 91.0697 316.056 91.1977 316.168C91.3337 316.28 91.4017 316.488 91.4017 316.792C91.4017 317.088 91.3337 317.292 91.1977 317.404C91.0697 317.508 90.8377 317.56 90.5017 317.56C90.1577 317.56 89.9177 317.508 89.7817 317.404C89.6537 317.292 89.5897 317.088 89.5897 316.792ZM101.994 325V321.16C101.994 320.976 101.986 320.792 101.97 320.608C101.954 320.416 101.914 320.244 101.85 320.092C101.786 319.94 101.686 319.816 101.55 319.72C101.414 319.624 101.226 319.576 100.986 319.576C100.682 319.576 100.406 319.652 100.158 319.804C99.9098 319.956 99.6738 320.14 99.4498 320.356C99.4578 320.428 99.4618 320.524 99.4618 320.644C99.4698 320.756 99.4738 320.86 99.4738 320.956V325H98.0098V321.16C98.0098 320.976 98.0018 320.792 97.9858 320.608C97.9778 320.416 97.9378 320.244 97.8658 320.092C97.8018 319.94 97.7018 319.816 97.5658 319.72C97.4378 319.624 97.2538 319.576 97.0138 319.576C96.7178 319.576 96.4458 319.652 96.1978 319.804C95.9498 319.948 95.7138 320.128 95.4898 320.344V325H94.0378V318.388H94.9858L95.2378 319.324C95.3578 319.188 95.4898 319.052 95.6338 318.916C95.7778 318.78 95.9338 318.66 96.1018 318.556C96.2778 318.444 96.4698 318.356 96.6778 318.292C96.8858 318.228 97.1098 318.196 97.3498 318.196C98.2618 318.196 98.8778 318.576 99.1978 319.336C99.4698 319.016 99.7778 318.748 100.122 318.532C100.466 318.308 100.866 318.196 101.322 318.196C102.05 318.196 102.586 318.42 102.93 318.868C103.274 319.308 103.446 319.94 103.446 320.764V325H101.994ZM110.084 325L109.808 324.088C109.736 324.2 109.644 324.32 109.532 324.448C109.42 324.568 109.28 324.684 109.112 324.796C108.944 324.9 108.748 324.984 108.524 325.048C108.3 325.12 108.044 325.156 107.756 325.156C107.5 325.156 107.244 325.116 106.988 325.036C106.732 324.956 106.5 324.832 106.292 324.664C106.084 324.488 105.912 324.264 105.776 323.992C105.648 323.712 105.584 323.372 105.584 322.972C105.584 322.596 105.66 322.284 105.812 322.036C105.964 321.78 106.16 321.58 106.4 321.436C106.64 321.284 106.912 321.176 107.216 321.112C107.52 321.048 107.824 321.016 108.128 321.016H109.568V320.776C109.568 320.52 109.532 320.308 109.46 320.14C109.388 319.972 109.292 319.84 109.172 319.744C109.052 319.648 108.912 319.584 108.752 319.552C108.6 319.512 108.436 319.492 108.26 319.492C108.1 319.492 107.924 319.504 107.732 319.528C107.54 319.552 107.356 319.584 107.18 319.624C107.004 319.656 106.844 319.688 106.7 319.72C106.556 319.752 106.456 319.776 106.4 319.792L106.076 318.652C106.172 318.62 106.308 318.58 106.484 318.532C106.66 318.484 106.856 318.436 107.072 318.388C107.288 318.34 107.516 318.3 107.756 318.268C107.996 318.236 108.236 318.22 108.476 318.22C108.724 318.22 108.996 318.248 109.292 318.304C109.596 318.36 109.876 318.484 110.132 318.676C110.396 318.86 110.612 319.132 110.78 319.492C110.956 319.844 111.044 320.32 111.044 320.92V325H110.084ZM108.2 321.988C107.984 321.996 107.8 322.028 107.648 322.084C107.496 322.14 107.372 322.212 107.276 322.3C107.188 322.388 107.124 322.492 107.084 322.612C107.044 322.724 107.024 322.84 107.024 322.96C107.024 323.088 107.04 323.216 107.072 323.344C107.112 323.464 107.172 323.576 107.252 323.68C107.34 323.776 107.452 323.856 107.588 323.92C107.732 323.976 107.908 324.004 108.116 324.004C108.308 324.004 108.492 323.972 108.668 323.908C108.844 323.836 109 323.72 109.136 323.56C109.272 323.4 109.38 323.188 109.46 322.924C109.54 322.66 109.58 322.332 109.58 321.94L108.2 321.988ZM113.686 325V318.376H114.622L114.982 319.744C115.134 319.416 115.306 319.156 115.498 318.964C115.69 318.772 115.878 318.628 116.062 318.532C116.254 318.428 116.43 318.364 116.59 318.34C116.758 318.308 116.886 318.292 116.974 318.292C117.142 318.292 117.282 318.296 117.394 318.304C117.506 318.312 117.59 318.324 117.646 318.34L117.514 319.816C117.474 319.808 117.414 319.804 117.334 319.804C117.262 319.796 117.19 319.792 117.118 319.792C116.99 319.792 116.85 319.804 116.698 319.828C116.546 319.852 116.382 319.9 116.206 319.972C116.038 320.044 115.866 320.148 115.69 320.284C115.514 320.412 115.338 320.588 115.162 320.812V325H113.686ZM122.276 327.376H120.8L121.784 325H121.436L119.204 318.376H120.752L121.892 322.072C122.02 322.48 122.108 322.832 122.156 323.128C122.204 323.416 122.244 323.624 122.276 323.752C122.3 323.624 122.336 323.412 122.384 323.116C122.44 322.812 122.532 322.456 122.66 322.048L123.788 318.376H125.3L122.276 327.376Z" fill="#2E2A2A"/>
<g clip-path="url(#clip2_56_697)">
<path d="M179 90C179 85.5817 182.582 82 187 82H219C223.418 82 227 85.5817 227 90V123.667H179V90Z" fill="#C6D6E3"/>
<path d="M200.001 107.833V106.441L202.281 104.365C202.593 104.077 202.857 103.825 203.073 103.609C203.297 103.393 203.477 103.193 203.613 103.009C203.749 102.817 203.849 102.629 203.913 102.445C203.977 102.261 204.009 102.057 204.009 101.833C204.009 101.377 203.857 101.033 203.553 100.801C203.249 100.561 202.877 100.441 202.437 100.441C202.221 100.441 202.001 100.457 201.777 100.489C201.561 100.521 201.353 100.561 201.153 100.609C200.961 100.649 200.789 100.693 200.637 100.741C200.485 100.781 200.373 100.813 200.301 100.837L199.965 99.6014C200.037 99.5774 200.161 99.5374 200.337 99.4814C200.513 99.4254 200.721 99.3694 200.961 99.3134C201.201 99.2494 201.465 99.1974 201.753 99.1574C202.041 99.1094 202.329 99.0854 202.617 99.0854C202.921 99.0854 203.245 99.1334 203.589 99.2294C203.941 99.3174 204.261 99.4694 204.549 99.6854C204.845 99.9014 205.089 100.189 205.281 100.549C205.481 100.901 205.581 101.337 205.581 101.857C205.581 102.337 205.477 102.773 205.269 103.165C205.069 103.549 204.813 103.905 204.501 104.233C204.197 104.561 203.861 104.865 203.493 105.145C203.125 105.417 202.781 105.681 202.461 105.937L201.717 106.525C201.789 106.525 201.881 106.521 201.993 106.513C202.105 106.505 202.221 106.501 202.341 106.501C202.461 106.493 202.577 106.489 202.689 106.489C202.801 106.481 202.893 106.477 202.965 106.477H205.665V107.833H200.001Z" fill="black"/>
<rect width="48" height="71.6667" transform="translate(179 123.667)" fill="#A9BBCF"/>
<path d="M205.713 162.052C205.713 162.508 205.609 162.904 205.401 163.24C205.193 163.568 204.929 163.836 204.609 164.044C204.297 164.252 203.949 164.404 203.565 164.5C203.181 164.604 202.809 164.656 202.449 164.656C202.161 164.656 201.873 164.636 201.585 164.596C201.297 164.564 201.029 164.52 200.781 164.464C200.541 164.408 200.321 164.352 200.121 164.296C199.929 164.232 199.777 164.18 199.665 164.14L199.989 162.916L200.397 163.024C200.573 163.064 200.765 163.108 200.973 163.156C201.189 163.196 201.409 163.232 201.633 163.264C201.865 163.288 202.089 163.3 202.305 163.3C202.609 163.3 202.873 163.264 203.097 163.192C203.329 163.112 203.521 163.008 203.673 162.88C203.825 162.752 203.937 162.608 204.009 162.448C204.089 162.28 204.129 162.112 204.129 161.944C204.129 161.656 204.057 161.42 203.913 161.236C203.769 161.044 203.577 160.896 203.337 160.792C203.105 160.688 202.841 160.616 202.545 160.576C202.249 160.536 201.949 160.516 201.645 160.516V159.328C202.421 159.328 202.993 159.224 203.361 159.016C203.729 158.8 203.913 158.504 203.913 158.128C203.913 157.952 203.865 157.8 203.769 157.672C203.673 157.536 203.545 157.428 203.385 157.348C203.225 157.268 203.041 157.208 202.833 157.168C202.633 157.128 202.421 157.108 202.197 157.108C202.021 157.108 201.829 157.124 201.621 157.156C201.421 157.188 201.225 157.224 201.033 157.264C200.841 157.304 200.665 157.348 200.505 157.396C200.353 157.436 200.233 157.472 200.145 157.504L199.821 156.268C199.901 156.244 200.033 156.204 200.217 156.148C200.401 156.084 200.613 156.024 200.853 155.968C201.101 155.912 201.369 155.864 201.657 155.824C201.953 155.776 202.253 155.752 202.557 155.752C202.853 155.752 203.169 155.792 203.505 155.872C203.849 155.944 204.165 156.068 204.453 156.244C204.749 156.412 204.993 156.636 205.185 156.916C205.385 157.188 205.485 157.52 205.485 157.912C205.485 158.2 205.429 158.452 205.317 158.668C205.205 158.884 205.069 159.068 204.909 159.22C204.749 159.372 204.573 159.496 204.381 159.592C204.189 159.68 204.021 159.74 203.877 159.772C204.029 159.812 204.209 159.876 204.417 159.964C204.633 160.06 204.837 160.2 205.029 160.384C205.221 160.56 205.381 160.788 205.509 161.068C205.645 161.34 205.713 161.668 205.713 162.052Z" fill="black"/>
<rect width="48" height="41.6667" transform="translate(179 195.333)" fill="#708DAF"/>
<path d="M200.001 221.167V219.775L202.281 217.699C202.593 217.411 202.857 217.159 203.073 216.943C203.297 216.727 203.477 216.527 203.613 216.343C203.749 216.151 203.849 215.963 203.913 215.779C203.977 215.595 204.009 215.391 204.009 215.167C204.009 214.711 203.857 214.367 203.553 214.135C203.249 213.895 202.877 213.775 202.437 213.775C202.221 213.775 202.001 213.791 201.777 213.823C201.561 213.855 201.353 213.895 201.153 213.943C200.961 213.983 200.789 214.027 200.637 214.075C200.485 214.115 200.373 214.147 200.301 214.171L199.965 212.935C200.037 212.911 200.161 212.871 200.337 212.815C200.513 212.759 200.721 212.703 200.961 212.647C201.201 212.583 201.465 212.531 201.753 212.491C202.041 212.443 202.329 212.419 202.617 212.419C202.921 212.419 203.245 212.467 203.589 212.563C203.941 212.651 204.261 212.803 204.549 213.019C204.845 213.235 205.089 213.523 205.281 213.883C205.481 214.235 205.581 214.671 205.581 215.191C205.581 215.671 205.477 216.107 205.269 216.499C205.069 216.883 204.813 217.239 204.501 217.567C204.197 217.895 203.861 218.199 203.493 218.479C203.125 218.751 202.781 219.015 202.461 219.271L201.717 219.859C201.789 219.859 201.881 219.855 201.993 219.847C202.105 219.839 202.221 219.835 202.341 219.835C202.461 219.827 202.577 219.823 202.689 219.823C202.801 219.815 202.893 219.811 202.965 219.811H205.665V221.167H200.001Z" fill="black"/>
<rect width="48" height="61" transform="translate(179 237)" fill="#1F314A"/>
<path d="M205.029 270.64V272.5H203.553V270.64H199.593V269.176L203.565 263.908H205.029V269.32H206.265V270.64H205.029ZM203.613 266.752C203.613 266.656 203.613 266.556 203.613 266.452C203.621 266.34 203.625 266.232 203.625 266.128C203.633 266.024 203.641 265.928 203.649 265.84C203.657 265.744 203.665 265.664 203.673 265.6C203.617 265.704 203.525 265.86 203.397 266.068C203.269 266.268 203.149 266.448 203.037 266.608L201.465 268.696C201.417 268.76 201.361 268.828 201.297 268.9C201.241 268.964 201.177 269.032 201.105 269.104C201.041 269.168 200.977 269.228 200.913 269.284C200.857 269.34 200.813 269.384 200.781 269.416C200.941 269.408 201.101 269.4 201.261 269.392C201.429 269.376 201.601 269.368 201.777 269.368H203.613V266.752Z" fill="white"/>
</g>
<mask id="path-14-inside-2_56_697" fill="white">
<path d="M151 298H255V307H151V298Z"/>
</mask>
<path d="M151 298V297H150V298H151ZM255 298H256V297H255V298ZM151 299H255V297H151V299ZM254 298V307H256V298H254ZM152 307V298H150V307H152Z" fill="black" mask="url(#path-14-inside-2_56_697)"/>
<path d="M194.925 325.192C194.293 325.192 193.737 325.084 193.257 324.868C192.785 324.644 192.389 324.332 192.069 323.932C191.757 323.532 191.521 323.052 191.361 322.492C191.201 321.932 191.121 321.308 191.121 320.62C191.121 319.94 191.201 319.32 191.361 318.76C191.521 318.2 191.757 317.72 192.069 317.32C192.389 316.912 192.785 316.6 193.257 316.384C193.737 316.16 194.293 316.048 194.925 316.048C195.557 316.048 196.109 316.16 196.581 316.384C197.061 316.6 197.461 316.912 197.781 317.32C198.101 317.72 198.341 318.2 198.501 318.76C198.661 319.32 198.741 319.94 198.741 320.62C198.741 321.308 198.661 321.932 198.501 322.492C198.341 323.052 198.101 323.532 197.781 323.932C197.461 324.332 197.061 324.644 196.581 324.868C196.109 325.084 195.557 325.192 194.925 325.192ZM194.925 323.836C195.285 323.836 195.605 323.784 195.885 323.68C196.165 323.576 196.401 323.4 196.593 323.152C196.785 322.904 196.933 322.576 197.037 322.168C197.141 321.76 197.193 321.248 197.193 320.632C197.193 320.024 197.141 319.516 197.037 319.108C196.933 318.692 196.785 318.36 196.593 318.112C196.401 317.864 196.165 317.688 195.885 317.584C195.605 317.48 195.285 317.428 194.925 317.428C194.573 317.428 194.257 317.48 193.977 317.584C193.697 317.688 193.461 317.864 193.269 318.112C193.077 318.36 192.929 318.692 192.825 319.108C192.721 319.516 192.669 320.024 192.669 320.632C192.669 321.248 192.721 321.76 192.825 322.168C192.929 322.576 193.077 322.904 193.269 323.152C193.461 323.4 193.697 323.576 193.977 323.68C194.257 323.784 194.573 323.836 194.925 323.836ZM202.794 317.596V320.296H206.202V321.616H202.794V325H201.306V316.252H206.79V317.596H202.794ZM208.832 323.428C208.944 323.46 209.096 323.5 209.288 323.548C209.488 323.588 209.704 323.632 209.936 323.68C210.168 323.72 210.408 323.756 210.656 323.788C210.904 323.82 211.144 323.836 211.376 323.836C212.104 323.836 212.62 323.724 212.924 323.5C213.228 323.268 213.38 322.964 213.38 322.588C213.38 322.364 213.34 322.18 213.26 322.036C213.18 321.884 213.048 321.76 212.864 321.664C212.688 321.568 212.46 321.488 212.18 321.424C211.9 321.352 211.56 321.276 211.16 321.196C210.816 321.132 210.484 321.044 210.164 320.932C209.844 320.812 209.56 320.652 209.312 320.452C209.064 320.252 208.864 320 208.712 319.696C208.56 319.384 208.484 319 208.484 318.544C208.484 318.176 208.56 317.84 208.712 317.536C208.864 317.224 209.08 316.96 209.36 316.744C209.648 316.528 209.988 316.36 210.38 316.24C210.78 316.12 211.224 316.06 211.712 316.06C212.288 316.06 212.828 316.112 213.332 316.216C213.844 316.312 214.252 316.42 214.556 316.54L214.22 317.776C214.1 317.744 213.948 317.708 213.764 317.668C213.588 317.62 213.392 317.58 213.176 317.548C212.96 317.516 212.736 317.488 212.504 317.464C212.272 317.44 212.048 317.428 211.832 317.428C211.584 317.428 211.348 317.448 211.124 317.488C210.908 317.52 210.716 317.58 210.548 317.668C210.38 317.748 210.248 317.86 210.152 318.004C210.056 318.148 210.008 318.328 210.008 318.544C210.008 318.76 210.06 318.94 210.164 319.084C210.268 319.22 210.408 319.332 210.584 319.42C210.768 319.508 210.98 319.58 211.22 319.636C211.46 319.684 211.72 319.736 212 319.792C212.36 319.864 212.712 319.952 213.056 320.056C213.408 320.152 213.72 320.3 213.992 320.5C214.264 320.692 214.484 320.948 214.652 321.268C214.82 321.58 214.904 321.984 214.904 322.48C214.904 322.864 214.832 323.224 214.688 323.56C214.552 323.888 214.344 324.176 214.064 324.424C213.792 324.664 213.452 324.856 213.044 325C212.644 325.136 212.176 325.204 211.64 325.204C211.272 325.204 210.92 325.184 210.584 325.144C210.248 325.104 209.94 325.056 209.66 325C209.388 324.936 209.148 324.876 208.94 324.82C208.74 324.756 208.592 324.704 208.496 324.664L208.832 323.428Z" fill="#2E2A2A"/>
<g clip-path="url(#clip3_56_697)">
<path d="M282 90C282 85.5817 285.582 82 290 82H322C326.418 82 330 85.5817 330 90V190H282V90Z" fill="#708DAF"/>
<path d="M303.745 141V139.764H305.509V133.836L303.901 134.088L303.625 132.936L305.857 132.36H307.009V139.764H308.713V141H303.745Z" fill="black"/>
<rect width="48" height="108" transform="translate(282 190)" fill="#1F314A"/>
<path d="M303.745 249V247.764H305.509V241.836L303.901 242.088L303.625 240.936L305.857 240.36H307.009V247.764H308.713V249H303.745Z" fill="white"/>
</g>
<mask id="path-20-inside-3_56_697" fill="white">
<path d="M254 298H358V307H254V298Z"/>
</mask>
<path d="M254 298V297H253V298H254ZM358 298H359V297H358V298ZM254 299H358V297H254V299ZM357 298V307H359V298H357ZM255 307V298H253V307H255Z" fill="black" mask="url(#path-20-inside-3_56_697)"/>
<path d="M303.229 325L302.989 319.372C302.981 319.268 302.973 319.144 302.965 319C302.965 318.856 302.965 318.712 302.965 318.568V317.788C302.933 317.924 302.893 318.132 302.845 318.412C302.805 318.684 302.741 318.964 302.653 319.252L300.841 325H299.617L297.805 319.252C297.717 318.956 297.649 318.672 297.601 318.4C297.561 318.128 297.525 317.924 297.493 317.788V318.136C297.493 318.272 297.489 318.416 297.481 318.568C297.481 318.712 297.477 318.856 297.469 319C297.469 319.144 297.469 319.268 297.469 319.372L297.229 325H295.765L296.125 316.252H298.285L299.821 321.196C299.869 321.34 299.913 321.504 299.953 321.688C299.993 321.864 300.033 322.048 300.073 322.24C300.113 322.424 300.145 322.6 300.169 322.768C300.201 322.928 300.229 323.06 300.253 323.164C300.269 323.06 300.293 322.928 300.325 322.768C300.357 322.6 300.393 322.424 300.433 322.24C300.473 322.048 300.513 321.864 300.553 321.688C300.601 321.504 300.645 321.34 300.685 321.196L302.197 316.252H304.345L304.693 325H303.229ZM307.375 325V318.376H308.851V325H307.375ZM307.195 316.792C307.195 316.488 307.259 316.28 307.387 316.168C307.523 316.056 307.763 316 308.107 316C308.443 316 308.675 316.056 308.803 316.168C308.939 316.28 309.007 316.488 309.007 316.792C309.007 317.088 308.939 317.292 308.803 317.404C308.675 317.508 308.443 317.56 308.107 317.56C307.763 317.56 307.523 317.508 307.387 317.404C307.259 317.292 307.195 317.088 307.195 316.792ZM315.219 325L314.391 323.62C314.351 323.556 314.303 323.476 314.247 323.38C314.199 323.284 314.147 323.184 314.091 323.08C314.043 322.976 313.995 322.88 313.947 322.792C313.899 322.696 313.859 322.616 313.827 322.552C313.795 322.616 313.755 322.696 313.707 322.792C313.667 322.88 313.619 322.976 313.563 323.08C313.515 323.184 313.463 323.284 313.407 323.38C313.359 323.476 313.315 323.556 313.275 323.62L312.435 325H310.851L312.975 321.64L310.899 318.376H312.591L313.371 319.66C313.467 319.82 313.567 320.008 313.671 320.224L313.923 320.716C313.979 320.604 314.055 320.452 314.151 320.26C314.255 320.06 314.367 319.86 314.487 319.66L315.267 318.376H316.851L314.787 321.64L316.911 325H315.219Z" fill="#2E2A2A"/>
<path d="M170.215 358V355.448L174.395 351.642C174.967 351.114 175.451 350.652 175.847 350.256C176.258 349.86 176.588 349.493 176.837 349.156C177.086 348.804 177.27 348.459 177.387 348.122C177.504 347.785 177.563 347.411 177.563 347C177.563 346.164 177.284 345.533 176.727 345.108C176.17 344.668 175.488 344.448 174.681 344.448C174.285 344.448 173.882 344.477 173.471 344.536C173.075 344.595 172.694 344.668 172.327 344.756C171.975 344.829 171.66 344.91 171.381 344.998C171.102 345.071 170.897 345.13 170.765 345.174L170.149 342.908C170.281 342.864 170.508 342.791 170.831 342.688C171.154 342.585 171.535 342.483 171.975 342.38C172.415 342.263 172.899 342.167 173.427 342.094C173.955 342.006 174.483 341.962 175.011 341.962C175.568 341.962 176.162 342.05 176.793 342.226C177.438 342.387 178.025 342.666 178.553 343.062C179.096 343.458 179.543 343.986 179.895 344.646C180.262 345.291 180.445 346.091 180.445 347.044C180.445 347.924 180.254 348.723 179.873 349.442C179.506 350.146 179.037 350.799 178.465 351.4C177.908 352.001 177.292 352.559 176.617 353.072C175.942 353.571 175.312 354.055 174.725 354.524L173.361 355.602C173.493 355.602 173.662 355.595 173.867 355.58C174.072 355.565 174.285 355.558 174.505 355.558C174.725 355.543 174.938 355.536 175.143 355.536C175.348 355.521 175.517 355.514 175.649 355.514H180.599V358H170.215ZM196.403 350.124C196.403 351.4 196.278 352.544 196.029 353.556C195.779 354.568 195.405 355.426 194.907 356.13C194.423 356.834 193.814 357.369 193.081 357.736C192.362 358.103 191.526 358.286 190.573 358.286C189.605 358.286 188.754 358.103 188.021 357.736C187.302 357.369 186.693 356.834 186.195 356.13C185.711 355.426 185.344 354.568 185.095 353.556C184.845 352.544 184.721 351.4 184.721 350.124C184.721 348.833 184.845 347.682 185.095 346.67C185.344 345.658 185.711 344.8 186.195 344.096C186.693 343.392 187.302 342.857 188.021 342.49C188.754 342.123 189.605 341.94 190.573 341.94C191.526 341.94 192.362 342.123 193.081 342.49C193.814 342.857 194.423 343.392 194.907 344.096C195.405 344.8 195.779 345.658 196.029 346.67C196.278 347.682 196.403 348.833 196.403 350.124ZM193.521 350.124C193.521 349.024 193.447 348.115 193.301 347.396C193.154 346.663 192.949 346.076 192.685 345.636C192.421 345.196 192.105 344.888 191.739 344.712C191.372 344.521 190.969 344.426 190.529 344.426C190.089 344.426 189.685 344.521 189.319 344.712C188.952 344.888 188.629 345.196 188.351 345.636C188.087 346.076 187.881 346.663 187.735 347.396C187.588 348.115 187.515 349.024 187.515 350.124C187.515 351.209 187.588 352.119 187.735 352.852C187.881 353.571 188.087 354.15 188.351 354.59C188.629 355.03 188.952 355.345 189.319 355.536C189.685 355.712 190.089 355.8 190.529 355.8C190.969 355.8 191.372 355.712 191.739 355.536C192.105 355.345 192.421 355.03 192.685 354.59C192.949 354.15 193.154 353.571 193.301 352.852C193.447 352.119 193.521 351.209 193.521 350.124ZM199.93 358V355.448L204.11 351.642C204.682 351.114 205.166 350.652 205.562 350.256C205.973 349.86 206.303 349.493 206.552 349.156C206.801 348.804 206.985 348.459 207.102 348.122C207.219 347.785 207.278 347.411 207.278 347C207.278 346.164 206.999 345.533 206.442 345.108C205.885 344.668 205.203 344.448 204.396 344.448C204 344.448 203.597 344.477 203.186 344.536C202.79 344.595 202.409 344.668 202.042 344.756C201.69 344.829 201.375 344.91 201.096 344.998C200.817 345.071 200.612 345.13 200.48 345.174L199.864 342.908C199.996 342.864 200.223 342.791 200.546 342.688C200.869 342.585 201.25 342.483 201.69 342.38C202.13 342.263 202.614 342.167 203.142 342.094C203.67 342.006 204.198 341.962 204.726 341.962C205.283 341.962 205.877 342.05 206.508 342.226C207.153 342.387 207.74 342.666 208.268 343.062C208.811 343.458 209.258 343.986 209.61 344.646C209.977 345.291 210.16 346.091 210.16 347.044C210.16 347.924 209.969 348.723 209.588 349.442C209.221 350.146 208.752 350.799 208.18 351.4C207.623 352.001 207.007 352.559 206.332 353.072C205.657 353.571 205.027 354.055 204.44 354.524L203.076 355.602C203.208 355.602 203.377 355.595 203.582 355.58C203.787 355.565 204 355.558 204.22 355.558C204.44 355.543 204.653 355.536 204.858 355.536C205.063 355.521 205.232 355.514 205.364 355.514H210.314V358H199.93ZM225.259 353.512C225.259 354.348 225.069 355.074 224.687 355.69C224.306 356.291 223.822 356.783 223.235 357.164C222.663 357.545 222.025 357.824 221.321 358C220.617 358.191 219.935 358.286 219.275 358.286C218.747 358.286 218.219 358.249 217.691 358.176C217.163 358.117 216.672 358.037 216.217 357.934C215.777 357.831 215.374 357.729 215.007 357.626C214.655 357.509 214.377 357.413 214.171 357.34L214.765 355.096L215.513 355.294C215.836 355.367 216.188 355.448 216.569 355.536C216.965 355.609 217.369 355.675 217.779 355.734C218.205 355.778 218.615 355.8 219.011 355.8C219.569 355.8 220.053 355.734 220.463 355.602C220.889 355.455 221.241 355.265 221.519 355.03C221.798 354.795 222.003 354.531 222.135 354.238C222.282 353.93 222.355 353.622 222.355 353.314C222.355 352.786 222.223 352.353 221.959 352.016C221.695 351.664 221.343 351.393 220.903 351.202C220.478 351.011 219.994 350.879 219.451 350.806C218.909 350.733 218.359 350.696 217.801 350.696V348.518C219.224 348.518 220.273 348.327 220.947 347.946C221.622 347.55 221.959 347.007 221.959 346.318C221.959 345.995 221.871 345.717 221.695 345.482C221.519 345.233 221.285 345.035 220.991 344.888C220.698 344.741 220.361 344.631 219.979 344.558C219.613 344.485 219.224 344.448 218.813 344.448C218.491 344.448 218.139 344.477 217.757 344.536C217.391 344.595 217.031 344.661 216.679 344.734C216.327 344.807 216.005 344.888 215.711 344.976C215.433 345.049 215.213 345.115 215.051 345.174L214.457 342.908C214.604 342.864 214.846 342.791 215.183 342.688C215.521 342.571 215.909 342.461 216.349 342.358C216.804 342.255 217.295 342.167 217.823 342.094C218.366 342.006 218.916 341.962 219.473 341.962C220.016 341.962 220.595 342.035 221.211 342.182C221.842 342.314 222.421 342.541 222.949 342.864C223.492 343.172 223.939 343.583 224.291 344.096C224.658 344.595 224.841 345.203 224.841 345.922C224.841 346.45 224.739 346.912 224.533 347.308C224.328 347.704 224.079 348.041 223.785 348.32C223.492 348.599 223.169 348.826 222.817 349.002C222.465 349.163 222.157 349.273 221.893 349.332C222.172 349.405 222.502 349.523 222.883 349.684C223.279 349.86 223.653 350.117 224.005 350.454C224.357 350.777 224.651 351.195 224.885 351.708C225.135 352.207 225.259 352.808 225.259 353.512Z" fill="#2E2A2A"/>
<rect width="348" height="339" transform="translate(396 48)" fill="#DCE4ED"/>
<g clip-path="url(#clip4_56_697)">
<path d="M448 90C448 85.5817 451.582 82 456 82H488C492.418 82 496 85.5817 496 90V122H448V90Z" fill="#C6D6E3"/>
<path d="M469.745 107V105.764H471.509V99.836L469.901 100.088L469.625 98.936L471.857 98.36H473.009V105.764H474.713V107H469.745Z" fill="black"/>
<rect width="48" height="40" transform="translate(448 122)" fill="#708DAF"/>
<path d="M469.745 147V145.764H471.509V139.836L469.901 140.088L469.625 138.936L471.857 138.36H473.009V145.764H474.713V147H469.745Z" fill="black"/>
<rect width="48" height="136" transform="translate(448 162)" fill="#1F314A"/>
<path d="M474.029 233.14V235H472.553V233.14H468.593V231.676L472.565 226.408H474.029V231.82H475.265V233.14H474.029ZM472.613 229.252C472.613 229.156 472.613 229.056 472.613 228.952C472.621 228.84 472.625 228.732 472.625 228.628C472.633 228.524 472.641 228.428 472.649 228.34C472.657 228.244 472.665 228.164 472.673 228.1C472.617 228.204 472.525 228.36 472.397 228.568C472.269 228.768 472.149 228.948 472.037 229.108L470.465 231.196C470.417 231.26 470.361 231.328 470.297 231.4C470.241 231.464 470.177 231.532 470.105 231.604C470.041 231.668 469.977 231.728 469.913 231.784C469.857 231.84 469.813 231.884 469.781 231.916C469.941 231.908 470.101 231.9 470.261 231.892C470.429 231.876 470.601 231.868 470.777 231.868H472.613V229.252Z" fill="white"/>
</g>
<mask id="path-28-inside-4_56_697" fill="white">
<path d="M420 298H524V307H420V298Z"/>
</mask>
<path d="M420 298V297H419V298H420ZM524 298H525V297H524V298ZM420 299H524V297H420V299ZM523 298V307H525V298H523ZM421 307V298H419V307H421Z" fill="black" mask="url(#path-28-inside-4_56_697)"/>
<path d="M453.56 319.168C453.56 319.616 453.484 320.02 453.332 320.38C453.188 320.732 452.98 321.036 452.708 321.292C452.444 321.54 452.124 321.732 451.748 321.868C451.372 322.004 450.956 322.072 450.5 322.072H449.036V325H447.536V316.252H450.5C451.5 316.252 452.26 316.516 452.78 317.044C453.3 317.572 453.56 318.28 453.56 319.168ZM452.012 319.168C452.012 318.624 451.872 318.228 451.592 317.98C451.32 317.724 450.932 317.596 450.428 317.596H449.036V320.728H450.428C450.652 320.728 450.86 320.7 451.052 320.644C451.244 320.588 451.412 320.5 451.556 320.38C451.7 320.252 451.812 320.088 451.892 319.888C451.972 319.688 452.012 319.448 452.012 319.168ZM455.776 325V318.376H456.712L457.072 319.744C457.224 319.416 457.396 319.156 457.588 318.964C457.78 318.772 457.968 318.628 458.152 318.532C458.344 318.428 458.52 318.364 458.68 318.34C458.848 318.308 458.976 318.292 459.064 318.292C459.232 318.292 459.372 318.296 459.484 318.304C459.596 318.312 459.68 318.324 459.736 318.34L459.604 319.816C459.564 319.808 459.504 319.804 459.424 319.804C459.352 319.796 459.28 319.792 459.208 319.792C459.08 319.792 458.94 319.804 458.788 319.828C458.636 319.852 458.472 319.9 458.296 319.972C458.128 320.044 457.956 320.148 457.78 320.284C457.604 320.412 457.428 320.588 457.252 320.812V325H455.776ZM461.77 325V318.376H463.246V325H461.77ZM461.59 316.792C461.59 316.488 461.654 316.28 461.782 316.168C461.918 316.056 462.158 316 462.502 316C462.838 316 463.07 316.056 463.198 316.168C463.334 316.28 463.402 316.488 463.402 316.792C463.402 317.088 463.334 317.292 463.198 317.404C463.07 317.508 462.838 317.56 462.502 317.56C462.158 317.56 461.918 317.508 461.782 317.404C461.654 317.292 461.59 317.088 461.59 316.792ZM473.994 325V321.16C473.994 320.976 473.986 320.792 473.97 320.608C473.954 320.416 473.914 320.244 473.85 320.092C473.786 319.94 473.686 319.816 473.55 319.72C473.414 319.624 473.226 319.576 472.986 319.576C472.682 319.576 472.406 319.652 472.158 319.804C471.91 319.956 471.674 320.14 471.45 320.356C471.458 320.428 471.462 320.524 471.462 320.644C471.47 320.756 471.474 320.86 471.474 320.956V325H470.01V321.16C470.01 320.976 470.002 320.792 469.986 320.608C469.978 320.416 469.938 320.244 469.866 320.092C469.802 319.94 469.702 319.816 469.566 319.72C469.438 319.624 469.254 319.576 469.014 319.576C468.718 319.576 468.446 319.652 468.198 319.804C467.95 319.948 467.714 320.128 467.49 320.344V325H466.038V318.388H466.986L467.238 319.324C467.358 319.188 467.49 319.052 467.634 318.916C467.778 318.78 467.934 318.66 468.102 318.556C468.278 318.444 468.47 318.356 468.678 318.292C468.886 318.228 469.11 318.196 469.35 318.196C470.262 318.196 470.878 318.576 471.198 319.336C471.47 319.016 471.778 318.748 472.122 318.532C472.466 318.308 472.866 318.196 473.322 318.196C474.05 318.196 474.586 318.42 474.93 318.868C475.274 319.308 475.446 319.94 475.446 320.764V325H473.994ZM482.084 325L481.808 324.088C481.736 324.2 481.644 324.32 481.532 324.448C481.42 324.568 481.28 324.684 481.112 324.796C480.944 324.9 480.748 324.984 480.524 325.048C480.3 325.12 480.044 325.156 479.756 325.156C479.5 325.156 479.244 325.116 478.988 325.036C478.732 324.956 478.5 324.832 478.292 324.664C478.084 324.488 477.912 324.264 477.776 323.992C477.648 323.712 477.584 323.372 477.584 322.972C477.584 322.596 477.66 322.284 477.812 322.036C477.964 321.78 478.16 321.58 478.4 321.436C478.64 321.284 478.912 321.176 479.216 321.112C479.52 321.048 479.824 321.016 480.128 321.016H481.568V320.776C481.568 320.52 481.532 320.308 481.46 320.14C481.388 319.972 481.292 319.84 481.172 319.744C481.052 319.648 480.912 319.584 480.752 319.552C480.6 319.512 480.436 319.492 480.26 319.492C480.1 319.492 479.924 319.504 479.732 319.528C479.54 319.552 479.356 319.584 479.18 319.624C479.004 319.656 478.844 319.688 478.7 319.72C478.556 319.752 478.456 319.776 478.4 319.792L478.076 318.652C478.172 318.62 478.308 318.58 478.484 318.532C478.66 318.484 478.856 318.436 479.072 318.388C479.288 318.34 479.516 318.3 479.756 318.268C479.996 318.236 480.236 318.22 480.476 318.22C480.724 318.22 480.996 318.248 481.292 318.304C481.596 318.36 481.876 318.484 482.132 318.676C482.396 318.86 482.612 319.132 482.78 319.492C482.956 319.844 483.044 320.32 483.044 320.92V325H482.084ZM480.2 321.988C479.984 321.996 479.8 322.028 479.648 322.084C479.496 322.14 479.372 322.212 479.276 322.3C479.188 322.388 479.124 322.492 479.084 322.612C479.044 322.724 479.024 322.84 479.024 322.96C479.024 323.088 479.04 323.216 479.072 323.344C479.112 323.464 479.172 323.576 479.252 323.68C479.34 323.776 479.452 323.856 479.588 323.92C479.732 323.976 479.908 324.004 480.116 324.004C480.308 324.004 480.492 323.972 480.668 323.908C480.844 323.836 481 323.72 481.136 323.56C481.272 323.4 481.38 323.188 481.46 322.924C481.54 322.66 481.58 322.332 481.58 321.94L480.2 321.988ZM485.686 325V318.376H486.622L486.982 319.744C487.134 319.416 487.306 319.156 487.498 318.964C487.69 318.772 487.878 318.628 488.062 318.532C488.254 318.428 488.43 318.364 488.59 318.34C488.758 318.308 488.886 318.292 488.974 318.292C489.142 318.292 489.282 318.296 489.394 318.304C489.506 318.312 489.59 318.324 489.646 318.34L489.514 319.816C489.474 319.808 489.414 319.804 489.334 319.804C489.262 319.796 489.19 319.792 489.118 319.792C488.99 319.792 488.85 319.804 488.698 319.828C488.546 319.852 488.382 319.9 488.206 319.972C488.038 320.044 487.866 320.148 487.69 320.284C487.514 320.412 487.338 320.588 487.162 320.812V325H485.686ZM494.276 327.376H492.8L493.784 325H493.436L491.204 318.376H492.752L493.892 322.072C494.02 322.48 494.108 322.832 494.156 323.128C494.204 323.416 494.244 323.624 494.276 323.752C494.3 323.624 494.336 323.412 494.384 323.116C494.44 322.812 494.532 322.456 494.66 322.048L495.788 318.376H497.3L494.276 327.376Z" fill="#2E2A2A"/>
<g clip-path="url(#clip5_56_697)">
<path d="M551 90C551 85.5817 554.582 82 559 82H591C595.418 82 599 85.5817 599 90V98.59H551V90Z" fill="#47505C"/>
<path d="M572.745 95.295V94.059H574.509V88.131L572.901 88.383L572.625 87.231L574.857 86.655H576.009V94.059H577.713V95.295H572.745Z" fill="white"/>
<rect width="48" height="16.59" transform="translate(551 98.59)" fill="#C6D6E3"/>
<path d="M572.745 111.885V110.649H574.509V104.721L572.901 104.973L572.625 103.821L574.857 103.245H576.009V110.649H577.713V111.885H572.745Z" fill="black"/>
<rect width="48" height="33.24" transform="translate(551 115.18)" fill="#A9BBCF"/>
<path d="M572.001 136.8V135.408L574.281 133.332C574.593 133.044 574.857 132.792 575.073 132.576C575.297 132.36 575.477 132.16 575.613 131.976C575.749 131.784 575.849 131.596 575.913 131.412C575.977 131.228 576.009 131.024 576.009 130.8C576.009 130.344 575.857 130 575.553 129.768C575.249 129.528 574.877 129.408 574.437 129.408C574.221 129.408 574.001 129.424 573.777 129.456C573.561 129.488 573.353 129.528 573.153 129.576C572.961 129.616 572.789 129.66 572.637 129.708C572.485 129.748 572.373 129.78 572.301 129.804L571.965 128.568C572.037 128.544 572.161 128.504 572.337 128.448C572.513 128.392 572.721 128.336 572.961 128.28C573.201 128.216 573.465 128.164 573.753 128.124C574.041 128.076 574.329 128.052 574.617 128.052C574.921 128.052 575.245 128.1 575.589 128.196C575.941 128.284 576.261 128.436 576.549 128.652C576.845 128.868 577.089 129.156 577.281 129.516C577.481 129.868 577.581 130.304 577.581 130.824C577.581 131.304 577.477 131.74 577.269 132.132C577.069 132.516 576.813 132.872 576.501 133.2C576.197 133.528 575.861 133.832 575.493 134.112C575.125 134.384 574.781 134.648 574.461 134.904L573.717 135.492C573.789 135.492 573.881 135.488 573.993 135.48C574.105 135.472 574.221 135.468 574.341 135.468C574.461 135.46 574.577 135.456 574.689 135.456C574.801 135.448 574.893 135.444 574.965 135.444H577.665V136.8H572.001Z" fill="black"/>
<rect width="48" height="49.86" transform="translate(551 148.42)" fill="#708DAF"/>
<path d="M577.713 175.902C577.713 176.358 577.609 176.754 577.401 177.09C577.193 177.418 576.929 177.686 576.609 177.894C576.297 178.102 575.949 178.254 575.565 178.35C575.181 178.454 574.809 178.506 574.449 178.506C574.161 178.506 573.873 178.486 573.585 178.446C573.297 178.414 573.029 178.37 572.781 178.314C572.541 178.258 572.321 178.202 572.121 178.146C571.929 178.082 571.777 178.03 571.665 177.99L571.989 176.766L572.397 176.874C572.573 176.914 572.765 176.958 572.973 177.006C573.189 177.046 573.409 177.082 573.633 177.114C573.865 177.138 574.089 177.15 574.305 177.15C574.609 177.15 574.873 177.114 575.097 177.042C575.329 176.962 575.521 176.858 575.673 176.73C575.825 176.602 575.937 176.458 576.009 176.298C576.089 176.13 576.129 175.962 576.129 175.794C576.129 175.506 576.057 175.27 575.913 175.086C575.769 174.894 575.577 174.746 575.337 174.642C575.105 174.538 574.841 174.466 574.545 174.426C574.249 174.386 573.949 174.366 573.645 174.366V173.178C574.421 173.178 574.993 173.074 575.361 172.866C575.729 172.65 575.913 172.354 575.913 171.978C575.913 171.802 575.865 171.65 575.769 171.522C575.673 171.386 575.545 171.278 575.385 171.198C575.225 171.118 575.041 171.058 574.833 171.018C574.633 170.978 574.421 170.958 574.197 170.958C574.021 170.958 573.829 170.974 573.621 171.006C573.421 171.038 573.225 171.074 573.033 171.114C572.841 171.154 572.665 171.198 572.505 171.246C572.353 171.286 572.233 171.322 572.145 171.354L571.821 170.118C571.901 170.094 572.033 170.054 572.217 169.998C572.401 169.934 572.613 169.874 572.853 169.818C573.101 169.762 573.369 169.714 573.657 169.674C573.953 169.626 574.253 169.602 574.557 169.602C574.853 169.602 575.169 169.642 575.505 169.722C575.849 169.794 576.165 169.918 576.453 170.094C576.749 170.262 576.993 170.486 577.185 170.766C577.385 171.038 577.485 171.37 577.485 171.762C577.485 172.05 577.429 172.302 577.317 172.518C577.205 172.734 577.069 172.918 576.909 173.07C576.749 173.222 576.573 173.346 576.381 173.442C576.189 173.53 576.021 173.59 575.877 173.622C576.029 173.662 576.209 173.726 576.417 173.814C576.633 173.91 576.837 174.05 577.029 174.234C577.221 174.41 577.381 174.638 577.509 174.918C577.645 175.19 577.713 175.518 577.713 175.902Z" fill="black"/>
<rect width="48" height="99.72" transform="translate(551 198.28)" fill="#1F314A"/>
<path d="M578.253 250.404C578.253 250.844 578.173 251.244 578.013 251.604C577.853 251.956 577.629 252.26 577.341 252.516C577.061 252.764 576.729 252.956 576.345 253.092C575.961 253.228 575.541 253.296 575.085 253.296C574.613 253.296 574.177 253.216 573.777 253.056C573.385 252.888 573.045 252.628 572.757 252.276C572.469 251.924 572.245 251.476 572.085 250.932C571.925 250.38 571.845 249.72 571.845 248.952C571.845 248.224 571.933 247.576 572.109 247.008C572.285 246.44 572.533 245.964 572.853 245.58C573.181 245.188 573.573 244.892 574.029 244.692C574.485 244.492 574.993 244.392 575.553 244.392C575.785 244.392 576.009 244.408 576.225 244.44C576.449 244.472 576.653 244.512 576.837 244.56C577.029 244.6 577.197 244.644 577.341 244.692L577.665 244.8L577.329 246.036L577.077 245.964C576.965 245.932 576.837 245.9 576.693 245.868C576.549 245.836 576.389 245.808 576.213 245.784C576.037 245.76 575.853 245.748 575.661 245.748C575.501 245.748 575.297 245.784 575.049 245.856C574.809 245.928 574.569 246.06 574.329 246.252C574.097 246.436 573.893 246.696 573.717 247.032C573.549 247.36 573.457 247.788 573.441 248.316C573.505 248.268 573.597 248.208 573.717 248.136C573.845 248.064 573.997 247.996 574.173 247.932C574.357 247.868 574.561 247.812 574.785 247.764C575.017 247.716 575.273 247.692 575.553 247.692C575.905 247.692 576.241 247.756 576.561 247.884C576.889 248.004 577.177 248.18 577.425 248.412C577.681 248.644 577.881 248.928 578.025 249.264C578.177 249.6 578.253 249.98 578.253 250.404ZM576.753 250.452C576.753 250.212 576.709 249.996 576.621 249.804C576.533 249.604 576.417 249.44 576.273 249.312C576.129 249.176 575.957 249.072 575.757 249C575.565 248.928 575.361 248.892 575.145 248.892C574.977 248.892 574.805 248.912 574.629 248.952C574.453 248.984 574.285 249.024 574.125 249.072C573.973 249.12 573.833 249.172 573.705 249.228C573.585 249.276 573.489 249.32 573.417 249.36C573.417 249.904 573.477 250.348 573.597 250.692C573.717 251.028 573.865 251.292 574.041 251.484C574.225 251.676 574.425 251.808 574.641 251.88C574.857 251.944 575.061 251.976 575.253 251.976C575.445 251.976 575.629 251.94 575.805 251.868C575.989 251.796 576.149 251.696 576.285 251.568C576.429 251.432 576.541 251.272 576.621 251.088C576.709 250.896 576.753 250.684 576.753 250.452Z" fill="white"/>
</g>
<mask id="path-37-inside-5_56_697" fill="white">
<path d="M523 298H627V307H523V298Z"/>
</mask>
<path d="M523 298V297H522V298H523ZM627 298H628V297H627V298ZM523 299H627V297H523V299ZM626 298V307H628V298H626ZM524 307V298H522V307H524Z" fill="black" mask="url(#path-37-inside-5_56_697)"/>
<path d="M566.925 325.192C566.293 325.192 565.737 325.084 565.257 324.868C564.785 324.644 564.389 324.332 564.069 323.932C563.757 323.532 563.521 323.052 563.361 322.492C563.201 321.932 563.121 321.308 563.121 320.62C563.121 319.94 563.201 319.32 563.361 318.76C563.521 318.2 563.757 317.72 564.069 317.32C564.389 316.912 564.785 316.6 565.257 316.384C565.737 316.16 566.293 316.048 566.925 316.048C567.557 316.048 568.109 316.16 568.581 316.384C569.061 316.6 569.461 316.912 569.781 317.32C570.101 317.72 570.341 318.2 570.501 318.76C570.661 319.32 570.741 319.94 570.741 320.62C570.741 321.308 570.661 321.932 570.501 322.492C570.341 323.052 570.101 323.532 569.781 323.932C569.461 324.332 569.061 324.644 568.581 324.868C568.109 325.084 567.557 325.192 566.925 325.192ZM566.925 323.836C567.285 323.836 567.605 323.784 567.885 323.68C568.165 323.576 568.401 323.4 568.593 323.152C568.785 322.904 568.933 322.576 569.037 322.168C569.141 321.76 569.193 321.248 569.193 320.632C569.193 320.024 569.141 319.516 569.037 319.108C568.933 318.692 568.785 318.36 568.593 318.112C568.401 317.864 568.165 317.688 567.885 317.584C567.605 317.48 567.285 317.428 566.925 317.428C566.573 317.428 566.257 317.48 565.977 317.584C565.697 317.688 565.461 317.864 565.269 318.112C565.077 318.36 564.929 318.692 564.825 319.108C564.721 319.516 564.669 320.024 564.669 320.632C564.669 321.248 564.721 321.76 564.825 322.168C564.929 322.576 565.077 322.904 565.269 323.152C565.461 323.4 565.697 323.576 565.977 323.68C566.257 323.784 566.573 323.836 566.925 323.836ZM574.794 317.596V320.296H578.202V321.616H574.794V325H573.306V316.252H578.79V317.596H574.794ZM580.832 323.428C580.944 323.46 581.096 323.5 581.288 323.548C581.488 323.588 581.704 323.632 581.936 323.68C582.168 323.72 582.408 323.756 582.656 323.788C582.904 323.82 583.144 323.836 583.376 323.836C584.104 323.836 584.62 323.724 584.924 323.5C585.228 323.268 585.38 322.964 585.38 322.588C585.38 322.364 585.34 322.18 585.26 322.036C585.18 321.884 585.048 321.76 584.864 321.664C584.688 321.568 584.46 321.488 584.18 321.424C583.9 321.352 583.56 321.276 583.16 321.196C582.816 321.132 582.484 321.044 582.164 320.932C581.844 320.812 581.56 320.652 581.312 320.452C581.064 320.252 580.864 320 580.712 319.696C580.56 319.384 580.484 319 580.484 318.544C580.484 318.176 580.56 317.84 580.712 317.536C580.864 317.224 581.08 316.96 581.36 316.744C581.648 316.528 581.988 316.36 582.38 316.24C582.78 316.12 583.224 316.06 583.712 316.06C584.288 316.06 584.828 316.112 585.332 316.216C585.844 316.312 586.252 316.42 586.556 316.54L586.22 317.776C586.1 317.744 585.948 317.708 585.764 317.668C585.588 317.62 585.392 317.58 585.176 317.548C584.96 317.516 584.736 317.488 584.504 317.464C584.272 317.44 584.048 317.428 583.832 317.428C583.584 317.428 583.348 317.448 583.124 317.488C582.908 317.52 582.716 317.58 582.548 317.668C582.38 317.748 582.248 317.86 582.152 318.004C582.056 318.148 582.008 318.328 582.008 318.544C582.008 318.76 582.06 318.94 582.164 319.084C582.268 319.22 582.408 319.332 582.584 319.42C582.768 319.508 582.98 319.58 583.22 319.636C583.46 319.684 583.72 319.736 584 319.792C584.36 319.864 584.712 319.952 585.056 320.056C585.408 320.152 585.72 320.3 585.992 320.5C586.264 320.692 586.484 320.948 586.652 321.268C586.82 321.58 586.904 321.984 586.904 322.48C586.904 322.864 586.832 323.224 586.688 323.56C586.552 323.888 586.344 324.176 586.064 324.424C585.792 324.664 585.452 324.856 585.044 325C584.644 325.136 584.176 325.204 583.64 325.204C583.272 325.204 582.92 325.184 582.584 325.144C582.248 325.104 581.94 325.056 581.66 325C581.388 324.936 581.148 324.876 580.94 324.82C580.74 324.756 580.592 324.704 580.496 324.664L580.832 323.428Z" fill="#2E2A2A"/>
<g clip-path="url(#clip6_56_697)">
<path d="M654 90C654 85.5817 657.582 82 662 82H694C698.418 82 702 85.5817 702 90V136H654V90Z" fill="#778088"/>
<path d="M680.713 111.552C680.713 112.008 680.609 112.404 680.401 112.74C680.193 113.068 679.929 113.336 679.609 113.544C679.297 113.752 678.949 113.904 678.565 114C678.181 114.104 677.809 114.156 677.449 114.156C677.161 114.156 676.873 114.136 676.585 114.096C676.297 114.064 676.029 114.02 675.781 113.964C675.541 113.908 675.321 113.852 675.121 113.796C674.929 113.732 674.777 113.68 674.665 113.64L674.989 112.416L675.397 112.524C675.573 112.564 675.765 112.608 675.973 112.656C676.189 112.696 676.409 112.732 676.633 112.764C676.865 112.788 677.089 112.8 677.305 112.8C677.609 112.8 677.873 112.764 678.097 112.692C678.329 112.612 678.521 112.508 678.673 112.38C678.825 112.252 678.937 112.108 679.009 111.948C679.089 111.78 679.129 111.612 679.129 111.444C679.129 111.156 679.057 110.92 678.913 110.736C678.769 110.544 678.577 110.396 678.337 110.292C678.105 110.188 677.841 110.116 677.545 110.076C677.249 110.036 676.949 110.016 676.645 110.016V108.828C677.421 108.828 677.993 108.724 678.361 108.516C678.729 108.3 678.913 108.004 678.913 107.628C678.913 107.452 678.865 107.3 678.769 107.172C678.673 107.036 678.545 106.928 678.385 106.848C678.225 106.768 678.041 106.708 677.833 106.668C677.633 106.628 677.421 106.608 677.197 106.608C677.021 106.608 676.829 106.624 676.621 106.656C676.421 106.688 676.225 106.724 676.033 106.764C675.841 106.804 675.665 106.848 675.505 106.896C675.353 106.936 675.233 106.972 675.145 107.004L674.821 105.768C674.901 105.744 675.033 105.704 675.217 105.648C675.401 105.584 675.613 105.524 675.853 105.468C676.101 105.412 676.369 105.364 676.657 105.324C676.953 105.276 677.253 105.252 677.557 105.252C677.853 105.252 678.169 105.292 678.505 105.372C678.849 105.444 679.165 105.568 679.453 105.744C679.749 105.912 679.993 106.136 680.185 106.416C680.385 106.688 680.485 107.02 680.485 107.412C680.485 107.7 680.429 107.952 680.317 108.168C680.205 108.384 680.069 108.568 679.909 108.72C679.749 108.872 679.573 108.996 679.381 109.092C679.189 109.18 679.021 109.24 678.877 109.272C679.029 109.312 679.209 109.376 679.417 109.464C679.633 109.56 679.837 109.7 680.029 109.884C680.221 110.06 680.381 110.288 680.509 110.568C680.645 110.84 680.713 111.168 680.713 111.552Z" fill="white"/>
<rect width="48" height="162" transform="translate(654 136)" fill="#1F314A"/>
<path d="M675.001 222V220.608L677.281 218.532C677.593 218.244 677.857 217.992 678.073 217.776C678.297 217.56 678.477 217.36 678.613 217.176C678.749 216.984 678.849 216.796 678.913 216.612C678.977 216.428 679.009 216.224 679.009 216C679.009 215.544 678.857 215.2 678.553 214.968C678.249 214.728 677.877 214.608 677.437 214.608C677.221 214.608 677.001 214.624 676.777 214.656C676.561 214.688 676.353 214.728 676.153 214.776C675.961 214.816 675.789 214.86 675.637 214.908C675.485 214.948 675.373 214.98 675.301 215.004L674.965 213.768C675.037 213.744 675.161 213.704 675.337 213.648C675.513 213.592 675.721 213.536 675.961 213.48C676.201 213.416 676.465 213.364 676.753 213.324C677.041 213.276 677.329 213.252 677.617 213.252C677.921 213.252 678.245 213.3 678.589 213.396C678.941 213.484 679.261 213.636 679.549 213.852C679.845 214.068 680.089 214.356 680.281 214.716C680.481 215.068 680.581 215.504 680.581 216.024C680.581 216.504 680.477 216.94 680.269 217.332C680.069 217.716 679.813 218.072 679.501 218.4C679.197 218.728 678.861 219.032 678.493 219.312C678.125 219.584 677.781 219.848 677.461 220.104L676.717 220.692C676.789 220.692 676.881 220.688 676.993 220.68C677.105 220.672 677.221 220.668 677.341 220.668C677.461 220.66 677.577 220.656 677.689 220.656C677.801 220.648 677.893 220.644 677.965 220.644H680.665V222H675.001Z" fill="white"/>
</g>
<mask id="path-43-inside-6_56_697" fill="white">
<path d="M626 298H730V307H626V298Z"/>
</mask>
<path d="M626 298V297H625V298H626ZM730 298H731V297H730V298ZM626 299H730V297H626V299ZM729 298V307H731V298H729ZM627 307V298H625V307H627Z" fill="black" mask="url(#path-43-inside-6_56_697)"/>
<path d="M675.229 325L674.989 319.372C674.981 319.268 674.973 319.144 674.965 319C674.965 318.856 674.965 318.712 674.965 318.568V317.788C674.933 317.924 674.893 318.132 674.845 318.412C674.805 318.684 674.741 318.964 674.653 319.252L672.841 325H671.617L669.805 319.252C669.717 318.956 669.649 318.672 669.601 318.4C669.561 318.128 669.525 317.924 669.493 317.788V318.136C669.493 318.272 669.489 318.416 669.481 318.568C669.481 318.712 669.477 318.856 669.469 319C669.469 319.144 669.469 319.268 669.469 319.372L669.229 325H667.765L668.125 316.252H670.285L671.821 321.196C671.869 321.34 671.913 321.504 671.953 321.688C671.993 321.864 672.033 322.048 672.073 322.24C672.113 322.424 672.145 322.6 672.169 322.768C672.201 322.928 672.229 323.06 672.253 323.164C672.269 323.06 672.293 322.928 672.325 322.768C672.357 322.6 672.393 322.424 672.433 322.24C672.473 322.048 672.513 321.864 672.553 321.688C672.601 321.504 672.645 321.34 672.685 321.196L674.197 316.252H676.345L676.693 325H675.229ZM679.375 325V318.376H680.851V325H679.375ZM679.195 316.792C679.195 316.488 679.259 316.28 679.387 316.168C679.523 316.056 679.763 316 680.107 316C680.443 316 680.675 316.056 680.803 316.168C680.939 316.28 681.007 316.488 681.007 316.792C681.007 317.088 680.939 317.292 680.803 317.404C680.675 317.508 680.443 317.56 680.107 317.56C679.763 317.56 679.523 317.508 679.387 317.404C679.259 317.292 679.195 317.088 679.195 316.792ZM687.219 325L686.391 323.62C686.351 323.556 686.303 323.476 686.247 323.38C686.199 323.284 686.147 323.184 686.091 323.08C686.043 322.976 685.995 322.88 685.947 322.792C685.899 322.696 685.859 322.616 685.827 322.552C685.795 322.616 685.755 322.696 685.707 322.792C685.667 322.88 685.619 322.976 685.563 323.08C685.515 323.184 685.463 323.284 685.407 323.38C685.359 323.476 685.315 323.556 685.275 323.62L684.435 325H682.851L684.975 321.64L682.899 318.376H684.591L685.371 319.66C685.467 319.82 685.567 320.008 685.671 320.224L685.923 320.716C685.979 320.604 686.055 320.452 686.151 320.26C686.255 320.06 686.367 319.86 686.487 319.66L687.267 318.376H688.851L686.787 321.64L688.911 325H687.219Z" fill="#2E2A2A"/>
<path d="M542.215 358V355.448L546.395 351.642C546.967 351.114 547.451 350.652 547.847 350.256C548.258 349.86 548.588 349.493 548.837 349.156C549.086 348.804 549.27 348.459 549.387 348.122C549.504 347.785 549.563 347.411 549.563 347C549.563 346.164 549.284 345.533 548.727 345.108C548.17 344.668 547.488 344.448 546.681 344.448C546.285 344.448 545.882 344.477 545.471 344.536C545.075 344.595 544.694 344.668 544.327 344.756C543.975 344.829 543.66 344.91 543.381 344.998C543.102 345.071 542.897 345.13 542.765 345.174L542.149 342.908C542.281 342.864 542.508 342.791 542.831 342.688C543.154 342.585 543.535 342.483 543.975 342.38C544.415 342.263 544.899 342.167 545.427 342.094C545.955 342.006 546.483 341.962 547.011 341.962C547.568 341.962 548.162 342.05 548.793 342.226C549.438 342.387 550.025 342.666 550.553 343.062C551.096 343.458 551.543 343.986 551.895 344.646C552.262 345.291 552.445 346.091 552.445 347.044C552.445 347.924 552.254 348.723 551.873 349.442C551.506 350.146 551.037 350.799 550.465 351.4C549.908 352.001 549.292 352.559 548.617 353.072C547.942 353.571 547.312 354.055 546.725 354.524L545.361 355.602C545.493 355.602 545.662 355.595 545.867 355.58C546.072 355.565 546.285 355.558 546.505 355.558C546.725 355.543 546.938 355.536 547.143 355.536C547.348 355.521 547.517 355.514 547.649 355.514H552.599V358H542.215ZM568.403 350.124C568.403 351.4 568.278 352.544 568.029 353.556C567.779 354.568 567.405 355.426 566.907 356.13C566.423 356.834 565.814 357.369 565.081 357.736C564.362 358.103 563.526 358.286 562.573 358.286C561.605 358.286 560.754 358.103 560.021 357.736C559.302 357.369 558.693 356.834 558.195 356.13C557.711 355.426 557.344 354.568 557.095 353.556C556.845 352.544 556.721 351.4 556.721 350.124C556.721 348.833 556.845 347.682 557.095 346.67C557.344 345.658 557.711 344.8 558.195 344.096C558.693 343.392 559.302 342.857 560.021 342.49C560.754 342.123 561.605 341.94 562.573 341.94C563.526 341.94 564.362 342.123 565.081 342.49C565.814 342.857 566.423 343.392 566.907 344.096C567.405 344.8 567.779 345.658 568.029 346.67C568.278 347.682 568.403 348.833 568.403 350.124ZM565.521 350.124C565.521 349.024 565.447 348.115 565.301 347.396C565.154 346.663 564.949 346.076 564.685 345.636C564.421 345.196 564.105 344.888 563.739 344.712C563.372 344.521 562.969 344.426 562.529 344.426C562.089 344.426 561.685 344.521 561.319 344.712C560.952 344.888 560.629 345.196 560.351 345.636C560.087 346.076 559.881 346.663 559.735 347.396C559.588 348.115 559.515 349.024 559.515 350.124C559.515 351.209 559.588 352.119 559.735 352.852C559.881 353.571 560.087 354.15 560.351 354.59C560.629 355.03 560.952 355.345 561.319 355.536C561.685 355.712 562.089 355.8 562.529 355.8C562.969 355.8 563.372 355.712 563.739 355.536C564.105 355.345 564.421 355.03 564.685 354.59C564.949 354.15 565.154 353.571 565.301 352.852C565.447 352.119 565.521 351.209 565.521 350.124ZM571.93 358V355.448L576.11 351.642C576.682 351.114 577.166 350.652 577.562 350.256C577.973 349.86 578.303 349.493 578.552 349.156C578.801 348.804 578.985 348.459 579.102 348.122C579.219 347.785 579.278 347.411 579.278 347C579.278 346.164 578.999 345.533 578.442 345.108C577.885 344.668 577.203 344.448 576.396 344.448C576 344.448 575.597 344.477 575.186 344.536C574.79 344.595 574.409 344.668 574.042 344.756C573.69 344.829 573.375 344.91 573.096 344.998C572.817 345.071 572.612 345.13 572.48 345.174L571.864 342.908C571.996 342.864 572.223 342.791 572.546 342.688C572.869 342.585 573.25 342.483 573.69 342.38C574.13 342.263 574.614 342.167 575.142 342.094C575.67 342.006 576.198 341.962 576.726 341.962C577.283 341.962 577.877 342.05 578.508 342.226C579.153 342.387 579.74 342.666 580.268 343.062C580.811 343.458 581.258 343.986 581.61 344.646C581.977 345.291 582.16 346.091 582.16 347.044C582.16 347.924 581.969 348.723 581.588 349.442C581.221 350.146 580.752 350.799 580.18 351.4C579.623 352.001 579.007 352.559 578.332 353.072C577.657 353.571 577.027 354.055 576.44 354.524L575.076 355.602C575.208 355.602 575.377 355.595 575.582 355.58C575.787 355.565 576 355.558 576.22 355.558C576.44 355.543 576.653 355.536 576.858 355.536C577.063 355.521 577.232 355.514 577.364 355.514H582.314V358H571.93ZM596.005 354.59V358H593.299V354.59H586.039V351.906L593.321 342.248H596.005V352.17H598.271V354.59H596.005ZM593.409 347.462C593.409 347.286 593.409 347.103 593.409 346.912C593.424 346.707 593.431 346.509 593.431 346.318C593.446 346.127 593.461 345.951 593.475 345.79C593.49 345.614 593.505 345.467 593.519 345.35C593.417 345.541 593.248 345.827 593.013 346.208C592.779 346.575 592.559 346.905 592.353 347.198L589.471 351.026C589.383 351.143 589.281 351.268 589.163 351.4C589.061 351.517 588.943 351.642 588.811 351.774C588.694 351.891 588.577 352.001 588.459 352.104C588.357 352.207 588.276 352.287 588.217 352.346C588.511 352.331 588.804 352.317 589.097 352.302C589.405 352.273 589.721 352.258 590.043 352.258H593.409V347.462Z" fill="#2E2A2A"/>
</g>
<rect x="158" y="420.5" width="7" height="7" fill="#1F314A"/>
<path d="M179.263 421.584V429H177.763V421.584H175.315V420.252H181.711V421.584H179.263ZM186.844 429L186.568 428.088C186.496 428.2 186.404 428.32 186.292 428.448C186.18 428.568 186.04 428.684 185.872 428.796C185.704 428.9 185.508 428.984 185.284 429.048C185.06 429.12 184.804 429.156 184.516 429.156C184.26 429.156 184.004 429.116 183.748 429.036C183.492 428.956 183.26 428.832 183.052 428.664C182.844 428.488 182.672 428.264 182.536 427.992C182.408 427.712 182.344 427.372 182.344 426.972C182.344 426.596 182.42 426.284 182.572 426.036C182.724 425.78 182.92 425.58 183.16 425.436C183.4 425.284 183.672 425.176 183.976 425.112C184.28 425.048 184.584 425.016 184.888 425.016H186.328V424.776C186.328 424.52 186.292 424.308 186.22 424.14C186.148 423.972 186.052 423.84 185.932 423.744C185.812 423.648 185.672 423.584 185.512 423.552C185.36 423.512 185.196 423.492 185.02 423.492C184.86 423.492 184.684 423.504 184.492 423.528C184.3 423.552 184.116 423.584 183.94 423.624C183.764 423.656 183.604 423.688 183.46 423.72C183.316 423.752 183.216 423.776 183.16 423.792L182.836 422.652C182.932 422.62 183.068 422.58 183.244 422.532C183.42 422.484 183.616 422.436 183.832 422.388C184.048 422.34 184.276 422.3 184.516 422.268C184.756 422.236 184.996 422.22 185.236 422.22C185.484 422.22 185.756 422.248 186.052 422.304C186.356 422.36 186.636 422.484 186.892 422.676C187.156 422.86 187.372 423.132 187.54 423.492C187.716 423.844 187.804 424.32 187.804 424.92V429H186.844ZM184.96 425.988C184.744 425.996 184.56 426.028 184.408 426.084C184.256 426.14 184.132 426.212 184.036 426.3C183.948 426.388 183.884 426.492 183.844 426.612C183.804 426.724 183.784 426.84 183.784 426.96C183.784 427.088 183.8 427.216 183.832 427.344C183.872 427.464 183.932 427.576 184.012 427.68C184.1 427.776 184.212 427.856 184.348 427.92C184.492 427.976 184.668 428.004 184.876 428.004C185.068 428.004 185.252 427.972 185.428 427.908C185.604 427.836 185.76 427.72 185.896 427.56C186.032 427.4 186.14 427.188 186.22 426.924C186.3 426.66 186.34 426.332 186.34 425.94L184.96 425.988ZM194.358 424.416C194.318 424.344 194.258 424.256 194.178 424.152C194.098 424.048 193.998 423.948 193.878 423.852C193.758 423.756 193.618 423.676 193.458 423.612C193.306 423.54 193.142 423.504 192.966 423.504C192.758 423.504 192.57 423.54 192.402 423.612C192.234 423.684 192.09 423.808 191.97 423.984C191.85 424.152 191.758 424.376 191.694 424.656C191.63 424.936 191.598 425.284 191.598 425.7C191.598 426.116 191.634 426.464 191.706 426.744C191.778 427.016 191.874 427.236 191.994 427.404C192.122 427.572 192.266 427.692 192.426 427.764C192.594 427.828 192.774 427.86 192.966 427.86C193.142 427.86 193.306 427.828 193.458 427.764C193.618 427.7 193.758 427.62 193.878 427.524C193.998 427.428 194.098 427.332 194.178 427.236C194.258 427.132 194.318 427.044 194.358 426.972V424.416ZM194.886 429L194.634 428.172C194.57 428.268 194.486 428.376 194.382 428.496C194.278 428.616 194.146 428.728 193.986 428.832C193.834 428.928 193.654 429.008 193.446 429.072C193.246 429.144 193.014 429.18 192.75 429.18C192.31 429.18 191.922 429.096 191.586 428.928C191.258 428.752 190.982 428.512 190.758 428.208C190.542 427.896 190.378 427.528 190.266 427.104C190.154 426.672 190.098 426.2 190.098 425.688C190.098 425.168 190.154 424.696 190.266 424.272C190.378 423.84 190.546 423.472 190.77 423.168C190.994 422.856 191.266 422.616 191.586 422.448C191.906 422.28 192.278 422.196 192.702 422.196C192.926 422.196 193.126 422.224 193.302 422.28C193.478 422.328 193.634 422.392 193.77 422.472C193.906 422.552 194.022 422.64 194.118 422.736C194.214 422.832 194.294 422.92 194.358 423V419.856H195.834V429H194.886ZM202.543 429L202.267 428.088C202.195 428.2 202.103 428.32 201.991 428.448C201.879 428.568 201.739 428.684 201.571 428.796C201.403 428.9 201.207 428.984 200.983 429.048C200.759 429.12 200.503 429.156 200.215 429.156C199.959 429.156 199.703 429.116 199.447 429.036C199.191 428.956 198.959 428.832 198.751 428.664C198.543 428.488 198.371 428.264 198.235 427.992C198.107 427.712 198.043 427.372 198.043 426.972C198.043 426.596 198.119 426.284 198.271 426.036C198.423 425.78 198.619 425.58 198.859 425.436C199.099 425.284 199.371 425.176 199.675 425.112C199.979 425.048 200.283 425.016 200.587 425.016H202.027V424.776C202.027 424.52 201.991 424.308 201.919 424.14C201.847 423.972 201.751 423.84 201.631 423.744C201.511 423.648 201.371 423.584 201.211 423.552C201.059 423.512 200.895 423.492 200.719 423.492C200.559 423.492 200.383 423.504 200.191 423.528C199.999 423.552 199.815 423.584 199.639 423.624C199.463 423.656 199.303 423.688 199.159 423.72C199.015 423.752 198.915 423.776 198.859 423.792L198.535 422.652C198.631 422.62 198.767 422.58 198.943 422.532C199.119 422.484 199.315 422.436 199.531 422.388C199.747 422.34 199.975 422.3 200.215 422.268C200.455 422.236 200.695 422.22 200.935 422.22C201.183 422.22 201.455 422.248 201.751 422.304C202.055 422.36 202.335 422.484 202.591 422.676C202.855 422.86 203.071 423.132 203.239 423.492C203.415 423.844 203.503 424.32 203.503 424.92V429H202.543ZM200.659 425.988C200.443 425.996 200.259 426.028 200.107 426.084C199.955 426.14 199.831 426.212 199.735 426.3C199.647 426.388 199.583 426.492 199.543 426.612C199.503 426.724 199.483 426.84 199.483 426.96C199.483 427.088 199.499 427.216 199.531 427.344C199.571 427.464 199.631 427.576 199.711 427.68C199.799 427.776 199.911 427.856 200.047 427.92C200.191 427.976 200.367 428.004 200.575 428.004C200.767 428.004 200.951 427.972 201.127 427.908C201.303 427.836 201.459 427.72 201.595 427.56C201.731 427.4 201.839 427.188 201.919 426.924C201.999 426.66 202.039 426.332 202.039 425.94L200.659 425.988ZM207.036 429L205.248 422.388H206.784L207.636 426.06C207.716 426.412 207.78 426.736 207.828 427.032C207.876 427.32 207.912 427.548 207.936 427.716C207.96 427.548 207.996 427.32 208.044 427.032C208.092 426.736 208.156 426.412 208.236 426.06L209.076 422.388H210.552L211.416 426.06C211.504 426.42 211.572 426.752 211.62 427.056C211.668 427.36 211.7 427.576 211.716 427.704C211.732 427.584 211.764 427.372 211.812 427.068C211.868 426.756 211.94 426.416 212.028 426.048L212.868 422.388H214.368L212.52 429H210.936L210.024 425.532C209.992 425.412 209.96 425.276 209.928 425.124C209.904 424.972 209.88 424.824 209.856 424.68C209.832 424.528 209.808 424.388 209.784 424.26C209.768 424.132 209.756 424.032 209.748 423.96L209.712 424.248C209.696 424.376 209.676 424.516 209.652 424.668C209.636 424.82 209.612 424.972 209.58 425.124C209.556 425.276 209.528 425.412 209.496 425.532L208.608 429H207.036ZM220.75 429L220.498 428.052C220.378 428.196 220.242 428.336 220.09 428.472C219.946 428.608 219.786 428.732 219.61 428.844C219.434 428.948 219.242 429.032 219.034 429.096C218.826 429.16 218.602 429.192 218.362 429.192C217.626 429.192 217.082 428.968 216.73 428.52C216.378 428.072 216.202 427.436 216.202 426.612V422.376H217.678V426.216C217.678 426.4 217.682 426.584 217.69 426.768C217.706 426.952 217.746 427.124 217.81 427.284C217.882 427.436 217.986 427.56 218.122 427.656C218.258 427.752 218.454 427.8 218.71 427.8C219.006 427.8 219.278 427.728 219.526 427.584C219.782 427.432 220.022 427.248 220.246 427.032V422.376H221.71V429H220.75ZM224.458 429V419.856H225.922V429H224.458Z" fill="black"/>
<rect x="257" y="420.5" width="7" height="7" fill="#708DAF"/>
<path d="M280.495 429L279.859 427.068H276.559L275.923 429H274.387L277.327 420.252H279.163L282.103 429H280.495ZM279.487 425.76L278.743 423.408C278.647 423.104 278.551 422.788 278.455 422.46C278.359 422.132 278.279 421.856 278.215 421.632C278.151 421.856 278.067 422.132 277.963 422.46C277.867 422.788 277.771 423.104 277.675 423.408L276.919 425.76H279.487ZM291.113 424.62C291.113 425.308 291.021 425.924 290.837 426.468C290.653 427.004 290.377 427.46 290.009 427.836C289.641 428.212 289.181 428.5 288.629 428.7C288.077 428.9 287.433 429 286.697 429H284.105V420.252H286.697C287.433 420.252 288.077 420.352 288.629 420.552C289.181 420.752 289.641 421.04 290.009 421.416C290.377 421.792 290.653 422.252 290.837 422.796C291.021 423.332 291.113 423.94 291.113 424.62ZM289.565 424.62C289.565 424.044 289.501 423.564 289.373 423.18C289.245 422.796 289.057 422.488 288.809 422.256C288.561 422.016 288.253 421.844 287.885 421.74C287.525 421.636 287.113 421.584 286.649 421.584H285.593V427.656H286.649C287.113 427.656 287.525 427.608 287.885 427.512C288.253 427.408 288.561 427.24 288.809 427.008C289.057 426.768 289.245 426.456 289.373 426.072C289.501 425.68 289.565 425.196 289.565 424.62ZM297.859 429L296.503 426.744C296.375 426.536 296.259 426.32 296.155 426.096C296.051 425.872 295.955 425.668 295.867 425.484C295.779 425.668 295.683 425.872 295.579 426.096C295.483 426.32 295.371 426.536 295.243 426.744L293.875 429H292.219L294.931 424.524L292.399 420.252H294.139L295.375 422.412C295.487 422.612 295.595 422.82 295.699 423.036C295.803 423.244 295.899 423.436 295.987 423.612C296.075 423.436 296.167 423.244 296.263 423.036C296.367 422.828 296.475 422.62 296.587 422.412L297.835 420.252H299.491L296.923 424.572L299.599 429H297.859Z" fill="black"/>
<rect x="330" y="420.5" width="7" height="7" fill="#A9BBCF"/>
<path d="M355.212 424.62C355.212 425.308 355.12 425.924 354.936 426.468C354.752 427.004 354.476 427.46 354.108 427.836C353.74 428.212 353.28 428.5 352.728 428.7C352.176 428.9 351.532 429 350.796 429H348.204V420.252H350.796C351.532 420.252 352.176 420.352 352.728 420.552C353.28 420.752 353.74 421.04 354.108 421.416C354.476 421.792 354.752 422.252 354.936 422.796C355.12 423.332 355.212 423.94 355.212 424.62ZM353.664 424.62C353.664 424.044 353.6 423.564 353.472 423.18C353.344 422.796 353.156 422.488 352.908 422.256C352.66 422.016 352.352 421.844 351.984 421.74C351.624 421.636 351.212 421.584 350.748 421.584H349.692V427.656H350.748C351.212 427.656 351.624 427.608 351.984 427.512C352.352 427.408 352.66 427.24 352.908 427.008C353.156 426.768 353.344 426.456 353.472 426.072C353.6 425.68 353.664 425.196 353.664 424.62ZM359.259 421.596V424.296H362.667V425.616H359.259V429H357.771V420.252H363.255V421.596H359.259ZM372.534 429L372.294 423.372C372.286 423.268 372.278 423.144 372.27 423C372.27 422.856 372.27 422.712 372.27 422.568V421.788C372.238 421.924 372.198 422.132 372.15 422.412C372.11 422.684 372.046 422.964 371.958 423.252L370.146 429H368.922L367.11 423.252C367.022 422.956 366.954 422.672 366.906 422.4C366.866 422.128 366.83 421.924 366.798 421.788V422.136C366.798 422.272 366.794 422.416 366.786 422.568C366.786 422.712 366.782 422.856 366.774 423C366.774 423.144 366.774 423.268 366.774 423.372L366.534 429H365.07L365.43 420.252H367.59L369.126 425.196C369.174 425.34 369.218 425.504 369.258 425.688C369.298 425.864 369.338 426.048 369.378 426.24C369.418 426.424 369.45 426.6 369.474 426.768C369.506 426.928 369.534 427.06 369.558 427.164C369.574 427.06 369.598 426.928 369.63 426.768C369.662 426.6 369.698 426.424 369.738 426.24C369.778 426.048 369.818 425.864 369.858 425.688C369.906 425.504 369.95 425.34 369.99 425.196L371.502 420.252H373.65L373.998 429H372.534Z" fill="black"/>
<rect x="405" y="420.5" width="7" height="7" fill="#C6D6E3"/>
<path d="M430.493 429L430.253 423.372C430.245 423.268 430.237 423.144 430.229 423C430.229 422.856 430.229 422.712 430.229 422.568V421.788C430.197 421.924 430.157 422.132 430.109 422.412C430.069 422.684 430.005 422.964 429.917 423.252L428.105 429H426.881L425.069 423.252C424.981 422.956 424.913 422.672 424.865 422.4C424.825 422.128 424.789 421.924 424.757 421.788V422.136C424.757 422.272 424.753 422.416 424.745 422.568C424.745 422.712 424.741 422.856 424.733 423C424.733 423.144 424.733 423.268 424.733 423.372L424.493 429H423.029L423.389 420.252H425.549L427.085 425.196C427.133 425.34 427.177 425.504 427.217 425.688C427.257 425.864 427.297 426.048 427.337 426.24C427.377 426.424 427.409 426.6 427.433 426.768C427.465 426.928 427.493 427.06 427.517 427.164C427.533 427.06 427.557 426.928 427.589 426.768C427.621 426.6 427.657 426.424 427.697 426.24C427.737 426.048 427.777 425.864 427.817 425.688C427.865 425.504 427.909 425.34 427.949 425.196L429.461 420.252H431.609L431.957 429H430.493ZM434.639 427.428C434.751 427.46 434.903 427.5 435.095 427.548C435.295 427.588 435.511 427.632 435.743 427.68C435.975 427.72 436.215 427.756 436.463 427.788C436.711 427.82 436.951 427.836 437.183 427.836C437.911 427.836 438.427 427.724 438.731 427.5C439.035 427.268 439.187 426.964 439.187 426.588C439.187 426.364 439.147 426.18 439.067 426.036C438.987 425.884 438.855 425.76 438.671 425.664C438.495 425.568 438.267 425.488 437.987 425.424C437.707 425.352 437.367 425.276 436.967 425.196C436.623 425.132 436.291 425.044 435.971 424.932C435.651 424.812 435.367 424.652 435.119 424.452C434.871 424.252 434.671 424 434.519 423.696C434.367 423.384 434.291 423 434.291 422.544C434.291 422.176 434.367 421.84 434.519 421.536C434.671 421.224 434.887 420.96 435.167 420.744C435.455 420.528 435.795 420.36 436.187 420.24C436.587 420.12 437.031 420.06 437.519 420.06C438.095 420.06 438.635 420.112 439.139 420.216C439.651 420.312 440.059 420.42 440.363 420.54L440.027 421.776C439.907 421.744 439.755 421.708 439.571 421.668C439.395 421.62 439.199 421.58 438.983 421.548C438.767 421.516 438.543 421.488 438.311 421.464C438.079 421.44 437.855 421.428 437.639 421.428C437.391 421.428 437.155 421.448 436.931 421.488C436.715 421.52 436.523 421.58 436.355 421.668C436.187 421.748 436.055 421.86 435.959 422.004C435.863 422.148 435.815 422.328 435.815 422.544C435.815 422.76 435.867 422.94 435.971 423.084C436.075 423.22 436.215 423.332 436.391 423.42C436.575 423.508 436.787 423.58 437.027 423.636C437.267 423.684 437.527 423.736 437.807 423.792C438.167 423.864 438.519 423.952 438.863 424.056C439.215 424.152 439.527 424.3 439.799 424.5C440.071 424.692 440.291 424.948 440.459 425.268C440.627 425.58 440.711 425.984 440.711 426.48C440.711 426.864 440.639 427.224 440.495 427.56C440.359 427.888 440.151 428.176 439.871 428.424C439.599 428.664 439.259 428.856 438.851 429C438.451 429.136 437.983 429.204 437.447 429.204C437.079 429.204 436.727 429.184 436.391 429.144C436.055 429.104 435.747 429.056 435.467 429C435.195 428.936 434.955 428.876 434.747 428.82C434.547 428.756 434.399 428.704 434.303 428.664L434.639 427.428ZM450.493 429L450.253 423.372C450.245 423.268 450.237 423.144 450.229 423C450.229 422.856 450.229 422.712 450.229 422.568V421.788C450.197 421.924 450.157 422.132 450.109 422.412C450.069 422.684 450.005 422.964 449.917 423.252L448.105 429H446.881L445.069 423.252C444.981 422.956 444.913 422.672 444.865 422.4C444.825 422.128 444.789 421.924 444.757 421.788V422.136C444.757 422.272 444.753 422.416 444.745 422.568C444.745 422.712 444.741 422.856 444.733 423C444.733 423.144 444.733 423.268 444.733 423.372L444.493 429H443.029L443.389 420.252H445.549L447.085 425.196C447.133 425.34 447.177 425.504 447.217 425.688C447.257 425.864 447.297 426.048 447.337 426.24C447.377 426.424 447.409 426.6 447.433 426.768C447.465 426.928 447.493 427.06 447.517 427.164C447.533 427.06 447.557 426.928 447.589 426.768C447.621 426.6 447.657 426.424 447.697 426.24C447.737 426.048 447.777 425.864 447.817 425.688C447.865 425.504 447.909 425.34 447.949 425.196L449.461 420.252H451.609L451.957 429H450.493Z" fill="black"/>
<rect x="483" y="420.5" width="7" height="7" fill="#708DAF"/>
<path d="M506.266 429L503.602 425.292L502.678 426.288V429H501.178V420.252H502.678V423.132C502.678 423.34 502.674 423.552 502.666 423.768C502.666 423.976 502.666 424.168 502.666 424.344V424.68C502.698 424.632 502.762 424.544 502.858 424.416C502.962 424.28 503.074 424.132 503.194 423.972C503.314 423.804 503.438 423.64 503.566 423.48C503.694 423.312 503.802 423.172 503.89 423.06L506.134 420.252H507.922L504.61 424.332C504.65 424.38 504.714 424.452 504.802 424.548C504.89 424.644 504.986 424.752 505.09 424.872C505.194 424.984 505.298 425.104 505.402 425.232C505.506 425.36 505.594 425.476 505.666 425.58L508.102 429H506.266ZM516.151 429L514.891 423.72C514.867 423.608 514.839 423.48 514.807 423.336C514.775 423.192 514.747 423.048 514.723 422.904C514.699 422.752 514.675 422.608 514.651 422.472C514.627 422.336 514.607 422.22 514.591 422.124C514.575 422.22 514.555 422.336 514.531 422.472C514.507 422.608 514.483 422.752 514.459 422.904C514.435 423.048 514.407 423.192 514.375 423.336C514.343 423.48 514.315 423.608 514.291 423.72L513.007 429H511.387L509.227 420.252H510.811L512.095 425.82C512.119 425.916 512.143 426.036 512.167 426.18C512.191 426.316 512.215 426.456 512.239 426.6C512.263 426.744 512.283 426.884 512.299 427.02C512.323 427.148 512.343 427.256 512.359 427.344C512.375 427.248 512.395 427.136 512.419 427.008C512.443 426.872 512.467 426.728 512.491 426.576C512.523 426.424 512.551 426.276 512.575 426.132C512.607 425.988 512.635 425.856 512.659 425.736L513.931 420.252H515.299L516.571 425.748C516.595 425.868 516.623 426.004 516.655 426.156C516.687 426.3 516.715 426.448 516.739 426.6C516.771 426.744 516.799 426.884 516.823 427.02L516.883 427.344C516.899 427.248 516.915 427.136 516.931 427.008C516.955 426.88 516.979 426.748 517.003 426.612C517.027 426.468 517.051 426.332 517.075 426.204C517.099 426.076 517.123 425.964 517.147 425.868L518.431 420.252H520.015L517.795 429H516.151ZM522.127 427.428C522.239 427.46 522.391 427.5 522.583 427.548C522.783 427.588 522.999 427.632 523.231 427.68C523.463 427.72 523.703 427.756 523.951 427.788C524.199 427.82 524.439 427.836 524.671 427.836C525.399 427.836 525.915 427.724 526.219 427.5C526.523 427.268 526.675 426.964 526.675 426.588C526.675 426.364 526.635 426.18 526.555 426.036C526.475 425.884 526.343 425.76 526.159 425.664C525.983 425.568 525.755 425.488 525.475 425.424C525.195 425.352 524.855 425.276 524.455 425.196C524.111 425.132 523.779 425.044 523.459 424.932C523.139 424.812 522.855 424.652 522.607 424.452C522.359 424.252 522.159 424 522.007 423.696C521.855 423.384 521.779 423 521.779 422.544C521.779 422.176 521.855 421.84 522.007 421.536C522.159 421.224 522.375 420.96 522.655 420.744C522.943 420.528 523.283 420.36 523.675 420.24C524.075 420.12 524.519 420.06 525.007 420.06C525.583 420.06 526.123 420.112 526.627 420.216C527.139 420.312 527.547 420.42 527.851 420.54L527.515 421.776C527.395 421.744 527.243 421.708 527.059 421.668C526.883 421.62 526.687 421.58 526.471 421.548C526.255 421.516 526.031 421.488 525.799 421.464C525.567 421.44 525.343 421.428 525.127 421.428C524.879 421.428 524.643 421.448 524.419 421.488C524.203 421.52 524.011 421.58 523.843 421.668C523.675 421.748 523.543 421.86 523.447 422.004C523.351 422.148 523.303 422.328 523.303 422.544C523.303 422.76 523.355 422.94 523.459 423.084C523.563 423.22 523.703 423.332 523.879 423.42C524.063 423.508 524.275 423.58 524.515 423.636C524.755 423.684 525.015 423.736 525.295 423.792C525.655 423.864 526.007 423.952 526.351 424.056C526.703 424.152 527.015 424.3 527.287 424.5C527.559 424.692 527.779 424.948 527.947 425.268C528.115 425.58 528.199 425.984 528.199 426.48C528.199 426.864 528.127 427.224 527.983 427.56C527.847 427.888 527.639 428.176 527.359 428.424C527.087 428.664 526.747 428.856 526.339 429C525.939 429.136 525.471 429.204 524.935 429.204C524.567 429.204 524.215 429.184 523.879 429.144C523.543 429.104 523.235 429.056 522.955 429C522.683 428.936 522.443 428.876 522.235 428.82C522.035 428.756 521.887 428.704 521.791 428.664L522.127 427.428ZM530.733 429V420.252H536.205V421.596H532.221V423.828H535.485V425.148H532.221V427.656H536.445V429H530.733Z" fill="#47505C"/>
<rect x="567" y="420.5" width="7" height="7" fill="#778088"/>
<path d="M584.96 429V420.252H587.864C588.8 420.252 589.508 420.448 589.988 420.84C590.476 421.232 590.72 421.744 590.72 422.376C590.72 422.84 590.608 423.224 590.384 423.528C590.168 423.832 589.884 424.056 589.532 424.2C590.076 424.344 590.516 424.608 590.852 424.992C591.188 425.368 591.356 425.876 591.356 426.516C591.356 426.892 591.28 427.236 591.128 427.548C590.976 427.852 590.76 428.112 590.48 428.328C590.208 428.544 589.88 428.712 589.496 428.832C589.112 428.944 588.688 429 588.224 429H584.96ZM587.828 423.876C588.244 423.876 588.572 423.776 588.812 423.576C589.052 423.376 589.172 423.084 589.172 422.7C589.172 422.316 589.048 422.036 588.8 421.86C588.552 421.676 588.212 421.584 587.78 421.584H586.448V423.876H587.828ZM588.14 427.668C588.628 427.668 589.024 427.56 589.328 427.344C589.64 427.12 589.796 426.78 589.796 426.324C589.796 425.868 589.636 425.54 589.316 425.34C589.004 425.14 588.588 425.04 588.068 425.04H586.448V427.668H588.14ZM598.745 429V425.16H595.241V429H593.753V420.252H595.241V423.816H598.745V420.252H600.245V429H598.745ZM603.167 429V420.252H606.071C607.007 420.252 607.715 420.448 608.195 420.84C608.683 421.232 608.927 421.744 608.927 422.376C608.927 422.84 608.815 423.224 608.591 423.528C608.375 423.832 608.091 424.056 607.739 424.2C608.283 424.344 608.723 424.608 609.059 424.992C609.395 425.368 609.563 425.876 609.563 426.516C609.563 426.892 609.487 427.236 609.335 427.548C609.183 427.852 608.967 428.112 608.687 428.328C608.415 428.544 608.087 428.712 607.703 428.832C607.319 428.944 606.895 429 606.431 429H603.167ZM606.035 423.876C606.451 423.876 606.779 423.776 607.019 423.576C607.259 423.376 607.379 423.084 607.379 422.7C607.379 422.316 607.255 422.036 607.007 421.86C606.759 421.676 606.419 421.584 605.987 421.584H604.655V423.876H606.035ZM606.347 427.668C606.835 427.668 607.231 427.56 607.535 427.344C607.847 427.12 608.003 426.78 608.003 426.324C608.003 425.868 607.843 425.54 607.523 425.34C607.211 425.14 606.795 425.04 606.275 425.04H604.655V427.668H606.347Z" fill="black"/>
<defs>
<clipPath id="clip0_56_697">
<rect width="720" height="339" fill="white" transform="translate(24 48)"/>
</clipPath>
<clipPath id="clip1_56_697">
<rect width="48" height="216" fill="white" transform="translate(76 82)"/>
</clipPath>
<clipPath id="clip2_56_697">
<rect width="48" height="216" fill="white" transform="translate(179 82)"/>
</clipPath>
<clipPath id="clip3_56_697">
<rect width="48" height="216" fill="white" transform="translate(282 82)"/>
</clipPath>
<clipPath id="clip4_56_697">
<rect width="48" height="216" fill="white" transform="translate(448 82)"/>
</clipPath>
<clipPath id="clip5_56_697">
<rect width="48" height="216" fill="white" transform="translate(551 82)"/>
</clipPath>
<clipPath id="clip6_56_697">
<rect width="48" height="216" fill="white" transform="translate(654 82)"/>
</clipPath>
</defs>
</svg>
