<svg width="55" height="54" viewBox="0 0 55 54" fill="none" xmlns="http://www.w3.org/2000/svg">
<path d="M3.70831 52.3125H8.77081C9.70147 52.3125 10.4583 51.5556 10.4583 50.625V48.9375H29.5321C33.7711 48.9375 37.9131 47.7495 41.5075 45.5034C44.1904 43.8237 46.4912 41.6 48.2612 38.9758C50.0312 36.3517 51.2312 33.3854 51.7835 30.2686L52.1497 28.1947C52.3134 27.2683 52.0611 26.3233 51.4561 25.6027C50.8512 24.8821 49.9644 24.4687 49.0236 24.4687C48.5097 24.4687 48.0204 24.5961 47.5833 24.8189V21.0937H48.4271C48.5939 21.0937 48.757 21.0442 48.8957 20.9514C49.0344 20.8587 49.1426 20.727 49.2064 20.5728C49.2703 20.4187 49.287 20.249 49.2544 20.0854C49.2219 19.9217 49.1416 19.7714 49.0236 19.6534L42.2736 12.9034C42.1953 12.825 42.1023 12.7628 42 12.7203C41.8976 12.6779 41.7879 12.656 41.6771 12.656C41.5662 12.656 41.4565 12.6779 41.3542 12.7203C41.2518 12.7628 41.1588 12.825 41.0805 12.9034L39.1458 14.8381V3.37495C39.1458 3.15117 39.0569 2.93656 38.8987 2.77833C38.7404 2.6201 38.5258 2.5312 38.3021 2.5312H29.8646C29.6408 2.5312 29.4262 2.6201 29.2679 2.77833C29.1097 2.93656 29.0208 3.15117 29.0208 3.37495V12.6562H25.6019C24.9598 11.2438 24.4848 10.4177 24.1034 9.93848L26.2356 4.72748C26.352 4.45241 26.3806 4.1481 26.3175 3.85616C26.2543 3.56422 26.1026 3.29891 25.8829 3.09651C25.6658 2.89147 25.3906 2.75849 25.0951 2.71575C24.7995 2.67301 24.498 2.7226 24.2317 2.85773L22.6362 3.65508L21.6312 2.3152C21.5057 2.1471 21.3455 2.008 21.1614 1.90735C20.9774 1.80669 20.7738 1.74684 20.5646 1.73187C20.3553 1.71691 20.1453 1.74716 19.9488 1.82059C19.7523 1.89402 19.5738 2.0089 19.4257 2.15742L18.1423 3.43992L17.2994 2.3152C17.1739 2.1471 17.0137 2.008 16.8296 1.90735C16.6456 1.80669 16.442 1.74684 16.2327 1.73187C16.0235 1.71691 15.8135 1.74716 15.617 1.82059C15.4204 1.89402 15.242 2.0089 15.0939 2.15742L13.4747 3.77658L11.0413 3.08133C10.7643 3.00099 10.4697 3.00486 10.1949 3.09245C9.92008 3.18005 9.67754 3.3474 9.49813 3.57323C9.31748 3.7977 9.20744 4.07069 9.18191 4.35769C9.15638 4.64468 9.2165 4.93281 9.35469 5.18564L11.9062 9.8963C10.1149 11.5146 7.92706 16.0616 7.92706 20.1934V22.7812C7.92706 25.5732 10.1976 27.8437 12.9896 27.8437H45.3744L43.5924 31.4085L38.9526 33.3973C38.432 31.6566 36.8348 30.375 34.9271 30.375H22.7796C18.4267 30.3694 14.1589 31.5811 10.4583 33.8731V32.0625C10.4583 31.1318 9.70147 30.375 8.77081 30.375H3.70831C2.77766 30.375 2.02081 31.1318 2.02081 32.0625V50.625C2.02081 51.5556 2.77766 52.3125 3.70831 52.3125ZM13.1389 5.43623C13.3897 5.50812 13.6552 5.51152 13.9077 5.44609C14.1602 5.38065 14.3906 5.24876 14.575 5.06414L16.1047 3.53442L16.9484 4.66083C17.0745 4.82808 17.235 4.96637 17.419 5.06637C17.603 5.16638 17.8064 5.22578 18.0153 5.24057C18.2242 5.25536 18.4339 5.2252 18.6302 5.15212C18.8264 5.07904 19.0048 4.96474 19.1532 4.81692L20.4365 3.53442L21.3992 4.81692C21.6041 5.09177 21.8992 5.28571 22.2327 5.36471C22.5663 5.4437 22.917 5.40271 23.2234 5.24892L24.4511 4.63467L22.5476 9.2812H20.261L21.3376 7.12711L19.8282 6.37195L18.3744 9.2812H16.8953L15.7191 6.83433L14.1978 7.56586L15.0222 9.2812H13.4916L11.0928 4.85151L13.1389 5.43623ZM21.4271 13.5V26.1562H12.9896C11.1282 26.1562 9.61456 24.6425 9.61456 22.7812V20.1934C9.61456 15.6768 12.4099 11.4648 13.2098 10.9687H22.7669C22.9036 11.1341 23.2133 11.5779 23.7372 12.6562H22.2708C22.047 12.6562 21.8324 12.7451 21.6742 12.9033C21.516 13.0616 21.4271 13.2762 21.4271 13.5ZM23.1146 14.3437H29.0208V26.1562H23.1146V14.3437ZM41.6771 14.693L46.3902 19.4062H36.9639L41.6771 14.693ZM30.7083 4.2187H37.4583V16.5256L34.3305 19.6534C34.2126 19.7714 34.1322 19.9217 34.0997 20.0854C34.0672 20.249 34.0839 20.4187 34.1477 20.5728C34.2116 20.727 34.3197 20.8587 34.4584 20.9514C34.5971 21.0442 34.7602 21.0937 34.9271 21.0937H35.7708V26.1562H30.7083V4.2187ZM37.4583 21.0937H45.8958V26.1562H44.2083V22.7812C44.2083 22.5574 44.1194 22.3428 43.9612 22.1846C43.8029 22.0263 43.5883 21.9375 43.3646 21.9375H39.9896C39.7658 21.9375 39.5512 22.0263 39.3929 22.1846C39.2347 22.3428 39.1458 22.5574 39.1458 22.7812V26.1562H37.4583V21.0937ZM42.5208 26.1562H40.8333V23.625H42.5208V26.1562ZM22.7796 32.0625H34.9271C36.3226 32.0625 37.4583 33.1981 37.4583 34.5937C37.4583 35.9893 36.3226 37.125 34.9271 37.125H21.4271V38.8125H34.9271C37.0542 38.8125 38.8007 37.2245 39.0867 35.175L44.5399 32.8379C44.7238 32.7598 44.8737 32.6185 44.9626 32.4396L47.693 26.978C47.816 26.7305 48.0058 26.5224 48.241 26.3771C48.4761 26.2319 48.7472 26.1554 49.0236 26.1562C49.464 26.1562 49.88 26.3494 50.1635 26.6878C50.447 27.0261 50.566 27.4682 50.4892 27.9019L50.123 29.9759C49.6119 32.86 48.5014 35.6047 46.8633 38.0329C45.2252 40.461 43.096 42.5185 40.6131 44.0724C37.2907 46.1503 33.4508 47.2514 29.5321 47.25H10.4583V35.8914C14.0815 33.3938 18.379 32.0583 22.7796 32.0625ZM3.70831 32.0625H8.77081L8.77166 50.625H3.70831V32.0625Z" fill="white"/>
<path d="M5.39581 34.5938H7.08331V37.125H5.39581V34.5938ZM32.3958 5.90625H33.2396V7.59375H32.3958V5.90625ZM34.9271 5.90625H35.7708V7.59375H34.9271V5.90625ZM32.3958 9.28125H33.2396V10.9688H32.3958V9.28125ZM34.9271 9.28125H35.7708V10.9688H34.9271V9.28125ZM32.3958 12.6562H33.2396V14.3438H32.3958V12.6562ZM34.9271 12.6562H35.7708V14.3438H34.9271V12.6562ZM24.8021 16.0312H25.6458V17.7188H24.8021V16.0312ZM27.3333 16.0312H28.1771V17.7188H27.3333V16.0312ZM24.8021 19.4062H25.6458V21.0938H24.8021V19.4062ZM27.3333 19.4062H28.1771V21.0938H27.3333V19.4062ZM24.8021 22.7812H25.6458V24.4688H24.8021V22.7812ZM27.3333 22.7812H28.1771V24.4688H27.3333V22.7812ZM32.3958 16.0312H33.2396V17.7188H32.3958V16.0312ZM34.9271 16.0312H35.7708V17.7188H34.9271V16.0312ZM18.8958 15.1875H18.0521V14.3438H16.3646V15.1875H15.5208C15.297 15.1875 15.0824 15.2764 14.9242 15.4346C14.766 15.5929 14.6771 15.8075 14.6771 16.0312V18.5625C14.6771 18.7863 14.766 19.0009 14.9242 19.1591C15.0824 19.3174 15.297 19.4062 15.5208 19.4062H18.0521V20.25H14.6771V21.0938C14.6771 21.3175 14.766 21.5321 14.9242 21.6904C15.0824 21.8486 15.297 21.9375 15.5208 21.9375H16.3646V22.7812H18.0521V21.9375H18.8958C19.1196 21.9375 19.3342 21.8486 19.4924 21.6904C19.6507 21.5321 19.7396 21.3175 19.7396 21.0938V18.5625C19.7396 18.3387 19.6507 18.1241 19.4924 17.9659C19.3342 17.8076 19.1196 17.7188 18.8958 17.7188H16.3646V16.875H19.7396V16.0312C19.7396 15.8075 19.6507 15.5929 19.4924 15.4346C19.3342 15.2764 19.1196 15.1875 18.8958 15.1875ZM45.0521 3.375H46.7396V5.0625H45.0521V3.375ZM46.7396 1.6875H48.4271V3.375H46.7396V1.6875ZM48.4271 3.375H50.1146V5.0625H48.4271V3.375ZM46.7396 5.0625H48.4271V6.75H46.7396V5.0625ZM50.9583 7.59375H52.6458V9.28125H50.9583V7.59375ZM45.0521 10.125H46.7396V11.8125H45.0521V10.125ZM2.02081 9.28125H3.70831V10.9688H2.02081V9.28125ZM3.70831 7.59375H5.39581V9.28125H3.70831V7.59375ZM5.39581 9.28125H7.08331V10.9688H5.39581V9.28125ZM3.70831 10.9688H5.39581V12.6562H3.70831V10.9688ZM2.02081 16.0312H3.70831V17.7188H2.02081V16.0312ZM5.39581 1.6875H7.08331V3.375H5.39581V1.6875Z" fill="white"/>
</svg>
