<svg width="768" height="407" viewBox="0 0 768 407" fill="none" xmlns="http://www.w3.org/2000/svg">
<rect y="0.5" width="768" height="406.5" rx="24" fill="#1F314A"/>
<path d="M215.919 54.178C215.919 55.4852 215.744 56.6556 215.395 57.6892C215.045 58.7076 214.521 59.574 213.821 60.2884C213.122 61.0028 212.248 61.55 211.199 61.93C210.151 62.31 208.927 62.5 207.529 62.5H202.604V45.8788H207.529C208.927 45.8788 210.151 46.0688 211.199 46.4488C212.248 46.8288 213.122 47.376 213.821 48.0904C214.521 48.8048 215.045 49.6788 215.395 50.7124C215.744 51.7308 215.919 52.886 215.919 54.178ZM212.978 54.178C212.978 53.0836 212.856 52.1716 212.613 51.442C212.37 50.7124 212.013 50.1272 211.541 49.6864C211.07 49.2304 210.485 48.9036 209.786 48.706C209.102 48.5084 208.319 48.4096 207.437 48.4096H205.431V59.9464H207.437C208.319 59.9464 209.102 59.8552 209.786 59.6728C210.485 59.4752 211.07 59.156 211.541 58.7152C212.013 58.2592 212.37 57.6664 212.613 56.9368C212.856 56.192 212.978 55.2724 212.978 54.178ZM228.129 62.5L227.65 60.6988C227.422 60.9724 227.164 61.2384 226.875 61.4968C226.602 61.7552 226.298 61.9908 225.963 62.2036C225.629 62.4012 225.264 62.5608 224.869 62.6824C224.474 62.804 224.048 62.8648 223.592 62.8648C222.194 62.8648 221.16 62.4392 220.491 61.588C219.822 60.7368 219.488 59.5284 219.488 57.9628V49.9144H222.292V57.2104C222.292 57.56 222.3 57.9096 222.315 58.2592C222.346 58.6088 222.422 58.9356 222.543 59.2396C222.68 59.5284 222.878 59.764 223.136 59.9464C223.394 60.1288 223.767 60.22 224.253 60.22C224.816 60.22 225.332 60.0832 225.804 59.8096C226.29 59.5208 226.746 59.1712 227.172 58.7608V49.9144H229.953V62.5H228.129ZM236.961 58.6468C237.037 58.7836 237.151 58.9508 237.303 59.1484C237.455 59.3308 237.645 59.5132 237.873 59.6956C238.101 59.878 238.352 60.03 238.626 60.1516C238.914 60.2732 239.226 60.334 239.56 60.334C239.895 60.334 240.214 60.2656 240.518 60.1288C240.837 59.9768 241.118 59.7412 241.362 59.422C241.605 59.1028 241.795 58.6924 241.932 58.1908C242.084 57.6892 242.16 57.0812 242.16 56.3668C242.16 55.774 242.129 55.2192 242.068 54.7024C242.008 54.1704 241.886 53.7144 241.704 53.3344C241.521 52.9392 241.263 52.6276 240.928 52.3996C240.594 52.1716 240.153 52.0576 239.606 52.0576C239.241 52.0576 238.914 52.1336 238.626 52.2856C238.337 52.4224 238.078 52.5896 237.85 52.7872C237.622 52.9848 237.432 53.1976 237.28 53.4256C237.128 53.6536 237.022 53.8436 236.961 53.9956V58.6468ZM234.18 62.5V45.1264H236.961V51.2824C237.068 51.1304 237.22 50.9556 237.417 50.758C237.615 50.5604 237.866 50.378 238.17 50.2108C238.474 50.0284 238.823 49.8764 239.218 49.7548C239.614 49.6332 240.062 49.5724 240.564 49.5724C241.324 49.5724 241.985 49.7396 242.547 50.074C243.11 50.3932 243.573 50.8416 243.938 51.4192C244.303 51.9968 244.576 52.6732 244.759 53.4484C244.941 54.2236 245.032 55.0672 245.032 55.9792C245.032 56.8456 244.934 57.6892 244.736 58.51C244.538 59.3308 244.234 60.068 243.824 60.7216C243.414 61.36 242.889 61.8768 242.251 62.272C241.612 62.652 240.852 62.842 239.971 62.842C239.515 62.842 239.097 62.7736 238.717 62.6368C238.337 62.5152 237.995 62.3632 237.691 62.1808C237.402 61.9832 237.151 61.7704 236.938 61.5424C236.726 61.3144 236.558 61.1092 236.437 60.9268L235.981 62.5H234.18ZM256.215 62.5L255.69 60.7672C255.553 60.98 255.379 61.208 255.166 61.4512C254.953 61.6792 254.687 61.8996 254.368 62.1124C254.049 62.31 253.676 62.4696 253.251 62.5912C252.825 62.728 252.339 62.7964 251.791 62.7964C251.305 62.7964 250.819 62.7204 250.332 62.5684C249.846 62.4164 249.405 62.1808 249.01 61.8616C248.615 61.5272 248.288 61.1016 248.029 60.5848C247.786 60.0528 247.665 59.4068 247.665 58.6468C247.665 57.9324 247.809 57.3396 248.098 56.8684C248.387 56.382 248.759 56.002 249.215 55.7284C249.671 55.4396 250.188 55.2344 250.765 55.1128C251.343 54.9912 251.921 54.9304 252.498 54.9304H255.234V54.4744C255.234 53.988 255.166 53.5852 255.029 53.266C254.892 52.9468 254.71 52.696 254.482 52.5136C254.254 52.3312 253.988 52.2096 253.684 52.1488C253.395 52.0728 253.083 52.0348 252.749 52.0348C252.445 52.0348 252.111 52.0576 251.746 52.1032C251.381 52.1488 251.031 52.2096 250.697 52.2856C250.363 52.3464 250.059 52.4072 249.785 52.468C249.511 52.5288 249.321 52.5744 249.215 52.6048L248.599 50.4388C248.782 50.378 249.04 50.302 249.375 50.2108C249.709 50.1196 250.081 50.0284 250.492 49.9372C250.902 49.846 251.335 49.77 251.791 49.7092C252.247 49.6484 252.703 49.618 253.159 49.618C253.631 49.618 254.147 49.6712 254.71 49.7776C255.287 49.884 255.819 50.1196 256.306 50.4844C256.807 50.834 257.218 51.3508 257.537 52.0348C257.871 52.7036 258.039 53.608 258.039 54.748V62.5H256.215ZM252.635 56.7772C252.225 56.7924 251.875 56.8532 251.586 56.9596C251.297 57.066 251.062 57.2028 250.879 57.37C250.712 57.5372 250.591 57.7348 250.515 57.9628C250.439 58.1756 250.401 58.396 250.401 58.624C250.401 58.8672 250.431 59.1104 250.492 59.3536C250.568 59.5816 250.682 59.7944 250.834 59.992C251.001 60.1744 251.214 60.3264 251.472 60.448C251.746 60.5544 252.08 60.6076 252.475 60.6076C252.84 60.6076 253.19 60.5468 253.524 60.4252C253.859 60.2884 254.155 60.068 254.413 59.764C254.672 59.46 254.877 59.0572 255.029 58.5556C255.181 58.054 255.257 57.4308 255.257 56.686L252.635 56.7772ZM262.222 62.5V49.9144H265.027V62.5H262.222ZM261.88 46.9048C261.88 46.3272 262.002 45.932 262.245 45.7192C262.503 45.5064 262.959 45.4 263.613 45.4C264.251 45.4 264.692 45.5064 264.935 45.7192C265.194 45.932 265.323 46.3272 265.323 46.9048C265.323 47.4672 265.194 47.8548 264.935 48.0676C264.692 48.2652 264.251 48.364 263.613 48.364C262.959 48.364 262.503 48.2652 262.245 48.0676C262.002 47.8548 261.88 47.4672 261.88 46.9048ZM275.119 62.5V49.9144H276.897L277.581 52.5136C277.87 51.8904 278.197 51.3964 278.562 51.0316C278.926 50.6668 279.284 50.3932 279.633 50.2108C279.998 50.0132 280.332 49.8916 280.636 49.846C280.956 49.7852 281.199 49.7548 281.366 49.7548C281.685 49.7548 281.951 49.7624 282.164 49.7776C282.377 49.7928 282.536 49.8156 282.643 49.846L282.392 52.6504C282.316 52.6352 282.202 52.6276 282.05 52.6276C281.913 52.6124 281.776 52.6048 281.64 52.6048C281.396 52.6048 281.13 52.6276 280.842 52.6732C280.553 52.7188 280.241 52.81 279.907 52.9468C279.588 53.0836 279.261 53.2812 278.926 53.5396C278.592 53.7828 278.258 54.1172 277.923 54.5428V62.5H275.119ZM294.919 61.9072C294.737 61.9832 294.486 62.0744 294.167 62.1808C293.863 62.2872 293.505 62.3936 293.095 62.5C292.685 62.5912 292.229 62.6672 291.727 62.728C291.241 62.804 290.731 62.842 290.199 62.842C289.135 62.842 288.223 62.6748 287.463 62.3404C286.719 62.006 286.103 61.5424 285.617 60.9496C285.145 60.3568 284.796 59.6576 284.568 58.852C284.34 58.0464 284.226 57.1648 284.226 56.2072C284.226 55.1888 284.347 54.2768 284.591 53.4712C284.834 52.6504 285.199 51.9512 285.685 51.3736C286.171 50.796 286.772 50.3552 287.486 50.0512C288.216 49.732 289.052 49.5724 289.994 49.5724C291.681 49.5724 292.966 50.1044 293.847 51.1684C294.729 52.2324 295.17 53.76 295.17 55.7512C295.17 55.964 295.162 56.1844 295.147 56.4124C295.147 56.6252 295.147 56.7772 295.147 56.8684H287.076C287.137 58.1756 287.456 59.1028 288.033 59.65C288.611 60.182 289.417 60.448 290.45 60.448C290.845 60.448 291.233 60.4252 291.613 60.3796C292.008 60.334 292.373 60.2808 292.707 60.22C293.057 60.1592 293.376 60.0984 293.665 60.0376C293.954 59.9616 294.197 59.9008 294.395 59.8552L294.919 61.9072ZM292.479 54.9532C292.479 54.5428 292.419 54.1628 292.297 53.8132C292.191 53.4484 292.031 53.1292 291.818 52.8556C291.605 52.582 291.332 52.3692 290.997 52.2172C290.663 52.05 290.283 51.9664 289.857 51.9664C289.067 51.9664 288.406 52.2476 287.874 52.81C287.342 53.3724 287.076 54.1324 287.076 55.09L292.479 54.9532ZM298.657 59.8324C298.809 59.878 299.03 59.9388 299.318 60.0148C299.622 60.0908 299.957 60.1668 300.322 60.2428C300.702 60.3036 301.104 60.3644 301.53 60.4252C301.971 60.4708 302.396 60.4936 302.807 60.4936C303.536 60.4936 304.099 60.3796 304.494 60.1516C304.889 59.9236 305.087 59.5588 305.087 59.0572C305.087 58.7988 305.041 58.586 304.95 58.4188C304.874 58.2364 304.73 58.0844 304.517 57.9628C304.304 57.826 304.008 57.712 303.628 57.6208C303.248 57.5144 302.761 57.4004 302.168 57.2788C300.831 57.0204 299.828 56.5948 299.159 56.002C298.505 55.4092 298.178 54.5276 298.178 53.3572C298.178 52.7644 298.292 52.24 298.52 51.784C298.764 51.3128 299.098 50.9176 299.524 50.5984C299.949 50.264 300.458 50.0132 301.051 49.846C301.659 49.6636 302.328 49.5724 303.058 49.5724C303.939 49.5724 304.752 49.6484 305.497 49.8004C306.242 49.9372 306.903 50.112 307.481 50.3248L306.911 52.4224C306.774 52.3768 306.576 52.3312 306.318 52.2856C306.06 52.2248 305.763 52.164 305.429 52.1032C305.094 52.0424 304.737 51.9968 304.357 51.9664C303.992 51.9208 303.643 51.898 303.308 51.898C301.743 51.898 300.96 52.354 300.96 53.266C300.96 53.5244 301.013 53.7372 301.12 53.9044C301.226 54.0716 301.393 54.216 301.621 54.3376C301.849 54.444 302.146 54.5428 302.51 54.634C302.89 54.7252 303.354 54.824 303.901 54.9304C304.524 55.052 305.079 55.204 305.566 55.3864C306.067 55.5688 306.485 55.812 306.82 56.116C307.169 56.4048 307.428 56.762 307.595 57.1876C307.777 57.598 307.868 58.0996 307.868 58.6924C307.868 59.9844 307.428 61.0028 306.546 61.7476C305.664 62.4772 304.464 62.842 302.944 62.842C302.366 62.842 301.819 62.804 301.302 62.728C300.785 62.652 300.314 62.5684 299.888 62.4772C299.478 62.3708 299.113 62.272 298.794 62.1808C298.49 62.0744 298.254 61.9984 298.087 61.9528L298.657 59.8324ZM311.481 62.5V49.9144H314.286V62.5H311.481ZM311.139 46.9048C311.139 46.3272 311.261 45.932 311.504 45.7192C311.762 45.5064 312.218 45.4 312.872 45.4C313.51 45.4 313.951 45.5064 314.194 45.7192C314.453 45.932 314.582 46.3272 314.582 46.9048C314.582 47.4672 314.453 47.8548 314.194 48.0676C313.951 48.2652 313.51 48.364 312.872 48.364C312.218 48.364 311.762 48.2652 311.504 48.0676C311.261 47.8548 311.139 47.4672 311.139 46.9048ZM326.073 53.7904C325.997 53.6536 325.883 53.4864 325.731 53.2888C325.579 53.0912 325.389 52.9012 325.161 52.7188C324.933 52.5364 324.667 52.3844 324.363 52.2628C324.075 52.126 323.763 52.0576 323.429 52.0576C323.033 52.0576 322.676 52.126 322.357 52.2628C322.038 52.3996 321.764 52.6352 321.536 52.9696C321.308 53.2888 321.133 53.7144 321.012 54.2464C320.89 54.7784 320.829 55.4396 320.829 56.23C320.829 57.0204 320.898 57.6816 321.035 58.2136C321.171 58.7304 321.354 59.1484 321.582 59.4676C321.825 59.7868 322.099 60.0148 322.403 60.1516C322.722 60.2732 323.064 60.334 323.429 60.334C323.763 60.334 324.075 60.2732 324.363 60.1516C324.667 60.03 324.933 59.878 325.161 59.6956C325.389 59.5132 325.579 59.3308 325.731 59.1484C325.883 58.9508 325.997 58.7836 326.073 58.6468V53.7904ZM327.077 62.5L326.598 60.9268C326.476 61.1092 326.317 61.3144 326.119 61.5424C325.921 61.7704 325.671 61.9832 325.367 62.1808C325.078 62.3632 324.736 62.5152 324.341 62.6368C323.961 62.7736 323.52 62.842 323.018 62.842C322.182 62.842 321.445 62.6824 320.807 62.3632C320.183 62.0288 319.659 61.5728 319.233 60.9952C318.823 60.4024 318.511 59.7032 318.299 58.8976C318.086 58.0768 317.979 57.18 317.979 56.2072C317.979 55.2192 318.086 54.3224 318.299 53.5168C318.511 52.696 318.831 51.9968 319.256 51.4192C319.682 50.8264 320.199 50.3704 320.807 50.0512C321.415 49.732 322.121 49.5724 322.927 49.5724C323.353 49.5724 323.733 49.6256 324.067 49.732C324.401 49.8232 324.698 49.9448 324.956 50.0968C325.215 50.2488 325.435 50.416 325.617 50.5984C325.8 50.7808 325.952 50.948 326.073 51.1V45.1264H328.878V62.5H327.077ZM343.183 61.9072C343.001 61.9832 342.75 62.0744 342.431 62.1808C342.127 62.2872 341.77 62.3936 341.359 62.5C340.949 62.5912 340.493 62.6672 339.991 62.728C339.505 62.804 338.996 62.842 338.464 62.842C337.4 62.842 336.488 62.6748 335.728 62.3404C334.983 62.006 334.367 61.5424 333.881 60.9496C333.41 60.3568 333.06 59.6576 332.832 58.852C332.604 58.0464 332.49 57.1648 332.49 56.2072C332.49 55.1888 332.612 54.2768 332.855 53.4712C333.098 52.6504 333.463 51.9512 333.949 51.3736C334.436 50.796 335.036 50.3552 335.751 50.0512C336.48 49.732 337.316 49.5724 338.259 49.5724C339.946 49.5724 341.23 50.1044 342.112 51.1684C342.993 52.2324 343.434 53.76 343.434 55.7512C343.434 55.964 343.427 56.1844 343.411 56.4124C343.411 56.6252 343.411 56.7772 343.411 56.8684H335.34C335.401 58.1756 335.72 59.1028 336.298 59.65C336.875 60.182 337.681 60.448 338.715 60.448C339.11 60.448 339.497 60.4252 339.877 60.3796C340.273 60.334 340.637 60.2808 340.972 60.22C341.321 60.1592 341.641 60.0984 341.929 60.0376C342.218 59.9616 342.461 59.9008 342.659 59.8552L343.183 61.9072ZM340.744 54.9532C340.744 54.5428 340.683 54.1628 340.561 53.8132C340.455 53.4484 340.295 53.1292 340.083 52.8556C339.87 52.582 339.596 52.3692 339.262 52.2172C338.927 52.05 338.547 51.9664 338.122 51.9664C337.331 51.9664 336.67 52.2476 336.138 52.81C335.606 53.3724 335.34 54.1324 335.34 55.09L340.744 54.9532ZM354.719 62.5V55.204C354.719 54.8696 354.704 54.5276 354.674 54.178C354.643 53.8132 354.567 53.4864 354.446 53.1976C354.324 52.8936 354.134 52.6504 353.876 52.468C353.617 52.2856 353.252 52.1944 352.781 52.1944C352.219 52.1944 351.694 52.3388 351.208 52.6276C350.737 52.9012 350.288 53.2432 349.863 53.6536V62.5H347.081V49.9144H348.882L349.361 51.7156C349.589 51.4572 349.84 51.1988 350.114 50.9404C350.402 50.682 350.714 50.454 351.048 50.2564C351.383 50.0436 351.748 49.8764 352.143 49.7548C352.553 49.6332 352.986 49.5724 353.442 49.5724C354.826 49.5724 355.844 49.998 356.498 50.8492C357.166 51.6852 357.501 52.886 357.501 54.4516V62.5H354.719ZM367.976 62.1124C367.672 62.234 367.254 62.3784 366.722 62.5456C366.19 62.728 365.612 62.8192 364.989 62.8192C364.715 62.8192 364.404 62.7736 364.054 62.6824C363.704 62.5912 363.378 62.4164 363.074 62.158C362.77 61.8844 362.511 61.512 362.298 61.0408C362.101 60.5544 362.002 59.9236 362.002 59.1484V52.3312H360.155V50.3932L362.048 49.9144L362.412 47.2468L364.806 46.5628V49.9144H367.565V52.3312H364.806V59.2168C364.806 59.7032 364.913 60.0224 365.126 60.1744C365.338 60.3264 365.566 60.4024 365.81 60.4024C366.114 60.4024 366.395 60.372 366.653 60.3112C366.912 60.2352 367.162 60.1516 367.406 60.0604L367.976 62.1124ZM370.938 62.5V49.9144H373.742V62.5H370.938ZM370.596 46.9048C370.596 46.3272 370.717 45.932 370.961 45.7192C371.219 45.5064 371.675 45.4 372.329 45.4C372.967 45.4 373.408 45.5064 373.651 45.7192C373.909 45.932 374.039 46.3272 374.039 46.9048C374.039 47.4672 373.909 47.8548 373.651 48.0676C373.408 48.2652 372.967 48.364 372.329 48.364C371.675 48.364 371.219 48.2652 370.961 48.0676C370.717 47.8548 370.596 47.4672 370.596 46.9048ZM385.667 62.5L385.142 60.7672C385.006 60.98 384.831 61.208 384.618 61.4512C384.405 61.6792 384.139 61.8996 383.82 62.1124C383.501 62.31 383.128 62.4696 382.703 62.5912C382.277 62.728 381.791 62.7964 381.244 62.7964C380.757 62.7964 380.271 62.7204 379.784 62.5684C379.298 62.4164 378.857 62.1808 378.462 61.8616C378.067 61.5272 377.74 61.1016 377.482 60.5848C377.238 60.0528 377.117 59.4068 377.117 58.6468C377.117 57.9324 377.261 57.3396 377.55 56.8684C377.839 56.382 378.211 56.002 378.667 55.7284C379.123 55.4396 379.64 55.2344 380.218 55.1128C380.795 54.9912 381.373 54.9304 381.95 54.9304H384.686V54.4744C384.686 53.988 384.618 53.5852 384.481 53.266C384.344 52.9468 384.162 52.696 383.934 52.5136C383.706 52.3312 383.44 52.2096 383.136 52.1488C382.847 52.0728 382.536 52.0348 382.201 52.0348C381.897 52.0348 381.563 52.0576 381.198 52.1032C380.833 52.1488 380.484 52.2096 380.149 52.2856C379.815 52.3464 379.511 52.4072 379.237 52.468C378.964 52.5288 378.774 52.5744 378.667 52.6048L378.052 50.4388C378.234 50.378 378.492 50.302 378.827 50.2108C379.161 50.1196 379.534 50.0284 379.944 49.9372C380.354 49.846 380.788 49.77 381.244 49.7092C381.7 49.6484 382.156 49.618 382.612 49.618C383.083 49.618 383.6 49.6712 384.162 49.7776C384.74 49.884 385.272 50.1196 385.758 50.4844C386.26 50.834 386.67 51.3508 386.989 52.0348C387.324 52.7036 387.491 53.608 387.491 54.748V62.5H385.667ZM382.087 56.7772C381.677 56.7924 381.327 56.8532 381.038 56.9596C380.75 57.066 380.514 57.2028 380.332 57.37C380.164 57.5372 380.043 57.7348 379.967 57.9628C379.891 58.1756 379.853 58.396 379.853 58.624C379.853 58.8672 379.883 59.1104 379.944 59.3536C380.02 59.5816 380.134 59.7944 380.286 59.992C380.453 60.1744 380.666 60.3264 380.924 60.448C381.198 60.5544 381.532 60.6076 381.928 60.6076C382.292 60.6076 382.642 60.5468 382.976 60.4252C383.311 60.2884 383.607 60.068 383.866 59.764C384.124 59.46 384.329 59.0572 384.481 58.5556C384.633 58.054 384.709 57.4308 384.709 56.686L382.087 56.7772ZM391.606 62.5V45.1264H394.388V62.5H391.606ZM404.233 59.8324C404.385 59.878 404.606 59.9388 404.895 60.0148C405.199 60.0908 405.533 60.1668 405.898 60.2428C406.278 60.3036 406.681 60.3644 407.106 60.4252C407.547 60.4708 407.973 60.4936 408.383 60.4936C409.113 60.4936 409.675 60.3796 410.07 60.1516C410.465 59.9236 410.663 59.5588 410.663 59.0572C410.663 58.7988 410.617 58.586 410.526 58.4188C410.45 58.2364 410.306 58.0844 410.093 57.9628C409.88 57.826 409.584 57.712 409.204 57.6208C408.824 57.5144 408.337 57.4004 407.745 57.2788C406.407 57.0204 405.404 56.5948 404.735 56.002C404.081 55.4092 403.755 54.5276 403.755 53.3572C403.755 52.7644 403.869 52.24 404.097 51.784C404.34 51.3128 404.674 50.9176 405.1 50.5984C405.525 50.264 406.035 50.0132 406.627 49.846C407.235 49.6636 407.904 49.5724 408.634 49.5724C409.515 49.5724 410.329 49.6484 411.073 49.8004C411.818 49.9372 412.479 50.112 413.057 50.3248L412.487 52.4224C412.35 52.3768 412.153 52.3312 411.894 52.2856C411.636 52.2248 411.339 52.164 411.005 52.1032C410.671 52.0424 410.313 51.9968 409.933 51.9664C409.569 51.9208 409.219 51.898 408.885 51.898C407.319 51.898 406.536 52.354 406.536 53.266C406.536 53.5244 406.589 53.7372 406.696 53.9044C406.802 54.0716 406.969 54.216 407.197 54.3376C407.425 54.444 407.722 54.5428 408.087 54.634C408.467 54.7252 408.93 54.824 409.477 54.9304C410.101 55.052 410.655 55.204 411.142 55.3864C411.643 55.5688 412.061 55.812 412.396 56.116C412.745 56.4048 413.004 56.762 413.171 57.1876C413.353 57.598 413.445 58.0996 413.445 58.6924C413.445 59.9844 413.004 61.0028 412.122 61.7476C411.241 62.4772 410.04 62.842 408.52 62.842C407.942 62.842 407.395 62.804 406.878 62.728C406.361 62.652 405.89 62.5684 405.465 62.4772C405.054 62.3708 404.689 62.272 404.37 62.1808C404.066 62.0744 403.831 61.9984 403.663 61.9528L404.233 59.8324ZM424.513 62.5L423.989 60.7672C423.852 60.98 423.677 61.208 423.464 61.4512C423.251 61.6792 422.985 61.8996 422.666 62.1124C422.347 62.31 421.975 62.4696 421.549 62.5912C421.123 62.728 420.637 62.7964 420.09 62.7964C419.603 62.7964 419.117 62.7204 418.631 62.5684C418.144 62.4164 417.703 62.1808 417.308 61.8616C416.913 61.5272 416.586 61.1016 416.328 60.5848C416.085 60.0528 415.963 59.4068 415.963 58.6468C415.963 57.9324 416.107 57.3396 416.396 56.8684C416.685 56.382 417.057 56.002 417.513 55.7284C417.969 55.4396 418.486 55.2344 419.064 55.1128C419.641 54.9912 420.219 54.9304 420.797 54.9304H423.533V54.4744C423.533 53.988 423.464 53.5852 423.327 53.266C423.191 52.9468 423.008 52.696 422.78 52.5136C422.552 52.3312 422.286 52.2096 421.982 52.1488C421.693 52.0728 421.382 52.0348 421.047 52.0348C420.743 52.0348 420.409 52.0576 420.044 52.1032C419.679 52.1488 419.33 52.2096 418.995 52.2856C418.661 52.3464 418.357 52.4072 418.083 52.468C417.81 52.5288 417.62 52.5744 417.513 52.6048L416.898 50.4388C417.08 50.378 417.339 50.302 417.673 50.2108C418.007 50.1196 418.38 50.0284 418.79 49.9372C419.201 49.846 419.634 49.77 420.09 49.7092C420.546 49.6484 421.002 49.618 421.458 49.618C421.929 49.618 422.446 49.6712 423.008 49.7776C423.586 49.884 424.118 50.1196 424.604 50.4844C425.106 50.834 425.516 51.3508 425.835 52.0348C426.17 52.7036 426.337 53.608 426.337 54.748V62.5H424.513ZM420.933 56.7772C420.523 56.7924 420.173 56.8532 419.885 56.9596C419.596 57.066 419.36 57.2028 419.178 57.37C419.011 57.5372 418.889 57.7348 418.813 57.9628C418.737 58.1756 418.699 58.396 418.699 58.624C418.699 58.8672 418.729 59.1104 418.79 59.3536C418.866 59.5816 418.98 59.7944 419.132 59.992C419.299 60.1744 419.512 60.3264 419.771 60.448C420.044 60.5544 420.379 60.6076 420.774 60.6076C421.139 60.6076 421.488 60.5468 421.823 60.4252C422.157 60.2884 422.453 60.068 422.712 59.764C422.97 59.46 423.175 59.0572 423.327 58.5556C423.479 58.054 423.555 57.4308 423.555 56.686L420.933 56.7772ZM430.452 62.5V45.1264H433.234V62.5H430.452ZM447.58 61.9072C447.397 61.9832 447.146 62.0744 446.827 62.1808C446.523 62.2872 446.166 62.3936 445.756 62.5C445.345 62.5912 444.889 62.6672 444.388 62.728C443.901 62.804 443.392 62.842 442.86 62.842C441.796 62.842 440.884 62.6748 440.124 62.3404C439.379 62.006 438.764 61.5424 438.277 60.9496C437.806 60.3568 437.456 59.6576 437.228 58.852C437 58.0464 436.886 57.1648 436.886 56.2072C436.886 55.1888 437.008 54.2768 437.251 53.4712C437.494 52.6504 437.859 51.9512 438.346 51.3736C438.832 50.796 439.432 50.3552 440.147 50.0512C440.876 49.732 441.712 49.5724 442.655 49.5724C444.342 49.5724 445.626 50.1044 446.508 51.1684C447.39 52.2324 447.83 53.76 447.83 55.7512C447.83 55.964 447.823 56.1844 447.808 56.4124C447.808 56.6252 447.808 56.7772 447.808 56.8684H439.736C439.797 58.1756 440.116 59.1028 440.694 59.65C441.272 60.182 442.077 60.448 443.111 60.448C443.506 60.448 443.894 60.4252 444.274 60.3796C444.669 60.334 445.034 60.2808 445.368 60.22C445.718 60.1592 446.037 60.0984 446.326 60.0376C446.614 59.9616 446.858 59.9008 447.055 59.8552L447.58 61.9072ZM445.14 54.9532C445.14 54.5428 445.079 54.1628 444.958 53.8132C444.851 53.4484 444.692 53.1292 444.479 52.8556C444.266 52.582 443.992 52.3692 443.658 52.2172C443.324 52.05 442.944 51.9664 442.518 51.9664C441.728 51.9664 441.066 52.2476 440.534 52.81C440.002 53.3724 439.736 54.1324 439.736 55.09L445.14 54.9532ZM451.318 59.8324C451.47 59.878 451.69 59.9388 451.979 60.0148C452.283 60.0908 452.617 60.1668 452.982 60.2428C453.362 60.3036 453.765 60.3644 454.191 60.4252C454.631 60.4708 455.057 60.4936 455.467 60.4936C456.197 60.4936 456.759 60.3796 457.155 60.1516C457.55 59.9236 457.747 59.5588 457.747 59.0572C457.747 58.7988 457.702 58.586 457.611 58.4188C457.535 58.2364 457.39 58.0844 457.177 57.9628C456.965 57.826 456.668 57.712 456.288 57.6208C455.908 57.5144 455.422 57.4004 454.829 57.2788C453.491 57.0204 452.488 56.5948 451.819 56.002C451.166 55.4092 450.839 54.5276 450.839 53.3572C450.839 52.7644 450.953 52.24 451.181 51.784C451.424 51.3128 451.759 50.9176 452.184 50.5984C452.61 50.264 453.119 50.0132 453.712 49.846C454.32 49.6636 454.989 49.5724 455.718 49.5724C456.6 49.5724 457.413 49.6484 458.158 49.8004C458.903 49.9372 459.564 50.112 460.141 50.3248L459.571 52.4224C459.435 52.3768 459.237 52.3312 458.979 52.2856C458.72 52.2248 458.424 52.164 458.089 52.1032C457.755 52.0424 457.398 51.9968 457.018 51.9664C456.653 51.9208 456.303 51.898 455.969 51.898C454.403 51.898 453.621 52.354 453.621 53.266C453.621 53.5244 453.674 53.7372 453.78 53.9044C453.887 54.0716 454.054 54.216 454.282 54.3376C454.51 54.444 454.806 54.5428 455.171 54.634C455.551 54.7252 456.015 54.824 456.562 54.9304C457.185 55.052 457.74 55.204 458.226 55.3864C458.728 55.5688 459.146 55.812 459.48 56.116C459.83 56.4048 460.088 56.762 460.255 57.1876C460.438 57.598 460.529 58.0996 460.529 58.6924C460.529 59.9844 460.088 61.0028 459.207 61.7476C458.325 62.4772 457.124 62.842 455.604 62.842C455.027 62.842 454.479 62.804 453.963 62.728C453.446 62.652 452.975 62.5684 452.549 62.4772C452.139 62.3708 451.774 62.272 451.455 62.1808C451.151 62.0744 450.915 61.9984 450.748 61.9528L451.318 59.8324ZM473.39 64.8484C472.858 64.0428 472.356 63.2296 471.885 62.4088C471.414 61.5728 471.004 60.714 470.654 59.8324C470.304 58.9508 470.023 58.0464 469.81 57.1192C469.613 56.192 469.514 55.2344 469.514 54.2464C469.514 53.2432 469.613 52.2856 469.81 51.3736C470.023 50.4464 470.304 49.5496 470.654 48.6832C471.004 47.8168 471.414 46.9656 471.885 46.1296C472.356 45.2936 472.858 44.4652 473.39 43.6444H475.784C475.328 44.45 474.88 45.2784 474.439 46.1296C474.013 46.9808 473.626 47.8472 473.276 48.7288C472.942 49.6104 472.668 50.5148 472.455 51.442C472.258 52.354 472.159 53.2888 472.159 54.2464C472.159 55.204 472.258 56.1464 472.455 57.0736C472.653 57.9856 472.919 58.89 473.253 59.7868C473.588 60.6684 473.975 61.5348 474.416 62.386C474.857 63.222 475.313 64.0428 475.784 64.8484H473.39ZM488.851 62.5L487.643 58.8292H481.373L480.164 62.5H477.246L482.832 45.8788H486.32L491.906 62.5H488.851ZM486.936 56.344L485.522 51.8752C485.34 51.2976 485.157 50.6972 484.975 50.074C484.793 49.4508 484.641 48.9264 484.519 48.5008C484.397 48.9264 484.238 49.4508 484.04 50.074C483.858 50.6972 483.675 51.2976 483.493 51.8752L482.057 56.344H486.936ZM494.759 62.5V45.8788H505.155V48.4324H497.586V52.6732H503.787V55.1812H497.586V59.9464H505.611V62.5H494.759ZM522.316 54.178C522.316 55.4852 522.142 56.6556 521.792 57.6892C521.442 58.7076 520.918 59.574 520.219 60.2884C519.52 61.0028 518.646 61.55 517.597 61.93C516.548 62.31 515.324 62.5 513.926 62.5H509.001V45.8788H513.926C515.324 45.8788 516.548 46.0688 517.597 46.4488C518.646 46.8288 519.52 47.376 520.219 48.0904C520.918 48.8048 521.442 49.6788 521.792 50.7124C522.142 51.7308 522.316 52.886 522.316 54.178ZM519.375 54.178C519.375 53.0836 519.254 52.1716 519.01 51.442C518.767 50.7124 518.41 50.1272 517.939 49.6864C517.468 49.2304 516.882 48.9036 516.183 48.706C515.499 48.5084 514.716 48.4096 513.835 48.4096H511.828V59.9464H513.835C514.716 59.9464 515.499 59.8552 516.183 59.6728C516.882 59.4752 517.468 59.156 517.939 58.7152C518.41 58.2592 518.767 57.6664 519.01 56.9368C519.254 56.192 519.375 55.2724 519.375 54.178ZM534.564 58.6468C534.64 58.7836 534.754 58.9508 534.906 59.1484C535.058 59.3308 535.248 59.5132 535.476 59.6956C535.704 59.878 535.954 60.03 536.228 60.1516C536.517 60.2732 536.828 60.334 537.163 60.334C537.497 60.334 537.816 60.2656 538.12 60.1288C538.44 59.9768 538.721 59.7412 538.964 59.422C539.207 59.1028 539.397 58.6924 539.534 58.1908C539.686 57.6892 539.762 57.0812 539.762 56.3668C539.762 55.774 539.732 55.2192 539.671 54.7024C539.61 54.1704 539.488 53.7144 539.306 53.3344C539.124 52.9392 538.865 52.6276 538.531 52.3996C538.196 52.1716 537.756 52.0576 537.208 52.0576C536.844 52.0576 536.517 52.1336 536.228 52.2856C535.939 52.4224 535.681 52.5896 535.453 52.7872C535.225 52.9848 535.035 53.1976 534.883 53.4256C534.731 53.6536 534.624 53.8436 534.564 53.9956V58.6468ZM531.782 62.5V45.1264H534.564V51.2824C534.67 51.1304 534.822 50.9556 535.02 50.758C535.217 50.5604 535.468 50.378 535.772 50.2108C536.076 50.0284 536.426 49.8764 536.821 49.7548C537.216 49.6332 537.664 49.5724 538.166 49.5724C538.926 49.5724 539.587 49.7396 540.15 50.074C540.712 50.3932 541.176 50.8416 541.54 51.4192C541.905 51.9968 542.179 52.6732 542.361 53.4484C542.544 54.2236 542.635 55.0672 542.635 55.9792C542.635 56.8456 542.536 57.6892 542.338 58.51C542.141 59.3308 541.837 60.068 541.426 60.7216C541.016 61.36 540.492 61.8768 539.853 62.272C539.215 62.652 538.455 62.842 537.573 62.842C537.117 62.842 536.699 62.7736 536.319 62.6368C535.939 62.5152 535.597 62.3632 535.293 62.1808C535.004 61.9832 534.754 61.7704 534.541 61.5424C534.328 61.3144 534.161 61.1092 534.039 60.9268L533.583 62.5H531.782ZM553.885 62.5V55.204C553.885 54.8696 553.87 54.5276 553.84 54.178C553.809 53.8132 553.733 53.4864 553.612 53.1976C553.49 52.8936 553.3 52.6504 553.042 52.468C552.783 52.2856 552.418 52.1944 551.947 52.1944C551.385 52.1944 550.86 52.3388 550.374 52.6276C549.903 52.9012 549.454 53.2432 549.029 53.6536V62.5H546.247V49.9144H548.048L548.527 51.7156C548.755 51.4572 549.006 51.1988 549.28 50.9404C549.568 50.682 549.88 50.454 550.214 50.2564C550.549 50.0436 550.914 49.8764 551.309 49.7548C551.719 49.6332 552.152 49.5724 552.608 49.5724C553.992 49.5724 555.01 49.998 555.664 50.8492C556.332 51.6852 556.667 52.886 556.667 54.4516V62.5H553.885ZM565.819 54.2464C565.819 55.2496 565.713 56.2148 565.5 57.142C565.302 58.0692 565.029 58.966 564.679 59.8324C564.33 60.6988 563.919 61.55 563.448 62.386C562.977 63.2068 562.475 64.0276 561.943 64.8484H559.549C560.005 64.0428 560.446 63.2144 560.872 62.3632C561.312 61.512 561.7 60.6456 562.034 59.764C562.384 58.8824 562.665 57.9856 562.878 57.0736C563.091 56.1464 563.197 55.204 563.197 54.2464C563.197 53.2888 563.091 52.354 562.878 51.442C562.68 50.5148 562.414 49.6104 562.08 48.7288C561.746 47.832 561.358 46.9656 560.917 46.1296C560.476 45.2784 560.02 44.45 559.549 43.6444H561.943C562.49 44.45 563 45.2708 563.471 46.1068C563.942 46.9276 564.352 47.7788 564.702 48.6604C565.052 49.542 565.325 50.4464 565.523 51.3736C565.72 52.3008 565.819 53.2584 565.819 54.2464Z" fill="white"/>
<g clip-path="url(#clip0_59_1607)">
<rect width="720" height="1" transform="translate(24 96)" fill="white" fill-opacity="0.15"/>
<rect width="720" height="1" transform="translate(24 127)" fill="white" fill-opacity="0.15"/>
<rect width="720" height="1" transform="translate(24 158)" fill="white" fill-opacity="0.15"/>
<rect width="720" height="1" transform="translate(24 189)" fill="white" fill-opacity="0.15"/>
<rect width="720" height="1" transform="translate(24 220)" fill="white" fill-opacity="0.15"/>
<rect width="720" height="1" transform="translate(24 251)" fill="white" fill-opacity="0.15"/>
<rect width="720" height="1" transform="translate(24 282)" fill="white" fill-opacity="0.15"/>
<rect width="720" height="1" transform="translate(24 313)" fill="white" fill-opacity="0.15"/>
<rect width="720" height="1" transform="translate(24 344)" fill="white" fill-opacity="0.15"/>
<path d="M71.3547 356V354.678L73.5207 352.705C73.8171 352.432 74.0679 352.192 74.2731 351.987C74.4859 351.782 74.6569 351.592 74.7861 351.417C74.9153 351.235 75.0103 351.056 75.0711 350.881C75.1319 350.707 75.1623 350.513 75.1623 350.3C75.1623 349.867 75.0179 349.54 74.7291 349.32C74.4403 349.092 74.0869 348.978 73.6689 348.978C73.4637 348.978 73.2547 348.993 73.0419 349.023C72.8367 349.054 72.6391 349.092 72.4491 349.137C72.2667 349.175 72.1033 349.217 71.9589 349.263C71.8145 349.301 71.7081 349.331 71.6397 349.354L71.3205 348.18C71.3889 348.157 71.5067 348.119 71.6739 348.066C71.8411 348.012 72.0387 347.959 72.2667 347.906C72.4947 347.845 72.7455 347.796 73.0191 347.758C73.2927 347.712 73.5663 347.689 73.8399 347.689C74.1287 347.689 74.4365 347.735 74.7633 347.826C75.0977 347.91 75.4017 348.054 75.6753 348.259C75.9565 348.465 76.1883 348.738 76.3707 349.08C76.5607 349.415 76.6557 349.829 76.6557 350.323C76.6557 350.779 76.5569 351.193 76.3593 351.565C76.1693 351.93 75.9261 352.268 75.6297 352.58C75.3409 352.892 75.0217 353.18 74.6721 353.446C74.3225 353.705 73.9957 353.956 73.6917 354.199L72.9849 354.757C73.0533 354.757 73.1407 354.754 73.2471 354.746C73.3535 354.738 73.4637 354.735 73.5777 354.735C73.6917 354.727 73.8019 354.723 73.9083 354.723C74.0147 354.716 74.1021 354.712 74.1705 354.712H76.7355V356H71.3547ZM85.3563 351.919C85.3563 352.58 85.2917 353.173 85.1625 353.697C85.0333 354.222 84.8395 354.666 84.5811 355.031C84.3303 355.396 84.0149 355.673 83.6349 355.863C83.2625 356.053 82.8293 356.148 82.3353 356.148C81.8337 356.148 81.3929 356.053 81.0129 355.863C80.6405 355.673 80.3251 355.396 80.0667 355.031C79.8159 354.666 79.6259 354.222 79.4967 353.697C79.3675 353.173 79.3029 352.58 79.3029 351.919C79.3029 351.25 79.3675 350.653 79.4967 350.129C79.6259 349.605 79.8159 349.16 80.0667 348.795C80.3251 348.43 80.6405 348.153 81.0129 347.963C81.3929 347.773 81.8337 347.678 82.3353 347.678C82.8293 347.678 83.2625 347.773 83.6349 347.963C84.0149 348.153 84.3303 348.43 84.5811 348.795C84.8395 349.16 85.0333 349.605 85.1625 350.129C85.2917 350.653 85.3563 351.25 85.3563 351.919ZM83.8629 351.919C83.8629 351.349 83.8249 350.878 83.7489 350.505C83.6729 350.125 83.5665 349.821 83.4297 349.593C83.2929 349.365 83.1295 349.206 82.9395 349.114C82.7495 349.016 82.5405 348.966 82.3125 348.966C82.0845 348.966 81.8755 349.016 81.6855 349.114C81.4955 349.206 81.3283 349.365 81.1839 349.593C81.0471 349.821 80.9407 350.125 80.8647 350.505C80.7887 350.878 80.7507 351.349 80.7507 351.919C80.7507 352.481 80.7887 352.952 80.8647 353.332C80.9407 353.705 81.0471 354.005 81.1839 354.233C81.3283 354.461 81.4955 354.624 81.6855 354.723C81.8755 354.814 82.0845 354.86 82.3125 354.86C82.5405 354.86 82.7495 354.814 82.9395 354.723C83.1295 354.624 83.2929 354.461 83.4297 354.233C83.5665 354.005 83.6729 353.705 83.7489 353.332C83.8249 352.952 83.8629 352.481 83.8629 351.919ZM87.616 356V354.678L89.782 352.705C90.0784 352.432 90.3292 352.192 90.5344 351.987C90.7472 351.782 90.9182 351.592 91.0474 351.417C91.1766 351.235 91.2716 351.056 91.3324 350.881C91.3932 350.707 91.4236 350.513 91.4236 350.3C91.4236 349.867 91.2792 349.54 90.9904 349.32C90.7016 349.092 90.3482 348.978 89.9302 348.978C89.725 348.978 89.516 348.993 89.3032 349.023C89.098 349.054 88.9004 349.092 88.7104 349.137C88.528 349.175 88.3646 349.217 88.2202 349.263C88.0758 349.301 87.9694 349.331 87.901 349.354L87.5818 348.18C87.6502 348.157 87.768 348.119 87.9352 348.066C88.1024 348.012 88.3 347.959 88.528 347.906C88.756 347.845 89.0068 347.796 89.2804 347.758C89.554 347.712 89.8276 347.689 90.1012 347.689C90.39 347.689 90.6978 347.735 91.0246 347.826C91.359 347.91 91.663 348.054 91.9366 348.259C92.2178 348.465 92.4496 348.738 92.632 349.08C92.822 349.415 92.917 349.829 92.917 350.323C92.917 350.779 92.8182 351.193 92.6206 351.565C92.4306 351.93 92.1874 352.268 91.891 352.58C91.6022 352.892 91.283 353.18 90.9334 353.446C90.5838 353.705 90.257 353.956 89.953 354.199L89.2462 354.757C89.3146 354.757 89.402 354.754 89.5084 354.746C89.6148 354.738 89.725 354.735 89.839 354.735C89.953 354.727 90.0632 354.723 90.1696 354.723C90.276 354.716 90.3634 354.712 90.4318 354.712H92.9968V356H87.616ZM101.618 351.919C101.618 352.58 101.553 353.173 101.424 353.697C101.295 354.222 101.101 354.666 100.842 355.031C100.592 355.396 100.276 355.673 99.8963 355.863C99.5239 356.053 99.0907 356.148 98.5967 356.148C98.0951 356.148 97.6543 356.053 97.2743 355.863C96.9019 355.673 96.5865 355.396 96.3281 355.031C96.0773 354.666 95.8873 354.222 95.7581 353.697C95.6289 353.173 95.5643 352.58 95.5643 351.919C95.5643 351.25 95.6289 350.653 95.7581 350.129C95.8873 349.605 96.0773 349.16 96.3281 348.795C96.5865 348.43 96.9019 348.153 97.2743 347.963C97.6543 347.773 98.0951 347.678 98.5967 347.678C99.0907 347.678 99.5239 347.773 99.8963 347.963C100.276 348.153 100.592 348.43 100.842 348.795C101.101 349.16 101.295 349.605 101.424 350.129C101.553 350.653 101.618 351.25 101.618 351.919ZM100.124 351.919C100.124 351.349 100.086 350.878 100.01 350.505C99.9343 350.125 99.8279 349.821 99.6911 349.593C99.5543 349.365 99.3909 349.206 99.2009 349.114C99.0109 349.016 98.8019 348.966 98.5739 348.966C98.3459 348.966 98.1369 349.016 97.9469 349.114C97.7569 349.206 97.5897 349.365 97.4453 349.593C97.3085 349.821 97.2021 350.125 97.1261 350.505C97.0501 350.878 97.0121 351.349 97.0121 351.919C97.0121 352.481 97.0501 352.952 97.1261 353.332C97.2021 353.705 97.3085 354.005 97.4453 354.233C97.5897 354.461 97.7569 354.624 97.9469 354.723C98.1369 354.814 98.3459 354.86 98.5739 354.86C98.8019 354.86 99.0109 354.814 99.2009 354.723C99.3909 354.624 99.5543 354.461 99.6911 354.233C99.8279 354.005 99.9343 353.705 100.01 353.332C100.086 352.952 100.124 352.481 100.124 351.919Z" fill="white"/>
<path d="M220.154 356V354.678L222.32 352.705C222.617 352.432 222.868 352.192 223.073 351.987C223.286 351.782 223.457 351.592 223.586 351.417C223.715 351.235 223.81 351.056 223.871 350.881C223.932 350.707 223.962 350.513 223.962 350.3C223.962 349.867 223.818 349.54 223.529 349.32C223.24 349.092 222.887 348.978 222.469 348.978C222.263 348.978 222.054 348.993 221.842 349.023C221.636 349.054 221.439 349.092 221.249 349.137C221.066 349.175 220.903 349.217 220.759 349.263C220.614 349.301 220.508 349.331 220.439 349.354L220.12 348.18C220.189 348.157 220.306 348.119 220.474 348.066C220.641 348.012 220.838 347.959 221.066 347.906C221.294 347.845 221.545 347.796 221.819 347.758C222.092 347.712 222.366 347.689 222.64 347.689C222.928 347.689 223.236 347.735 223.563 347.826C223.897 347.91 224.201 348.054 224.475 348.259C224.756 348.465 224.988 348.738 225.17 349.08C225.36 349.415 225.455 349.829 225.455 350.323C225.455 350.779 225.357 351.193 225.159 351.565C224.969 351.93 224.726 352.268 224.429 352.58C224.141 352.892 223.821 353.18 223.472 353.446C223.122 353.705 222.795 353.956 222.491 354.199L221.785 354.757C221.853 354.757 221.94 354.754 222.047 354.746C222.153 354.738 222.263 354.735 222.377 354.735C222.491 354.727 222.602 354.723 222.708 354.723C222.814 354.716 222.902 354.712 222.97 354.712H225.535V356H220.154ZM234.156 351.919C234.156 352.58 234.092 353.173 233.962 353.697C233.833 354.222 233.639 354.666 233.381 355.031C233.13 355.396 232.815 355.673 232.435 355.863C232.062 356.053 231.629 356.148 231.135 356.148C230.634 356.148 230.193 356.053 229.813 355.863C229.44 355.673 229.125 355.396 228.867 355.031C228.616 354.666 228.426 354.222 228.297 353.697C228.167 353.173 228.103 352.58 228.103 351.919C228.103 351.25 228.167 350.653 228.297 350.129C228.426 349.605 228.616 349.16 228.867 348.795C229.125 348.43 229.44 348.153 229.813 347.963C230.193 347.773 230.634 347.678 231.135 347.678C231.629 347.678 232.062 347.773 232.435 347.963C232.815 348.153 233.13 348.43 233.381 348.795C233.639 349.16 233.833 349.605 233.962 350.129C234.092 350.653 234.156 351.25 234.156 351.919ZM232.663 351.919C232.663 351.349 232.625 350.878 232.549 350.505C232.473 350.125 232.366 349.821 232.23 349.593C232.093 349.365 231.929 349.206 231.739 349.114C231.549 349.016 231.34 348.966 231.112 348.966C230.884 348.966 230.675 349.016 230.485 349.114C230.295 349.206 230.128 349.365 229.984 349.593C229.847 349.821 229.741 350.125 229.665 350.505C229.589 350.878 229.551 351.349 229.551 351.919C229.551 352.481 229.589 352.952 229.665 353.332C229.741 353.705 229.847 354.005 229.984 354.233C230.128 354.461 230.295 354.624 230.485 354.723C230.675 354.814 230.884 354.86 231.112 354.86C231.34 354.86 231.549 354.814 231.739 354.723C231.929 354.624 232.093 354.461 232.23 354.233C232.366 354.005 232.473 353.705 232.549 353.332C232.625 352.952 232.663 352.481 232.663 351.919ZM236.416 356V354.678L238.582 352.705C238.878 352.432 239.129 352.192 239.334 351.987C239.547 351.782 239.718 351.592 239.847 351.417C239.976 351.235 240.071 351.056 240.132 350.881C240.193 350.707 240.223 350.513 240.223 350.3C240.223 349.867 240.079 349.54 239.79 349.32C239.501 349.092 239.148 348.978 238.73 348.978C238.525 348.978 238.316 348.993 238.103 349.023C237.898 349.054 237.7 349.092 237.51 349.137C237.328 349.175 237.164 349.217 237.02 349.263C236.876 349.301 236.769 349.331 236.701 349.354L236.382 348.18C236.45 348.157 236.568 348.119 236.735 348.066C236.902 348.012 237.1 347.959 237.328 347.906C237.556 347.845 237.807 347.796 238.08 347.758C238.354 347.712 238.627 347.689 238.901 347.689C239.19 347.689 239.498 347.735 239.824 347.826C240.159 347.91 240.463 348.054 240.736 348.259C241.018 348.465 241.249 348.738 241.432 349.08C241.622 349.415 241.717 349.829 241.717 350.323C241.717 350.779 241.618 351.193 241.42 351.565C241.23 351.93 240.987 352.268 240.691 352.58C240.402 352.892 240.083 353.18 239.733 353.446C239.384 353.705 239.057 353.956 238.753 354.199L238.046 354.757C238.114 354.757 238.202 354.754 238.308 354.746C238.415 354.738 238.525 354.735 238.639 354.735C238.753 354.727 238.863 354.723 238.969 354.723C239.076 354.716 239.163 354.712 239.232 354.712H241.797V356H236.416ZM245.253 356V354.826H246.929V349.194L245.401 349.434L245.139 348.339L247.26 347.792H248.354V354.826H249.973V356H245.253Z" fill="white"/>
<path d="M368.954 356V354.678L371.12 352.705C371.417 352.432 371.667 352.192 371.873 351.987C372.085 351.782 372.256 351.592 372.386 351.417C372.515 351.235 372.61 351.056 372.671 350.881C372.731 350.707 372.762 350.513 372.762 350.3C372.762 349.867 372.617 349.54 372.329 349.32C372.04 349.092 371.686 348.978 371.268 348.978C371.063 348.978 370.854 348.993 370.641 349.023C370.436 349.054 370.239 349.092 370.049 349.137C369.866 349.175 369.703 349.217 369.558 349.263C369.414 349.301 369.308 349.331 369.239 349.354L368.92 348.18C368.988 348.157 369.106 348.119 369.273 348.066C369.441 348.012 369.638 347.959 369.866 347.906C370.094 347.845 370.345 347.796 370.619 347.758C370.892 347.712 371.166 347.689 371.439 347.689C371.728 347.689 372.036 347.735 372.363 347.826C372.697 347.91 373.001 348.054 373.275 348.259C373.556 348.465 373.788 348.738 373.97 349.08C374.16 349.415 374.255 349.829 374.255 350.323C374.255 350.779 374.156 351.193 373.959 351.565C373.769 351.93 373.526 352.268 373.229 352.58C372.94 352.892 372.621 353.18 372.272 353.446C371.922 353.705 371.595 353.956 371.291 354.199L370.584 354.757C370.653 354.757 370.74 354.754 370.847 354.746C370.953 354.738 371.063 354.735 371.177 354.735C371.291 354.727 371.401 354.723 371.508 354.723C371.614 354.716 371.702 354.712 371.77 354.712H374.335V356H368.954ZM382.956 351.919C382.956 352.58 382.891 353.173 382.762 353.697C382.633 354.222 382.439 354.666 382.181 355.031C381.93 355.396 381.615 355.673 381.235 355.863C380.862 356.053 380.429 356.148 379.935 356.148C379.433 356.148 378.993 356.053 378.613 355.863C378.24 355.673 377.925 355.396 377.666 355.031C377.416 354.666 377.226 354.222 377.096 353.697C376.967 353.173 376.903 352.58 376.903 351.919C376.903 351.25 376.967 350.653 377.096 350.129C377.226 349.605 377.416 349.16 377.666 348.795C377.925 348.43 378.24 348.153 378.613 347.963C378.993 347.773 379.433 347.678 379.935 347.678C380.429 347.678 380.862 347.773 381.235 347.963C381.615 348.153 381.93 348.43 382.181 348.795C382.439 349.16 382.633 349.605 382.762 350.129C382.891 350.653 382.956 351.25 382.956 351.919ZM381.463 351.919C381.463 351.349 381.425 350.878 381.349 350.505C381.273 350.125 381.166 349.821 381.029 349.593C380.893 349.365 380.729 349.206 380.539 349.114C380.349 349.016 380.14 348.966 379.912 348.966C379.684 348.966 379.475 349.016 379.285 349.114C379.095 349.206 378.928 349.365 378.784 349.593C378.647 349.821 378.54 350.125 378.464 350.505C378.388 350.878 378.35 351.349 378.35 351.919C378.35 352.481 378.388 352.952 378.464 353.332C378.54 353.705 378.647 354.005 378.784 354.233C378.928 354.461 379.095 354.624 379.285 354.723C379.475 354.814 379.684 354.86 379.912 354.86C380.14 354.86 380.349 354.814 380.539 354.723C380.729 354.624 380.893 354.461 381.029 354.233C381.166 354.005 381.273 353.705 381.349 353.332C381.425 352.952 381.463 352.481 381.463 351.919ZM385.216 356V354.678L387.382 352.705C387.678 352.432 387.929 352.192 388.134 351.987C388.347 351.782 388.518 351.592 388.647 351.417C388.776 351.235 388.871 351.056 388.932 350.881C388.993 350.707 389.023 350.513 389.023 350.3C389.023 349.867 388.879 349.54 388.59 349.32C388.301 349.092 387.948 348.978 387.53 348.978C387.325 348.978 387.116 348.993 386.903 349.023C386.698 349.054 386.5 349.092 386.31 349.137C386.128 349.175 385.964 349.217 385.82 349.263C385.675 349.301 385.569 349.331 385.501 349.354L385.181 348.18C385.25 348.157 385.368 348.119 385.535 348.066C385.702 348.012 385.9 347.959 386.128 347.906C386.356 347.845 386.606 347.796 386.88 347.758C387.154 347.712 387.427 347.689 387.701 347.689C387.99 347.689 388.297 347.735 388.624 347.826C388.959 347.91 389.263 348.054 389.536 348.259C389.817 348.465 390.049 348.738 390.232 349.08C390.422 349.415 390.517 349.829 390.517 350.323C390.517 350.779 390.418 351.193 390.22 351.565C390.03 351.93 389.787 352.268 389.491 352.58C389.202 352.892 388.883 353.18 388.533 353.446C388.183 353.705 387.857 353.956 387.553 354.199L386.846 354.757C386.914 354.757 387.002 354.754 387.108 354.746C387.214 354.738 387.325 354.735 387.439 354.735C387.553 354.727 387.663 354.723 387.769 354.723C387.876 354.716 387.963 354.712 388.031 354.712H390.596V356H385.216ZM393.346 356V354.678L395.512 352.705C395.809 352.432 396.059 352.192 396.265 351.987C396.477 351.782 396.648 351.592 396.778 351.417C396.907 351.235 397.002 351.056 397.063 350.881C397.123 350.707 397.154 350.513 397.154 350.3C397.154 349.867 397.009 349.54 396.721 349.32C396.432 349.092 396.078 348.978 395.66 348.978C395.455 348.978 395.246 348.993 395.033 349.023C394.828 349.054 394.631 349.092 394.441 349.137C394.258 349.175 394.095 349.217 393.95 349.263C393.806 349.301 393.7 349.331 393.631 349.354L393.312 348.18C393.38 348.157 393.498 348.119 393.665 348.066C393.833 348.012 394.03 347.959 394.258 347.906C394.486 347.845 394.737 347.796 395.011 347.758C395.284 347.712 395.558 347.689 395.831 347.689C396.12 347.689 396.428 347.735 396.755 347.826C397.089 347.91 397.393 348.054 397.667 348.259C397.948 348.465 398.18 348.738 398.362 349.08C398.552 349.415 398.647 349.829 398.647 350.323C398.647 350.779 398.548 351.193 398.351 351.565C398.161 351.93 397.918 352.268 397.621 352.58C397.332 352.892 397.013 353.18 396.664 353.446C396.314 353.705 395.987 353.956 395.683 354.199L394.976 354.757C395.045 354.757 395.132 354.754 395.239 354.746C395.345 354.738 395.455 354.735 395.569 354.735C395.683 354.727 395.793 354.723 395.9 354.723C396.006 354.716 396.094 354.712 396.162 354.712H398.727V356H393.346Z" fill="white"/>
<path d="M517.755 356V354.678L519.921 352.705C520.217 352.432 520.468 352.192 520.673 351.987C520.886 351.782 521.057 351.592 521.186 351.417C521.316 351.235 521.411 351.056 521.471 350.881C521.532 350.707 521.563 350.513 521.563 350.3C521.563 349.867 521.418 349.54 521.129 349.32C520.841 349.092 520.487 348.978 520.069 348.978C519.864 348.978 519.655 348.993 519.442 349.023C519.237 349.054 519.039 349.092 518.849 349.137C518.667 349.175 518.504 349.217 518.359 349.263C518.215 349.301 518.108 349.331 518.04 349.354L517.721 348.18C517.789 348.157 517.907 348.119 518.074 348.066C518.241 348.012 518.439 347.959 518.667 347.906C518.895 347.845 519.146 347.796 519.419 347.758C519.693 347.712 519.967 347.689 520.24 347.689C520.529 347.689 520.837 347.735 521.164 347.826C521.498 347.91 521.802 348.054 522.076 348.259C522.357 348.465 522.589 348.738 522.771 349.08C522.961 349.415 523.056 349.829 523.056 350.323C523.056 350.779 522.957 351.193 522.76 351.565C522.57 351.93 522.326 352.268 522.03 352.58C521.741 352.892 521.422 353.18 521.072 353.446C520.723 353.705 520.396 353.956 520.092 354.199L519.385 354.757C519.454 354.757 519.541 354.754 519.647 354.746C519.754 354.738 519.864 354.735 519.978 354.735C520.092 354.727 520.202 354.723 520.309 354.723C520.415 354.716 520.502 354.712 520.571 354.712H523.136V356H517.755ZM531.757 351.919C531.757 352.58 531.692 353.173 531.563 353.697C531.434 354.222 531.24 354.666 530.982 355.031C530.731 355.396 530.415 355.673 530.035 355.863C529.663 356.053 529.23 356.148 528.736 356.148C528.234 356.148 527.793 356.053 527.413 355.863C527.041 355.673 526.726 355.396 526.467 355.031C526.216 354.666 526.026 354.222 525.897 353.697C525.768 353.173 525.703 352.58 525.703 351.919C525.703 351.25 525.768 350.653 525.897 350.129C526.026 349.605 526.216 349.16 526.467 348.795C526.726 348.43 527.041 348.153 527.413 347.963C527.793 347.773 528.234 347.678 528.736 347.678C529.23 347.678 529.663 347.773 530.035 347.963C530.415 348.153 530.731 348.43 530.982 348.795C531.24 349.16 531.434 349.605 531.563 350.129C531.692 350.653 531.757 351.25 531.757 351.919ZM530.263 351.919C530.263 351.349 530.225 350.878 530.149 350.505C530.073 350.125 529.967 349.821 529.83 349.593C529.693 349.365 529.53 349.206 529.34 349.114C529.15 349.016 528.941 348.966 528.713 348.966C528.485 348.966 528.276 349.016 528.086 349.114C527.896 349.206 527.729 349.365 527.584 349.593C527.448 349.821 527.341 350.125 527.265 350.505C527.189 350.878 527.151 351.349 527.151 351.919C527.151 352.481 527.189 352.952 527.265 353.332C527.341 353.705 527.448 354.005 527.584 354.233C527.729 354.461 527.896 354.624 528.086 354.723C528.276 354.814 528.485 354.86 528.713 354.86C528.941 354.86 529.15 354.814 529.34 354.723C529.53 354.624 529.693 354.461 529.83 354.233C529.967 354.005 530.073 353.705 530.149 353.332C530.225 352.952 530.263 352.481 530.263 351.919ZM534.016 356V354.678L536.182 352.705C536.479 352.432 536.73 352.192 536.935 351.987C537.148 351.782 537.319 351.592 537.448 351.417C537.577 351.235 537.672 351.056 537.733 350.881C537.794 350.707 537.824 350.513 537.824 350.3C537.824 349.867 537.68 349.54 537.391 349.32C537.102 349.092 536.749 348.978 536.331 348.978C536.125 348.978 535.916 348.993 535.704 349.023C535.498 349.054 535.301 349.092 535.111 349.137C534.928 349.175 534.765 349.217 534.621 349.263C534.476 349.301 534.37 349.331 534.301 349.354L533.982 348.18C534.051 348.157 534.168 348.119 534.336 348.066C534.503 348.012 534.7 347.959 534.928 347.906C535.156 347.845 535.407 347.796 535.681 347.758C535.954 347.712 536.228 347.689 536.502 347.689C536.79 347.689 537.098 347.735 537.425 347.826C537.759 347.91 538.063 348.054 538.337 348.259C538.618 348.465 538.85 348.738 539.032 349.08C539.222 349.415 539.317 349.829 539.317 350.323C539.317 350.779 539.219 351.193 539.021 351.565C538.831 351.93 538.588 352.268 538.291 352.58C538.003 352.892 537.683 353.18 537.334 353.446C536.984 353.705 536.657 353.956 536.353 354.199L535.647 354.757C535.715 354.757 535.802 354.754 535.909 354.746C536.015 354.738 536.125 354.735 536.239 354.735C536.353 354.727 536.464 354.723 536.57 354.723C536.676 354.716 536.764 354.712 536.832 354.712H539.397V356H534.016ZM547.573 353.674C547.573 354.108 547.475 354.484 547.277 354.803C547.079 355.115 546.829 355.369 546.525 355.567C546.228 355.764 545.898 355.909 545.533 356C545.168 356.099 544.815 356.148 544.473 356.148C544.199 356.148 543.925 356.129 543.652 356.091C543.378 356.061 543.124 356.019 542.888 355.966C542.66 355.913 542.451 355.859 542.261 355.806C542.079 355.745 541.934 355.696 541.828 355.658L542.136 354.495L542.523 354.598C542.69 354.636 542.873 354.678 543.07 354.723C543.276 354.761 543.485 354.795 543.697 354.826C543.918 354.849 544.131 354.86 544.336 354.86C544.625 354.86 544.875 354.826 545.088 354.757C545.309 354.681 545.491 354.583 545.635 354.461C545.78 354.339 545.886 354.203 545.955 354.051C546.031 353.891 546.069 353.731 546.069 353.572C546.069 353.298 546 353.074 545.863 352.899C545.727 352.717 545.544 352.576 545.316 352.477C545.096 352.379 544.845 352.31 544.564 352.272C544.283 352.234 543.998 352.215 543.709 352.215V351.087C544.446 351.087 544.989 350.988 545.339 350.79C545.689 350.585 545.863 350.304 545.863 349.947C545.863 349.779 545.818 349.635 545.727 349.513C545.635 349.384 545.514 349.282 545.362 349.206C545.21 349.13 545.035 349.073 544.837 349.035C544.647 348.997 544.446 348.978 544.233 348.978C544.066 348.978 543.884 348.993 543.686 349.023C543.496 349.054 543.31 349.088 543.127 349.126C542.945 349.164 542.778 349.206 542.626 349.251C542.481 349.289 542.367 349.323 542.284 349.354L541.976 348.18C542.052 348.157 542.177 348.119 542.352 348.066C542.527 348.005 542.728 347.948 542.956 347.895C543.192 347.841 543.447 347.796 543.72 347.758C544.001 347.712 544.286 347.689 544.575 347.689C544.856 347.689 545.157 347.727 545.476 347.803C545.803 347.872 546.103 347.99 546.376 348.157C546.658 348.316 546.889 348.529 547.072 348.795C547.262 349.054 547.357 349.369 547.357 349.741C547.357 350.015 547.304 350.254 547.197 350.46C547.091 350.665 546.962 350.84 546.81 350.984C546.658 351.128 546.49 351.246 546.308 351.337C546.126 351.421 545.966 351.478 545.829 351.508C545.974 351.546 546.145 351.607 546.342 351.691C546.547 351.782 546.741 351.915 546.924 352.09C547.106 352.257 547.258 352.474 547.38 352.74C547.509 352.998 547.573 353.31 547.573 353.674Z" fill="white"/>
<path d="M666.555 356V354.678L668.721 352.705C669.017 352.432 669.268 352.192 669.473 351.987C669.686 351.782 669.857 351.592 669.986 351.417C670.115 351.235 670.21 351.056 670.271 350.881C670.332 350.707 670.362 350.513 670.362 350.3C670.362 349.867 670.218 349.54 669.929 349.32C669.64 349.092 669.287 348.978 668.869 348.978C668.664 348.978 668.455 348.993 668.242 349.023C668.037 349.054 667.839 349.092 667.649 349.137C667.467 349.175 667.303 349.217 667.159 349.263C667.015 349.301 666.908 349.331 666.84 349.354L666.521 348.18C666.589 348.157 666.707 348.119 666.874 348.066C667.041 348.012 667.239 347.959 667.467 347.906C667.695 347.845 667.946 347.796 668.219 347.758C668.493 347.712 668.766 347.689 669.04 347.689C669.329 347.689 669.637 347.735 669.963 347.826C670.298 347.91 670.602 348.054 670.875 348.259C671.157 348.465 671.388 348.738 671.571 349.08C671.761 349.415 671.856 349.829 671.856 350.323C671.856 350.779 671.757 351.193 671.559 351.565C671.369 351.93 671.126 352.268 670.83 352.58C670.541 352.892 670.222 353.18 669.872 353.446C669.523 353.705 669.196 353.956 668.892 354.199L668.185 354.757C668.253 354.757 668.341 354.754 668.447 354.746C668.554 354.738 668.664 354.735 668.778 354.735C668.892 354.727 669.002 354.723 669.108 354.723C669.215 354.716 669.302 354.712 669.371 354.712H671.936V356H666.555ZM680.557 351.919C680.557 352.58 680.492 353.173 680.363 353.697C680.234 354.222 680.04 354.666 679.781 355.031C679.531 355.396 679.215 355.673 678.835 355.863C678.463 356.053 678.03 356.148 677.536 356.148C677.034 356.148 676.593 356.053 676.213 355.863C675.841 355.673 675.525 355.396 675.267 355.031C675.016 354.666 674.826 354.222 674.697 353.697C674.568 353.173 674.503 352.58 674.503 351.919C674.503 351.25 674.568 350.653 674.697 350.129C674.826 349.605 675.016 349.16 675.267 348.795C675.525 348.43 675.841 348.153 676.213 347.963C676.593 347.773 677.034 347.678 677.536 347.678C678.03 347.678 678.463 347.773 678.835 347.963C679.215 348.153 679.531 348.43 679.781 348.795C680.04 349.16 680.234 349.605 680.363 350.129C680.492 350.653 680.557 351.25 680.557 351.919ZM679.063 351.919C679.063 351.349 679.025 350.878 678.949 350.505C678.873 350.125 678.767 349.821 678.63 349.593C678.493 349.365 678.33 349.206 678.14 349.114C677.95 349.016 677.741 348.966 677.513 348.966C677.285 348.966 677.076 349.016 676.886 349.114C676.696 349.206 676.529 349.365 676.384 349.593C676.247 349.821 676.141 350.125 676.065 350.505C675.989 350.878 675.951 351.349 675.951 351.919C675.951 352.481 675.989 352.952 676.065 353.332C676.141 353.705 676.247 354.005 676.384 354.233C676.529 354.461 676.696 354.624 676.886 354.723C677.076 354.814 677.285 354.86 677.513 354.86C677.741 354.86 677.95 354.814 678.14 354.723C678.33 354.624 678.493 354.461 678.63 354.233C678.767 354.005 678.873 353.705 678.949 353.332C679.025 352.952 679.063 352.481 679.063 351.919ZM682.816 356V354.678L684.982 352.705C685.279 352.432 685.529 352.192 685.735 351.987C685.947 351.782 686.118 351.592 686.248 351.417C686.377 351.235 686.472 351.056 686.533 350.881C686.593 350.707 686.624 350.513 686.624 350.3C686.624 349.867 686.479 349.54 686.191 349.32C685.902 349.092 685.548 348.978 685.13 348.978C684.925 348.978 684.716 348.993 684.503 349.023C684.298 349.054 684.101 349.092 683.911 349.137C683.728 349.175 683.565 349.217 683.42 349.263C683.276 349.301 683.17 349.331 683.101 349.354L682.782 348.18C682.85 348.157 682.968 348.119 683.135 348.066C683.303 348.012 683.5 347.959 683.728 347.906C683.956 347.845 684.207 347.796 684.481 347.758C684.754 347.712 685.028 347.689 685.301 347.689C685.59 347.689 685.898 347.735 686.225 347.826C686.559 347.91 686.863 348.054 687.137 348.259C687.418 348.465 687.65 348.738 687.832 349.08C688.022 349.415 688.117 349.829 688.117 350.323C688.117 350.779 688.018 351.193 687.821 351.565C687.631 351.93 687.388 352.268 687.091 352.58C686.802 352.892 686.483 353.18 686.134 353.446C685.784 353.705 685.457 353.956 685.153 354.199L684.446 354.757C684.515 354.757 684.602 354.754 684.709 354.746C684.815 354.738 684.925 354.735 685.039 354.735C685.153 354.727 685.263 354.723 685.37 354.723C685.476 354.716 685.564 354.712 685.632 354.712H688.197V356H682.816ZM695.723 354.233V356H694.321V354.233H690.559V352.842L694.333 347.838H695.723V352.979H696.898V354.233H695.723ZM694.378 350.539C694.378 350.448 694.378 350.353 694.378 350.254C694.386 350.148 694.39 350.045 694.39 349.947C694.397 349.848 694.405 349.757 694.412 349.673C694.42 349.582 694.428 349.506 694.435 349.445C694.382 349.544 694.295 349.692 694.173 349.89C694.051 350.08 693.937 350.251 693.831 350.403L692.338 352.386C692.292 352.447 692.239 352.512 692.178 352.58C692.125 352.641 692.064 352.705 691.996 352.774C691.935 352.835 691.874 352.892 691.813 352.945C691.76 352.998 691.718 353.04 691.688 353.07C691.84 353.063 691.992 353.055 692.144 353.047C692.303 353.032 692.467 353.025 692.634 353.025H694.378V350.539Z" fill="white"/>
<g clip-path="url(#clip1_59_1607)">
<path d="M84.9249 263.802C84.9249 264.638 84.7729 265.398 84.4689 266.082C84.1649 266.75 83.7393 267.328 83.1921 267.814C82.6601 268.286 82.0293 268.65 81.2997 268.909C80.5701 269.167 79.7721 269.296 78.9057 269.296C78.0089 269.296 77.1805 269.144 76.4205 268.84C75.6757 268.521 75.0297 268.027 74.4825 267.358C73.9353 266.69 73.5097 265.838 73.2057 264.805C72.9017 263.756 72.7497 262.502 72.7497 261.043C72.7497 259.66 72.9169 258.428 73.2513 257.349C73.5857 256.27 74.0569 255.366 74.6649 254.636C75.2881 253.891 76.0329 253.329 76.8993 252.949C77.7657 252.569 78.7309 252.379 79.7949 252.379C80.2357 252.379 80.6613 252.409 81.0717 252.47C81.4973 252.531 81.8849 252.607 82.2345 252.698C82.5993 252.774 82.9185 252.858 83.1921 252.949L83.8077 253.154L83.1693 255.502L82.6905 255.366C82.4777 255.305 82.2345 255.244 81.9609 255.183C81.6873 255.122 81.3833 255.069 81.0489 255.024C80.7145 254.978 80.3649 254.955 80.0001 254.955C79.6961 254.955 79.3085 255.024 78.8373 255.16C78.3813 255.297 77.9253 255.548 77.4693 255.913C77.0285 256.262 76.6409 256.756 76.3065 257.395C75.9873 258.018 75.8125 258.831 75.7821 259.834C75.9037 259.743 76.0785 259.629 76.3065 259.492C76.5497 259.356 76.8385 259.226 77.1729 259.105C77.5225 258.983 77.9101 258.877 78.3357 258.786C78.7765 258.694 79.2629 258.649 79.7949 258.649C80.4637 258.649 81.1021 258.77 81.7101 259.014C82.3333 259.242 82.8805 259.576 83.3517 260.017C83.8381 260.458 84.2181 260.997 84.4917 261.636C84.7805 262.274 84.9249 262.996 84.9249 263.802ZM82.0749 263.893C82.0749 263.437 81.9913 263.026 81.8241 262.662C81.6569 262.282 81.4365 261.97 81.1629 261.727C80.8893 261.468 80.5625 261.271 80.1825 261.134C79.8177 260.997 79.4301 260.929 79.0197 260.929C78.7005 260.929 78.3737 260.967 78.0393 261.043C77.7049 261.104 77.3857 261.18 77.0817 261.271C76.7929 261.362 76.5269 261.461 76.2837 261.567C76.0557 261.658 75.8733 261.742 75.7365 261.818C75.7365 262.852 75.8505 263.695 76.0785 264.349C76.3065 264.987 76.5877 265.489 76.9221 265.854C77.2717 266.218 77.6517 266.469 78.0621 266.606C78.4725 266.728 78.8601 266.788 79.2249 266.788C79.5897 266.788 79.9393 266.72 80.2737 266.583C80.6233 266.446 80.9273 266.256 81.1857 266.013C81.4593 265.755 81.6721 265.451 81.8241 265.101C81.9913 264.736 82.0749 264.334 82.0749 263.893ZM100.054 260.541C100.054 262.122 99.8638 263.467 99.4838 264.577C99.1038 265.671 98.587 266.576 97.9334 267.29C97.295 267.989 96.535 268.498 95.6534 268.818C94.787 269.137 93.8674 269.296 92.8946 269.296C92.4994 269.296 92.0966 269.266 91.6862 269.205C91.2758 269.144 90.8958 269.076 90.5462 269C90.1966 268.924 89.885 268.84 89.6114 268.749L88.9958 268.544L89.6342 266.196L90.113 266.332C90.3258 266.393 90.569 266.454 90.8426 266.515C91.1162 266.576 91.4202 266.629 91.7546 266.674C92.089 266.72 92.4386 266.743 92.8034 266.743C93.153 266.743 93.5634 266.682 94.0346 266.56C94.521 266.439 94.977 266.203 95.4026 265.854C95.8434 265.504 96.2234 265.018 96.5426 264.394C96.8618 263.756 97.0366 262.928 97.067 261.909C96.9454 261.985 96.7554 262.092 96.497 262.228C96.2386 262.35 95.9346 262.472 95.585 262.593C95.2354 262.715 94.8402 262.821 94.3994 262.912C93.9738 262.988 93.5254 263.026 93.0542 263.026C92.279 263.026 91.5722 262.912 90.9338 262.684C90.2954 262.441 89.7482 262.099 89.2922 261.658C88.8514 261.218 88.5018 260.678 88.2434 260.04C88.0002 259.386 87.8786 258.656 87.8786 257.851C87.8786 257.06 88.0382 256.331 88.3574 255.662C88.6918 254.978 89.1326 254.4 89.6798 253.929C90.227 253.443 90.8578 253.063 91.5722 252.789C92.2866 252.516 93.039 252.379 93.8294 252.379C94.6198 252.379 95.3874 252.523 96.1322 252.812C96.877 253.086 97.5382 253.542 98.1158 254.18C98.6934 254.818 99.157 255.662 99.5066 256.711C99.8714 257.744 100.054 259.021 100.054 260.541ZM97.0898 259.903C97.0898 258.93 96.9758 258.124 96.7478 257.486C96.535 256.832 96.2614 256.323 95.927 255.958C95.6078 255.578 95.2506 255.312 94.8554 255.16C94.4602 255.008 94.0878 254.932 93.7382 254.932C93.3886 254.932 93.039 255.001 92.6894 255.138C92.3398 255.259 92.013 255.449 91.709 255.708C91.4202 255.951 91.1846 256.255 91.0022 256.62C90.8198 256.984 90.7286 257.41 90.7286 257.896C90.7286 258.383 90.8046 258.808 90.9566 259.173C91.1238 259.538 91.3442 259.842 91.6178 260.085C91.8914 260.328 92.203 260.511 92.5526 260.632C92.9022 260.739 93.2594 260.792 93.6242 260.792C93.9282 260.792 94.2474 260.762 94.5818 260.701C94.9314 260.625 95.2582 260.541 95.5622 260.45C95.8814 260.359 96.1702 260.268 96.4286 260.176C96.7022 260.07 96.9226 259.979 97.0898 259.903Z" fill="white"/>
<path d="M215.604 221V218.652H218.955V207.388L215.9 207.867L215.376 205.678L219.617 204.584H221.805V218.652H225.043V221H215.604ZM240.993 215.71C240.993 216.744 240.788 217.618 240.377 218.332C239.967 219.032 239.442 219.602 238.804 220.042C238.181 220.483 237.497 220.802 236.752 221C236.022 221.198 235.338 221.296 234.7 221.296C234.138 221.296 233.59 221.258 233.058 221.182C232.526 221.106 232.032 221.023 231.576 220.932C231.12 220.825 230.71 220.719 230.345 220.612C229.996 220.491 229.722 220.392 229.524 220.316L230.163 217.99C230.345 218.036 230.588 218.097 230.892 218.173C231.212 218.249 231.561 218.325 231.941 218.401C232.336 218.477 232.747 218.545 233.172 218.606C233.598 218.652 234.016 218.674 234.426 218.674C234.852 218.674 235.278 218.621 235.703 218.515C236.129 218.393 236.509 218.218 236.843 217.99C237.193 217.747 237.474 217.443 237.687 217.078C237.9 216.698 238.006 216.25 238.006 215.733C238.006 215.232 237.892 214.806 237.664 214.456C237.451 214.107 237.17 213.826 236.82 213.613C236.486 213.385 236.098 213.225 235.658 213.134C235.232 213.028 234.806 212.974 234.381 212.974C233.97 212.974 233.552 213.005 233.127 213.066C232.716 213.111 232.321 213.172 231.941 213.248C231.576 213.309 231.242 213.377 230.938 213.453C230.649 213.514 230.414 213.56 230.231 213.59V204.675H240.377V207.183H233.058V210.9C233.256 210.869 233.583 210.824 234.039 210.763C234.51 210.702 235.012 210.672 235.544 210.672C236.03 210.672 236.585 210.748 237.208 210.9C237.846 211.036 238.439 211.295 238.986 211.675C239.549 212.055 240.02 212.572 240.4 213.225C240.795 213.879 240.993 214.707 240.993 215.71ZM256.692 215.802C256.692 216.638 256.54 217.398 256.236 218.082C255.932 218.75 255.506 219.328 254.959 219.814C254.427 220.286 253.796 220.65 253.066 220.909C252.337 221.167 251.539 221.296 250.672 221.296C249.776 221.296 248.947 221.144 248.187 220.84C247.442 220.521 246.796 220.027 246.249 219.358C245.702 218.69 245.276 217.838 244.972 216.805C244.668 215.756 244.516 214.502 244.516 213.043C244.516 211.66 244.684 210.428 245.018 209.349C245.352 208.27 245.824 207.366 246.432 206.636C247.055 205.891 247.8 205.329 248.666 204.949C249.532 204.569 250.498 204.379 251.562 204.379C252.002 204.379 252.428 204.409 252.838 204.47C253.264 204.531 253.652 204.607 254.001 204.698C254.366 204.774 254.685 204.858 254.959 204.949L255.574 205.154L254.936 207.502L254.457 207.366C254.244 207.305 254.001 207.244 253.728 207.183C253.454 207.122 253.15 207.069 252.816 207.024C252.481 206.978 252.132 206.955 251.767 206.955C251.463 206.955 251.075 207.024 250.604 207.16C250.148 207.297 249.692 207.548 249.236 207.913C248.795 208.262 248.408 208.756 248.073 209.395C247.754 210.018 247.579 210.831 247.549 211.834C247.67 211.743 247.845 211.629 248.073 211.492C248.316 211.356 248.605 211.226 248.94 211.105C249.289 210.983 249.677 210.877 250.102 210.786C250.543 210.694 251.03 210.649 251.562 210.649C252.23 210.649 252.869 210.77 253.477 211.014C254.1 211.242 254.647 211.576 255.118 212.017C255.605 212.458 255.985 212.997 256.258 213.636C256.547 214.274 256.692 214.996 256.692 215.802ZM253.842 215.893C253.842 215.437 253.758 215.026 253.591 214.662C253.424 214.282 253.203 213.97 252.93 213.727C252.656 213.468 252.329 213.271 251.949 213.134C251.584 212.997 251.197 212.929 250.786 212.929C250.467 212.929 250.14 212.967 249.806 213.043C249.472 213.104 249.152 213.18 248.848 213.271C248.56 213.362 248.294 213.461 248.05 213.567C247.822 213.658 247.64 213.742 247.503 213.818C247.503 214.852 247.617 215.695 247.845 216.349C248.073 216.987 248.354 217.489 248.689 217.854C249.038 218.218 249.418 218.469 249.829 218.606C250.239 218.728 250.627 218.788 250.992 218.788C251.356 218.788 251.706 218.72 252.04 218.583C252.39 218.446 252.694 218.256 252.952 218.013C253.226 217.755 253.439 217.451 253.591 217.101C253.758 216.736 253.842 216.334 253.842 215.893Z" fill="white"/>
<path d="M362.99 199V196.355L367.322 192.411C367.915 191.864 368.416 191.385 368.827 190.974C369.252 190.564 369.594 190.184 369.853 189.834C370.111 189.47 370.301 189.112 370.423 188.763C370.544 188.413 370.605 188.026 370.605 187.6C370.605 186.734 370.316 186.08 369.739 185.639C369.161 185.183 368.454 184.955 367.618 184.955C367.208 184.955 366.79 184.986 366.364 185.046C365.954 185.107 365.559 185.183 365.179 185.274C364.814 185.35 364.487 185.434 364.198 185.525C363.91 185.601 363.697 185.662 363.56 185.708L362.922 183.359C363.058 183.314 363.294 183.238 363.628 183.131C363.963 183.025 364.358 182.918 364.814 182.812C365.27 182.69 365.772 182.592 366.319 182.516C366.866 182.424 367.413 182.379 367.96 182.379C368.538 182.379 369.154 182.47 369.807 182.652C370.476 182.82 371.084 183.108 371.631 183.519C372.194 183.929 372.657 184.476 373.022 185.16C373.402 185.829 373.592 186.658 373.592 187.646C373.592 188.558 373.394 189.386 372.999 190.131C372.619 190.86 372.133 191.537 371.54 192.16C370.962 192.783 370.324 193.361 369.625 193.893C368.926 194.41 368.272 194.911 367.664 195.398L366.25 196.515C366.387 196.515 366.562 196.507 366.775 196.492C366.988 196.477 367.208 196.469 367.436 196.469C367.664 196.454 367.884 196.446 368.097 196.446C368.31 196.431 368.485 196.424 368.622 196.424H373.752V199H362.99ZM387.855 195.466V199H385.05V195.466H377.526V192.684L385.073 182.675H387.855V192.958H390.203V195.466H387.855ZM385.164 188.079C385.164 187.896 385.164 187.706 385.164 187.509C385.179 187.296 385.187 187.091 385.187 186.893C385.202 186.696 385.217 186.513 385.233 186.346C385.248 186.164 385.263 186.012 385.278 185.89C385.172 186.088 384.997 186.384 384.754 186.779C384.511 187.159 384.283 187.501 384.07 187.805L381.083 191.772C380.992 191.894 380.885 192.023 380.764 192.16C380.657 192.282 380.536 192.411 380.399 192.548C380.277 192.669 380.156 192.783 380.034 192.89C379.928 192.996 379.844 193.08 379.783 193.14C380.087 193.125 380.391 193.11 380.695 193.095C381.015 193.064 381.341 193.049 381.676 193.049H385.164V188.079ZM403.166 195.466V199H400.361V195.466H392.837V192.684L400.384 182.675H403.166V192.958H405.514V195.466H403.166ZM400.475 188.079C400.475 187.896 400.475 187.706 400.475 187.509C400.491 187.296 400.498 187.091 400.498 186.893C400.513 186.696 400.529 186.513 400.544 186.346C400.559 186.164 400.574 186.012 400.589 185.89C400.483 186.088 400.308 186.384 400.065 186.779C399.822 187.159 399.594 187.501 399.381 187.805L396.394 191.772C396.303 191.894 396.197 192.023 396.075 192.16C395.969 192.282 395.847 192.411 395.71 192.548C395.589 192.669 395.467 192.783 395.345 192.89C395.239 192.996 395.155 193.08 395.095 193.14C395.399 193.125 395.703 193.11 396.007 193.095C396.326 193.064 396.653 193.049 396.987 193.049H400.475V188.079Z" fill="white"/>
<path d="M522.644 157.349C522.644 158.215 522.446 158.968 522.051 159.606C521.656 160.229 521.154 160.738 520.546 161.134C519.953 161.529 519.292 161.818 518.562 162C517.833 162.198 517.126 162.296 516.442 162.296C515.895 162.296 515.348 162.258 514.8 162.182C514.253 162.122 513.744 162.038 513.273 161.932C512.817 161.825 512.399 161.719 512.019 161.612C511.654 161.491 511.365 161.392 511.152 161.316L511.768 158.99L512.543 159.196C512.878 159.272 513.242 159.355 513.638 159.446C514.048 159.522 514.466 159.591 514.892 159.652C515.332 159.697 515.758 159.72 516.168 159.72C516.746 159.72 517.248 159.652 517.673 159.515C518.114 159.363 518.479 159.165 518.768 158.922C519.056 158.679 519.269 158.405 519.406 158.101C519.558 157.782 519.634 157.463 519.634 157.144C519.634 156.596 519.497 156.148 519.224 155.798C518.95 155.434 518.585 155.152 518.129 154.955C517.688 154.757 517.187 154.62 516.624 154.544C516.062 154.468 515.492 154.43 514.914 154.43V152.173C516.389 152.173 517.476 151.976 518.175 151.58C518.874 151.17 519.224 150.608 519.224 149.893C519.224 149.559 519.132 149.27 518.95 149.027C518.768 148.768 518.524 148.563 518.22 148.411C517.916 148.259 517.567 148.145 517.172 148.069C516.792 147.993 516.389 147.955 515.963 147.955C515.629 147.955 515.264 147.986 514.869 148.046C514.489 148.107 514.116 148.176 513.752 148.252C513.387 148.328 513.052 148.411 512.748 148.502C512.46 148.578 512.232 148.647 512.064 148.708L511.449 146.359C511.601 146.314 511.852 146.238 512.201 146.131C512.551 146.01 512.954 145.896 513.41 145.789C513.881 145.683 514.39 145.592 514.937 145.516C515.5 145.424 516.07 145.379 516.647 145.379C517.21 145.379 517.81 145.455 518.448 145.607C519.102 145.744 519.702 145.979 520.25 146.314C520.812 146.633 521.276 147.058 521.64 147.59C522.02 148.107 522.21 148.738 522.21 149.483C522.21 150.03 522.104 150.509 521.891 150.919C521.678 151.33 521.42 151.679 521.116 151.968C520.812 152.257 520.478 152.492 520.113 152.675C519.748 152.842 519.429 152.956 519.155 153.017C519.444 153.093 519.786 153.214 520.181 153.382C520.592 153.564 520.979 153.83 521.344 154.18C521.709 154.514 522.013 154.947 522.256 155.479C522.514 155.996 522.644 156.619 522.644 157.349ZM538.844 153.838C538.844 155.16 538.715 156.346 538.457 157.394C538.198 158.443 537.811 159.332 537.294 160.062C536.792 160.792 536.161 161.346 535.401 161.726C534.657 162.106 533.79 162.296 532.802 162.296C531.799 162.296 530.917 162.106 530.157 161.726C529.413 161.346 528.782 160.792 528.265 160.062C527.763 159.332 527.383 158.443 527.125 157.394C526.867 156.346 526.737 155.16 526.737 153.838C526.737 152.5 526.867 151.307 527.125 150.258C527.383 149.209 527.763 148.32 528.265 147.59C528.782 146.861 529.413 146.306 530.157 145.926C530.917 145.546 531.799 145.356 532.802 145.356C533.79 145.356 534.657 145.546 535.401 145.926C536.161 146.306 536.792 146.861 537.294 147.59C537.811 148.32 538.198 149.209 538.457 150.258C538.715 151.307 538.844 152.5 538.844 153.838ZM535.857 153.838C535.857 152.698 535.781 151.755 535.629 151.01C535.477 150.25 535.265 149.642 534.991 149.186C534.717 148.73 534.391 148.411 534.011 148.229C533.631 148.031 533.213 147.932 532.757 147.932C532.301 147.932 531.883 148.031 531.503 148.229C531.123 148.411 530.788 148.73 530.499 149.186C530.226 149.642 530.013 150.25 529.861 151.01C529.709 151.755 529.633 152.698 529.633 153.838C529.633 154.962 529.709 155.905 529.861 156.665C530.013 157.41 530.226 158.01 530.499 158.466C530.788 158.922 531.123 159.249 531.503 159.446C531.883 159.629 532.301 159.72 532.757 159.72C533.213 159.72 533.631 159.629 534.011 159.446C534.391 159.249 534.717 158.922 534.991 158.466C535.265 158.01 535.477 157.41 535.629 156.665C535.781 155.905 535.857 154.962 535.857 153.838ZM553.905 156.71C553.905 157.744 553.699 158.618 553.289 159.332C552.879 160.032 552.354 160.602 551.716 161.042C551.093 161.483 550.409 161.802 549.664 162C548.934 162.198 548.25 162.296 547.612 162.296C547.049 162.296 546.502 162.258 545.97 162.182C545.438 162.106 544.944 162.023 544.488 161.932C544.032 161.825 543.622 161.719 543.257 161.612C542.907 161.491 542.634 161.392 542.436 161.316L543.075 158.99C543.257 159.036 543.5 159.097 543.804 159.173C544.123 159.249 544.473 159.325 544.853 159.401C545.248 159.477 545.659 159.545 546.084 159.606C546.51 159.652 546.928 159.674 547.338 159.674C547.764 159.674 548.189 159.621 548.615 159.515C549.041 159.393 549.421 159.218 549.755 158.99C550.105 158.747 550.386 158.443 550.599 158.078C550.811 157.698 550.918 157.25 550.918 156.733C550.918 156.232 550.804 155.806 550.576 155.456C550.363 155.107 550.082 154.826 549.732 154.613C549.398 154.385 549.01 154.225 548.569 154.134C548.144 154.028 547.718 153.974 547.293 153.974C546.882 153.974 546.464 154.005 546.039 154.066C545.628 154.111 545.233 154.172 544.853 154.248C544.488 154.309 544.154 154.377 543.85 154.453C543.561 154.514 543.325 154.56 543.143 154.59V145.675H553.289V148.183H545.97V151.9C546.168 151.869 546.495 151.824 546.951 151.763C547.422 151.702 547.923 151.672 548.455 151.672C548.942 151.672 549.497 151.748 550.12 151.9C550.758 152.036 551.351 152.295 551.898 152.675C552.461 153.055 552.932 153.572 553.312 154.225C553.707 154.879 553.905 155.707 553.905 156.71Z" fill="white"/>
<path d="M670.144 115.466V119H667.339V115.466H659.815V112.684L667.362 102.675H670.144V112.958H672.492V115.466H670.144ZM667.453 108.079C667.453 107.896 667.453 107.706 667.453 107.509C667.469 107.296 667.476 107.091 667.476 106.893C667.491 106.696 667.507 106.513 667.522 106.346C667.537 106.164 667.552 106.012 667.567 105.89C667.461 106.088 667.286 106.384 667.043 106.779C666.8 107.159 666.572 107.501 666.359 107.805L663.372 111.772C663.281 111.894 663.175 112.023 663.053 112.16C662.947 112.282 662.825 112.411 662.688 112.548C662.567 112.669 662.445 112.783 662.323 112.89C662.217 112.996 662.133 113.08 662.073 113.14C662.377 113.125 662.681 113.11 662.985 113.095C663.304 113.064 663.631 113.049 663.965 113.049H667.453V108.079ZM687.028 105.001L680.781 119H677.589L682.993 107.258C683.19 106.817 683.396 106.422 683.608 106.072C683.836 105.723 684.034 105.396 684.201 105.092C683.852 105.107 683.464 105.13 683.038 105.16C682.628 105.176 682.172 105.183 681.67 105.183H675.697V102.675H687.028V105.001ZM702.955 110.838C702.955 112.16 702.826 113.346 702.568 114.394C702.309 115.443 701.922 116.332 701.405 117.062C700.903 117.792 700.272 118.346 699.512 118.726C698.768 119.106 697.901 119.296 696.913 119.296C695.91 119.296 695.028 119.106 694.268 118.726C693.524 118.346 692.893 117.792 692.376 117.062C691.874 116.332 691.494 115.443 691.236 114.394C690.978 113.346 690.848 112.16 690.848 110.838C690.848 109.5 690.978 108.307 691.236 107.258C691.494 106.209 691.874 105.32 692.376 104.59C692.893 103.861 693.524 103.306 694.268 102.926C695.028 102.546 695.91 102.356 696.913 102.356C697.901 102.356 698.768 102.546 699.512 102.926C700.272 103.306 700.903 103.861 701.405 104.59C701.922 105.32 702.309 106.209 702.568 107.258C702.826 108.307 702.955 109.5 702.955 110.838ZM699.968 110.838C699.968 109.698 699.892 108.755 699.74 108.01C699.588 107.25 699.376 106.642 699.102 106.186C698.828 105.73 698.502 105.411 698.122 105.229C697.742 105.031 697.324 104.932 696.868 104.932C696.412 104.932 695.994 105.031 695.614 105.229C695.234 105.411 694.899 105.73 694.61 106.186C694.337 106.642 694.124 107.25 693.972 108.01C693.82 108.755 693.744 109.698 693.744 110.838C693.744 111.962 693.82 112.905 693.972 113.665C694.124 114.41 694.337 115.01 694.61 115.466C694.899 115.922 695.234 116.249 695.614 116.446C695.994 116.629 696.412 116.72 696.868 116.72C697.324 116.72 697.742 116.629 698.122 116.446C698.502 116.249 698.828 115.922 699.102 115.466C699.376 115.01 699.588 114.41 699.74 113.665C699.892 112.905 699.968 111.962 699.968 110.838Z" fill="white"/>
</g>
<path d="M88 285L236.5 235.5L386.5 215L536 176.5L687.5 133.5" stroke="#FBD9B6"/>
<path d="M236.5 235.5L88 285V314.5H687.5V133.5L536 176.5L386.5 215L236.5 235.5Z" fill="url(#paint0_linear_59_1607)"/>
<circle cx="89" cy="285" r="3" fill="#FBD9B6"/>
<circle cx="237" cy="235" r="3" fill="#FBD9B6"/>
<circle cx="387" cy="215" r="3" fill="#FBD9B6"/>
<circle cx="536" cy="177" r="3" fill="#FBD9B6"/>
<circle cx="686" cy="134" r="3" fill="#FBD9B6"/>
</g>
<defs>
<linearGradient id="paint0_linear_59_1607" x1="468.5" y1="193" x2="475.5" y2="277.5" gradientUnits="userSpaceOnUse">
<stop stop-color="#FBD9B6" stop-opacity="0.3"/>
<stop offset="1" stop-color="#FBD9B6" stop-opacity="0"/>
</linearGradient>
<clipPath id="clip0_59_1607">
<rect width="720" height="263" fill="white" transform="translate(24 96)"/>
</clipPath>
<clipPath id="clip1_59_1607">
<rect width="720" height="247" fill="white" transform="translate(24 97)"/>
</clipPath>
</defs>
</svg>
