<svg xmlns="http://www.w3.org/2000/svg" width="1067.288" height="446.445" viewBox="-655.868 940.055 1067.288 446.445"><g fill="#FFF" opacity=".5"><path d="M411.095 940.055c-70.139 97.148-183.941 156.805-306.1 156.805-27.997 0-56.433-3.133-84.881-9.665-48.373-11.107-92.244-31.264-130.666-57.936l-.125-.088-177.969 357.329h.294l177.775-356.939c38.417 26.646 82.276 46.787 130.632 57.892 28.468 6.537 56.923 9.671 84.939 9.671 122.31 0 236.247-59.761 306.426-157.068h-.325z"/><path d="M405.682 940.055c-69.865 99.641-185.197 161.021-309.117 161.021-27.997 0-56.433-3.132-84.881-9.665-48.373-11.108-92.244-31.262-130.666-57.937l-.126-.088-175.869 353.114h.295l175.674-352.724c38.418 26.646 82.277 46.786 130.632 57.892 28.468 6.536 56.923 9.671 84.94 9.671 124.07 0 239.535-61.484 309.438-161.284h-.32z"/><path d="M400.149 940.055c-69.545 102.118-186.362 165.235-312.017 165.235-27.997 0-56.434-3.131-84.882-9.665-48.373-11.105-92.242-31.262-130.666-57.936l-.125-.088L-301.31 1386.5h.297l173.576-348.508c38.418 26.648 82.275 46.787 130.63 57.891 28.468 6.537 56.923 9.672 84.94 9.672 125.805 0 242.756-63.223 312.337-165.5h-.321z"/><path d="M394.546 940.055c-69.177 104.594-187.47 169.451-314.844 169.451-27.997 0-56.433-3.132-84.881-9.665-48.372-11.106-92.244-31.263-130.666-57.937l-.125-.088-171.67 344.684h.294l171.477-344.295c38.417 26.647 82.276 46.789 130.631 57.893 28.468 6.537 56.923 9.672 84.939 9.672 127.523 0 245.947-64.963 315.16-169.715h-.315z"/><path d="M388.885 940.055c-68.762 107.07-188.53 173.665-317.612 173.665-27.997 0-56.434-3.131-84.882-9.665-48.373-11.106-92.244-31.261-130.666-57.935l-.126-.088-169.571 340.468h.295l169.376-340.077c38.418 26.647 82.277 46.786 130.631 57.89 28.468 6.537 56.924 9.673 84.941 9.673 129.231 0 249.129-66.702 317.925-173.931h-.311z"/><path d="M383.099 940.055c-68.306 109.528-189.496 177.881-320.258 177.881-27.998 0-56.433-3.131-84.882-9.664-48.374-11.106-92.243-31.263-130.666-57.937l-.126-.087-167.471 336.252h.295l167.277-335.863c38.416 26.648 82.276 46.789 130.632 57.893 28.468 6.537 56.923 9.672 84.939 9.672 130.91 0 252.232-68.459 320.569-178.146h-.309z"/><path d="M377.262 940.055c-67.802 111.989-190.42 182.098-322.853 182.098-27.997 0-56.433-3.133-84.881-9.665-48.373-11.107-92.245-31.264-130.667-57.938l-.125-.087-165.372 332.037h.296l165.178-331.647c38.416 26.647 82.277 46.788 130.632 57.893 28.468 6.537 56.923 9.671 84.939 9.671 132.582 0 255.329-70.213 323.161-182.361h-.308z"/><path d="M371.354 940.055C304.1 1054.499 180.068 1126.367 45.98 1126.367c-27.997 0-56.434-3.131-84.882-9.665-48.373-11.107-92.243-31.261-130.666-57.936l-.127-.088-163.272 327.822h.296l163.078-327.431c38.418 26.646 82.276 46.786 130.631 57.891 28.468 6.537 56.924 9.672 84.941 9.672 134.237 0 258.399-71.974 325.681-186.577h-.306z"/><path d="M365.351 940.055c-66.665 116.89-192.078 190.528-327.803 190.528-27.998 0-56.433-3.131-84.882-9.665-48.373-11.107-92.243-31.262-130.666-57.936l-.126-.088-161.172 323.606h.296l160.979-323.216c38.416 26.648 82.277 46.788 130.632 57.892 28.468 6.537 56.923 9.672 84.939 9.672 135.871 0 261.414-73.746 328.106-190.793h-.303z"/><path d="M359.304 940.055c-66.031 119.337-192.834 194.744-330.188 194.744-27.998 0-56.433-3.132-84.881-9.665-48.373-11.106-92.245-31.263-130.667-57.937l-.125-.088L-345.63 1386.5h.295l158.879-319.002c38.417 26.648 82.277 46.789 130.632 57.894 28.469 6.536 56.923 9.671 84.939 9.671 137.5 0 264.431-75.514 330.488-195.008h-.299z"/><path d="M353.157 940.055c-65.358 121.77-193.509 198.958-332.47 198.958-27.997 0-56.434-3.131-84.881-9.665-48.373-11.106-92.244-31.263-130.666-57.935l-.126-.088-156.973 315.175h.295l156.779-314.784c38.419 26.646 82.276 46.786 130.63 57.89 28.47 6.537 56.924 9.673 84.941 9.673 139.107 0 267.388-77.296 332.77-199.224h-.299z"/><path d="M346.956 940.055c-64.642 124.202-194.145 203.174-334.702 203.174-27.997 0-56.432-3.132-84.881-9.664-48.374-11.107-92.244-31.263-130.667-57.937l-.126-.087-154.873 310.959h.296l154.68-310.57c38.416 26.648 82.277 46.788 130.633 57.893 28.467 6.536 56.922 9.672 84.938 9.672 140.702 0 270.333-79.08 334.999-203.439h-.297z"/><path d="M340.692 940.055c-63.883 126.63-194.725 207.391-336.868 207.391-27.998 0-56.433-3.133-84.881-9.665-48.373-11.107-92.244-31.264-130.667-57.938l-.125-.087-152.775 306.744h.294l152.581-306.354c38.417 26.647 82.277 46.788 130.632 57.893 28.469 6.536 56.923 9.671 84.939 9.671 142.289 0 273.258-80.867 337.165-207.654h-.295z"/><path d="M334.344 940.055c-63.087 129.047-195.238 211.605-338.951 211.606-27.997-.001-56.432-3.132-84.881-9.666-48.372-11.107-92.244-31.263-130.666-57.936l-.126-.088-150.675 302.529h.295l150.48-302.137c38.418 26.645 82.279 46.785 130.632 57.89 28.469 6.537 56.924 9.672 84.939 9.672 143.857 0 276.135-82.666 339.244-211.87h-.291z"/><path d="M327.962 940.055c-62.248 131.469-195.725 215.82-341 215.821-27.996-.001-56.434-3.132-84.881-9.666-48.374-11.106-92.245-31.261-130.668-57.935l-.125-.088-148.574 298.313h.295l148.38-297.922c38.417 26.646 82.276 46.787 130.632 57.891 28.468 6.535 56.923 9.672 84.94 9.672 145.419 0 279.022-84.46 341.291-216.086h-.29z"/><path d="M321.475 940.055c-61.373 133.873-196.125 220.037-342.943 220.037-27.998 0-56.433-3.132-84.881-9.665-48.373-11.106-92.244-31.263-130.666-57.937l-.125-.088-146.476 294.098h.294l146.282-293.708c38.418 26.647 82.277 46.788 130.632 57.893 28.468 6.536 56.923 9.671 84.939 9.671 146.962 0 281.839-86.272 343.232-220.301h-.288z"/><path d="M314.954 940.055c-60.455 136.279-196.498 224.251-344.853 224.252-27.997-.001-56.434-3.132-84.882-9.666-48.373-11.106-92.244-31.263-130.666-57.937l-.126-.087L-389.95 1386.5h.296l144.182-289.492c38.417 26.646 82.276 46.787 130.631 57.891 28.468 6.537 56.924 9.673 84.941 9.673 148.499 0 284.667-88.081 345.14-224.517h-.286z"/><path d="M308.356 940.055c-59.501 138.677-196.81 228.467-346.687 228.467-27.997 0-56.433-3.132-84.882-9.666-48.373-11.105-92.243-31.261-130.667-57.935l-.126-.087-142.275 285.666h.296l142.083-285.276c38.417 26.647 82.277 46.787 130.633 57.892 28.468 6.535 56.923 9.672 84.939 9.672 150.021 0 287.456-89.899 346.975-228.732h-.289z"/><path d="M301.705 940.055c-58.507 141.069-197.074 232.684-348.466 232.684-27.998 0-56.433-3.132-84.881-9.665-48.372-11.108-92.244-31.263-130.666-57.938l-.125-.087-140.178 281.451h.294l139.983-281.061c38.417 26.646 82.278 46.786 130.632 57.892 28.469 6.536 56.923 9.671 84.939 9.671 151.534 0 290.225-91.722 348.75-232.947h-.282z"/><path d="M294.999 940.055c-57.476 143.459-197.294 236.898-350.189 236.898-27.998 0-56.434-3.131-84.883-9.665-48.372-11.107-92.243-31.263-130.666-57.938l-.125-.087-138.079 277.237h.296l137.883-276.845c38.418 26.646 82.277 46.786 130.632 57.891 28.468 6.537 56.924 9.671 84.941 9.671 153.037 0 292.983-93.547 350.475-237.162h-.285z"/><path d="M288.217 940.055c-56.408 145.84-197.455 241.113-351.841 241.114-27.996-.001-56.432-3.132-84.881-9.666-48.374-11.106-92.243-31.263-130.666-57.935l-.126-.088-135.978 273.02h.295l135.784-272.63c38.417 26.646 82.277 46.786 130.633 57.891 28.468 6.535 56.923 9.672 84.938 9.672 154.529 0 295.699-95.383 352.123-241.378h-.281z"/><path d="M281.407 940.055c-55.299 148.223-197.588 245.33-353.461 245.33-27.997 0-56.432-3.133-84.88-9.665-48.373-11.107-92.245-31.263-130.667-57.937l-.125-.087-133.878 268.804h.293l133.685-268.415c38.417 26.647 82.278 46.787 130.633 57.893 28.467 6.536 56.922 9.671 84.938 9.671 156.015 0 298.43-97.217 353.743-245.594h-.281z"/><path d="M274.499 940.055C220.34 1090.643 76.856 1189.6-80.485 1189.6c-27.998 0-56.434-3.131-84.882-9.665-48.373-11.106-92.243-31.263-130.666-57.937l-.126-.087-131.779 264.589h.296l131.585-264.199c38.418 26.646 82.276 46.787 130.631 57.891 28.468 6.537 56.924 9.672 84.941 9.672 157.483 0 301.093-99.066 355.264-249.809h-.28z"/><path d="M267.576 940.055c-52.975 152.96-197.684 253.76-356.493 253.761-27.996-.001-56.432-3.132-84.881-9.666-48.372-11.106-92.243-31.264-130.666-57.936l-.125-.087-129.679 260.373h.294l129.485-259.983c38.417 26.646 82.278 46.787 130.633 57.892 28.468 6.535 56.923 9.672 84.938 9.672 158.951 0 303.783-100.911 356.771-254.025h-.277z"/><path d="M260.559 940.055c-51.76 155.314-197.646 257.975-357.905 257.977-27.997-.002-56.433-3.133-84.881-9.666-48.373-11.107-92.245-31.262-130.667-57.937l-.125-.087-127.58 256.158h.294l127.386-255.769c38.417 26.647 82.277 46.787 130.633 57.892 28.468 6.537 56.923 9.672 84.939 9.672 160.402 0 306.411-102.771 358.183-258.24h-.277z"/><path d="M253.516 940.055c-50.505 157.674-197.587 262.191-359.295 262.191-27.997 0-56.433-3.131-84.881-9.665-48.373-11.107-92.243-31.263-130.665-57.938l-.126-.087-125.481 251.944h.296l125.287-251.552c38.417 26.646 82.276 46.786 130.63 57.891 28.468 6.536 56.924 9.671 84.94 9.671 161.85 0 309.055-104.627 359.572-262.455h-.277z"/><path d="M246.4 940.055c-49.218 160.021-197.466 266.406-360.608 266.407-27.996-.001-56.434-3.132-84.882-9.666-48.372-11.105-92.244-31.263-130.666-57.936l-.125-.087-123.381 247.727h.293l123.188-247.338c38.417 26.646 82.276 46.787 130.632 57.892 28.468 6.535 56.923 9.673 84.94 9.673 163.285 0 311.655-106.495 360.884-266.672h-.275z"/><path d="M239.244 940.055c-47.891 162.367-197.312 270.62-361.883 270.622-27.997-.002-56.433-3.133-84.881-9.666-48.373-11.106-92.244-31.262-130.667-57.936l-.125-.087-121.282 243.512h.294l121.087-243.122c38.419 26.647 82.278 46.787 130.633 57.892 28.468 6.536 56.923 9.672 84.939 9.672 164.713 0 314.257-108.365 362.158-270.887h-.273z"/><path d="M232.026 940.055c-46.53 164.705-197.105 274.837-363.097 274.837-27.997 0-56.433-3.131-84.882-9.665-48.371-11.107-92.242-31.263-130.664-57.937l-.127-.087-119.183 239.297h.296l118.988-238.906c38.417 26.646 82.277 46.786 130.63 57.891 28.468 6.536 56.923 9.672 84.94 9.672 166.133 0 316.832-110.242 363.372-275.102h-.273z"/><path d="M224.761 940.055c-45.134 167.04-196.86 279.053-364.262 279.053-27.998 0-56.433-3.131-84.882-9.665-48.373-11.106-92.244-31.264-130.667-57.937l-.125-.087-117.083 235.081h.294l116.889-234.692c38.417 26.648 82.277 46.789 130.634 57.894 28.468 6.535 56.923 9.671 84.939 9.671 167.543 0 319.391-112.124 364.535-279.317h-.272z"/><path d="M217.445 940.055c-43.702 169.368-196.569 283.268-365.377 283.27-27.997-.002-56.433-3.133-84.881-9.666-48.373-11.107-92.244-31.265-130.666-57.937l-.125-.087-114.983 230.865h.294l114.789-230.476c38.417 26.646 82.276 46.787 130.632 57.892 28.468 6.537 56.923 9.672 84.939 9.672 168.95 0 321.938-114.011 365.652-283.533h-.274z"/><path d="M210.073 940.055c-42.235 171.69-196.232 287.484-366.435 287.484-27.998 0-56.434-3.131-84.882-9.665-48.373-11.108-92.244-31.263-130.666-57.938l-.127-.087-112.884 226.65h.297l112.688-226.259c38.417 26.646 82.277 46.786 130.632 57.891 28.468 6.536 56.923 9.671 84.94 9.671 170.344 0 324.462-115.903 366.707-287.748h-.27z"/><path d="M202.658 940.055c-40.734 174.01-195.859 291.699-367.452 291.699-27.998 0-56.433-3.131-84.882-9.665-48.373-11.105-92.243-31.263-130.667-57.936l-.125-.087-110.783 222.434h.294l110.59-222.045c38.418 26.646 82.278 46.787 130.634 57.892 28.468 6.535 56.923 9.671 84.939 9.671 171.733 0 326.98-117.8 367.723-291.963h-.271z"/><path d="M195.194 940.055c-.194.875-.382 1.749-.583 2.624-40.156 174.887-195.718 293.289-367.837 293.291-27.997-.002-56.433-3.133-84.881-9.666-48.372-11.106-92.244-31.264-130.666-57.936l-.125-.087-108.685 218.219h.295l108.49-217.829c38.417 26.646 82.279 46.787 130.632 57.892 28.468 6.536 56.923 9.672 84.939 9.672 172.241 0 327.908-118.488 368.096-293.496.206-.895.397-1.789.596-2.684h-.271z"/><path d="M187.677 940.055c-.48 2.279-.974 4.559-1.497 6.839-40.156 174.887-195.716 293.29-367.835 293.291-27.997-.001-56.434-3.132-84.881-9.666-48.374-11.106-92.245-31.262-130.667-57.936l-.126-.087-106.585 214.004h.295l106.391-213.613c38.417 26.646 82.277 46.786 130.632 57.891 28.469 6.536 56.923 9.672 84.94 9.672 172.241 0 327.908-118.488 368.092-293.496.528-2.3 1.026-4.6 1.51-6.898h-.269z"/><path d="M180.116 940.055a383.618 383.618 0 0 1-2.365 11.055c-40.16 174.887-195.72 293.291-367.838 293.291-27.997 0-56.434-3.131-84.882-9.665-48.372-11.106-92.242-31.264-130.666-57.937l-.125-.087-104.485 209.788h.294l104.292-209.398c38.418 26.647 82.275 46.788 130.631 57.893 28.468 6.535 56.923 9.671 84.94 9.671 172.239 0 327.907-118.488 368.094-293.496a383.61 383.61 0 0 0 2.377-11.114h-.267z"/><path d="M172.495 940.055a384.646 384.646 0 0 1-3.177 15.271c-40.156 174.886-195.717 293.289-367.836 293.291-27.997-.002-56.432-3.133-84.882-9.666-48.373-11.107-92.244-31.265-130.666-57.938l-.126-.087-102.386 205.574h.296l102.192-205.183c38.416 26.646 82.277 46.787 130.632 57.892 28.469 6.537 56.925 9.672 84.94 9.672 172.241 0 327.908-118.488 368.094-293.496a385.828 385.828 0 0 0 3.189-15.33h-.27z"/><path d="M164.826 940.055a383.422 383.422 0 0 1-3.938 19.486c-40.156 174.886-195.716 293.29-367.835 293.291-27.997-.001-56.434-3.132-84.881-9.666-48.374-11.107-92.245-31.262-130.667-57.937l-.126-.087-100.288 201.358h.295l100.092-200.966c38.417 26.646 82.277 46.786 130.632 57.89 28.469 6.536 56.923 9.672 84.94 9.672 172.241 0 327.908-118.487 368.092-293.496a383.56 383.56 0 0 0 3.95-19.545h-.266z"/><path d="M157.11 940.055a383.37 383.37 0 0 1-4.652 23.701c-40.159 174.887-195.719 293.291-367.838 293.291-27.997 0-56.434-3.131-84.881-9.665-48.372-11.105-92.244-31.263-130.666-57.936l-.125-.087-98.187 197.141h.293l97.993-196.752c38.417 26.646 82.276 46.787 130.631 57.892 28.469 6.535 56.923 9.671 84.94 9.671 172.239 0 327.908-118.487 368.094-293.495a383.383 383.383 0 0 0 4.664-23.761h-.266z"/><path d="M149.351 940.055a383.006 383.006 0 0 1-5.324 27.915c-40.158 174.888-195.717 293.291-367.837 293.291-27.997 0-56.433-3.131-84.881-9.664-48.373-11.106-92.244-31.264-130.666-57.937l-.126-.087-96.087 192.927h.295l95.894-192.537c38.417 26.647 82.276 46.788 130.63 57.893 28.469 6.537 56.924 9.671 84.941 9.671 172.24 0 327.909-118.488 368.093-293.496a383.165 383.165 0 0 0 5.334-27.976h-.266z"/><path d="M141.544 940.055a382.524 382.524 0 0 1-5.949 32.133c-40.157 174.886-195.718 293.289-367.836 293.291-27.997-.002-56.434-3.133-84.882-9.666-48.373-11.107-92.243-31.263-130.666-57.937l-.125-.087-93.988 188.711h.295l93.793-188.32c38.417 26.646 82.276 46.786 130.631 57.891 28.468 6.536 56.923 9.672 84.94 9.672 172.241 0 327.907-118.488 368.094-293.496a383.086 383.086 0 0 0 5.958-32.191h-.265z"/><path d="M133.677 940.055a382.103 382.103 0 0 1-6.514 36.348c-40.155 174.887-195.718 293.291-367.836 293.291-27.998 0-56.433-3.131-84.882-9.665-48.373-11.107-92.244-31.264-130.666-57.937l-.125-.087-91.888 184.495h.295l91.694-184.105c38.417 26.647 82.277 46.787 130.633 57.893 28.468 6.535 56.923 9.671 84.939 9.671 172.239 0 327.907-118.488 368.094-293.496a382.4 382.4 0 0 0 6.525-36.407h-.269z"/><path d="M125.767 940.055a381.85 381.85 0 0 1-7.035 40.563c-40.156 174.887-195.717 293.291-367.837 293.291-27.997 0-56.431-3.131-84.881-9.664-48.373-11.107-92.244-31.264-130.666-57.938l-.126-.087-89.789 180.28h.296l89.595-179.89c38.416 26.646 82.277 46.787 130.632 57.892 28.469 6.537 56.924 9.671 84.939 9.671 172.241 0 327.909-118.487 368.094-293.496a381.896 381.896 0 0 0 7.044-40.622h-.266z"/><path d="M117.812 940.055a381.616 381.616 0 0 1-7.51 44.779c-40.158 174.886-195.718 293.29-367.837 293.291-27.997-.001-56.434-3.132-84.881-9.666-48.373-11.107-92.244-31.262-130.666-57.936l-.126-.088-87.689 176.064h.297l87.494-175.673c38.417 26.645 82.277 46.786 130.631 57.89 28.467 6.536 56.923 9.672 84.94 9.672 172.241 0 327.908-118.487 368.094-293.496a381.644 381.644 0 0 0 7.519-44.838h-.266z"/><path d="M109.809 940.055a381.056 381.056 0 0 1-7.939 48.994c-40.156 174.887-195.718 293.29-367.837 293.29-27.996 0-56.432-3.131-84.881-9.665-48.372-11.105-92.244-31.262-130.666-57.935l-.125-.087-85.589 171.848h.295l85.396-171.459c38.416 26.646 82.277 46.787 130.633 57.89 28.468 6.536 56.923 9.672 84.938 9.672 172.241 0 327.908-118.486 368.095-293.495a381.448 381.448 0 0 0 7.948-49.053h-.268z"/><path d="M101.765 940.055a380.927 380.927 0 0 1-8.326 53.208c-40.155 174.888-195.717 293.291-367.836 293.291-27.997 0-56.433-3.131-84.881-9.664-48.373-11.106-92.244-31.264-130.666-57.937l-.126-.087-83.491 167.634h.297l83.296-167.243c38.418 26.647 82.276 46.787 130.631 57.892 28.469 6.535 56.923 9.671 84.939 9.671 172.241 0 327.908-118.488 368.094-293.496a381.074 381.074 0 0 0 8.333-53.269h-.264z"/><path d="M93.661 940.055a380.616 380.616 0 0 1-8.652 57.426c-40.157 174.886-195.717 293.289-367.836 293.291-27.997-.002-56.434-3.133-84.881-9.666-48.374-11.107-92.245-31.263-130.667-57.937l-.126-.088-81.392 163.419h.296l81.197-163.028c38.417 26.646 82.277 46.787 130.632 57.892 28.468 6.536 56.923 9.672 84.94 9.672 172.241 0 327.908-118.488 368.093-293.496a380.64 380.64 0 0 0 8.66-57.484h-.264z"/><path d="M85.51 940.055a380.317 380.317 0 0 1-8.932 61.641c-40.156 174.887-195.718 293.29-367.837 293.29-27.996 0-56.432-3.132-84.881-9.665-48.372-11.106-92.244-31.263-130.666-57.936l-.125-.087-79.291 159.202h.293l79.097-158.813c38.417 26.647 82.277 46.787 130.633 57.891 28.468 6.536 56.923 9.672 84.938 9.672 172.241 0 327.908-118.486 368.094-293.495a380.29 380.29 0 0 0 8.941-61.7h-.264z"/><path d="M77.317 940.055a379.951 379.951 0 0 1-9.17 65.855c-40.156 174.887-195.718 293.291-367.837 293.291-27.997 0-56.433-3.131-84.881-9.664-48.372-11.107-92.244-31.264-130.666-57.938l-.126-.087-77.192 154.987h.297l76.997-154.596c38.418 26.646 82.278 46.786 130.632 57.891 28.469 6.536 56.923 9.671 84.939 9.671 172.241 0 327.908-118.487 368.094-293.496a379.993 379.993 0 0 0 9.178-65.915h-.265z"/><path d="M69.079 940.055a379.547 379.547 0 0 1-9.363 70.071C19.559 1185.012-136 1303.417-308.12 1303.417c-27.998 0-56.434-3.131-84.881-9.665-48.374-11.107-92.245-31.262-130.667-57.936l-.126-.089-75.093 150.772h.297l74.897-150.381c38.417 26.646 82.277 46.787 130.632 57.891 28.468 6.536 56.923 9.671 84.94 9.671 172.24 0 327.908-118.486 368.092-293.495a379.77 379.77 0 0 0 9.371-70.131h-.263z"/><path d="M60.796 940.055c-.69 24.561-3.801 49.419-9.509 74.287-40.158 174.887-195.718 293.29-367.837 293.29-27.996 0-56.434-3.131-84.881-9.665-48.373-11.105-92.244-31.262-130.666-57.935l-.125-.087-72.992 146.555h.293l72.798-146.166c38.417 26.646 82.275 46.787 130.631 57.891 28.468 6.535 56.923 9.672 84.94 9.672 172.241 0 327.908-118.487 368.093-293.495 5.715-24.889 8.828-49.767 9.518-74.347h-.263z"/><path d="M52.454 940.055c-.437 25.93-3.563 52.21-9.6 78.501-40.155 174.888-195.717 293.291-367.836 293.291-27.998 0-56.433-3.131-84.881-9.663-48.373-11.108-92.245-31.265-130.667-57.938l-.126-.087-70.894 142.341h.297l70.699-141.95c38.419 26.647 82.278 46.786 130.633 57.892 28.468 6.535 56.922 9.671 84.939 9.671 172.24 0 327.908-118.488 368.093-293.496 6.042-26.313 9.17-52.611 9.607-78.562h-.264z"/><path d="M44.067 940.055c-.153 27.297-3.28 54.999-9.644 82.718-40.157 174.886-195.717 293.29-367.836 293.29-27.998 0-56.434-3.131-84.881-9.664-48.374-11.107-92.245-31.263-130.668-57.937l-.125-.088-68.793 138.126h.295l68.6-137.735c38.417 26.646 82.276 46.787 130.632 57.892 28.468 6.536 56.923 9.671 84.94 9.671 172.239 0 327.908-118.487 368.093-293.496 6.369-27.738 9.499-55.461 9.651-82.776h-.264z"/><path d="M35.63 940.055c.004.705.021 1.408.021 2.114-.001 27.974-3.131 56.39-9.658 84.819-40.157 174.887-195.719 293.29-367.838 293.29-27.996 0-56.432-3.131-84.88-9.665-48.372-11.106-92.244-31.262-130.666-57.936l-.125-.087-66.694 133.91h.295l66.499-133.519c38.418 26.646 82.278 46.786 130.633 57.89 28.468 6.536 56.923 9.672 84.938 9.672 172.241 0 327.908-118.486 368.095-293.495 6.533-28.45 9.666-56.886 9.666-84.879 0-.706-.017-1.409-.021-2.114h-.265z"/><path d="M27.157 940.055c.036 2.107.063 4.217.063 6.329-.001 27.975-3.131 56.391-9.659 84.819-40.157 174.887-195.717 293.291-367.836 293.291-27.997 0-56.433-3.132-84.882-9.666-48.373-11.106-92.244-31.262-130.666-57.936l-.126-.087-64.595 129.694h.296l64.4-129.304c38.418 26.646 82.278 46.786 130.633 57.891 28.468 6.537 56.925 9.672 84.94 9.672 172.241 0 327.908-118.488 368.093-293.496 6.533-28.45 9.666-56.885 9.666-84.879 0-2.112-.028-4.222-.063-6.329h-.264z"/><path d="M18.624 940.055c.099 3.508.167 7.021.167 10.544-.001 27.975-3.132 56.391-9.659 84.82-40.157 174.886-195.717 293.291-367.836 293.291-27.998 0-56.434-3.131-84.881-9.665-48.374-11.107-92.244-31.264-130.666-57.938l-.126-.087-62.495 125.479h.295l62.301-125.088c38.417 26.646 82.275 46.787 130.631 57.891 28.468 6.537 56.923 9.671 84.94 9.671 172.24 0 327.908-118.487 368.093-293.495 6.533-28.45 9.666-56.886 9.666-84.88 0-3.522-.068-7.036-.167-10.544h-.263z"/><path d="M10.064 940.055c.193 4.905.293 9.825.293 14.76-.001 27.975-3.131 56.391-9.658 84.819-40.155 174.888-195.718 293.29-367.836 293.291-27.997-.001-56.433-3.132-84.881-9.666-48.373-11.105-92.245-31.262-130.667-57.936l-.125-.087-60.396 121.264h.295l60.202-120.875c38.417 26.648 82.277 46.789 130.633 57.893 28.468 6.535 56.923 9.672 84.939 9.672 172.239 0 327.907-118.487 368.093-293.495 6.533-28.45 9.665-56.886 9.665-84.88 0-4.935-.1-9.854-.293-14.76h-.264z"/><path d="M1.427 940.055c.32 6.301.5 12.625.5 18.976-.001 27.976-3.131 56.39-9.659 84.818-40.156 174.888-195.717 293.291-367.836 293.291-27.997 0-56.433-3.132-84.882-9.666-48.373-11.105-92.244-31.262-130.666-57.935l-.126-.087-58.296 117.048h.296l58.102-116.658c38.417 26.647 82.278 46.787 130.632 57.891 28.468 6.537 56.924 9.673 84.94 9.673 172.241 0 327.908-118.488 368.093-293.496 6.533-28.45 9.666-56.886 9.666-84.879 0-6.351-.18-12.675-.499-18.976h-.265z"/><path d="M-7.227 940.055c.477 7.69.725 15.423.725 23.19-.001 27.976-3.131 56.39-9.659 84.819-40.158 174.887-195.718 293.291-367.837 293.291-27.998 0-56.434-3.131-84.881-9.664-48.372-11.107-92.244-31.265-130.666-57.938l-.126-.087-56.197 112.833h.295l56.002-112.442c38.417 26.646 82.276 46.787 130.631 57.892 28.468 6.537 56.923 9.671 84.94 9.671 172.24 0 327.908-118.488 368.093-293.496 6.534-28.45 9.666-56.885 9.666-84.879 0-7.768-.247-15.5-.724-23.19h-.262z"/></g></svg>