<svg width="89" height="89" viewBox="0 0 89 89" fill="none" xmlns="http://www.w3.org/2000/svg">
<path d="M44.5 0V11.6087" stroke="white" stroke-width="0.773913"/>
<path d="M44.5 77.3913V89" stroke="white" stroke-width="0.773913"/>
<path d="M66.75 5.96183L60.9457 16.0153" stroke="white" stroke-width="0.773913"/>
<path d="M28.0544 72.9847L22.25 83.0381" stroke="white" stroke-width="0.773913"/>
<path d="M83.0381 22.2499L72.9847 28.0543" stroke="white" stroke-width="0.773913"/>
<path d="M16.0152 60.9456L5.9618 66.7499" stroke="white" stroke-width="0.773913"/>
<path d="M89 44.4998L67.3304 44.4998" stroke="white" stroke-width="0.773913"/>
<path d="M11.6087 44.4999L8.0233e-06 44.4999" stroke="white" stroke-width="0.773913"/>
<path d="M83.0383 66.7498L72.9848 60.9455" stroke="white" stroke-width="0.773913"/>
<path d="M16.0154 28.0542L5.96193 22.2499" stroke="white" stroke-width="0.773913"/>
<path d="M66.7502 83.038L60.9458 72.9846" stroke="white" stroke-width="0.773913"/>
<path d="M28.0545 16.0152L22.2501 5.96173" stroke="white" stroke-width="0.773913"/>
<path d="M39.6922 42.7557C39.6922 43.8892 39.4874 44.9544 39.0777 45.9514C38.668 46.9483 38.1149 47.8292 37.4184 48.594C36.7219 49.3587 35.9025 49.9801 34.9602 50.4581C34.0315 50.9361 33.0482 51.2229 32.0103 51.3185L31.8874 50.7039C33.4169 50.1986 34.6392 49.4407 35.5542 48.4301C36.4692 47.4058 37.0906 46.204 37.4184 44.8247C37.0087 45.2617 36.5307 45.5826 35.9844 45.7875C35.4518 45.9924 34.926 46.0948 34.4071 46.0948C33.8608 46.0948 33.3418 46.0128 32.8502 45.849C32.3722 45.6714 31.9488 45.4119 31.5801 45.0705C31.2114 44.7291 30.9178 44.3126 30.6993 43.8209C30.4807 43.3156 30.3715 42.7421 30.3715 42.1002C30.3715 41.5129 30.4739 40.9462 30.6788 40.3999C30.8973 39.8537 31.2046 39.3757 31.6006 38.966C32.0103 38.5426 32.4951 38.208 33.055 37.9622C33.6286 37.7027 34.2705 37.573 34.9806 37.573C35.6498 37.573 36.2712 37.6754 36.8448 37.8803C37.432 38.0851 37.9305 38.3992 38.3402 38.8226C38.7636 39.2459 39.0913 39.7854 39.3235 40.4409C39.5693 41.0964 39.6922 41.868 39.6922 42.7557ZM37.6847 42.6533C37.6847 42.107 37.6369 41.5812 37.5413 41.0759C37.4457 40.557 37.2886 40.0995 37.0701 39.7034C36.8516 39.3074 36.5648 38.9865 36.2097 38.7406C35.8683 38.4948 35.445 38.3719 34.9397 38.3719C34.5709 38.3719 34.2295 38.447 33.9154 38.5972C33.6013 38.7338 33.3282 38.9387 33.096 39.2118C32.8638 39.4713 32.6795 39.8059 32.5429 40.2156C32.4063 40.6116 32.3381 41.0623 32.3381 41.5676C32.3381 42.0319 32.3927 42.4621 32.5019 42.8581C32.6249 43.2405 32.8024 43.5751 33.0346 43.8619C33.2667 44.1487 33.5535 44.374 33.8949 44.5379C34.25 44.6881 34.6597 44.7632 35.124 44.7632C35.5201 44.7632 35.9366 44.7018 36.3736 44.5789C36.8243 44.4423 37.2272 44.2375 37.5822 43.9643C37.6096 43.7458 37.63 43.5341 37.6437 43.3293C37.671 43.1108 37.6847 42.8854 37.6847 42.6533ZM46.0957 51.298C45.4129 51.298 44.7847 51.1546 44.2111 50.8678C43.6512 50.5674 43.1664 50.1303 42.7566 49.5568C42.3469 48.9695 42.026 48.2525 41.7939 47.4058C41.5753 46.5454 41.4661 45.5553 41.4661 44.4355C41.4661 43.3293 41.5753 42.3528 41.7939 41.5061C42.026 40.6457 42.3469 39.9288 42.7566 39.3552C43.1664 38.7679 43.6512 38.3241 44.2111 38.0237C44.7847 37.7232 45.4129 37.573 46.0957 37.573C46.7786 37.573 47.3999 37.7232 47.9599 38.0237C48.5334 38.3104 49.0251 38.7475 49.4348 39.3347C49.8445 39.9083 50.1586 40.6253 50.3771 41.4856C50.6093 42.3323 50.7254 43.3156 50.7254 44.4355C50.7254 45.5417 50.6093 46.525 50.3771 47.3853C50.1586 48.2321 49.8445 48.949 49.4348 49.5363C49.0251 50.1099 48.5334 50.5469 47.9599 50.8473C47.3999 51.1478 46.7786 51.298 46.0957 51.298ZM46.0957 50.4991C47.0517 50.4991 47.7072 49.9869 48.0623 48.9627C48.431 47.9384 48.6154 46.4294 48.6154 44.4355C48.6154 42.4553 48.4242 40.953 48.0418 39.9288C47.6731 38.8909 47.0244 38.3719 46.0957 38.3719C45.6177 38.3719 45.2149 38.5016 44.8871 38.7611C44.5593 39.0206 44.2999 39.403 44.1087 39.9083C43.9175 40.4136 43.7809 41.0486 43.699 41.8134C43.617 42.5645 43.5761 43.4385 43.5761 44.4355C43.5761 46.4294 43.7604 47.9384 44.1292 48.9627C44.5115 49.9869 45.1671 50.4991 46.0957 50.4991ZM55.299 43.9234C54.8756 43.9234 54.4727 43.8619 54.0903 43.739C53.7216 43.6024 53.3939 43.4044 53.1071 43.1449C52.8203 42.8718 52.5881 42.5372 52.4106 42.1412C52.2467 41.7315 52.1647 41.2603 52.1647 40.7277C52.1647 40.2087 52.2535 39.7512 52.4311 39.3552C52.6222 38.9591 52.8681 38.6245 53.1685 38.3514C53.469 38.0783 53.8036 37.8734 54.1723 37.7369C54.5547 37.6003 54.9302 37.532 55.299 37.532C55.7223 37.532 56.1184 37.6003 56.4871 37.7369C56.8695 37.8734 57.2041 38.0783 57.4909 38.3514C57.7777 38.6109 58.003 38.9387 58.1669 39.3347C58.3444 39.7307 58.4332 40.1951 58.4332 40.7277C58.4332 41.2466 58.3376 41.7041 58.1464 42.1002C57.9552 42.4962 57.7094 42.8308 57.4089 43.104C57.1221 43.3771 56.7876 43.5819 56.4052 43.7185C56.0364 43.8551 55.6677 43.9234 55.299 43.9234ZM55.299 43.1244C55.8179 43.1244 56.2345 42.9469 56.5486 42.5918C56.8627 42.2231 57.0197 41.6017 57.0197 40.7277C57.0197 39.9083 56.8627 39.3006 56.5486 38.9045C56.2345 38.5085 55.8179 38.3104 55.299 38.3104C54.78 38.3104 54.3635 38.4948 54.0494 38.8635C53.7353 39.2186 53.5782 39.84 53.5782 40.7277C53.5782 41.5471 53.7353 42.1548 54.0494 42.5509C54.3635 42.9332 54.78 43.1244 55.299 43.1244Z" fill="white"/>
</svg>
