<svg width="422" height="158" viewBox="0 0 422 158" fill="none" xmlns="http://www.w3.org/2000/svg">
<g clip-path="url(#clip0_621_1778)">
<path d="M122.238 246.998L207.309 70.475C221.215 80.451 237.094 87.9927 254.606 92.149C328.211 109.613 401.579 62.1137 418.478 -13.9476C434.428 -85.7404 394.343 -157.255 327.904 -179.754L365.766 -258.312M119.326 246.998L203.358 72.6361C217.264 82.612 233.143 90.1538 250.656 94.31C324.26 111.774 397.628 64.2748 414.527 -11.7865C430.477 -83.5793 390.392 -155.094 323.953 -177.593L362.854 -258.312M116.418 246.998L199.407 74.802C213.313 84.7779 229.197 92.3197 246.705 96.4759C320.309 113.94 393.677 66.4407 410.576 -9.62058C426.526 -81.4134 386.441 -152.928 320.002 -175.427L359.946 -258.312M113.506 246.998L195.451 76.963C209.357 86.939 225.236 94.4807 242.749 98.637C316.353 116.101 389.722 68.6018 406.621 -7.45951C422.571 -79.2524 382.486 -150.767 316.047 -173.266L357.033 -258.312M110.598 246.998L191.5 79.1241C205.406 89.1001 221.29 96.6418 238.798 100.798C312.402 118.262 385.771 70.7628 402.67 -5.29846C418.62 -77.0913 378.535 -148.606 312.096 -171.104L354.126 -258.312M107.685 246.998L187.544 81.29C201.451 91.266 217.33 98.8077 234.842 102.964C308.447 120.428 381.815 72.9288 398.714 -3.13253C414.664 -74.9254 374.579 -146.44 308.14 -168.939L351.213 -258.312M104.778 246.998L183.598 83.4511C197.504 93.4271 213.388 100.969 230.896 105.125C304.501 122.594 377.869 75.0898 394.768 -0.971481C410.718 -72.7643 370.633 -144.279 304.194 -166.777L348.301 -258.312M101.865 246.998L179.643 85.6121C193.549 95.5881 209.428 103.13 226.94 107.286C300.545 124.75 373.913 77.2509 390.812 1.18957C406.762 -70.6033 366.677 -142.118 300.238 -164.616L345.393 -258.312M98.9528 246.998L175.687 87.7781C189.593 97.754 205.477 105.296 222.985 109.452C296.589 126.916 369.958 79.4168 386.857 3.3555C402.807 -68.4373 362.721 -139.952 296.282 -162.451L342.481 -258.312M96.045 246.998L171.736 89.9391C185.642 99.9151 201.521 107.457 219.034 111.613C292.638 129.077 366.007 81.5778 382.906 5.51167C398.856 -66.2812 358.771 -137.796 292.332 -160.294L339.573 -258.312M93.1326 246.998L167.78 92.1002C181.686 102.076 197.57 109.618 215.078 113.774C288.683 131.238 362.046 83.7389 378.95 7.6776C394.9 -64.1152 354.815 -135.63 288.376 -158.128L336.66 -258.312M90.2249 246.998L163.834 94.2612C177.74 104.237 193.619 111.779 211.132 115.935C284.736 133.399 358.105 85.8999 375.004 9.83865C390.954 -61.9542 350.869 -133.469 284.43 -155.967L333.753 -258.312M87.3124 246.998L159.878 96.4271C173.785 106.403 189.669 113.945 207.176 118.101C280.781 135.565 354.149 88.0659 371.048 12.0046C386.998 -59.7883 346.913 -131.303 280.474 -153.801L330.84 -258.312M84.4047 246.998L155.927 98.5882C169.834 108.564 185.718 116.106 203.225 120.262C276.83 137.726 350.198 90.2269 367.097 14.1656C383.047 -57.6272 342.962 -129.142 276.523 -151.64L327.932 -258.312M81.4922 246.998L151.972 100.749C165.878 110.725 181.757 118.267 199.27 122.423C272.874 139.892 346.243 92.388 363.142 16.3267C379.096 -55.4662 339.006 -126.981 272.567 -149.479L325.02 -258.312M78.5797 246.998L148.021 102.915C161.927 112.891 177.806 120.433 195.319 124.589C268.923 142.053 342.292 94.5539 359.191 18.4926C375.141 -53.3002 335.055 -124.815 268.616 -147.313L322.108 -258.312M75.672 246.998L144.07 105.076C157.981 115.052 173.86 122.594 191.368 126.75C264.972 144.214 338.341 96.715 355.24 20.6537C371.19 -51.1392 331.104 -122.654 264.666 -145.152L319.2 -258.312M72.7595 246.998L140.114 107.237C154.02 117.218 169.9 124.755 187.412 128.911C261.017 146.375 334.385 98.876 351.284 22.8147C367.234 -48.9781 327.149 -120.493 260.71 -142.991L316.287 -258.312M69.8518 246.998L136.163 109.403C150.069 119.379 165.949 126.921 183.461 131.077C257.066 148.546 330.434 101.042 347.333 24.9807C363.283 -46.8122 323.198 -118.327 256.759 -140.825L313.37 -258.298M66.9393 246.998L132.208 111.564C146.114 121.54 161.998 129.082 179.506 133.238C253.11 150.702 326.479 103.203 343.377 27.1417C359.327 -44.6511 319.242 -116.166 252.803 -138.664L310.467 -258.312M64.0316 246.998L128.261 113.725C142.168 123.701 158.047 131.243 175.559 135.399C249.164 152.863 322.532 105.364 339.431 29.2979C355.381 -42.4949 315.296 -114.01 248.857 -136.508L307.555 -258.312M61.1191 246.998L124.306 115.891C138.212 125.867 154.091 133.409 171.604 137.565C245.208 155.034 318.577 107.53 335.476 31.4687C351.426 -40.3241 311.34 -111.839 244.901 -134.337L304.647 -258.312M58.2067 246.998L120.35 118.052C134.256 128.028 150.14 135.57 167.648 139.726C241.253 157.19 314.621 109.691 331.52 33.6298C347.47 -38.1631 307.385 -109.678 240.946 -132.176L301.73 -258.298M55.2989 246.998L116.399 120.213C130.305 130.189 146.185 137.731 163.697 141.887C237.302 159.351 310.67 111.852 327.569 35.7908C343.519 -36.002 303.434 -107.517 236.995 -130.015L298.817 -258.298M52.3865 246.998L112.444 122.379C126.35 132.355 142.229 139.897 159.742 144.053C233.346 161.517 306.714 114.018 323.613 37.9567C339.563 -33.8361 299.478 -105.351 233.039 -127.849L295.91 -258.298M49.4788 246.998L108.497 124.54C122.404 134.516 138.288 142.058 155.795 146.214C229.4 163.678 302.768 116.179 319.667 40.1178C335.617 -31.675 295.532 -103.19 229.093 -125.688L293.007 -258.312M46.5663 246.998L104.542 126.701C118.448 136.677 134.327 144.219 151.84 148.375C225.444 165.844 298.813 118.34 315.711 42.2788C331.661 -29.514 291.576 -101.029 225.137 -123.527L290.094 -258.312M43.6586 246.998L100.591 128.867C114.497 138.843 130.376 146.385 147.889 150.541C221.493 168.005 294.862 120.506 311.76 44.4448C327.711 -27.3481 287.625 -98.8628 221.186 -121.361L287.177 -258.298M40.7461 246.998L96.6351 131.028C110.541 141.004 126.425 148.546 143.933 152.702C217.538 170.166 290.906 122.667 307.805 46.6009C323.755 -25.1919 283.67 -96.7067 217.231 -119.205L284.269 -258.298M37.8336 246.998L92.6794 133.189C106.586 143.165 122.47 150.707 139.977 154.863C213.582 172.327 286.95 124.828 303.849 48.7669C319.799 -23.026 279.714 -94.5407 213.275 -117.039L281.361 -258.312M34.9259 246.998L88.7332 135.351C102.639 145.326 118.523 152.868 136.031 157.024C209.636 174.489 283.004 126.989 299.903 50.928C315.853 -20.8649 275.768 -92.3797 209.329 -114.878L278.444 -258.298M32.0134 246.998L84.7776 137.516C98.6837 147.492 114.563 155.034 132.076 159.19C205.68 176.654 279.048 129.155 295.947 53.0939C311.902 -18.699 271.812 -90.2137 205.373 -112.712L275.541 -258.312M29.1057 246.998L80.8266 139.678C94.7328 149.653 110.617 157.195 128.125 161.351C201.729 178.816 275.097 131.316 291.996 55.2549C307.946 -16.5379 267.861 -88.0527 201.422 -110.551L272.633 -258.312M26.1932 246.998L76.871 141.839C90.7771 151.815 106.656 159.356 124.169 163.513C197.773 180.977 271.142 133.477 288.041 57.416C303.991 -14.3768 263.906 -85.8916 197.467 -108.39L269.716 -258.298M23.2855 246.998L72.9247 144.004C86.8309 153.98 102.715 161.522 120.223 165.678C193.827 183.142 267.196 135.643 284.094 59.5819C300.045 -12.2109 259.959 -83.7257 193.52 -106.224L266.809 -258.312M20.373 246.998L68.9691 146.166C82.8753 156.142 98.7545 163.683 116.267 167.839C189.872 185.304 263.24 137.804 280.139 61.743C296.089 -10.0499 256.004 -81.5646 189.565 -104.063L263.896 -258.298M17.4606 246.998L65.0134 148.327C78.9196 158.303 94.8036 165.844 112.311 170.001C185.916 187.465 259.284 139.965 276.183 63.904C292.133 -7.88881 252.048 -79.4036 185.609 -101.902L260.988 -258.312M14.5528 246.998L61.0625 150.493C74.9687 160.468 90.8479 168.01 108.36 172.166C181.965 189.631 255.333 142.131 272.232 66.07C288.182 -5.72287 248.097 -77.2377 181.658 -99.736L258.081 -258.312M11.6404 246.998L57.1068 152.654C71.013 162.63 86.897 170.171 104.405 174.328C178.009 191.792 251.378 144.292 268.277 68.231C284.227 -3.56182 244.141 -75.0766 177.702 -97.575L255.168 -258.312M8.73266 246.998L53.1606 154.815C67.0668 164.791 82.9461 172.332 100.459 176.489C174.063 193.957 247.432 146.453 264.33 70.3921C280.28 -1.40077 240.195 -72.9155 173.756 -95.4139L252.26 -258.312M5.82019 246.998L49.205 156.976C63.1111 166.952 78.9951 174.493 96.5029 178.65C170.107 196.114 243.476 148.614 260.375 72.5531C276.325 0.760276 236.24 -70.7545 169.801 -93.2529L249.348 -258.312M2.91246 246.998L45.254 159.142C59.1602 169.118 75.0395 176.659 92.552 180.816C166.156 198.28 239.525 150.78 256.424 74.719C272.374 2.92621 232.289 -68.5886 165.85 -91.0869L246.436 -258.312M0 246.998L41.2984 161.303C55.2045 171.279 71.0885 178.82 88.5963 182.977C162.201 200.446 235.569 152.941 252.468 76.8801C268.418 5.08726 228.333 -66.4275 161.894 -88.9259L243.528 -258.312" stroke="#6D8BAA" stroke-width="0.192868" stroke-miterlimit="10"/>
</g>
<defs>
<clipPath id="clip0_621_1778">
<rect width="422" height="158" fill="white"/>
</clipPath>
</defs>
</svg>
