<svg width="298" height="68" viewBox="0 0 298 68" fill="none" xmlns="http://www.w3.org/2000/svg">
<path d="M0 6.99406L0.916252 6.87189V1.19113L0 1.06896V0.743182H5.17173V2.5146H4.79505L4.1435 1.20131L1.85287 1.16059V3.81772L3.40031 3.77699L3.69555 2.95237H4.04169V5.11065H3.69555L3.42067 4.27584L1.85287 4.23512V6.86171L3.08472 6.9737V7.31984H0V6.99406Z" fill="white"/>
<path d="M6.54595 1.4151C6.38985 1.4151 6.25411 1.3642 6.13873 1.26239C6.02335 1.16059 5.96566 1.02145 5.96566 0.844988C5.96566 0.661737 6.02335 0.519209 6.13873 0.417404C6.25411 0.315598 6.38985 0.264695 6.54595 0.264695C6.69527 0.264695 6.82761 0.315598 6.94299 0.417404C7.06516 0.519209 7.12625 0.661737 7.12625 0.844988C7.12625 1.02145 7.06516 1.16059 6.94299 1.26239C6.82761 1.3642 6.69527 1.4151 6.54595 1.4151ZM5.46681 7.03478L6.13873 6.85153L6.16927 5.89455V3.20688L5.53807 2.85056V2.57569L6.74956 2.39244H7.05498L7.03462 3.35959V6.92279L7.7778 6.98388V7.31984H5.46681V7.03478Z" fill="white"/>
<path d="M8.06421 7.03478L8.73613 6.85153L8.76667 5.89455V3.20688L8.13547 2.85056V2.57569L9.34696 2.39244H9.5913V3.41049H9.62184C9.77115 3.09829 9.97816 2.84038 10.2429 2.63677C10.5075 2.42637 10.813 2.32117 11.1591 2.32117C11.7089 2.32117 12.1161 2.47727 12.3808 2.78948C12.6523 3.0949 12.788 3.51909 12.788 4.06205V6.92279L13.5312 6.98388V7.31984H11.2609V7.0246L11.8921 6.85153L11.9226 5.89455V4.27584C11.9226 3.79396 11.831 3.45122 11.6478 3.2476C11.4645 3.03721 11.21 2.93201 10.8842 2.93201C10.6467 2.93201 10.4125 3.01006 10.1818 3.16616C9.95101 3.31547 9.76776 3.51909 9.63202 3.77699V6.92279L10.3345 6.98388V7.31984H8.06421V7.03478Z" fill="white"/>
<path d="M13.8558 4.91722C13.8558 4.53714 13.9135 4.18761 14.0289 3.86862C14.1511 3.54963 14.3174 3.27815 14.5278 3.05417C14.7449 2.82341 14.9961 2.64356 15.2811 2.5146C15.573 2.38565 15.892 2.32117 16.2381 2.32117C16.4689 2.32117 16.6793 2.33475 16.8693 2.36189C17.0661 2.38226 17.2324 2.4128 17.3681 2.45352V0.753363L16.6351 0.376681V0.132348L18.0095 0H18.264L18.2335 0.956975V6.87189L18.9665 6.9737V7.27911L17.6532 7.45218H17.4496V6.62756H17.4089C17.246 6.8651 17.0492 7.05853 16.8184 7.20785C16.5876 7.35038 16.3128 7.42164 15.9938 7.42164C15.6408 7.42164 15.3286 7.36056 15.0572 7.23839C14.7925 7.11622 14.5719 6.94655 14.3954 6.72936C14.219 6.50539 14.0832 6.24069 13.9882 5.93528C13.9 5.62986 13.8558 5.29051 13.8558 4.91722ZM14.8332 4.81541C14.8332 5.10726 14.8671 5.37535 14.935 5.61968C15.0029 5.86401 15.1013 6.07781 15.2302 6.26106C15.366 6.43752 15.5289 6.57665 15.7189 6.67846C15.9089 6.77348 16.1295 6.82099 16.3806 6.82099C16.6182 6.82099 16.8218 6.77008 16.9915 6.66828C17.1611 6.56647 17.2867 6.45788 17.3681 6.3425V3.21706C17.2528 3.0406 17.1035 2.90486 16.9202 2.80984C16.7369 2.70803 16.5164 2.65713 16.2585 2.65713C15.8445 2.65713 15.5017 2.84377 15.2302 3.21706C14.9655 3.58356 14.8332 4.11635 14.8332 4.81541Z" fill="white"/>
<path d="M21.3569 4.88668C21.3569 4.47945 21.4248 4.11635 21.5606 3.79736C21.7031 3.47836 21.8863 3.21028 22.1103 2.99309C22.3343 2.7759 22.5888 2.60962 22.8738 2.49424C23.1589 2.37886 23.4507 2.32117 23.7494 2.32117C24.0752 2.32117 24.3806 2.37547 24.6656 2.48406C24.9575 2.59265 25.212 2.75554 25.4292 2.97273C25.6531 3.18313 25.8262 3.44782 25.9484 3.76681C26.0773 4.08581 26.1418 4.4557 26.1418 4.8765C26.1418 5.28372 26.0706 5.64683 25.928 5.96582C25.7923 6.28481 25.6124 6.5529 25.3885 6.77008C25.1645 6.98727 24.9066 7.15355 24.6147 7.26893C24.3297 7.38431 24.0412 7.442 23.7494 7.442C23.4236 7.442 23.1148 7.38771 22.8229 7.27911C22.5379 7.17052 22.2834 7.01102 22.0594 6.80063C21.8422 6.58344 21.6691 6.31535 21.5402 5.99636C21.418 5.67737 21.3569 5.30747 21.3569 4.88668ZM23.7697 7.08568C24.1973 7.08568 24.5333 6.89904 24.7776 6.52575C25.022 6.14568 25.1441 5.60611 25.1441 4.90704C25.1441 4.59483 25.1102 4.30299 25.0423 4.03151C24.9744 3.76003 24.876 3.52587 24.7471 3.32905C24.6249 3.12544 24.4756 2.96594 24.2991 2.85056C24.1295 2.73518 23.9394 2.67749 23.729 2.67749C23.3014 2.67749 22.9655 2.86753 22.7211 3.2476C22.4768 3.62089 22.3546 4.15707 22.3546 4.85614C22.3546 5.16834 22.3886 5.46018 22.4564 5.73167C22.5243 6.00315 22.6193 6.24069 22.7415 6.44431C22.8705 6.64113 23.0198 6.79723 23.1894 6.91261C23.3659 7.02799 23.5593 7.08568 23.7697 7.08568Z" fill="white"/>
<path d="M27.1479 3.13562L26.5066 2.82002V2.52478L27.7588 2.44334H28.0133V5.48733C28.0133 5.96921 28.0981 6.31535 28.2678 6.52575C28.4375 6.72936 28.6852 6.83117 29.011 6.83117C29.2893 6.83117 29.5336 6.75312 29.744 6.59701C29.9612 6.43413 30.1376 6.22712 30.2734 5.976V3.05417L29.5607 2.90146V2.56551L30.8944 2.44334H31.1591L31.1387 3.50212V6.86171L31.8615 6.95333V7.25875L30.5584 7.3911H30.3141V6.35268H30.2937C30.1173 6.71239 29.8933 6.98388 29.6218 7.16713C29.3571 7.35038 29.0619 7.442 28.7361 7.442C28.1931 7.442 27.7927 7.28929 27.5348 6.98388C27.2769 6.67167 27.1479 6.24409 27.1479 5.70112V3.13562Z" fill="white"/>
<path d="M32.8896 2.94219H32.2584V2.52478L32.9202 2.38226L33.195 1.28275L33.755 1.25221V2.49424H35.1904V2.95237H33.755V6.09817C33.755 6.60041 34.0061 6.85153 34.5083 6.85153C34.6848 6.85153 34.8409 6.82438 34.9766 6.77008C35.1124 6.71579 35.2481 6.64113 35.3839 6.54611L35.5264 6.7599C35.3431 6.9703 35.1463 7.13658 34.9359 7.25875C34.7255 7.38092 34.4642 7.442 34.152 7.442C33.7855 7.442 33.4835 7.34359 33.2459 7.14677C33.0084 6.94994 32.8896 6.66828 32.8896 6.30178V2.94219Z" fill="white"/>
<path d="M37.9565 2.89128L37.5188 2.78948V2.49424H39.6669V2.8302L38.944 2.89128L39.8196 6.32214L41.1736 2.62659H41.7233L42.9247 6.32214L43.9325 2.8811L43.3013 2.8302V2.49424H44.9608V2.78948L44.4925 2.92183L43.0265 7.35038H42.4054L41.2041 3.80754L39.8603 7.35038H39.2596L37.9565 2.89128Z" fill="white"/>
<path d="M45.1788 7.03478L45.8507 6.85153L45.8812 5.89455V0.753363L45.1482 0.376681V0.132348L46.5226 0H46.7771L46.7466 0.956975V3.40031C46.9366 3.04739 47.164 2.7793 47.4287 2.59605C47.7002 2.4128 47.9988 2.32117 48.3246 2.32117C48.8743 2.32117 49.2782 2.47727 49.5361 2.78948C49.8008 3.10168 49.9331 3.52927 49.9331 4.07223V6.92279L50.6763 6.98388V7.31984H48.406V7.0246L49.0372 6.85153L49.0678 5.89455V4.28602C49.0678 3.79057 48.9727 3.44104 48.7827 3.23742C48.5927 3.03381 48.3348 2.93201 48.009 2.93201C47.7714 2.93201 47.5339 3.01006 47.2963 3.16616C47.0656 3.31547 46.8823 3.51569 46.7466 3.76681V6.92279L47.449 6.98388V7.31984H45.1788V7.03478Z" fill="white"/>
<path d="M51.0116 6.30178C51.0116 6.07102 51.0591 5.87419 51.1541 5.7113C51.2559 5.54163 51.3985 5.3991 51.5817 5.28372C51.7718 5.16155 52.0025 5.05975 52.274 4.9783C52.5455 4.89007 52.8543 4.80863 53.2004 4.73397L53.7604 4.6118V3.85844C53.7604 3.49194 53.6789 3.21367 53.516 3.02363C53.3599 2.83359 53.1088 2.73858 52.7627 2.73858C52.6473 2.73858 52.5285 2.75554 52.4064 2.78948C52.2842 2.82341 52.1858 2.86753 52.1111 2.92183C52.1247 2.9897 52.1349 3.06096 52.1417 3.13562C52.1552 3.20349 52.162 3.27815 52.162 3.35959C52.162 3.52927 52.1213 3.6718 52.0399 3.78718C51.9652 3.90255 51.8362 3.96024 51.653 3.96024C51.5105 3.96024 51.4019 3.91613 51.3272 3.8279C51.2593 3.73967 51.2254 3.62768 51.2254 3.49194C51.2254 3.3019 51.2831 3.13562 51.3985 2.99309C51.5139 2.84377 51.6598 2.72161 51.8362 2.62659C52.0127 2.52478 52.2061 2.45013 52.4165 2.40262C52.6269 2.34832 52.8271 2.32117 53.0172 2.32117C54.0963 2.32117 54.6359 2.81323 54.6359 3.79736V6.87189L55.3689 6.96352V7.21803L54.9617 7.36056C54.8938 7.38771 54.8259 7.40807 54.7581 7.42164C54.6902 7.43522 54.6088 7.442 54.5137 7.442C54.3848 7.442 54.2762 7.41485 54.188 7.36056C54.1065 7.30626 54.0386 7.23839 53.9843 7.15695C53.93 7.0755 53.8893 6.98388 53.8622 6.88207C53.8418 6.78026 53.8282 6.68185 53.8215 6.58683H53.8011C53.74 6.69543 53.662 6.80063 53.5669 6.90243C53.4719 7.00424 53.3599 7.09586 53.231 7.17731C53.1088 7.25875 52.9697 7.32323 52.8136 7.37074C52.6575 7.41825 52.4844 7.442 52.2944 7.442C52.1179 7.442 51.9516 7.41825 51.7955 7.37074C51.6394 7.32323 51.5037 7.25196 51.3883 7.15695C51.2729 7.05514 51.1813 6.93297 51.1134 6.79045C51.0455 6.64792 51.0116 6.48503 51.0116 6.30178ZM51.9177 6.08799C51.9177 6.37304 51.9923 6.57665 52.1417 6.69882C52.2978 6.82099 52.4946 6.88207 52.7321 6.88207C52.9018 6.88207 53.0851 6.83456 53.2819 6.73954C53.4855 6.64452 53.645 6.53254 53.7604 6.40358V4.98848L53.1801 5.06993C52.8204 5.12422 52.5183 5.22942 52.274 5.38553C52.0365 5.53484 51.9177 5.76899 51.9177 6.08799Z" fill="white"/>
<path d="M56.3368 2.94219H55.7056V2.52478L56.3673 2.38226L56.6422 1.28275L57.2021 1.25221V2.49424H58.6376V2.95237H57.2021V6.09817C57.2021 6.60041 57.4532 6.85153 57.9555 6.85153C58.1319 6.85153 58.288 6.82438 58.4238 6.77008C58.5595 6.71579 58.6953 6.64113 58.831 6.54611L58.9735 6.7599C58.7903 6.9703 58.5935 7.13658 58.3831 7.25875C58.1727 7.38092 57.9114 7.442 57.5992 7.442C57.2327 7.442 56.9306 7.34359 56.6931 7.14677C56.4555 6.94994 56.3368 6.66828 56.3368 6.30178V2.94219Z" fill="white"/>
<path d="M59.5713 0.661738C59.5713 0.451339 59.629 0.29863 59.7444 0.203611C59.8666 0.108593 60.0091 0.0610833 60.172 0.0610833C60.3688 0.0610833 60.5181 0.139134 60.6199 0.295237C60.7285 0.451339 60.7828 0.641376 60.7828 0.865349C60.7828 1.30651 60.6607 1.70694 60.4163 2.06666C60.1788 2.41958 59.8191 2.67749 59.3372 2.84038L59.2456 2.62659C59.5849 2.42976 59.8224 2.21258 59.9582 1.97503C60.1007 1.7307 60.172 1.48976 60.172 1.25221C60.0362 1.22506 59.9005 1.16737 59.7648 1.07914C59.6358 0.99091 59.5713 0.851775 59.5713 0.661738Z" fill="white"/>
<path d="M61.202 5.86401L61.5787 5.82329L61.9452 6.77008C62.1895 6.99406 62.4881 7.10604 62.841 7.10604C62.9632 7.10604 63.0786 7.09247 63.1872 7.06532C63.2958 7.03139 63.3942 6.98048 63.4824 6.91261C63.5707 6.83795 63.6385 6.74972 63.686 6.64792C63.7403 6.53932 63.7675 6.40698 63.7675 6.25087C63.7675 6.0269 63.6928 5.85044 63.5435 5.72148C63.401 5.58574 63.2008 5.47036 62.9429 5.37535L62.4033 5.18191C62.03 5.04617 61.7314 4.86971 61.5074 4.65252C61.2902 4.43534 61.1816 4.13331 61.1816 3.74645C61.1816 3.55642 61.2189 3.37656 61.2936 3.20688C61.375 3.03042 61.4904 2.87771 61.6397 2.74876C61.7891 2.6198 61.9723 2.518 62.1895 2.44334C62.4067 2.36189 62.6544 2.32117 62.9327 2.32117C63.1091 2.32117 63.2958 2.34832 63.4926 2.40262C63.6962 2.45013 63.8421 2.49764 63.9304 2.54514L64.0118 2.32117H64.2765V3.73627H63.9202L63.6453 2.98291C63.5299 2.87432 63.4044 2.79287 63.2686 2.73858C63.1397 2.68428 62.9938 2.65713 62.8309 2.65713C62.5865 2.65713 62.3795 2.72161 62.2099 2.85056C62.047 2.97952 61.9655 3.17634 61.9655 3.44104C61.9655 3.68537 62.0368 3.88559 62.1793 4.04169C62.3218 4.19779 62.5288 4.32335 62.8003 4.41837L63.5231 4.67289C63.6725 4.72718 63.8116 4.79166 63.9405 4.86632C64.0763 4.94097 64.1917 5.0326 64.2867 5.14119C64.3885 5.243 64.4665 5.36516 64.5208 5.50769C64.5819 5.64343 64.6125 5.79954 64.6125 5.976C64.6125 6.19318 64.565 6.3934 64.4699 6.57665C64.3817 6.75312 64.2561 6.90583 64.0933 7.03478C63.9372 7.16373 63.7471 7.26215 63.5231 7.33002C63.2992 7.40467 63.0548 7.442 62.7901 7.442C62.573 7.442 62.3626 7.41146 62.1589 7.35038C61.9621 7.29608 61.7924 7.2316 61.6499 7.15695L61.5787 7.442H61.314L61.202 5.86401Z" fill="white"/>
<path d="M67.1505 4.88668C67.1505 4.47945 67.2183 4.11635 67.3541 3.79736C67.4966 3.47836 67.6798 3.21028 67.9038 2.99309C68.1278 2.7759 68.3823 2.60962 68.6674 2.49424C68.9524 2.37886 69.2443 2.32117 69.5429 2.32117C69.8687 2.32117 70.1741 2.37547 70.4591 2.48406C70.751 2.59265 71.0055 2.75554 71.2227 2.97273C71.4467 3.18313 71.6197 3.44782 71.7419 3.76681C71.8708 4.08581 71.9353 4.4557 71.9353 4.8765C71.9353 5.28372 71.8641 5.64683 71.7215 5.96582C71.5858 6.28481 71.4059 6.5529 71.182 6.77008C70.958 6.98727 70.7001 7.15355 70.4082 7.26893C70.1232 7.38431 69.8347 7.442 69.5429 7.442C69.2171 7.442 68.9083 7.38771 68.6165 7.27911C68.3314 7.17052 68.0769 7.01102 67.8529 6.80063C67.6357 6.58344 67.4627 6.31535 67.3337 5.99636C67.2115 5.67737 67.1505 5.30747 67.1505 4.88668ZM69.5632 7.08568C69.9908 7.08568 70.3268 6.89904 70.5711 6.52575C70.8155 6.14568 70.9376 5.60611 70.9376 4.90704C70.9376 4.59483 70.9037 4.30299 70.8358 4.03151C70.768 3.76003 70.6695 3.52587 70.5406 3.32905C70.4184 3.12544 70.2691 2.96594 70.0926 2.85056C69.923 2.73518 69.7329 2.67749 69.5225 2.67749C69.0949 2.67749 68.759 2.86753 68.5146 3.2476C68.2703 3.62089 68.1481 4.15707 68.1481 4.85614C68.1481 5.16834 68.1821 5.46018 68.25 5.73167C68.3178 6.00315 68.4128 6.24069 68.535 6.44431C68.664 6.64113 68.8133 6.79723 68.983 6.91261C69.1594 7.02799 69.3528 7.08568 69.5632 7.08568Z" fill="white"/>
<path d="M72.351 7.03478L73.0229 6.85153L73.0534 5.89455V3.20688L72.4222 2.85056V2.57569L73.6337 2.39244H73.8781V3.41049H73.9086C74.0579 3.09829 74.2649 2.84038 74.5296 2.63677C74.7943 2.42637 75.0997 2.32117 75.4459 2.32117C75.9956 2.32117 76.4028 2.47727 76.6675 2.78948C76.939 3.0949 77.0748 3.51909 77.0748 4.06205V6.92279L77.8179 6.98388V7.31984H75.5477V7.0246L76.1789 6.85153L76.2094 5.89455V4.27584C76.2094 3.79396 76.1178 3.45122 75.9345 3.2476C75.7513 3.03721 75.4968 2.93201 75.171 2.93201C74.9335 2.93201 74.6993 3.01006 74.4685 3.16616C74.2378 3.31547 74.0545 3.51909 73.9188 3.77699V6.92279L74.6212 6.98388V7.31984H72.351V7.03478Z" fill="white"/>
<path d="M80.2148 5.48733L80.6729 5.39571L81.1819 6.63774C81.3448 6.79384 81.5213 6.90583 81.7113 6.9737C81.9081 7.03478 82.1253 7.06532 82.3629 7.06532C82.7837 7.06532 83.1128 6.95333 83.3504 6.72936C83.5879 6.4986 83.7067 6.18979 83.7067 5.80293C83.7067 5.48394 83.6117 5.23282 83.4216 5.04957C83.2384 4.85953 82.9669 4.70343 82.6072 4.58126L81.9455 4.35729C81.7011 4.27584 81.4738 4.17743 81.2634 4.06205C81.0597 3.94667 80.8799 3.81432 80.7238 3.66501C80.5677 3.50891 80.4455 3.33244 80.3573 3.13562C80.2691 2.93879 80.2249 2.72161 80.2249 2.48406C80.2249 2.15828 80.2894 1.88001 80.4184 1.64925C80.5473 1.41171 80.7136 1.21828 80.9172 1.06896C81.1208 0.912859 81.3482 0.800872 81.5993 0.733002C81.8504 0.658344 82.0982 0.621015 82.3425 0.621015C82.4782 0.621015 82.6174 0.631196 82.7599 0.651557C82.9092 0.665131 83.0484 0.688886 83.1773 0.722821C83.313 0.749969 83.4318 0.780511 83.5336 0.814446C83.6422 0.848382 83.7271 0.878923 83.7881 0.906071L83.9408 0.621015H84.2463V2.5146H83.8085L83.3911 1.42528C83.235 1.28275 83.0619 1.17755 82.8719 1.10968C82.6818 1.03503 82.4782 0.997696 82.2611 0.997696C81.9149 0.997696 81.6332 1.0995 81.4161 1.30311C81.1989 1.50673 81.0903 1.79178 81.0903 2.15828C81.0903 2.45013 81.1887 2.70464 81.3855 2.92183C81.5891 3.13222 81.9047 3.31208 82.3323 3.4614L82.9941 3.68537C83.2316 3.76681 83.4488 3.85844 83.6456 3.96024C83.8492 4.06205 84.0223 4.18761 84.1648 4.33693C84.3073 4.47945 84.4193 4.64913 84.5008 4.84595C84.5822 5.04278 84.6229 5.27015 84.6229 5.52805C84.6229 5.79954 84.572 6.05405 84.4702 6.2916C84.3684 6.52236 84.2191 6.72257 84.0223 6.89225C83.8255 7.06193 83.5811 7.19767 83.2893 7.29947C83.0042 7.39449 82.6785 7.442 82.312 7.442C81.8844 7.442 81.5416 7.40128 81.2837 7.31984C81.0326 7.2316 80.8629 7.16373 80.7747 7.11622L80.6423 7.442H80.3064L80.2148 5.48733Z" fill="white"/>
<path d="M85.3081 6.99406L86.2447 6.87189V1.19113L85.3081 1.06896V0.743182H88.1179V1.06896L87.1813 1.19113V6.87189L88.1179 6.99406V7.31984H85.3081V6.99406Z" fill="white"/>
<path d="M88.7998 4.04169C88.7998 3.53945 88.8744 3.08132 89.0237 2.66731C89.1798 2.24651 89.3936 1.8868 89.6651 1.58817C89.9366 1.28275 90.2624 1.04521 90.6424 0.87553C91.0225 0.705853 91.4365 0.621015 91.8845 0.621015C92.2578 0.621015 92.5903 0.654951 92.8822 0.722821C93.1808 0.790692 93.4184 0.861956 93.5948 0.936613L93.6864 0.621015H94.0224V2.62659H93.5236L93.096 1.42528C92.7838 1.16059 92.3765 1.02824 91.8743 1.02824C91.2092 1.02824 90.7137 1.28615 90.3879 1.80196C90.0689 2.31099 89.9094 3.05757 89.9094 4.04169C89.9094 4.42855 89.9434 4.80184 90.0113 5.16155C90.0859 5.52127 90.2047 5.83686 90.3676 6.10835C90.5305 6.37983 90.7409 6.59701 90.9988 6.7599C91.2567 6.92279 91.5723 7.00424 91.9456 7.00424C92.2374 7.00424 92.4885 6.96691 92.6989 6.89225C92.9161 6.81759 93.096 6.71579 93.2385 6.58683C93.3878 6.45788 93.51 6.31196 93.605 6.14907C93.7 5.98618 93.7781 5.81311 93.8391 5.62986L94.1853 5.73167C94.0495 6.26106 93.7916 6.67846 93.4116 6.98388C93.0315 7.28929 92.536 7.442 91.9252 7.442C91.4365 7.442 90.9988 7.36056 90.6119 7.19767C90.225 7.03478 89.8959 6.80741 89.6244 6.51557C89.3597 6.21694 89.1561 5.86062 89.0136 5.44661C88.871 5.02581 88.7998 4.55751 88.7998 4.04169Z" fill="white"/>
<path d="M94.897 4.03151C94.897 3.50891 94.9818 3.03721 95.1515 2.61641C95.328 2.19561 95.5621 1.83929 95.854 1.54745C96.1526 1.24882 96.4919 1.02145 96.872 0.865349C97.2521 0.70246 97.6525 0.621015 98.0733 0.621015C98.5281 0.621015 98.9488 0.70246 99.3357 0.865349C99.7226 1.02145 100.059 1.24882 100.344 1.54745C100.629 1.83929 100.849 2.19561 101.005 2.61641C101.168 3.03721 101.25 3.50891 101.25 4.03151C101.25 4.55411 101.161 5.02581 100.985 5.44661C100.815 5.86741 100.581 6.22712 100.283 6.52575C99.9907 6.81759 99.6513 7.04496 99.2645 7.20785C98.8844 7.36395 98.4873 7.442 98.0733 7.442C97.6186 7.442 97.1978 7.36395 96.8109 7.20785C96.4241 7.04496 96.0881 6.81759 95.803 6.52575C95.518 6.22712 95.294 5.86741 95.1311 5.44661C94.975 5.02581 94.897 4.55411 94.897 4.03151ZM96.0067 4.03151C96.0067 4.49982 96.0576 4.92061 96.1594 5.2939C96.268 5.6604 96.4139 5.976 96.5971 6.24069C96.7872 6.4986 97.0078 6.69882 97.2589 6.84135C97.5168 6.97709 97.7984 7.04496 98.1039 7.04496C98.7418 7.04496 99.2407 6.79384 99.6004 6.2916C99.9601 5.78936 100.14 5.03599 100.14 4.03151C100.14 3.5632 100.086 3.1458 99.9771 2.7793C99.8753 2.40601 99.7294 2.09041 99.5393 1.8325C99.3561 1.56781 99.1355 1.36759 98.8776 1.23185C98.6265 1.08932 98.3482 1.01806 98.0428 1.01806C97.4048 1.01806 96.9059 1.26918 96.5462 1.77142C96.1865 2.27366 96.0067 3.02703 96.0067 4.03151Z" fill="white"/>
<path d="M102.171 0.661738C102.171 0.451339 102.228 0.29863 102.344 0.203611C102.466 0.108593 102.608 0.0610833 102.771 0.0610833C102.968 0.0610833 103.117 0.139134 103.219 0.295237C103.328 0.451339 103.382 0.641376 103.382 0.865349C103.382 1.30651 103.26 1.70694 103.016 2.06666C102.778 2.41958 102.418 2.67749 101.937 2.84038L101.845 2.62659C102.184 2.42976 102.422 2.21258 102.558 1.97503C102.7 1.7307 102.771 1.48976 102.771 1.25221C102.636 1.22506 102.5 1.16737 102.364 1.07914C102.235 0.99091 102.171 0.851775 102.171 0.661738Z" fill="white"/>
<path d="M103.801 5.86401L104.178 5.82329L104.545 6.77008C104.789 6.99406 105.087 7.10604 105.44 7.10604C105.563 7.10604 105.678 7.09247 105.787 7.06532C105.895 7.03139 105.994 6.98048 106.082 6.91261C106.17 6.83795 106.238 6.74972 106.285 6.64792C106.34 6.53932 106.367 6.40698 106.367 6.25087C106.367 6.0269 106.292 5.85044 106.143 5.72148C106 5.58574 105.8 5.47036 105.542 5.37535L105.003 5.18191C104.629 5.04617 104.331 4.86971 104.107 4.65252C103.89 4.43534 103.781 4.13331 103.781 3.74645C103.781 3.55642 103.818 3.37656 103.893 3.20688C103.974 3.03042 104.09 2.87771 104.239 2.74876C104.388 2.6198 104.572 2.518 104.789 2.44334C105.006 2.36189 105.254 2.32117 105.532 2.32117C105.708 2.32117 105.895 2.34832 106.092 2.40262C106.296 2.45013 106.441 2.49764 106.53 2.54514L106.611 2.32117H106.876V3.73627H106.52L106.245 2.98291C106.129 2.87432 106.004 2.79287 105.868 2.73858C105.739 2.68428 105.593 2.65713 105.43 2.65713C105.186 2.65713 104.979 2.72161 104.809 2.85056C104.646 2.97952 104.565 3.17634 104.565 3.44104C104.565 3.68537 104.636 3.88559 104.779 4.04169C104.921 4.19779 105.128 4.32335 105.4 4.41837L106.122 4.67289C106.272 4.72718 106.411 4.79166 106.54 4.86632C106.676 4.94097 106.791 5.0326 106.886 5.14119C106.988 5.243 107.066 5.36516 107.12 5.50769C107.181 5.64343 107.212 5.79954 107.212 5.976C107.212 6.19318 107.164 6.3934 107.069 6.57665C106.981 6.75312 106.855 6.90583 106.693 7.03478C106.537 7.16373 106.346 7.26215 106.122 7.33002C105.899 7.40467 105.654 7.442 105.389 7.442C105.172 7.442 104.962 7.41146 104.758 7.35038C104.561 7.29608 104.392 7.2316 104.249 7.15695L104.178 7.442H103.913L103.801 5.86401Z" fill="white"/>
<path d="M109.668 7.03478L110.34 6.85153L110.371 5.89455V3.20688L109.74 2.85056V2.57569L110.951 2.39244H111.195V3.36977H111.236C111.372 3.07793 111.565 2.8302 111.816 2.62659C112.074 2.42298 112.37 2.32117 112.702 2.32117C112.96 2.32117 113.17 2.39922 113.333 2.55533C113.496 2.71143 113.578 2.90486 113.578 3.13562C113.578 3.29851 113.537 3.44782 113.456 3.58356C113.374 3.71252 113.245 3.77699 113.069 3.77699C112.872 3.77699 112.733 3.71591 112.651 3.59374C112.57 3.47158 112.529 3.33244 112.529 3.17634C112.529 3.07453 112.546 2.97952 112.58 2.89128C112.526 2.87092 112.468 2.86074 112.407 2.86074C112.305 2.86074 112.197 2.8845 112.081 2.93201C111.966 2.97952 111.854 3.04399 111.745 3.12544C111.643 3.20688 111.548 3.30869 111.46 3.43085C111.372 3.54623 111.297 3.67519 111.236 3.81772V6.91261L112.122 6.98388V7.31984H109.668V7.03478Z" fill="white"/>
<path d="M113.81 6.30178C113.81 6.07102 113.857 5.87419 113.952 5.7113C114.054 5.54163 114.197 5.3991 114.38 5.28372C114.57 5.16155 114.801 5.05975 115.072 4.9783C115.344 4.89007 115.653 4.80863 115.999 4.73397L116.559 4.6118V3.85844C116.559 3.49194 116.477 3.21367 116.314 3.02363C116.158 2.83359 115.907 2.73858 115.561 2.73858C115.446 2.73858 115.327 2.75554 115.205 2.78948C115.082 2.82341 114.984 2.86753 114.909 2.92183C114.923 2.9897 114.933 3.06096 114.94 3.13562C114.953 3.20349 114.96 3.27815 114.96 3.35959C114.96 3.52927 114.92 3.6718 114.838 3.78718C114.763 3.90255 114.634 3.96024 114.451 3.96024C114.309 3.96024 114.2 3.91613 114.125 3.8279C114.058 3.73967 114.024 3.62768 114.024 3.49194C114.024 3.3019 114.081 3.13562 114.197 2.99309C114.312 2.84377 114.458 2.72161 114.634 2.62659C114.811 2.52478 115.004 2.45013 115.215 2.40262C115.425 2.34832 115.625 2.32117 115.815 2.32117C116.895 2.32117 117.434 2.81323 117.434 3.79736V6.87189L118.167 6.96352V7.21803L117.76 7.36056C117.692 7.38771 117.624 7.40807 117.556 7.42164C117.488 7.43522 117.407 7.442 117.312 7.442C117.183 7.442 117.074 7.41485 116.986 7.36056C116.905 7.30626 116.837 7.23839 116.783 7.15695C116.728 7.0755 116.688 6.98388 116.66 6.88207C116.64 6.78026 116.626 6.68185 116.62 6.58683H116.599C116.538 6.69543 116.46 6.80063 116.365 6.90243C116.27 7.00424 116.158 7.09586 116.029 7.17731C115.907 7.25875 115.768 7.32323 115.612 7.37074C115.456 7.41825 115.283 7.442 115.093 7.442C114.916 7.442 114.75 7.41825 114.594 7.37074C114.438 7.32323 114.302 7.25196 114.187 7.15695C114.071 7.05514 113.98 6.93297 113.912 6.79045C113.844 6.64792 113.81 6.48503 113.81 6.30178ZM114.716 6.08799C114.716 6.37304 114.791 6.57665 114.94 6.69882C115.096 6.82099 115.293 6.88207 115.53 6.88207C115.7 6.88207 115.883 6.83456 116.08 6.73954C116.284 6.64452 116.443 6.53254 116.559 6.40358V4.98848L115.978 5.06993C115.619 5.12422 115.317 5.22942 115.072 5.38553C114.835 5.53484 114.716 5.76899 114.716 6.08799Z" fill="white"/>
<path d="M118.555 4.91722C118.555 4.53714 118.612 4.18761 118.728 3.86862C118.85 3.54963 119.016 3.27815 119.227 3.05417C119.444 2.82341 119.695 2.64356 119.98 2.5146C120.272 2.38565 120.591 2.32117 120.937 2.32117C121.168 2.32117 121.378 2.33475 121.568 2.36189C121.765 2.38226 121.931 2.4128 122.067 2.45352V0.753363L121.334 0.376681V0.132348L122.708 0H122.963L122.932 0.956975V6.87189L123.665 6.9737V7.27911L122.352 7.45218H122.148V6.62756H122.108C121.945 6.8651 121.748 7.05853 121.517 7.20785C121.287 7.35038 121.012 7.42164 120.693 7.42164C120.34 7.42164 120.028 7.36056 119.756 7.23839C119.491 7.11622 119.271 6.94655 119.094 6.72936C118.918 6.50539 118.782 6.24069 118.687 5.93528C118.599 5.62986 118.555 5.29051 118.555 4.91722ZM119.532 4.81541C119.532 5.10726 119.566 5.37535 119.634 5.61968C119.702 5.86401 119.8 6.07781 119.929 6.26106C120.065 6.43752 120.228 6.57665 120.418 6.67846C120.608 6.77348 120.828 6.82099 121.08 6.82099C121.317 6.82099 121.521 6.77008 121.69 6.66828C121.86 6.56647 121.986 6.45788 122.067 6.3425V3.21706C121.952 3.0406 121.802 2.90486 121.619 2.80984C121.436 2.70803 121.215 2.65713 120.957 2.65713C120.543 2.65713 120.201 2.84377 119.929 3.21706C119.664 3.58356 119.532 4.11635 119.532 4.81541Z" fill="white"/>
<path d="M124.085 6.30178C124.085 6.07102 124.133 5.87419 124.228 5.7113C124.33 5.54163 124.472 5.3991 124.656 5.28372C124.846 5.16155 125.076 5.05975 125.348 4.9783C125.619 4.89007 125.928 4.80863 126.274 4.73397L126.834 4.6118V3.85844C126.834 3.49194 126.753 3.21367 126.59 3.02363C126.434 2.83359 126.183 2.73858 125.837 2.73858C125.721 2.73858 125.602 2.75554 125.48 2.78948C125.358 2.82341 125.26 2.86753 125.185 2.92183C125.199 2.9897 125.209 3.06096 125.216 3.13562C125.229 3.20349 125.236 3.27815 125.236 3.35959C125.236 3.52927 125.195 3.6718 125.114 3.78718C125.039 3.90255 124.91 3.96024 124.727 3.96024C124.584 3.96024 124.476 3.91613 124.401 3.8279C124.333 3.73967 124.299 3.62768 124.299 3.49194C124.299 3.3019 124.357 3.13562 124.472 2.99309C124.588 2.84377 124.734 2.72161 124.91 2.62659C125.087 2.52478 125.28 2.45013 125.49 2.40262C125.701 2.34832 125.901 2.32117 126.091 2.32117C127.17 2.32117 127.71 2.81323 127.71 3.79736V6.87189L128.443 6.96352V7.21803L128.036 7.36056C127.968 7.38771 127.9 7.40807 127.832 7.42164C127.764 7.43522 127.683 7.442 127.588 7.442C127.459 7.442 127.35 7.41485 127.262 7.36056C127.18 7.30626 127.113 7.23839 127.058 7.15695C127.004 7.0755 126.963 6.98388 126.936 6.88207C126.916 6.78026 126.902 6.68185 126.895 6.58683H126.875C126.814 6.69543 126.736 6.80063 126.641 6.90243C126.546 7.00424 126.434 7.09586 126.305 7.17731C126.183 7.25875 126.044 7.32323 125.887 7.37074C125.731 7.41825 125.558 7.442 125.368 7.442C125.192 7.442 125.026 7.41825 124.869 7.37074C124.713 7.32323 124.578 7.25196 124.462 7.15695C124.347 7.05514 124.255 6.93297 124.187 6.79045C124.119 6.64792 124.085 6.48503 124.085 6.30178ZM124.992 6.08799C124.992 6.37304 125.066 6.57665 125.216 6.69882C125.372 6.82099 125.568 6.88207 125.806 6.88207C125.976 6.88207 126.159 6.83456 126.356 6.73954C126.559 6.64452 126.719 6.53254 126.834 6.40358V4.98848L126.254 5.06993C125.894 5.12422 125.592 5.22942 125.348 5.38553C125.11 5.53484 124.992 5.76899 124.992 6.08799Z" fill="white"/>
<path d="M128.718 7.03478L129.39 6.85153L129.421 5.89455V3.20688L128.79 2.85056V2.57569L130.001 2.39244H130.245V3.36977H130.286C130.422 3.07793 130.615 2.8302 130.866 2.62659C131.124 2.42298 131.42 2.32117 131.752 2.32117C132.01 2.32117 132.22 2.39922 132.383 2.55533C132.546 2.71143 132.628 2.90486 132.628 3.13562C132.628 3.29851 132.587 3.44782 132.506 3.58356C132.424 3.71252 132.295 3.77699 132.119 3.77699C131.922 3.77699 131.783 3.71591 131.701 3.59374C131.62 3.47158 131.579 3.33244 131.579 3.17634C131.579 3.07453 131.596 2.97952 131.63 2.89128C131.576 2.87092 131.518 2.86074 131.457 2.86074C131.355 2.86074 131.247 2.8845 131.131 2.93201C131.016 2.97952 130.904 3.04399 130.795 3.12544C130.693 3.20688 130.598 3.30869 130.51 3.43085C130.422 3.54623 130.347 3.67519 130.286 3.81772V6.91261L131.172 6.98388V7.31984H128.718V7.03478Z" fill="white"/>
<g clip-path="url(#clip0_506_900)">
<path d="M0 16.7795C9.73636 16.7795 19.3287 16.2795 28.8454 16.9311C37.0133 17.4918 42.249 22.7123 43.4385 29.5921C44.8706 37.8964 41.8322 43.9656 34.2023 48.042C33.7704 48.2693 33.3536 48.542 32.5278 49.0345C36.6042 54.7551 40.5972 60.362 45.1282 66.7191C40.5138 66.7191 36.589 66.8176 32.6717 66.6357C31.9065 66.5979 31.0427 65.5826 30.482 64.8249C28.3832 61.9835 25.9586 59.2634 24.4583 56.119C21.6473 50.2241 17.086 49.7619 11.1835 51.1106V66.5524H0V16.7795ZM11.2972 40.7984C16.2828 40.7984 20.9502 41.0788 25.5646 40.7151C29.6334 40.3968 32.1338 37.3509 32.1641 33.6761C32.1944 30.0619 29.9895 27.016 26.0571 26.6523C21.2381 26.2052 16.3434 26.5462 11.2972 26.5462V40.806V40.7984Z" fill="white"/>
<path d="M112.07 66.1357V17.0447C121.155 17.0447 130.179 16.1128 138.931 17.2645C152.092 18.9996 160.267 28.9329 160.396 41.2076C160.525 53.755 152.531 64.0217 139.325 65.8932C130.475 67.151 121.307 66.1357 112.07 66.1357ZM123.519 25.9855V56.7327C127.8 56.7327 131.854 57.1267 135.801 56.6494C143.136 55.7629 148.068 50.0802 148.432 42.7987C148.834 34.8051 144.772 28.6071 137.286 27.0084C132.93 26.0764 128.331 26.3037 123.519 25.9855Z" fill="white"/>
<path d="M204.372 15.9839H215.306C215.367 17.325 215.473 18.651 215.48 19.9845C215.503 28.4479 215.382 36.9189 215.556 45.3748C215.707 52.7396 219.837 56.8463 226.755 56.9296C233.922 57.0205 238.241 53.1639 238.438 45.9507C238.666 37.4948 238.529 29.0238 238.552 20.5604C238.552 19.1889 238.552 17.8099 238.552 16.143H249.932C249.932 20.4922 249.948 24.7504 249.932 29.0011C249.902 35.1914 250.099 41.3969 249.735 47.5645C249.099 58.4147 242.477 65.3021 231.755 66.6357C229.513 66.916 227.224 67.0448 224.967 66.9463C211.858 66.3705 204.478 58.9905 204.168 45.8597C203.948 36.5174 204.115 27.1674 204.122 17.8175C204.122 17.325 204.259 16.8401 204.388 15.9839H204.372Z" fill="white"/>
<path d="M106.244 66.9918C102.364 66.9918 99.2275 67.1888 96.1437 66.8781C95.1208 66.7796 93.5675 65.5067 93.3781 64.552C91.7718 56.3992 86.5892 54.5126 79.141 55.6339C76.0572 56.0961 72.8446 55.8309 69.7002 55.6718C67.5938 55.5657 66.336 56.2931 65.7905 58.3162C65.7223 58.5586 65.5935 58.7784 65.495 59.0133C62.8784 65.0394 57.9888 67.5752 50.826 66.6205C51.2731 65.4309 51.6292 64.2944 52.1065 63.2109C58.6151 48.5798 65.2146 33.9791 71.6096 19.295C72.64 16.9234 73.9584 16.4233 76.383 16.143C81.7854 15.5292 84.5585 17.3629 86.7028 22.6137C92.7037 37.3129 99.4472 51.7015 106.244 66.9842V66.9918ZM71.0792 45.8824H85.3162C82.9598 40.3892 80.7625 35.2671 78.1939 29.2662C75.6178 35.2747 73.4432 40.3664 71.0792 45.8824Z" fill="white"/>
<path d="M295.833 21.3484C294.901 22.7123 294.167 23.8488 293.371 24.955C292.28 26.4704 291.151 27.9555 290.204 29.2284C286.484 27.7585 283.203 26.0688 279.717 25.2278C277.391 24.6671 274.679 24.955 272.33 25.5915C271.11 25.9249 269.549 27.8191 269.526 29.0314C269.496 30.4483 270.655 32.3956 271.89 33.1987C273.732 34.3959 276.08 34.8354 278.24 35.5173C281.596 36.5856 285.074 37.3509 288.332 38.6769C295.023 41.3894 297.591 45.3521 297.425 51.9744C297.265 58.3087 293.856 63.3095 287.552 65.3552C276.088 69.0755 265.738 66.3251 255.744 59.1043C258.032 56.4523 260.131 54.0277 261.843 52.035C266.715 53.8459 271.171 55.7931 275.808 57.0888C277.853 57.6571 280.437 57.354 282.453 56.5887C283.93 56.028 285.718 54.1565 285.847 52.7321C285.968 51.3531 284.476 49.2088 283.112 48.4511C280.74 47.1327 277.914 46.6099 275.277 45.7764C272.512 44.9051 269.701 44.1853 266.988 43.1851C261.214 41.0484 257.918 37.0857 257.934 30.6453C257.949 24.0761 260.957 19.3784 266.912 17.0371C277.156 13.0138 286.635 15.3248 295.826 21.3484H295.833Z" fill="white"/>
<path d="M182.21 21.8408C182.937 17.5902 185.173 15.5671 189.734 16.1581C192.568 16.5218 195.492 16.2263 198.872 16.2263C198.182 17.8175 197.743 18.954 197.205 20.0375C189.984 34.6307 182.695 49.2011 175.573 63.8397C174.482 66.0901 173.254 67.0902 170.701 66.9236C167.23 66.6962 163.73 66.8705 159.57 66.8705C165.018 55.8537 170.14 45.4808 175.239 35.1686C181.149 36.2067 183.877 35.3278 185.589 31.9636C187.287 28.6222 186.362 25.8566 182.21 21.8408Z" fill="white"/>
</g>
<defs>
<clipPath id="clip0_506_900">
<rect width="297.44" height="52.2884" fill="white" transform="translate(0 15.0291)"/>
</clipPath>
</defs>
</svg>
